<svg width="41" height="41" viewBox="0 0 41 41" fill="none" xmlns="http://www.w3.org/2000/svg">
<path d="M13.8289 39.3556C9.93047 37.9762 6.55544 35.4224 4.16843 32.0456C1.78143 28.6689 0.499804 24.6352 0.5 20.5C0.5 17.8736 1.01732 15.2728 2.02241 12.8463C3.0275 10.4198 4.50069 8.21504 6.35786 6.35786C8.21504 4.50069 10.4198 3.0275 12.8463 2.02241C15.2728 1.01732 17.8736 0.5 20.5 0.5C23.1264 0.5 25.7272 1.01732 28.1537 2.02241C30.5802 3.0275 32.785 4.50069 34.6421 6.35786C36.4993 8.21504 37.9725 10.4198 38.9776 12.8463C39.9827 15.2728 40.5 17.8736 40.5 20.5" stroke="#214759" stroke-linecap="round" stroke-linejoin="round"/>
<path d="M20.5 9.38889V20.5" stroke="#214759" stroke-linecap="round" stroke-linejoin="round"/>
<path d="M20.5 27.1667H24.9444C25.5338 27.1667 26.099 27.4008 26.5158 27.8175C26.9325 28.2343 27.1667 28.7995 27.1667 29.3889V31.6111C27.1667 32.2005 26.9325 32.7657 26.5158 33.1825C26.099 33.5992 25.5338 33.8333 24.9444 33.8333H22.7222C22.1329 33.8333 21.5676 34.0675 21.1509 34.4842C20.7341 34.9009 20.5 35.4662 20.5 36.0556V38.2778C20.5 38.8671 20.7341 39.4324 21.1509 39.8491C21.5676 40.2659 22.1329 40.5 22.7222 40.5H27.1667" stroke="#214759" stroke-linecap="round" stroke-linejoin="round"/>
<path d="M33.8333 27.1667V31.6111C33.8333 32.2005 34.0675 32.7657 34.4842 33.1825C34.9009 33.5992 35.4662 33.8333 36.0556 33.8333L40 33.8333" stroke="#214759" stroke-linecap="round" stroke-linejoin="round"/>
<path d="M40.5 27.1667V40.5" stroke="#214759" stroke-linecap="round" stroke-linejoin="round"/>
</svg>
