<svg width="41" height="41" viewBox="0 0 41 41" fill="none" xmlns="http://www.w3.org/2000/svg">
<path d="M37.4231 0.5H3.57692C1.87758 0.5 0.5 1.58731 0.5 2.92857V15.0714C0.5 16.4127 1.87758 17.5 3.57692 17.5H20.5H37.4231C39.1225 17.5 40.5 16.4127 40.5 15.0714V2.92857C40.5 1.58731 39.1225 0.5 37.4231 0.5Z" stroke="#214759" stroke-linecap="round" stroke-linejoin="round"/>
<path d="M32.5 16.5V12.5C32.5 11.9696 32.1838 11.4609 31.6213 11.0858C31.0588 10.7107 30.2956 10.5 29.5 10.5H11.5C10.7043 10.5 9.94129 10.7107 9.37867 11.0858C8.81608 11.4609 8.5 11.9696 8.5 12.5V16.5" stroke="#214759" stroke-linecap="round" stroke-linejoin="round"/>
<path d="M6.65384 37.4231H6.96153C9.34061 37.4231 11.2692 35.4945 11.2692 33.1154V22.5" stroke="#214759" stroke-linecap="round" stroke-linejoin="round"/>
<path d="M34.3462 37.4231H34.0385C31.6594 37.4231 29.7308 35.4945 29.7308 33.1154V22.5" stroke="#214759" stroke-linecap="round" stroke-linejoin="round"/>
<path d="M20.5 40.5V22.5" stroke="#214759" stroke-linecap="round" stroke-linejoin="round"/>
</svg>
