<svg width="35" height="41" viewBox="0 0 35 41" fill="none" xmlns="http://www.w3.org/2000/svg">
<path d="M28.55 30.3755H6.45V40.5H28.55V30.3755Z" stroke="#214759" stroke-miterlimit="10" stroke-linecap="round" stroke-linejoin="round"/>
<path d="M8.14999 0.5H26.85" stroke="#214759" stroke-miterlimit="10" stroke-linecap="round" stroke-linejoin="round"/>
<path d="M9.85002 0.50003C11.8805 4.46476 11.0846 9.25322 7.8742 12.3876L7.87411 12.3877C3.43779 16.7189 3.71727 23.8207 8.48067 27.807L11.55 30.3755H23.45L26.5194 27.807C31.2828 23.8207 31.5622 16.7189 27.1259 12.3877L27.1258 12.3876C23.9155 9.25322 23.1195 4.46476 25.15 0.50003H9.85002Z" stroke="#214759" stroke-miterlimit="10" stroke-linecap="round" stroke-linejoin="round"/>
<path d="M29.5962 16.1351L33.2552 12.5627C34.9149 10.9423 34.9149 8.31507 33.2552 6.69457C31.5955 5.07416 28.9045 5.07416 27.2448 6.69457L24.838 9.04437" stroke="#214759" stroke-miterlimit="10" stroke-linecap="round" stroke-linejoin="round"/>
<path d="M5.40378 16.1351L1.74478 12.5627C0.0850724 10.9423 0.0850724 8.31507 1.74478 6.69457C3.40449 5.07416 6.09551 5.07416 7.75522 6.69457L10.162 9.04437" stroke="#214759" stroke-miterlimit="10" stroke-linecap="round" stroke-linejoin="round"/>
<path d="M10.9495 5.47925H24.0506" stroke="#214759" stroke-miterlimit="10" stroke-linecap="round" stroke-linejoin="round"/>
<path d="M4.74493 19.5872L8.99442 21.2469L13.245 19.5872L17.4932 21.2469L21.7453 19.5872L26.0002 21.2469L30.2551 19.5872" stroke="#214759" stroke-miterlimit="10" stroke-linecap="round" stroke-linejoin="round"/>
<path d="M3.89999 30.3755H31.1" stroke="#214759" stroke-miterlimit="10" stroke-linecap="round" stroke-linejoin="round"/>
<path d="M23.025 40.5V30.3755" stroke="#214759" stroke-miterlimit="10" stroke-linecap="round" stroke-linejoin="round"/>
<path d="M17.5 40.5V30.3755" stroke="#214759" stroke-miterlimit="10" stroke-linecap="round" stroke-linejoin="round"/>
<path d="M11.975 40.5V30.3755" stroke="#214759" stroke-miterlimit="10" stroke-linecap="round" stroke-linejoin="round"/>
</svg>
