<svg width="41" height="41" viewBox="0 0 41 41" fill="none" xmlns="http://www.w3.org/2000/svg">
<path d="M2.5 28.5V30.5C2.5 36.0228 6.97715 40.5 12.5 40.5H28.5C34.0228 40.5 38.5 36.0228 38.5 30.5V24.5" stroke="#214759" stroke-linecap="round" stroke-linejoin="round"/>
<path d="M27.6176 20.9706L27.3824 20.5294L27.6176 20.9706ZM21.8824 24.0294L22.1176 24.4706L21.8824 24.0294ZM38.5 24.5V24H30V24.5V25H38.5V24.5ZM28.1176 24.9706L27.8824 24.5294L22.1471 27.5882L22.3824 28.0294L22.6176 28.4706L28.3529 25.4118L28.1176 24.9706ZM20.5 28.5V28H2.5V28.5V29H20.5V28.5ZM2.5 24.5V25H20V24.5V24H2.5V24.5ZM21.8824 24.0294L22.1176 24.4706L27.8529 21.4118L27.6176 20.9706L27.3824 20.5294L21.6471 23.5882L21.8824 24.0294ZM29.5 20.5V21H38.5V20.5V20H29.5V20.5ZM38.5 20.5V21C39.3284 21 40 21.6716 40 22.5H40.5H41C41 21.1193 39.8807 20 38.5 20V20.5ZM27.6176 20.9706L27.8529 21.4118C28.3598 21.1414 28.9255 21 29.5 21V20.5V20C28.7614 20 28.0341 20.1818 27.3824 20.5294L27.6176 20.9706ZM20 24.5V25C20.7386 25 21.4659 24.8182 22.1176 24.4706L21.8824 24.0294L21.6471 23.5882C21.1402 23.8586 20.5745 24 20 24V24.5ZM0.5 26.5H1C1 25.6716 1.67157 25 2.5 25V24.5V24C1.11929 24 0 25.1193 0 26.5H0.5ZM2.5 28.5V28C1.67157 28 1 27.3284 1 26.5H0.5H0C0 27.8807 1.11929 29 2.5 29V28.5ZM22.3824 28.0294L22.1471 27.5882C21.6402 27.8586 21.0745 28 20.5 28V28.5V29C21.2386 29 21.9659 28.8182 22.6176 28.4706L22.3824 28.0294ZM30 24.5V24C29.2614 24 28.5341 24.1818 27.8824 24.5294L28.1176 24.9706L28.3529 25.4118C28.8598 25.1414 29.4255 25 30 25V24.5ZM38.5 24.5V25C39.8807 25 41 23.8807 41 22.5H40.5H40C40 23.3284 39.3284 24 38.5 24V24.5Z" fill="#214759"/>
<path d="M7 24.5C4.98968 24.5 4.5 23 4.5 22C4.5 20.067 6.12968 18.5 8.14 18.5C8.32393 18.5 8.50473 18.5128 8.68133 18.5381C8.92538 15.7167 11.3828 13.5 14.38 13.5C16.1896 13.5 17.8016 14.309 18.8498 15.5703C19.0857 15.5241 19.3299 15.5 19.58 15.5C20.5123 15.5 21.3623 15.8374 22.0063 16.3916C22.8548 15.2468 24.2466 14.5 25.82 14.5C28.4047 14.5 30.5 16.5147 30.5 19C30.5 19.6667 30.5 20 29.9927 20.5" stroke="#214759" stroke-linecap="round" stroke-linejoin="round"/>
<circle cx="35" cy="5" r="4.5" stroke="#214759" stroke-linecap="round"/>
<circle cx="4" cy="10" r="3.5" stroke="#214759" stroke-linecap="round"/>
<circle cx="21.5" cy="9.5" r="2" stroke="#214759" stroke-linecap="round"/>
</svg>
