<svg width="41" height="41" viewBox="0 0 41 41" fill="none" xmlns="http://www.w3.org/2000/svg">
<path d="M30.488 7.50092C32.5018 8.84413 34.2241 10.5799 35.5518 12.6043C36.8796 14.6287 37.7854 16.9003 38.2152 19.283C38.9635 19.767 39.5689 20.4423 39.9687 21.239C40.3685 22.0357 40.5481 22.9249 40.489 23.8143C40.4298 24.7038 40.1341 25.5613 39.6323 26.298C39.1306 27.0347 38.4411 27.6239 37.6352 28.0045C36.4694 31.6336 34.1821 34.799 31.1027 37.0445C28.0233 39.2901 24.3108 40.5 20.5 40.5C16.6892 40.5 12.9767 39.2901 9.89732 37.0445C6.81794 34.799 4.5306 31.6336 3.36477 28.0045C2.55892 27.6239 1.86942 27.0347 1.36767 26.298C0.865926 25.5613 0.570169 24.7038 0.511024 23.8143C0.451879 22.9249 0.631496 22.0357 1.03128 21.239C1.43106 20.4423 2.03647 19.767 2.78483 19.283C3.20607 16.9475 4.08478 14.7184 5.37041 12.7238C6.65604 10.7293 8.32322 9.00865 10.2761 7.66094" stroke="#214759" stroke-linecap="round" stroke-linejoin="round"/>
<path d="M15.4895 30.5049C16.1412 31.1701 16.9191 31.6985 17.7775 32.0592C18.636 32.4199 19.5578 32.6057 20.489 32.6057C21.4202 32.6057 22.342 32.4199 23.2005 32.0592C24.0589 31.6985 24.8368 31.1701 25.4885 30.5049" stroke="#214759" stroke-linecap="round" stroke-linejoin="round"/>
<path d="M13.4897 0.500046C16.4894 2.5004 18.4892 7.50127 18.4892 10.5018" stroke="#214759" stroke-linecap="round" stroke-linejoin="round"/>
<path d="M21.4889 0.500046C24.4886 4.50075 25.4885 7.50127 25.4885 10.5018" stroke="#214759" stroke-linecap="round" stroke-linejoin="round"/>
<path d="M14.4896 22.5036H14.5096" stroke="#214759" stroke-width="2" stroke-linecap="round" stroke-linejoin="round"/>
<path d="M26.4884 22.5036H26.5084" stroke="#214759" stroke-width="2" stroke-linecap="round" stroke-linejoin="round"/>
</svg>
