<svg width="41" height="41" viewBox="0 0 41 41" fill="none" xmlns="http://www.w3.org/2000/svg">
<path d="M19.5731 24.0692L11.3649 32.0286C10.7168 32.6571 9.66586 32.6571 9.01774 32.0286L0.986096 24.2404C0.337968 23.6119 0.337968 22.5928 0.986096 21.9643L22.6351 0.971366C23.2832 0.342878 24.3341 0.342878 24.9823 0.971366L33.0139 8.75962C33.662 9.38811 33.662 10.4072 33.0139 11.0357L24.8337 18.968" stroke="#214759" stroke-miterlimit="10" stroke-linecap="round" stroke-linejoin="round"/>
<path d="M31.3399 6.5L28.5 3.66008L30.0719 2.08817C30.8561 1.30394 32.1276 1.30394 32.9118 2.08817C33.6961 2.8724 33.6961 4.14386 32.9118 4.92809L31.3399 6.5Z" stroke="#214759" stroke-miterlimit="10" stroke-linecap="round" stroke-linejoin="round"/>
<path d="M2.08817 31.9118C1.30394 31.1276 1.30394 29.8561 2.08817 29.0719L3.66008 27.5L6.5 30.3399L4.92809 31.9118C4.14378 32.6961 2.87232 32.6961 2.08817 31.9118Z" stroke="#214759" stroke-miterlimit="10" stroke-linecap="round" stroke-linejoin="round"/>
<path d="M31.6288 12.5L40.2177 21.0889C40.7061 21.5772 40.5366 22.4056 39.8957 22.663L36.6993 23.9463L34.8728 28.4956L30.3232 30.3223L28.4967 34.8717L23.9468 36.6987L22.663 39.8957C22.4057 40.5366 21.5773 40.706 21.0889 40.2178L12.5 31.6287" stroke="#214759" stroke-miterlimit="10" stroke-linecap="round" stroke-linejoin="round"/>
</svg>
