<svg width="41" height="41" viewBox="0 0 41 41" fill="none" xmlns="http://www.w3.org/2000/svg">
<path d="M18.5134 26.3388L5.13918 39.7039C4.88691 39.9563 4.58737 40.1564 4.25766 40.293C3.92797 40.4296 3.57459 40.5 3.21772 40.5C2.86083 40.5 2.50745 40.4296 2.17776 40.293C1.84807 40.1564 1.54853 39.9563 1.29626 39.7039C1.04383 39.4517 0.843566 39.1523 0.706945 38.8226C0.570323 38.493 0.5 38.1396 0.5 37.783C0.5 37.4261 0.570323 37.0729 0.706945 36.7432C0.843566 36.4137 1.04383 36.1142 1.29626 35.862L14.665 22.4915" stroke="#214759" stroke-linecap="round" stroke-linejoin="round"/>
<path d="M39.7146 12.8181L33.952 7.05705L28.1894 1.29604C27.9372 1.04368 27.6376 0.843472 27.308 0.706888C26.9783 0.570304 26.6249 0.5 26.268 0.5C25.9112 0.5 25.5577 0.570304 25.2281 0.706888C24.8983 0.843472 24.5988 1.04368 24.3465 1.29604L18.4717 7.16931C16.5591 9.1579 15.1958 11.6089 14.5152 14.2824C13.8346 16.9559 13.86 19.7602 14.589 22.4209L16.581 24.4124L18.5731 26.404C21.2345 27.1329 24.0398 27.1582 26.7139 26.4778C29.3881 25.7975 31.8399 24.4345 33.8289 22.5223L39.7037 16.6491C40.2117 16.1416 40.498 15.4537 40.5 14.7358C40.502 14.0179 40.2197 13.3284 39.7146 12.8181Z" stroke="#214759" stroke-linecap="round" stroke-linejoin="round"/>
<path d="M7.05884 30.101L10.9018 33.9429" stroke="#214759" stroke-linecap="round" stroke-linejoin="round"/>
<path d="M26.268 7.05688L19.5457 13.7793" stroke="#214759" stroke-linecap="round" stroke-linejoin="round"/>
<path d="M30.1091 10.8989L23.3867 17.6194" stroke="#214759" stroke-linecap="round" stroke-linejoin="round"/>
<path d="M33.952 14.7389L27.2278 21.4595" stroke="#214759" stroke-linecap="round" stroke-linejoin="round"/>
</svg>
