<svg width="34" height="41" viewBox="0 0 34 41" fill="none" xmlns="http://www.w3.org/2000/svg">
<path d="M1.08429 20.5H33.0843" stroke="#214759" stroke-miterlimit="10" stroke-linecap="round" stroke-linejoin="round"/>
<path d="M17 24.7253C14.6375 24.7253 12.7222 22.8336 12.7222 20.5C12.7222 18.1664 14.6375 16.2746 17 16.2746C19.3626 16.2746 21.2778 18.1664 21.2778 20.5C21.2778 22.8336 19.3626 24.7253 17 24.7253Z" stroke="#214759" stroke-miterlimit="10" stroke-linecap="round" stroke-linejoin="round"/>
<path d="M21.2778 0.500037V8.4276C21.2778 10.7612 19.3626 12.653 17 12.653C14.6375 12.653 12.7222 10.7612 12.7222 8.4276V0.500037" stroke="#214759" stroke-miterlimit="10" stroke-linecap="round" stroke-linejoin="round"/>
<path d="M12.7222 8.42755H21.2778" stroke="#214759" stroke-miterlimit="10" stroke-linecap="round" stroke-linejoin="round"/>
<path d="M5.38895 0.500037V1.18414C5.38895 7.51823 10.5875 12.653 17.0001 12.653C23.4127 12.653 28.6112 7.51823 28.6112 1.18414V0.500037" stroke="#214759" stroke-miterlimit="10" stroke-linecap="round" stroke-linejoin="round"/>
<path d="M21.2778 40.5V32.5724C21.2778 30.2388 19.3626 28.3471 17 28.3471C14.6375 28.3471 12.7222 30.2388 12.7222 32.5724V40.5" stroke="#214759" stroke-miterlimit="10" stroke-linecap="round" stroke-linejoin="round"/>
<path d="M12.7222 32.5724H21.2778" stroke="#214759" stroke-miterlimit="10" stroke-linecap="round" stroke-linejoin="round"/>
<path d="M5.38895 40.5V39.8159C5.38895 33.4818 10.5875 28.3471 17.0001 28.3471C23.4127 28.3471 28.6112 33.4818 28.6112 39.8159V40.5" stroke="#214759" stroke-miterlimit="10" stroke-linecap="round" stroke-linejoin="round"/>
<path d="M0.5 0.499999H33.5V40.5H0.5V0.499999Z" stroke="#214759" stroke-miterlimit="10" stroke-linecap="round" stroke-linejoin="round"/>
</svg>
