<svg width="41" height="39" viewBox="0 0 41 39" fill="none" xmlns="http://www.w3.org/2000/svg">
<path d="M8.00046 31.9439C7.39354 31.4857 6.78669 30.826 6.37374 30.1296C4.66492 27.2524 5.60263 23.5277 8.46814 21.8119C11.3337 20.0962 15.041 21.0376 16.7499 23.9171C17.6465 25.4244 17.8153 27.1677 17.359 28.73C17.3499 28.7574 17.3225 28.8377 17.3157 28.8651" stroke="#214759" stroke-miterlimit="10" stroke-linecap="round" stroke-linejoin="round"/>
<path d="M10.9549 30.377C10.9161 30.3313 10.8067 30.1869 10.7679 30.1411C10.3115 29.5981 9.86672 28.9728 9.45601 28.2833C7.7472 25.406 7.30463 22.5083 8.46817 21.812C9.62937 21.1156 11.9588 22.884 13.6676 25.7635C14.3293 26.8768 14.7992 27.9947 15.0616 28.9843C15.073 29.0209 15.0981 29.1424 15.1072 29.179" stroke="#214759" stroke-miterlimit="10" stroke-linecap="round" stroke-linejoin="round"/>
<path d="M26.0126 10.7178L23.6582 28.9384" stroke="#214759" stroke-miterlimit="10" stroke-linecap="round" stroke-linejoin="round"/>
<path d="M16.7065 3.21797C19.3599 1.2823 22.8802 0.13693 27.1238 0.604241C34.8716 1.46323 39.0946 7.04809 40.0414 12.2709L26.0126 10.7179L11.9861 9.16703C12.5748 7.76744 14.3852 4.91143 16.7065 3.21797Z" stroke="#214759" stroke-miterlimit="10" stroke-linecap="round" stroke-linejoin="round"/>
<path d="M27.1237 0.604216C22.9303 2.40017 20.4664 6.693 20.0968 10.0649" stroke="#214759" stroke-miterlimit="10" stroke-linecap="round" stroke-linejoin="round"/>
<path d="M27.8949 0.707295C31.5977 3.37597 33.0738 8.10411 32.702 11.4761" stroke="#214759" stroke-miterlimit="10" stroke-linecap="round" stroke-linejoin="round"/>
<path d="M20.0968 10.065L19.912 11.7396" stroke="#214759" stroke-miterlimit="10" stroke-linecap="round" stroke-linejoin="round"/>
<path d="M11.9861 9.16704L11.8014 10.8416" stroke="#214759" stroke-miterlimit="10" stroke-linecap="round" stroke-linejoin="round"/>
<path d="M32.6883 11.4577L32.5057 13.1323" stroke="#214759" stroke-miterlimit="10" stroke-linecap="round" stroke-linejoin="round"/>
<path d="M40.0414 12.2709L39.8566 13.9455" stroke="#214759" stroke-miterlimit="10" stroke-linecap="round" stroke-linejoin="round"/>
<path d="M21.2513 33.8842C25.0658 34.9563 29.4645 33.9277 33.1719 33.9208C36.4573 33.9162 39.1973 34.718 40.5 38.5H0.501245C0.430501 36.617 3.45577 34.34 8.18293 33.3206L8.18068 33.323C11.742 32.5532 16.2685 32.4982 21.1714 33.8612C21.1965 33.8681 21.2239 33.8773 21.2513 33.8842Z" stroke="#214759" stroke-miterlimit="10" stroke-linecap="round" stroke-linejoin="round"/>
<path d="M36.1128 34.2323C34.81 32.9563 31.832 31.0395 28.8622 30.0723C20.731 27.4242 10.1929 28.6566 5.6756 34.0284" stroke="#214759" stroke-miterlimit="10" stroke-linecap="round" stroke-linejoin="round"/>
</svg>
