<svg width="41" height="43" viewBox="0 0 41 43" fill="none" xmlns="http://www.w3.org/2000/svg">
<path d="M0.5 40.5001H40.5" stroke="#214759" stroke-linecap="round" stroke-linejoin="round"/>
<rect x="3.5" y="0.500061" width="34" height="40" stroke="#214759" stroke-linecap="round" stroke-linejoin="round"/>
<path d="M13.0265 0.500061C14.1457 7.38101 13.9495 21.5187 4.8006 25.3125C4.36941 25.4913 4.31197 26.1708 4.6985 26.4325C9.27048 29.528 10.1726 36.9326 10.0181 40.5001" stroke="#214759" stroke-linecap="round"/>
<path d="M27.9735 0.500061C26.8543 7.38101 27.0505 21.5187 36.1994 25.3125C36.6306 25.4913 36.688 26.1708 36.3015 26.4325C31.7295 29.528 30.8274 36.9326 30.9819 40.5001" stroke="#214759" stroke-linecap="round"/>
<path d="M26.0433 19.0104C23.0123 17.2604 18.8146 17.531 17.0646 20.562L21.1059 22.8954M26.0433 19.0104C29.0743 20.7604 30.9386 24.531 29.1886 27.562L23.1266 24.062M26.0433 19.0104L26.6266 18M26.0433 19.0104C23.9188 19.5797 22.5643 20.3695 21.1059 22.8954M26.0433 19.0104C26.6126 21.1349 26.6056 22.7029 25.1473 25.2287M21.1059 22.8954L23.1266 24.062M23.1266 24.062L19.3979 30.8334M19.3979 30.8334C17.1239 30.83 12.3979 32.0001 9.89795 36.5001M19.3979 30.8334C23.1266 30.8389 28.1848 32.332 30.8979 36.5001M10.0646 39L11.0913 37.768C11.3168 37.4971 11.6007 37.2808 11.9217 37.1353C12.2428 36.9898 12.5926 36.9189 12.945 36.9278C13.2973 36.9368 13.6431 37.0255 13.9563 37.1872C14.2695 37.3488 14.542 37.5793 14.7534 37.8614C14.9619 38.1396 15.2298 38.3677 15.5377 38.5291C15.8456 38.6905 16.1857 38.7811 16.533 38.7943C16.8804 38.8075 17.2264 38.7429 17.5456 38.6053C17.8648 38.4678 18.1493 38.2606 18.3783 37.999L18.5999 37.7447C18.8448 37.4646 19.1467 37.2401 19.4855 37.0863C19.8242 36.9324 20.192 36.8529 20.564 36.8529C20.9361 36.8529 21.3038 36.9324 21.6426 37.0863C21.9813 37.2401 22.2833 37.4646 22.5281 37.7447L22.7509 37.999C23.7286 39.1155 25.4856 39.049 26.3758 37.8625C26.5872 37.5803 26.8598 37.3496 27.1731 37.1878C27.4864 37.026 27.8323 36.9373 28.1848 36.9283C28.5373 36.9193 28.8873 36.9903 29.2085 37.1359C29.5296 37.2816 29.8136 37.4981 30.0391 37.7692L30.8979 39.0001" stroke="#214759" stroke-linecap="round" stroke-linejoin="round"/>
</svg>
