<svg width="41" height="41" viewBox="0 0 41 41" fill="none" xmlns="http://www.w3.org/2000/svg">
<path d="M25.866 35.5207H37.9566C39.3143 35.5207 40.4641 36.5861 40.4992 37.9446C40.5353 39.3496 39.4082 40.5 38.0126 40.5H24.9212C23.8865 40.5 22.8731 40.2058 21.999 39.6517L10.3416 32.2614C9.69502 31.8515 8.94547 31.6339 8.18008 31.6339H0.5V20.5" stroke="#214759" stroke-miterlimit="10" stroke-linecap="round" stroke-linejoin="round"/>
<path d="M16.3911 27.03L24.1486 34.7915C25.12 35.7638 26.6949 35.7638 27.6663 34.7915C28.6377 33.8192 28.6377 32.2429 27.6663 31.2707L18.3591 21.955C17.4588 21.0542 16.2123 20.5 14.59 20.5H0.5" stroke="#214759" stroke-miterlimit="10" stroke-linecap="round" stroke-linejoin="round"/>
<path d="M31.832 9.01385C31.832 3.62498 28.0782 0.5 28.0782 0.5C28.0782 0.5 24.3245 3.84514 24.3245 9.01385" stroke="#214759" stroke-miterlimit="10" stroke-linecap="round" stroke-linejoin="round"/>
<path d="M28.0782 18.5442C21.2379 18.5442 15.6929 12.9991 15.6929 6.15889V5.87781H16.3183C22.8131 5.87781 28.0782 11.1429 28.0782 17.6377V18.5442Z" stroke="#214759" stroke-miterlimit="10" stroke-linecap="round" stroke-linejoin="round"/>
<path d="M28.0781 18.5441V17.6377C28.0781 11.1429 33.3433 5.87781 39.838 5.87781H40.4634V6.15889C40.4634 12.999 34.9184 18.5441 28.0781 18.5441Z" stroke="#214759" stroke-miterlimit="10" stroke-linecap="round" stroke-linejoin="round"/>
<path d="M35.6569 6.63613C35.4536 3.86186 34.3548 2.07166 34.3548 2.07166C34.3548 2.07166 32.6302 2.79016 30.8845 4.46908" stroke="#214759" stroke-miterlimit="10" stroke-linecap="round" stroke-linejoin="round"/>
<path d="M20.655 6.69182C20.8591 3.9197 21.9613 2.07166 21.9613 2.07166C21.9613 2.07166 23.631 2.77074 25.3491 4.39472" stroke="#214759" stroke-miterlimit="10" stroke-linecap="round" stroke-linejoin="round"/>
</svg>
