<svg width="41" height="40" viewBox="0 0 41 40" fill="none" xmlns="http://www.w3.org/2000/svg">
<path d="M0.5 25.3518C0.5 26.2905 0.688204 27.22 1.05387 28.0873C1.41953 28.9545 1.95549 29.7425 2.63115 30.4063C3.3068 31.0701 4.10893 31.5966 4.99172 31.9559C5.8745 32.3151 6.82067 32.5 7.77619 32.5C8.73172 32.5 9.67788 32.3151 10.5607 31.9559C11.4435 31.5966 12.2456 31.0701 12.9212 30.4063C13.5969 29.7425 14.1329 28.9545 14.4985 28.0873C14.8642 27.22 15.0524 26.2905 15.0524 25.3518C15.0524 24.4131 14.8642 23.4835 14.4985 22.6163C14.1329 21.749 13.5969 20.961 12.9212 20.2972C12.2456 19.6334 11.4435 19.1069 10.5607 18.7477C9.67788 18.3884 8.73172 18.2036 7.77619 18.2036C6.82067 18.2036 5.8745 18.3884 4.99172 18.7477C4.10893 19.1069 3.3068 19.6334 2.63115 20.2972C1.95549 20.961 1.41953 21.749 1.05387 22.6163C0.688204 23.4835 0.5 24.4131 0.5 25.3518Z" stroke="#214759" stroke-miterlimit="10" stroke-linecap="round" stroke-linejoin="round"/>
<path d="M25.9476 25.3518C25.9476 26.2905 26.1358 27.22 26.5015 28.0873C26.8672 28.9545 27.4031 29.7425 28.0788 30.4063C28.7544 31.0701 29.5566 31.5966 30.4393 31.9559C31.3221 32.3151 32.2683 32.5 33.2238 32.5C34.1793 32.5 35.1255 32.3151 36.0083 31.9559C36.8911 31.5966 37.6932 31.0701 38.3689 30.4063C39.0445 29.7425 39.5805 28.9545 39.9461 28.0873C40.3118 27.22 40.5 26.2905 40.5 25.3518C40.5 24.4131 40.3118 23.4835 39.9461 22.6163C39.5805 21.749 39.0445 20.961 38.3689 20.2972C37.6932 19.6334 36.8911 19.1069 36.0083 18.7477C35.1255 18.3884 34.1793 18.2036 33.2238 18.2036C32.2683 18.2036 31.3221 18.3884 30.4393 18.7477C29.5566 19.1069 28.7544 19.6334 28.0788 20.2972C27.4031 20.961 26.8672 21.749 26.5015 22.6163C26.1358 23.4835 25.9476 24.4131 25.9476 25.3518Z" stroke="#214759" stroke-miterlimit="10" stroke-linecap="round" stroke-linejoin="round"/>
<path d="M20.5001 25.3518H7.77625L13.2239 12.8518H27.7763L20.5001 25.3518Z" stroke="#214759" stroke-linecap="round" stroke-linejoin="round"/>
<path d="M33.2239 25.3518L27.7762 12.8518V7.5H31.4143C32.3792 7.5 33.3046 7.87656 33.9869 8.54683C34.6691 9.21711 35.0524 10.1262 35.0524 11.0741" stroke="#214759" stroke-miterlimit="10" stroke-linecap="round" stroke-linejoin="round"/>
<path d="M13.2238 7.5V12.8518" stroke="#214759" stroke-miterlimit="10" stroke-linecap="round" stroke-linejoin="round"/>
<path d="M9.58569 7.5H16.8619" stroke="#214759" stroke-miterlimit="10" stroke-linecap="round" stroke-linejoin="round"/>
</svg>
