<svg width="41" height="35" viewBox="0 0 41 35" fill="none" xmlns="http://www.w3.org/2000/svg">
<path d="M3.83333 11.8333C2.94929 11.8333 2.10142 12.1047 1.47631 12.5878C0.8512 13.0709 0.5 13.726 0.5 14.4091C0.5 15.0921 0.8512 15.7474 1.47631 16.2305C2.10142 16.7135 2.94929 16.9848 3.83333 16.9848H40.5V11.8333L3.83333 11.8333Z" stroke="#214759" stroke-linecap="round" stroke-linejoin="round"/>
<path d="M35.9185 21.7324C37.2533 21.399 38.4136 20.7612 39.2359 19.9093C40.0579 19.0574 40.5002 18.0343 40.5 16.9848H3.5769C3.57628 19.5228 4.5166 22.0114 6.294 24.176C8.0714 26.3405 10.6167 28.0965 13.6487 29.2501L11.97 34.5H33.7922V24.1204C33.7727 23.6074 33.9668 23.1025 34.3475 22.6749C34.728 22.2474 35.2768 21.9181 35.9185 21.7324Z" stroke="#214759" stroke-linecap="round" stroke-linejoin="round"/>
<path d="M38.4491 11.833V12.333C38.7252 12.333 38.9491 12.1091 38.9491 11.833H38.4491ZM34.3466 11.833H33.8466C33.8466 12.1091 34.0704 12.333 34.3466 12.333V11.833ZM34.3466 6.68164H34.8466C34.8466 6.4055 34.6227 6.18164 34.3466 6.18164V6.68164ZM24.0897 6.68164H23.5897C23.5897 6.95778 23.8136 7.18164 24.0897 7.18164V6.68164ZM24.0897 2.56055V2.06055C23.8136 2.06055 23.5897 2.2844 23.5897 2.56055H24.0897ZM34.3466 2.56055V3.06055C34.6227 3.06055 34.8466 2.83669 34.8466 2.56055H34.3466ZM34.3466 0.5V0C34.0704 0 33.8466 0.223858 33.8466 0.5L34.3466 0.5ZM38.4491 0.5H38.9491C38.9491 0.223858 38.7252 0 38.4491 0V0.5ZM38.4491 11.833V11.333H34.3466V11.833V12.333H38.4491V11.833ZM34.3466 11.833H34.8466V6.68164H34.3466H33.8466V11.833H34.3466ZM34.3466 6.68164V6.18164H24.0897V6.68164V7.18164H34.3466V6.68164ZM24.0897 6.68164H24.5897V2.56055H24.0897H23.5897V6.68164H24.0897ZM24.0897 2.56055V3.06055H34.3466V2.56055V2.06055H24.0897V2.56055ZM34.3466 2.56055H34.8466V0.5H34.3466H33.8466V2.56055H34.3466ZM34.3466 0.5V1H38.4491V0.5V0H34.3466V0.5ZM38.4491 0.5H37.9491V11.833H38.4491H38.9491V0.5H38.4491Z" fill="#214759"/>
</svg>
