<svg width="41" height="42" viewBox="0 0 41 42" fill="none" xmlns="http://www.w3.org/2000/svg">
<path d="M19.5628 25.7763V23.1153" stroke="#214759" stroke-miterlimit="10" stroke-linecap="round" stroke-linejoin="round"/>
<path d="M19.5628 31.2228V33.8031" stroke="#214759" stroke-miterlimit="10" stroke-linecap="round" stroke-linejoin="round"/>
<path d="M19.5628 31.2228C21.0668 31.2228 22.2861 30.0036 22.2861 28.4996C22.2861 26.9956 21.0668 25.7763 19.5628 25.7763C18.0588 25.7763 16.8396 26.9956 16.8396 28.4996C16.8396 30.0036 18.0588 31.2228 19.5628 31.2228Z" stroke="#214759" stroke-miterlimit="10" stroke-linecap="round" stroke-linejoin="round"/>
<path d="M8.84001 39.5628C13.4461 39.5628 17.18 35.8288 17.18 31.2228C17.18 26.6167 13.4461 22.8828 8.84001 22.8828C4.23395 22.8828 0.5 26.6167 0.5 31.2228C0.5 35.8288 4.23395 39.5628 8.84001 39.5628Z" stroke="#214759" stroke-miterlimit="10" stroke-linecap="round" stroke-linejoin="round"/>
<path d="M17.9927 6.4806L19.8386 4.63819C20.2694 4.20818 20.5649 3.66467 20.7076 3.07339C20.9035 2.26158 21.3944 1.56415 22.0616 1.10111C22.5946 0.730249 23.2407 0.509723 23.938 0.5003C25.8173 0.474955 27.3552 2.05958 27.3552 3.93545V8.78767C27.3552 13.4824 23.5062 17.3898 18.803 17.3211C17.519 17.3024 16.3044 16.9969 15.2205 16.466C15.0795 16.397 14.9146 16.3959 14.7702 16.4576L10.5077 18.2806C9.4858 18.7176 8.30023 18.4897 7.51412 17.705C7.30218 17.4934 7.30218 17.1506 7.51412 16.9391L15.3103 9.15766" stroke="#214759" stroke-miterlimit="10" stroke-linecap="round" stroke-linejoin="round"/>
<path d="M18.3551 17.5L20.3551 20.5" stroke="#214759" stroke-miterlimit="10" stroke-linecap="round" stroke-linejoin="round"/>
<path d="M24.3573 8.5C24.3573 13.0853 19.9173 16.1759 16.3573 13.517" stroke="#214759" stroke-miterlimit="10" stroke-linecap="round" stroke-linejoin="round"/>
<path d="M27.3551 3.5H28.3551" stroke="#214759" stroke-miterlimit="10" stroke-linecap="round" stroke-linejoin="round"/>
<path d="M26.1156 24.0001C27.964 22.9329 30.2196 22.5708 32.4442 23.1669C36.8933 24.359 39.5336 28.9322 38.3414 33.3813C37.1493 37.8304 32.5762 40.4707 28.1271 39.2785C23.6779 38.0864 21.0376 33.5133 22.2298 29.0642C22.5753 27.7745 23.205 26.6369 24.0334 25.7004" stroke="#214759" stroke-miterlimit="10" stroke-linecap="round" stroke-linejoin="round"/>
<path d="M21.9456 31.2228C21.9456 28.2373 23.5144 25.6182 25.8725 24.1448L21.8646 23.3432C20.3451 23.0393 18.7804 23.0393 17.2609 23.3432L13.253 24.1448C15.6111 25.6182 17.1799 28.2373 17.1799 31.2228C17.1799 32.2683 16.9875 33.2688 16.6362 34.191L17.6069 33.9968C18.898 33.7386 20.2274 33.7386 21.5184 33.9968L22.4891 34.191C22.138 33.2688 21.9456 32.2683 21.9456 31.2228Z" stroke="#214759" stroke-miterlimit="10" stroke-linecap="round" stroke-linejoin="round"/>
<path d="M22.5414 23.4785C22.5414 21.8335 21.2078 20.4999 19.5628 20.4999C17.9178 20.4999 16.5843 21.8335 16.5843 23.4785" stroke="#214759" stroke-miterlimit="10" stroke-linecap="round" stroke-linejoin="round"/>
</svg>
