<svg width="30" height="41" viewBox="0 0 30 41" fill="none" xmlns="http://www.w3.org/2000/svg">
<path d="M9.42309 16.0555H2.73077C2.13914 16.0555 1.57173 15.8214 1.15338 15.4047C0.735027 14.9879 0.5 14.4227 0.5 13.8333V4.94442C0.5 4.35505 0.735027 3.78982 1.15338 3.37307C1.57173 2.95632 2.13914 2.7222 2.73077 2.7222H26.8276C27.1544 2.72215 27.4772 2.79363 27.7732 2.93158C28.0692 3.06952 28.3312 3.27057 28.5406 3.52051C28.75 3.77044 28.9017 4.06315 28.985 4.37794C29.0683 4.69273 29.0812 5.02191 29.0227 5.3422L25.0385 27.1666" stroke="#214759" stroke-linecap="round" stroke-linejoin="round"/>
<path d="M7.19238 2.7222L11.6539 27.1666" stroke="#214759" stroke-linecap="round" stroke-linejoin="round"/>
<path d="M13.8847 27.1667H22.8078C24.5827 27.1667 26.2849 27.869 27.54 29.1193C28.795 30.3695 29.5001 32.0652 29.5001 33.8333V38.2778C29.5001 38.8671 29.2651 39.4324 28.8467 39.8491C28.4284 40.2659 27.861 40.5 27.2693 40.5H9.42316C8.83152 40.5 8.26411 40.2659 7.84576 39.8491C7.42741 39.4324 7.19238 38.8671 7.19238 38.2778V33.8333C7.19238 32.0652 7.89746 30.3695 9.15252 29.1193C10.4076 27.869 12.1098 27.1667 13.8847 27.1667Z" stroke="#214759" stroke-linecap="round" stroke-linejoin="round"/>
<path d="M16.1154 2.72222V0.5H20.5769V2.72222" stroke="#214759" stroke-linecap="round" stroke-linejoin="round"/>
<path d="M18.3462 33.8333V33.8556" stroke="#214759" stroke-linecap="round" stroke-linejoin="round"/>
</svg>
