<svg width="34" height="41" viewBox="0 0 34 41" fill="none" xmlns="http://www.w3.org/2000/svg">
<path d="M17 18.453C15.9874 13.907 10.921 14.3348 10.921 19.14C10.921 23.5974 17 27.9783 17 27.9783C17 27.9783 23.0789 23.5939 23.0789 19.1365C23.0789 14.3348 18.0125 13.907 17 18.453Z" stroke="#214759" stroke-linecap="round" stroke-linejoin="round"/>
<path d="M3.97368 0.5H30.0263C30.0263 0.5 33.5 0.5 33.5 3.97826V37.0217C33.5 37.0217 33.5 40.5 30.0263 40.5H3.97368C3.97368 40.5 0.5 40.5 0.5 37.0217V3.97826C0.5 3.97826 0.5 0.5 3.97368 0.5Z" stroke="#214759" stroke-linecap="round" stroke-linejoin="round"/>
<path d="M4.84216 5.68262C4.84216 4.24088 6.00932 3.97827 7.44743 3.97827C8.88553 3.97827 10.0527 4.24088 10.0527 5.68262C10.0527 7.12436 7.44743 9.19566 7.44743 9.19566C7.44743 9.19566 4.84216 7.12262 4.84216 5.68262Z" stroke="#214759" stroke-linecap="round" stroke-linejoin="round"/>
<path d="M23.9474 33.5087C23.9474 32.067 25.1145 31.8044 26.5527 31.8044C27.9908 31.8044 29.1579 32.067 29.1579 33.5087C29.1579 34.9504 26.5527 37.0217 26.5527 37.0217C26.5527 37.0217 23.9474 34.9487 23.9474 33.5087Z" stroke="#214759" stroke-linecap="round" stroke-linejoin="round"/>
</svg>
