<svg width="41" height="41" viewBox="0 0 41 41" fill="none" xmlns="http://www.w3.org/2000/svg">
<path d="M10.0072 39.0153L9.85401 39.0289L1.9711 31.146L1.98473 30.9928C2.49622 25.2456 5.01195 19.8611 9.09197 15.7811L16.3797 8.49331C21.932 2.941 30.0047 0.735545 37.6088 2.69343L38.1636 2.8363L38.3065 3.39115C40.2644 10.9952 38.0589 19.068 32.5066 24.6202L25.2188 31.9079C21.1389 35.988 15.7544 38.5038 10.0072 39.0153Z" stroke="#214759" stroke-miterlimit="10" stroke-linecap="round" stroke-linejoin="round"/>
<path d="M11.6557 33.2542L11.3601 33.3058L7.69431 29.64L7.74593 29.3444C8.43249 25.4118 10.3157 21.7868 13.1384 18.964L20.3882 11.7143C23.6684 8.43404 28.3733 7.01431 32.9205 7.93252L33.043 7.95722L33.0677 8.07973C33.9859 12.6269 32.5661 17.3318 29.2859 20.612L22.0361 27.8618C19.2133 30.6844 15.5883 32.5675 11.6557 33.2542Z" stroke="#214759" stroke-miterlimit="10" stroke-linecap="round" stroke-linejoin="round"/>
<path d="M9.71616 23.5948L17.4051 31.2838" stroke="#214759" stroke-miterlimit="10" stroke-linecap="round" stroke-linejoin="round"/>
<path d="M12.7326 19.3821L21.6179 28.2674" stroke="#214759" stroke-miterlimit="10" stroke-linecap="round" stroke-linejoin="round"/>
<path d="M19.3759 12.7264L28.2736 21.6241" stroke="#214759" stroke-miterlimit="10" stroke-linecap="round" stroke-linejoin="round"/>
<path d="M23.3425 9.46381L31.5362 17.6574" stroke="#214759" stroke-miterlimit="10" stroke-linecap="round" stroke-linejoin="round"/>
<path d="M24.9602 24.9602L33.6956 33.6956" stroke="#214759" stroke-miterlimit="10" stroke-linecap="round" stroke-linejoin="round"/>
<path d="M36.8853 40.5L33.4919 37.1064L33.6955 33.6955L37.1065 33.4918L40.5 36.8853L36.8853 40.5Z" stroke="#214759" stroke-miterlimit="10" stroke-linecap="round" stroke-linejoin="round"/>
<path d="M16.0511 16.0511L7.30447 7.30444" stroke="#214759" stroke-miterlimit="10" stroke-linecap="round" stroke-linejoin="round"/>
<path d="M0.5 4.11462L3.89354 7.50816L7.30446 7.30446L7.50816 3.89354L4.11462 0.5L0.5 4.11462Z" stroke="#214759" stroke-miterlimit="10" stroke-linecap="round" stroke-linejoin="round"/>
</svg>
