<svg width="41" height="41" viewBox="0 0 41 41" fill="none" xmlns="http://www.w3.org/2000/svg">
<path d="M1.3864 39.6018L0.500061 35.6434L1.57372 31.5145H17.2886L26.624 28.9368H40.5L35.5617 38.2086" stroke="#214759" stroke-miterlimit="22.926" stroke-linecap="round" stroke-linejoin="round"/>
<path d="M0.5 40C2.91609 40 3.08398 38.3244 5.49999 38.3244C7.91608 38.3244 8.08397 40 10.5001 40C12.9161 40 13.084 38.3244 15.5 38.3244C17.9161 38.3244 18.0839 40 20.5 40C22.9161 40 23.0839 38.3244 25.5 38.3244C27.916 38.3244 28.0839 40 30.4999 40C32.916 40 33.0839 38.3244 35.4999 38.3244C37.916 38.3244 38.0839 40 40.5 40" stroke="#214759" stroke-miterlimit="22.926" stroke-linecap="round" stroke-linejoin="round"/>
<path d="M0.944153 35.6434H36.4838" stroke="#214759" stroke-miterlimit="22.926" stroke-linecap="round" stroke-linejoin="round"/>
<path d="M31.492 28.8554L26.6078 23L13.2431 31.4783" stroke="#214759" stroke-miterlimit="22.926" stroke-linecap="round" stroke-linejoin="round"/>
<path d="M3.2774 31.3574L1.5639 24.7677" stroke="#214759" stroke-miterlimit="22.926" stroke-linecap="round" stroke-linejoin="round"/>
</svg>
