<svg width="41" height="41" viewBox="0 0 41 41" fill="none" xmlns="http://www.w3.org/2000/svg">
<path d="M2.87117 33.8124C1.57593 33.7743 0.554025 32.9428 0.511168 31.6486C0.496277 31.2004 0.496277 30.7519 0.511168 30.3038C0.554025 29.0086 1.57593 28.1781 2.87117 28.14C3.83033 28.112 4.7901 28.112 5.74926 28.14C7.0445 28.1781 8.06641 29.0095 8.10926 30.3038C8.12423 30.7519 8.12423 31.2004 8.10926 31.6486C8.06641 32.9438 7.0445 33.7743 5.74926 33.8124C4.7901 33.8404 3.83033 33.8404 2.87117 33.8124Z" stroke="#214759" stroke-linecap="round" stroke-linejoin="round"/>
<path d="M2.87117 23.3362C1.57593 23.2981 0.554025 22.4667 0.511168 21.1724C0.496277 20.7243 0.496277 20.2758 0.511168 19.8276C0.554025 18.5324 1.57593 17.7019 2.87117 17.6638C3.83033 17.6358 4.7901 17.6358 5.74926 17.6638C7.0445 17.7019 8.06641 18.5334 8.10926 19.8276C8.12423 20.2758 8.12423 20.7243 8.10926 21.1724C8.06641 22.4676 7.0445 23.2981 5.74926 23.3362C4.7901 23.3642 3.83033 23.3642 2.87117 23.3362Z" stroke="#214759" stroke-linecap="round" stroke-linejoin="round"/>
<path d="M2.87117 12.86C1.57593 12.8219 0.554025 11.9905 0.511168 10.6962C0.496277 10.2481 0.496277 9.79955 0.511168 9.35142C0.554025 8.05619 1.57593 7.22571 2.87117 7.18761C3.83033 7.15961 4.7901 7.15961 5.74926 7.18761C7.0445 7.22571 8.06641 8.05714 8.10926 9.35142C8.12423 9.79955 8.12423 10.2481 8.10926 10.6962C8.06641 11.9914 7.0445 12.8219 5.74926 12.86C4.7901 12.888 3.83033 12.888 2.87117 12.86Z" stroke="#214759" stroke-linecap="round" stroke-linejoin="round"/>
<path d="M4.66355 33.8324C4.70069 34.4362 4.73784 34.9905 4.77498 35.4952C4.95403 37.9267 6.78736 39.8124 9.21689 40.019C12.0169 40.259 16.3397 40.5 22.4055 40.5C28.4721 40.5 32.795 40.259 35.594 40.02C38.0235 39.8124 39.8578 37.9267 40.0359 35.4962C40.2626 32.42 40.5007 27.5143 40.5007 20.5C40.5007 13.4857 40.2626 8.57905 40.0359 5.50476C39.8569 3.07238 38.0235 1.18857 35.594 0.980952C32.794 0.74 28.4721 0.5 22.4055 0.5C16.3388 0.5 12.0159 0.740952 9.21689 0.98C6.78831 1.18857 4.95403 3.07238 4.77498 5.50381C4.73688 6.00857 4.70069 6.56286 4.66355 7.16762" stroke="#214759" stroke-linecap="round" stroke-linejoin="round"/>
<path d="M4.41403 28.1191C4.36867 26.5321 4.33851 24.9447 4.32355 23.3571" stroke="#214759" stroke-linecap="round" stroke-linejoin="round"/>
<path d="M4.32355 17.6429C4.33975 15.9057 4.37117 14.321 4.41403 12.881" stroke="#214759" stroke-linecap="round" stroke-linejoin="round"/>
<path d="M26.414 21.52C27.4594 20.8586 28.2619 19.8758 28.701 18.7193C29.1401 17.5628 29.192 16.2951 28.849 15.1066C28.506 13.918 27.7866 12.8729 26.7988 12.1282C25.811 11.3835 24.6083 10.9795 23.3712 10.9768C22.1342 10.9741 20.9297 11.3729 19.9387 12.1133C18.9477 12.8537 18.2237 13.8957 17.8755 15.0827C17.5273 16.2697 17.5738 17.5377 18.0078 18.6961C18.4419 19.8545 19.2401 20.8407 20.2826 21.5067C17.5569 22.4914 15.4693 24.76 14.7883 27.56C14.4912 28.779 15.2054 29.939 16.4197 30.259C17.7769 30.6171 19.974 30.9762 23.3293 30.9762C26.6854 30.9762 28.8816 30.6171 30.2388 30.259C31.4531 29.939 32.1674 28.78 31.8702 27.56C31.1921 24.7724 29.1216 22.5124 26.414 21.52Z" stroke="#214759" stroke-linecap="round" stroke-linejoin="round"/>
</svg>
