<svg width="41" height="41" viewBox="0 0 41 41" fill="none" xmlns="http://www.w3.org/2000/svg">
<path d="M0.5 3.00095C0.5 2.33795 0.763422 1.70211 1.23232 1.2333C1.70121 0.764489 2.33717 0.501114 3.00029 0.501114H8.00086C8.66398 0.501114 9.29994 0.764489 9.76883 1.2333C10.2377 1.70211 10.5012 2.33795 10.5012 3.00095V37.9986C10.5012 38.6616 10.2377 39.2975 9.76883 39.7663C9.29994 40.2351 8.66398 40.4985 8.00086 40.4985H3.00029C2.33717 40.4985 1.70121 40.2351 1.23232 39.7663C0.763422 39.2975 0.5 38.6616 0.5 37.9986V3.00095Z" stroke="#214759" stroke-linecap="round" stroke-linejoin="round"/>
<path d="M10.5012 3.00095C10.5012 2.33795 10.7646 1.70211 11.2335 1.2333C11.7024 0.764489 12.3384 0.501114 13.0015 0.501114H18.0021C18.6652 0.501114 19.3012 0.764489 19.7701 1.2333C20.2389 1.70211 20.5024 2.33795 20.5024 3.00095V37.9986C20.5024 38.6616 20.2389 39.2975 19.7701 39.7663C19.3012 40.2351 18.6652 40.4985 18.0021 40.4985H13.0015C12.3384 40.4985 11.7024 40.2351 11.2335 39.7663C10.7646 39.2975 10.5012 38.6616 10.5012 37.9986V3.00095Z" stroke="#214759" stroke-linecap="round" stroke-linejoin="round"/>
<path d="M0.5 10.5005H10.5012" stroke="#214759" stroke-linecap="round" stroke-linejoin="round"/>
<path d="M10.5012 30.4991H20.5024" stroke="#214759" stroke-linecap="round" stroke-linejoin="round"/>
<path d="M22.5101 1.90104L27.9707 0.576124C29.3759 0.238646 30.8036 1.05109 31.1761 2.406L40.4147 35.9488C40.5777 36.5629 40.5055 37.2157 40.2123 37.7793C39.9191 38.343 39.4259 38.7769 38.8295 38.9961L38.497 39.0986L33.0363 40.4235C31.6312 40.761 30.2035 39.9485 29.831 38.5936L20.5924 5.05083C20.4294 4.43674 20.5016 3.78394 20.7948 3.22028C21.088 2.65662 21.5811 2.22271 22.1776 2.00353L22.5101 1.90104Z" stroke="#214759" stroke-linecap="round" stroke-linejoin="round"/>
<path d="M23.0027 13.0003L33.0038 10.5005" stroke="#214759" stroke-linecap="round" stroke-linejoin="round"/>
<path d="M28.0032 30.4991L37.8118 28.0493" stroke="#214759" stroke-linecap="round" stroke-linejoin="round"/>
</svg>
