<svg width="41" height="41" viewBox="0 0 41 41" fill="none" xmlns="http://www.w3.org/2000/svg">
<path d="M30.0238 18.5952C30.0238 23.855 25.7598 28.119 20.5 28.119C15.2402 28.119 10.9762 23.855 10.9762 18.5952C10.9762 13.3354 15.2402 9.07143 20.5 9.07143C25.7598 9.07143 30.0238 13.3354 30.0238 18.5952Z" stroke="#214759" stroke-linecap="round" stroke-linejoin="round"/>
<path d="M24.3095 18.5952C24.3095 16.4913 22.6039 14.7857 20.5 14.7857" stroke="#214759" stroke-linecap="round" stroke-linejoin="round"/>
<path d="M20.5 0.5C9.07143 0.5 0.5 10.7946 0.5 23.3571C0.5 32.7127 6.56279 40.5 14.0416 40.5C16.7934 40.5 19.3535 39.4732 21.4904 37.7092C23.9122 35.7101 27.0838 34.8183 29.9854 34.8183C35.7925 34.8183 40.5 28.9294 40.5 21.6652C40.5 10.9762 33.3571 0.5 20.5 0.5Z" stroke="#214759" stroke-linecap="round" stroke-linejoin="round"/>
</svg>
