<svg width="31" height="31" viewBox="0 0 31 31" fill="none" xmlns="http://www.w3.org/2000/svg">
<path d="M16.3171 30.5H2.11211C2.11211 30.5 0.5 30.5 0.5 28.5V2.5C0.5 2.5 0.5 0.5 2.11211 0.5H23.0685C23.0685 0.5 24.6806 0.5 24.6806 2.5V14.3744" stroke="#214759" stroke-linecap="round" stroke-linejoin="round"/>
<path d="M0.5 10.5H24.6795" stroke="#214759" stroke-linecap="round" stroke-linejoin="round"/>
<path d="M0.681091 20.7491H17.408" stroke="#214759" stroke-linecap="round" stroke-linejoin="round"/>
<path d="M15.814 24.5C15.814 24.7652 15.7291 25.0196 15.5779 25.2071C15.4268 25.3947 15.2218 25.5 15.008 25.5H10.1717C9.95788 25.5 9.75285 25.3947 9.60169 25.2071C9.45053 25.0196 9.3656 24.7652 9.3656 24.5" stroke="#214759" stroke-linecap="round" stroke-linejoin="round"/>
<path d="M15.814 14.5C15.814 14.7652 15.7291 15.0196 15.5779 15.2071C15.4268 15.3947 15.2218 15.5 15.008 15.5H10.1717C9.95788 15.5 9.75285 15.3947 9.60169 15.2071C9.45053 15.0196 9.3656 14.7652 9.3656 14.5" stroke="#214759" stroke-linecap="round" stroke-linejoin="round"/>
<path d="M15.814 4.5C15.814 4.76521 15.7291 5.01957 15.5779 5.20711C15.4268 5.39464 15.2218 5.5 15.008 5.5H10.1717C9.95788 5.5 9.75285 5.39464 9.60169 5.20711C9.45053 5.01957 9.3656 4.76521 9.3656 4.5" stroke="#214759" stroke-linecap="round" stroke-linejoin="round"/>
<path d="M19.8322 22.249H29.529C30.1108 22.249 30.4987 22.6615 30.4987 23.2802V29.4675C30.4987 30.0862 30.1108 30.4987 29.529 30.4987H19.8322C19.2504 30.4987 18.8625 30.0862 18.8625 29.4675V23.2802C18.8625 22.6615 19.2504 22.249 19.8322 22.249Z" stroke="#214759" stroke-linecap="round" stroke-linejoin="round"/>
<path d="M21.0443 22.249V20.4991C21.0443 18.5742 22.6806 16.9993 24.6806 16.9993C26.6806 16.9993 28.3169 18.5742 28.3169 20.4991V22.249" stroke="#214759" stroke-linecap="round" stroke-linejoin="round"/>
</svg>
