<svg width="41" height="41" viewBox="0 0 41 41" fill="none" xmlns="http://www.w3.org/2000/svg">
<path d="M34.5 36.5H38.5C39.7 36.5 40.5 35.7 40.5 34.5V28.5C40.5 26.7 39.1 25.1 37.5 24.7C33.9 23.7 28.5 22.5 28.5 22.5C28.5 22.5 25.9 19.7 24.1 17.9C23.1 17.1 21.9 16.5 20.5 16.5H6.5C5.3 16.5 4.3 17.3 3.7 18.3L0.9 24.1C0.63516 24.8725 0.5 25.6834 0.5 26.5V34.5C0.5 35.7 1.3 36.5 2.5 36.5H6.5" stroke="#214759" stroke-linecap="round" stroke-linejoin="round"/>
<path d="M6.5 36.5C6.5 37.5609 6.92143 38.5783 7.67157 39.3284C8.42172 40.0786 9.43913 40.5 10.5 40.5C11.5609 40.5 12.5783 40.0786 13.3284 39.3284C14.0786 38.5783 14.5 37.5609 14.5 36.5C14.5 35.4391 14.0786 34.4217 13.3284 33.6716C12.5783 32.9214 11.5609 32.5 10.5 32.5C9.43913 32.5 8.42172 32.9214 7.67157 33.6716C6.92143 34.4217 6.5 35.4391 6.5 36.5Z" stroke="#214759" stroke-linecap="round" stroke-linejoin="round"/>
<path d="M14.5 36.5H26.5" stroke="#214759" stroke-linecap="round" stroke-linejoin="round"/>
<path d="M26.5 36.5C26.5 37.5609 26.9214 38.5783 27.6716 39.3284C28.4217 40.0786 29.4391 40.5 30.5 40.5C31.5609 40.5 32.5783 40.0786 33.3284 39.3284C34.0786 38.5783 34.5 37.5609 34.5 36.5C34.5 35.4391 34.0786 34.4217 33.3284 33.6716C32.5783 32.9214 31.5609 32.5 30.5 32.5C29.4391 32.5 28.4217 32.9214 27.6716 33.6716C26.9214 34.4217 26.5 35.4391 26.5 36.5Z" stroke="#214759" stroke-linecap="round" stroke-linejoin="round"/>
<path d="M23.5 9C23.5 11.2543 24.3955 13.4163 25.9896 15.0104C27.5837 16.6045 29.7457 17.5 32 17.5C34.2543 17.5 36.4163 16.6045 38.0104 15.0104C39.6045 13.4163 40.5 11.2543 40.5 9C40.5 6.74566 39.6045 4.58365 38.0104 2.98959C36.4163 1.39553 34.2543 0.5 32 0.5C29.7457 0.5 27.5837 1.39553 25.9896 2.98959C24.3955 4.58365 23.5 6.74566 23.5 9Z" stroke="#214759" stroke-linecap="round" stroke-linejoin="round"/>
<path d="M27.5 8.16667L30.1667 11.5L36.5 6.5" stroke="#214759" stroke-linecap="round" stroke-linejoin="round"/>
</svg>
