<svg width="42" height="41" viewBox="0 0 42 41" fill="none" xmlns="http://www.w3.org/2000/svg">
<path d="M34.5 36.5001H38.5C39.7 36.5001 40.5 35.7001 40.5 34.5001V28.5001C40.5 26.7001 39.1 25.1001 37.5 24.7001C33.9 23.7001 28.5 22.5001 28.5 22.5001C28.5 22.5001 25.9 19.7001 24.1 17.9001C23.1 17.1001 21.9 16.5001 20.5 16.5001H6.5C5.3 16.5001 4.3 17.3001 3.7 18.3001L0.9 24.1001C0.63516 24.8725 0.5 25.6835 0.5 26.5001V34.5001C0.5 35.7001 1.3 36.5001 2.5 36.5001H6.5" stroke="#214759" stroke-linecap="round" stroke-linejoin="round"/>
<path d="M6.5 36.5001C6.5 37.5609 6.92143 38.5783 7.67157 39.3285C8.42172 40.0786 9.43913 40.5001 10.5 40.5001C11.5609 40.5001 12.5783 40.0786 13.3284 39.3285C14.0786 38.5783 14.5 37.5609 14.5 36.5001C14.5 35.4392 14.0786 34.4218 13.3284 33.6716C12.5783 32.9215 11.5609 32.5001 10.5 32.5001C9.43913 32.5001 8.42172 32.9215 7.67157 33.6716C6.92143 34.4218 6.5 35.4392 6.5 36.5001Z" stroke="#214759" stroke-linecap="round" stroke-linejoin="round"/>
<path d="M14.5 36.5001H26.5" stroke="#214759" stroke-linecap="round" stroke-linejoin="round"/>
<path d="M26.5 36.5001C26.5 37.5609 26.9214 38.5783 27.6716 39.3285C28.4217 40.0786 29.4391 40.5001 30.5 40.5001C31.5609 40.5001 32.5783 40.0786 33.3284 39.3285C34.0786 38.5783 34.5 37.5609 34.5 36.5001C34.5 35.4392 34.0786 34.4218 33.3284 33.6716C32.5783 32.9215 31.5609 32.5001 30.5 32.5001C29.4391 32.5001 28.4217 32.9215 27.6716 33.6716C26.9214 34.4218 26.5 35.4392 26.5 36.5001Z" stroke="#214759" stroke-linecap="round" stroke-linejoin="round"/>
<path d="M40.6021 14.5001V3.00287" stroke="#214759" stroke-miterlimit="10" stroke-linecap="round"/>
<path d="M40.2012 11.9437H39.2344L36.4257 13.2821H29.9555C29.3974 13.2823 28.8553 13.1122 28.4156 12.7993C27.9758 12.4864 27.6638 12.0486 27.5292 11.5556L26.6763 8.43696C26.6221 8.25835 26.5974 8.07348 26.6028 7.88823C26.6028 7.28481 26.8662 6.70606 27.335 6.27934C27.8039 5.85262 28.4397 5.61295 29.1027 5.61295H32.1172L31.1319 3.8194C30.8529 3.32204 30.7068 2.77174 30.7055 2.21327C30.7035 1.98891 30.7504 1.76645 30.8435 1.55867C30.9364 1.35088 31.0737 1.16191 31.2473 1.00266C31.4209 0.843391 31.6274 0.716985 31.855 0.630721C32.0825 0.544458 32.3266 0.500061 32.5731 0.500061C32.859 0.504673 33.1401 0.568541 33.3949 0.686821C33.6497 0.805102 33.8714 0.974677 34.0435 1.18267L37.7933 5.55936H40.6019" stroke="#214759" stroke-miterlimit="10" stroke-linecap="round"/>
</svg>
