<svg width="41" height="41" viewBox="0 0 41 41" fill="none" xmlns="http://www.w3.org/2000/svg">
<path d="M34.5014 5.5L32.9014 10.75C32.788 11.2368 32.4885 11.6753 32.0523 11.9934C31.6161 12.3115 31.0691 12.4901 30.5014 12.5H10.5014C9.9337 12.4901 9.38674 12.3115 8.95053 11.9934C8.51433 11.6753 8.21486 11.2368 8.1014 10.75L6.5014 5.5" stroke="#214759" stroke-linecap="round" stroke-linejoin="round"/>
<rect x="0.5" y="0.5" width="40" height="5" rx="1" stroke="#214759" stroke-linecap="round" stroke-linejoin="round"/>
<path d="M8.5 28.5C15.4474 33.2958 5.55264 35.7042 12.5 40.5" stroke="#214759" stroke-miterlimit="10" stroke-linecap="round" stroke-linejoin="round"/>
<path d="M18.5 23.5C25.4474 28.2958 15.5526 30.7042 22.5 35.5" stroke="#214759" stroke-miterlimit="10" stroke-linecap="round" stroke-linejoin="round"/>
<path d="M29.5 28.5C34.7105 33.2958 27.2895 35.7042 32.5 40.5" stroke="#214759" stroke-miterlimit="10" stroke-linecap="round" stroke-linejoin="round"/>
</svg>
