<svg width="41" height="39" viewBox="0 0 41 39" fill="none" xmlns="http://www.w3.org/2000/svg">
<path d="M40.5 1.96154V15.1154C40.5 28.0354 31.5041 38.5 20.5 38.5C9.51884 38.5 0.5 28.0616 0.5 15.1154V1.96154C0.5 1.96154 1.62033 0.499999 2.98963 0.499999C4.35892 0.499999 5.47925 1.96154 5.47925 1.96154C5.47925 1.96154 6.59958 0.499999 7.96888 0.499999C9.33817 0.499999 10.4585 1.96154 10.4585 1.96154C10.4585 1.96154 11.6618 0.499999 13.0311 0.499999C14.4004 0.499999 15.5207 1.96154 15.5207 1.96154C15.5207 1.96154 16.6411 0.499999 18.0104 0.499999C19.3797 0.499999 20.5 1.96154 20.5 1.96154C20.5 1.96154 21.6203 0.499999 22.9896 0.499999C24.3589 0.499999 25.4792 1.96154 25.4792 1.96154C25.4792 1.96154 26.5996 0.499999 27.9689 0.499999C29.3382 0.499999 30.4585 1.96154 30.4585 1.96154C30.4585 1.96154 31.6618 0.499999 33.0311 0.499999C34.4004 0.499999 35.5207 1.96154 35.5207 1.96154C35.5207 1.96154 36.6411 0.499999 38.0104 0.499999C39.3797 0.499999 40.5 1.96154 40.5 1.96154Z" stroke="#214759" stroke-miterlimit="10" stroke-linecap="round" stroke-linejoin="round"/>
<path d="M0.5 7.80765H7.96888C9.34382 7.80765 10.4585 9.11632 10.4585 10.7307C10.4585 12.3451 9.34382 13.6538 7.96888 13.6538H0.5" stroke="#214759" stroke-miterlimit="10" stroke-linecap="round" stroke-linejoin="round"/>
<path d="M40.5 7.80775H33.0311C31.6562 7.80775 30.4585 9.11641 30.4585 10.7308C30.4585 12.3452 31.6562 13.6539 33.0311 13.6539H40.5" stroke="#214759" stroke-miterlimit="10" stroke-linecap="round" stroke-linejoin="round"/>
<path d="M0.883255 19.7084C1.56799 19.5714 2.27164 19.5001 2.98964 19.5001C9.86458 19.5001 15.5208 26.0436 15.5208 34.1154C15.5208 35.3336 15.3939 36.517 15.1546 37.6484" stroke="#214759" stroke-miterlimit="10" stroke-linecap="round" stroke-linejoin="round"/>
<path d="M25.8456 37.649C25.6062 36.5175 25.4792 35.3338 25.4792 34.1154C25.4792 26.0435 31.1354 19.5 38.0104 19.5C38.7281 19.5 39.4318 19.5713 40.1163 19.7082" stroke="#214759" stroke-miterlimit="10" stroke-linecap="round" stroke-linejoin="round"/>
<path d="M10.4585 10.7308H30.4585" stroke="#214759" stroke-miterlimit="10" stroke-linecap="round" stroke-linejoin="round"/>
</svg>
