<svg width="28" height="41" viewBox="0 0 28 41" fill="none" xmlns="http://www.w3.org/2000/svg">
<path d="M22.175 14.4726C25.1159 14.4726 27.5 11.3447 27.5 7.4863C27.5 3.62787 25.1159 0.5 22.175 0.5C19.2341 0.5 16.85 3.62787 16.85 7.4863C16.85 11.3447 19.2341 14.4726 22.175 14.4726Z" stroke="#214759" stroke-miterlimit="10" stroke-linecap="round"/>
<path d="M24.3607 14.1881V19.2144H19.8607V14.1881" stroke="#214759" stroke-linecap="round" stroke-linejoin="round"/>
<path d="M25.8179 36.1902C25.8179 38.5717 24.05 40.5 21.8643 40.5C19.6786 40.5 17.9107 38.5717 17.9107 36.1902L19.8607 19.2144" stroke="#214759" stroke-linecap="round" stroke-linejoin="round"/>
<path d="M25.8179 36.0638L24.3607 19.2144" stroke="#214759" stroke-linecap="round" stroke-linejoin="round"/>
<path d="M8.65359 14.1881V19.2144H4.16431V14.1881" stroke="#214759" stroke-linecap="round" stroke-linejoin="round"/>
<path d="M10.1214 36.1902C10.1214 38.5717 8.35358 40.5 6.16787 40.5C3.98215 40.5 2.21429 38.5717 2.21429 36.1902L4.16429 19.2144" stroke="#214759" stroke-linecap="round" stroke-linejoin="round"/>
<path d="M10.1214 36.0638L8.65356 19.2144" stroke="#214759" stroke-linecap="round" stroke-linejoin="round"/>
<path d="M11.5786 0.5V8.28714C11.5786 11.2903 9.10357 13.735 6.03929 13.735C2.98571 13.735 0.5 11.3008 0.5 8.28714V0.5" stroke="#214759" stroke-linecap="round" stroke-linejoin="round"/>
<path d="M4.16431 7.29661V0.626434" stroke="#214759" stroke-linecap="round" stroke-linejoin="round"/>
<path d="M8.05356 7.29661V0.626434" stroke="#214759" stroke-linecap="round" stroke-linejoin="round"/>
</svg>
