<svg width="41" height="41" viewBox="0 0 41 41" fill="none" xmlns="http://www.w3.org/2000/svg">
<path d="M40.5 17.6457L20.5 0.5L0.5 17.6457" stroke="#214759" stroke-miterlimit="10" stroke-linecap="round" stroke-linejoin="round"/>
<path d="M8.41424 40.5H2.94757V16" stroke="#214759" stroke-miterlimit="10" stroke-linecap="round" stroke-linejoin="round"/>
<path d="M32.5858 40.5H38.0524V16" stroke="#214759" stroke-miterlimit="10" stroke-linecap="round" stroke-linejoin="round"/>
<path d="M17.1901 25.7887H17.2026" stroke="#214759" stroke-linecap="round" stroke-linejoin="round"/>
<path d="M24.7159 25.7887H24.7284" stroke="#214759" stroke-linecap="round" stroke-linejoin="round"/>
<path d="M18.4444 30.8059C19.0715 31.1822 19.9495 31.4331 20.953 31.4331C21.9564 31.4331 22.8344 31.1822 23.4616 30.8059" stroke="#214759" stroke-linecap="round" stroke-linejoin="round"/>
<path d="M29.7331 18.6392C30.8694 20.0637 31.6441 21.7421 31.9908 23.531C32.4149 23.7364 32.7726 24.0571 33.0229 24.4564C33.2732 24.8557 33.4059 25.3174 33.4059 25.7887C33.4059 26.26 33.2732 26.7217 33.0229 27.121C32.7726 27.5203 32.4149 27.841 31.9908 28.0464C31.4493 30.572 30.0581 32.8354 28.0494 34.4591C26.0407 36.0828 23.5359 36.9685 20.953 36.9685C18.3701 36.9685 15.8653 36.0828 13.8565 34.4591C11.8478 32.8354 10.4566 30.572 9.91513 28.0464C9.491 27.841 9.1333 27.5203 8.88302 27.121C8.63274 26.7217 8.5 26.26 8.5 25.7887C8.5 25.3174 8.63274 24.8557 8.88302 24.4564C9.1333 24.0571 9.491 23.7364 9.91513 23.531C10.4347 20.9854 11.8165 18.6969 13.8273 17.0517C15.8381 15.4065 18.3549 14.5052 20.953 14.5C23.4616 14.5 25.343 15.8797 25.343 17.6358C25.343 19.3918 24.2142 20.7715 22.8344 20.7715C21.831 20.7715 20.953 20.2698 20.953 19.5172" stroke="#214759" stroke-linecap="round" stroke-linejoin="round"/>
</svg>
