<svg width="41" height="41" viewBox="0 0 41 41" fill="none" xmlns="http://www.w3.org/2000/svg">
<path d="M2.50006 40.5V20.5C2.50006 16.7288 2.50006 14.8431 3.67164 13.6716C4.8432 12.5 6.72882 12.5 10.5001 12.5C14.2713 12.5 16.1569 12.5 17.3285 13.6716C18.5001 14.8431 18.5001 16.7288 18.5001 20.5" stroke="#214759" stroke-linecap="round"/>
<path d="M30.5001 40.5V28.5C30.5001 24.7288 30.5001 22.8432 29.3285 21.6716C28.1569 20.5 26.2713 20.5 22.5001 20.5H18.5001C14.7288 20.5 12.8432 20.5 11.6716 21.6716C10.5001 22.8432 10.5001 24.7288 10.5001 28.5V40.5" stroke="#214759" stroke-linecap="round"/>
<path d="M38.5001 40.4998V12.0439C38.5001 9.3622 38.5001 8.02136 37.7879 6.99352C37.0755 5.96566 35.8201 5.49486 33.3091 4.55326C28.3985 2.71182 25.9433 1.7911 24.2217 2.9842C22.5001 4.17728 22.5001 6.79948 22.5001 12.0439V20.4998" stroke="#214759" stroke-linecap="round"/>
<path d="M4.50009 12.5V9.5C4.50009 7.61438 4.50009 6.67158 5.08587 6.08578C5.67167 5.5 6.61447 5.5 8.50009 5.5H12.5001C14.3857 5.5 15.3285 5.5 15.9143 6.08578C16.5001 6.67158 16.5001 7.61438 16.5001 9.5V12.5" stroke="#214759" stroke-linecap="round"/>
<path d="M10.5001 4.5V0.5" stroke="#214759" stroke-linecap="round"/>
<path d="M40.5 40.4999H0.5" stroke="#214759" stroke-linecap="round"/>
<path d="M16.5001 26.5H24.5001" stroke="#214759" stroke-linecap="round"/>
<path d="M16.5001 32.5H24.5001" stroke="#214759" stroke-linecap="round"/>
</svg>
