<svg width="41" height="41" viewBox="0 0 41 41" fill="none" xmlns="http://www.w3.org/2000/svg">
<path d="M8.5 5.50011L0.5 5.50011" stroke="#214759" stroke-linecap="round" stroke-linejoin="round"/>
<path d="M8.5 9.00011L1.5 11.0001" stroke="#214759" stroke-linecap="round" stroke-linejoin="round"/>
<path d="M8.5 2.00011L1.5 0.500107" stroke="#214759" stroke-linecap="round" stroke-linejoin="round"/>
<path d="M14.5 3.50011C14.5 1.84325 15.8431 0.500107 17.5 0.500107H31.5C34.8137 0.500107 37.5 3.1864 37.5 6.50011V6.50011C37.5 8.15696 36.1569 9.50011 34.5 9.50011H17.5C15.8431 9.50011 14.5 8.15696 14.5 6.50011V3.50011Z" stroke="#214759" stroke-linecap="round"/>
<path d="M33.1887 9.50011C38.6711 16.7212 40.2132 28.0159 40.4615 37.5011C40.5048 39.1574 39.1569 40.5001 37.5 40.5001H17.5C15.8431 40.5001 14.5 39.157 14.5 37.5001V26.575C14.5 25.456 15.1227 24.4301 16.1154 23.9136L21.0609 21.3405C22.0536 20.8241 22.6763 19.7981 22.6763 18.6792V9.50011" stroke="#214759" stroke-linecap="round" stroke-linejoin="round"/>
<path d="M18.2661 9.50011C18.7271 11.3751 18.8194 15.8001 15.5 18.5001" stroke="#214759" stroke-linecap="round" stroke-linejoin="round"/>
</svg>
