<svg width="39" height="41" viewBox="0 0 39 41" fill="none" xmlns="http://www.w3.org/2000/svg">
<path d="M2.37301 27.5952C3.59305 22.9641 7.32086 19.3675 12.0539 19.3675C16.4955 19.3675 19.4621 23.4338 19.3637 27.9304L19.3121 30.2914C19.2732 32.0685 19.9618 33.7828 21.2145 35.0279L22.218 36.0252C23.6574 37.4558 22.8173 39.907 20.8075 40.0754C18.2066 40.2934 14.9914 40.5012 12.1866 40.5012C8.57384 40.5012 4.96099 40.1565 2.70383 39.8893C1.36937 39.7313 0.383858 38.5775 0.511161 37.2231C0.801662 34.1325 1.5766 30.6183 2.37301 27.5952Z" stroke="#214759" stroke-linecap="round" stroke-linejoin="round"/>
<path d="M15.8159 20.3027C17.34 14.5788 18.957 8.84632 20.2192 3.05273C20.4179 2.14054 20.176 1.20578 19.3114 0.880423C19.1235 0.809726 18.908 0.739506 18.6612 0.672567C18.4145 0.605619 18.1933 0.557324 17.9957 0.523418C17.0862 0.367369 16.4152 1.05444 16.1369 1.94504C14.3593 7.63389 12.923 13.4511 11.4072 19.212" stroke="#214759" stroke-linecap="round" stroke-linejoin="round"/>
<path d="M38.5001 39.5823H29.4265" stroke="#214759" stroke-linecap="round" stroke-linejoin="round"/>
<path d="M35.778 32.2314H26.7044" stroke="#214759" stroke-linecap="round" stroke-linejoin="round"/>
<path d="M33.0559 24.8806H23.9823" stroke="#214759" stroke-linecap="round" stroke-linejoin="round"/>
<path d="M6.78679 32.9206C6.63553 34.2989 6.78679 37.6987 8.60152 40.2715" stroke="#214759" stroke-linecap="round" stroke-linejoin="round"/>
<path d="M13.1382 33.1503C13.1382 33.1503 13.1382 37.7446 15.816 40.0418" stroke="#214759" stroke-linecap="round" stroke-linejoin="round"/>
</svg>
