<svg width="29" height="41" viewBox="0 0 29 41" fill="none" xmlns="http://www.w3.org/2000/svg">
<path d="M9.25823 6.21429H15.7725C16.7104 6.21423 17.6153 6.56011 18.3139 7.1857C19.0126 7.81129 19.456 8.67263 19.5592 9.60477L22.5211 36.2714C22.58 36.8038 22.526 37.3427 22.3626 37.8528C22.1991 38.3629 21.93 38.8328 21.5726 39.2318C21.2153 39.6309 20.7778 39.9501 20.2888 40.1686C19.7997 40.3871 19.2701 40.5 18.7344 40.5H6.29633C5.76068 40.5 5.23104 40.3871 4.74198 40.1686C4.25293 39.9501 3.81546 39.6309 3.45812 39.2318C3.10078 38.8328 2.83162 38.3629 2.66819 37.8528C2.50476 37.3427 2.45074 36.8038 2.50966 36.2714L5.47157 9.60477C5.57473 8.67263 6.01811 7.81129 6.7168 7.1857C7.41549 6.56011 8.32039 6.21423 9.25823 6.21429Z" stroke="#214759" stroke-linecap="round" stroke-linejoin="round"/>
<path d="M3.88681 24.3096L0.907291 14.7495C0.695188 14.4998 0.559169 14.1945 0.515371 13.8699C0.471574 13.5452 0.521837 13.2147 0.660196 12.9178C0.798556 12.6208 1.0192 12.3698 1.29596 12.1944C1.57271 12.0191 1.89396 11.9268 2.22158 11.9286L22.0259 11.9286C22.7774 11.9268 23.5219 12.0734 24.2167 12.3597C24.9116 12.6461 25.5431 13.0668 26.0751 13.5976C26.6071 14.1283 27.0292 14.7589 27.3172 15.453C27.6052 16.1472 27.7535 16.8914 27.7535 17.6429V23.3572C27.7535 26.5134 25.1897 29.0715 22.0259 29.0715" stroke="#214759" stroke-linecap="round" stroke-linejoin="round"/>
<path d="M2.99156 32.8809H22.0392" stroke="#214759" stroke-linecap="round" stroke-linejoin="round"/>
<path d="M12.5154 0.5V5.64286" stroke="#214759" stroke-linecap="round"/>
<path d="M15.9439 0.5L9.0868 0.5" stroke="#214759" stroke-linecap="round"/>
</svg>
