<svg width="41" height="41" viewBox="0 0 41 41" fill="none" xmlns="http://www.w3.org/2000/svg">
<path d="M12.2836 4.05035H4.49463V7.60072H12.2836V4.05035Z" stroke="#214759" stroke-miterlimit="10" stroke-linecap="round" stroke-linejoin="round"/>
<path d="M15.3145 4.05035H19.1401" stroke="#214759" stroke-miterlimit="10" stroke-linecap="round" stroke-linejoin="round"/>
<ellipse cx="25.8584" cy="4.05034" rx="0.813008" ry="0.819018" fill="#214759"/>
<ellipse cx="22.6872" cy="4.05034" rx="0.813008" ry="0.819018" fill="#214759"/>
<path d="M24.7072 37.6221H3.69301C1.92959 37.6221 0.5 36.1836 0.5 34.409V3.71309C0.5 1.93852 1.92959 0.5 3.69301 0.5H26.6599C28.4234 0.5 29.8529 1.93852 29.8529 3.71309V22.3413" stroke="#214759" stroke-miterlimit="10" stroke-linecap="round" stroke-linejoin="round"/>
<path d="M29.7721 7.60077H0.580811" stroke="#214759" stroke-miterlimit="10" stroke-linecap="round" stroke-linejoin="round"/>
<path d="M15.1765 31.7652C20.4402 31.7652 24.7072 27.4749 24.7072 22.1826C24.7072 16.8903 20.4402 12.6 15.1765 12.6C9.91289 12.6 5.64587 16.8903 5.64587 22.1826C5.64587 27.4749 9.91289 31.7652 15.1765 31.7652Z" stroke="#214759" stroke-miterlimit="10" stroke-linecap="round" stroke-linejoin="round"/>
<path d="M17.9615 22.1826C17.9615 20.6971 18.52 19.3428 19.4373 18.3203C18.3874 17.1501 16.8673 16.4146 15.1764 16.4146C12.0082 16.4146 9.4397 18.997 9.4397 22.1826C9.4397 25.3681 12.0082 27.9506 15.1764 27.9506C16.8673 27.9506 18.3874 27.215 19.4373 26.0448C18.52 25.0223 17.9615 23.668 17.9615 22.1826Z" stroke="#214759" stroke-miterlimit="10" stroke-linecap="round" stroke-linejoin="round"/>
<path d="M31.4216 40.5C36.4355 40.5 40.5 36.4208 40.5 31.3888C40.5 26.3569 36.4355 22.2776 31.4216 22.2776C26.4077 22.2776 22.3431 26.3569 22.3431 31.3888C22.3431 36.4208 26.4077 40.5 31.4216 40.5Z" stroke="#214759" stroke-miterlimit="10" stroke-linecap="round" stroke-linejoin="round"/>
<path d="M36.0388 28.322C35.046 26.8214 33.347 25.8303 31.4216 25.8303C28.3676 25.8303 25.8831 28.3238 25.8831 31.3888C25.8831 34.4538 28.3676 36.9473 31.4216 36.9473C33.347 36.9473 35.046 35.9561 36.0388 34.4555" stroke="#214759" stroke-miterlimit="10" stroke-linecap="round" stroke-linejoin="round"/>
<path d="M32.586 33.5479C32.586 33.5479 30.5235 33.5739 30.4258 33.5412C30.3281 33.5086 30.5825 33.3359 31.9347 31.3969C32.1872 31.0347 32.3262 30.7292 32.3853 30.4733L32.4063 30.3087C32.4063 29.7075 31.9207 29.2201 31.3216 29.2201C30.7944 29.2201 30.3552 29.5975 30.2572 30.0978" stroke="#214759" stroke-miterlimit="10" stroke-linecap="round" stroke-linejoin="round"/>
</svg>
