<svg width="51" height="41" viewBox="0 0 51 41" fill="none" xmlns="http://www.w3.org/2000/svg">
<path d="M3.83334 0.5H47.1667C47.1667 0.5 50.5 0.5 50.5 3.69999V29.3C50.5 29.3 50.5 32.5 47.1667 32.5H3.83334C3.83334 32.5 0.5 32.5 0.5 29.3V3.69999C0.5 3.69999 0.499997 0.5 3.83334 0.5Z" stroke="#214759" stroke-linecap="round" stroke-linejoin="round"/>
<path d="M23.7667 32.5H27.2333C27.2333 32.5 27.5 32.5 27.5 33V37C27.5 37 27.5 37.5 27.2333 37.5H23.7667C23.7667 37.5 23.5 37.5 23.5 37V33C23.5 33 23.5 32.5 23.7667 32.5Z" stroke="#214759" stroke-linecap="round" stroke-linejoin="round"/>
<path d="M41.5 40.5C33.0451 36.5 16.9552 36.5 8.5 40.5" stroke="#214759" stroke-linecap="round" stroke-linejoin="round"/>
</svg>
