<svg width="27" height="41" viewBox="0 0 27 41" fill="none" xmlns="http://www.w3.org/2000/svg">
<path d="M24.5 17.5C24.5 14.1863 21.8137 11.5 18.5 11.5H6.5C3.18629 11.5 0.5 14.1863 0.5 17.5V36.5C0.5 38.7091 2.29086 40.5 4.5 40.5H20.5C22.7091 40.5 24.5 38.7091 24.5 36.5V17.5Z" stroke="#214759" stroke-linecap="round"/>
<path d="M18.5 8.5C18.5 6.84315 17.1569 5.5 15.5 5.5H9.5C7.84315 5.5 6.5 6.84315 6.5 8.5V11.5H18.5V8.5Z" stroke="#214759" stroke-linecap="round"/>
<path d="M15.5 1.5C15.5 0.947715 15.0523 0.5 14.5 0.5H10.5C9.94772 0.5 9.5 0.947715 9.5 1.5V5.5H15.5V1.5Z" stroke="#214759" stroke-linecap="round"/>
<path d="M15.5 2.5H23.5C24.425 2.5 26.5 3 26.5 5.5" stroke="#214759" stroke-linecap="round"/>
</svg>
