<svg width="41" height="32" viewBox="0 0 41 32" fill="none" xmlns="http://www.w3.org/2000/svg">
<circle cx="28.8204" cy="3" r="2.5" stroke="#214759"/>
<path d="M23.0808 30.9427L22.4356 23.2832L19.4757 18.4025C18.9083 17.4668 18.8633 16.3092 19.3566 15.3332L22.9348 8.25285C23.382 7.36804 24.44 6.97006 25.3684 7.33738L25.3702 7.33818C26.3599 7.72978 27.09 8.57972 27.3212 9.60905L28.242 13.7086L33.363 16.4613" stroke="#214759" stroke-miterlimit="10" stroke-linecap="round" stroke-linejoin="round"/>
<path d="M32.3818 18.3629L27.3793 16.6329C26.6959 16.3965 26.1442 15.8868 25.8589 15.2284L24.371 11.7937" stroke="#214759" stroke-miterlimit="10" stroke-linecap="round" stroke-linejoin="round"/>
<path d="M24.8204 14L23.0808 17.5384L25.2528 21.8362C25.5215 22.3679 25.6614 22.9543 25.6614 23.5489V30.9427" stroke="#214759" stroke-miterlimit="10" stroke-linecap="round" stroke-linejoin="round"/>
<path d="M23.7259 7.32571H17.2743C16.2053 7.32571 15.3389 8.18305 15.3389 9.24057V14.9852C16.4445 14.9852 17.3773 14.1706 17.5144 13.0852L17.9195 9.87886C18.4234 9.87886 21.3165 9.87886 21.8204 9.87886" stroke="#214759" stroke-miterlimit="10" stroke-linecap="round" stroke-linejoin="round"/>
<path d="M18.9948 16.6076L18.1614 23.5224L13.4034 28.3895L15.3388 30.9427" stroke="#214759" stroke-miterlimit="10" stroke-linecap="round" stroke-linejoin="round"/>
<path d="M17.2744 30.3044L16.6292 29.0278L20.5002 25.198L21.7905 22.6449" stroke="#214759" stroke-miterlimit="10" stroke-linecap="round" stroke-linejoin="round"/>
<path d="M6.30658 30.9427H12.1131" stroke="#214759" stroke-miterlimit="10" stroke-linecap="round" stroke-linejoin="round"/>
<path d="M15.3389 30.9427H37.8737C38.7292 30.9427 39.5496 30.6064 40.1546 30.008L40.5001 29.6661" stroke="#214759" stroke-miterlimit="10" stroke-linecap="round" stroke-linejoin="round"/>
<path d="M27.5969 30.9427L34.0485 14.9853" stroke="#214759" stroke-miterlimit="10" stroke-linecap="round" stroke-linejoin="round"/>
<path d="M0.500122 20.7299L15.3388 14.9852" stroke="#214759" stroke-miterlimit="10" stroke-linecap="round" stroke-linejoin="round"/>
<path d="M23.0808 17.5385L19.2098 16.2619" stroke="#214759" stroke-miterlimit="10" stroke-linecap="round" stroke-linejoin="round"/>
</svg>
