<svg width="31" height="39" viewBox="0 0 31 39" fill="none" xmlns="http://www.w3.org/2000/svg">
<path d="M17.7455 17.6914C17.7455 18.9858 16.6961 20.0352 15.4017 20.0352C14.1074 20.0352 13.058 18.9858 13.058 17.6914C13.058 16.397 14.1074 15.3477 15.4017 15.3477C16.6961 15.3477 17.7455 16.397 17.7455 17.6914Z" stroke="#214759" stroke-miterlimit="10" stroke-linecap="round" stroke-linejoin="round"/>
<path d="M15.4017 20.1132V23.3083" stroke="#214759" stroke-miterlimit="10" stroke-linecap="round" stroke-linejoin="round"/>
<path d="M15.2881 38.156C7.13492 38.1413 0.5 31.4794 0.5 23.3057V15.3503C0.5 7.17654 7.13492 0.514659 15.2903 0.499972H15.5153C23.6686 0.514659 30.3034 7.17654 30.3034 15.3503V23.3057C30.3034 31.4794 23.6686 38.1413 15.5131 38.156L15.4017 38.1561L15.2881 38.156Z" stroke="#214759" stroke-miterlimit="10" stroke-linecap="round" stroke-linejoin="round"/>
<path d="M15.4017 33.4686C15.3674 33.4686 15.3331 33.4686 15.2988 33.4685C9.70617 33.4583 5.1875 28.8983 5.1875 23.3057V15.3503C5.1875 9.75771 9.70617 5.19763 15.2988 5.18748C15.3331 5.1874 15.3674 5.18732 15.4017 5.18732C15.436 5.18732 15.4703 5.1874 15.5046 5.18748C21.0973 5.19763 25.6159 9.75771 25.6159 15.3503V23.3057C25.6159 28.8983 21.0973 33.4583 15.5046 33.4685C15.4703 33.4686 15.436 33.4686 15.4017 33.4686Z" stroke="#214759" stroke-miterlimit="10" stroke-linecap="round" stroke-linejoin="round"/>
</svg>
