<svg width="41" height="41" viewBox="0 0 41 41" fill="none" xmlns="http://www.w3.org/2000/svg">
<path d="M20.5011 13.663V37.6131" stroke="#214759" stroke-miterlimit="10" stroke-linecap="round" stroke-linejoin="round"/>
<path d="M36.1197 6.62195C37.7375 8.2366 39.2271 10.2641 40.4683 12.805C40.5727 13.0187 40.415 13.2676 40.1754 13.2676H0.826753C0.587156 13.2676 0.429492 13.0187 0.533878 12.8051C5.77733 2.0688 15.4585 0.500108 20.5011 0.500108C23.8422 0.500108 29.2191 1.18872 33.9928 4.77616" stroke="#214759" stroke-miterlimit="10" stroke-linecap="round" stroke-linejoin="round"/>
<path d="M33.21 13.2676H7.79224C11.0585 2.11355 17.2816 0.500027 20.5011 0.500027C23.7207 0.500027 29.9432 2.11355 33.21 13.2676Z" stroke="#214759" stroke-miterlimit="10" stroke-linecap="round" stroke-linejoin="round"/>
<path d="M25.4068 13.2676H15.5955C16.8562 2.11355 19.2584 0.500027 20.5011 0.500027C21.7439 0.500027 24.1459 2.11355 25.4068 13.2676Z" stroke="#214759" stroke-miterlimit="10" stroke-linecap="round" stroke-linejoin="round"/>
<path d="M40.1481 40.5H0.854014C0.659085 40.5 0.501099 40.342 0.501099 40.1471V39.1782C0.501099 38.3969 1.13442 37.7636 1.91574 37.7636H39.0864C39.8677 37.7636 40.5011 38.3969 40.5011 39.1782V40.1471C40.5011 40.342 40.3431 40.5 40.1481 40.5Z" stroke="#214759" stroke-miterlimit="10" stroke-linecap="round" stroke-linejoin="round"/>
<path d="M11.192 26.4558H15.5363C15.8919 26.4558 16.1802 26.744 16.1802 27.0996V31.2847H6.68323V27.0996C6.68323 26.744 6.97144 26.4558 7.32709 26.4558H8.33956" stroke="#214759" stroke-miterlimit="10" stroke-linecap="round" stroke-linejoin="round"/>
<path d="M16.8241 33.6992H6.03937C5.6838 33.6992 5.39551 33.4109 5.39551 33.0554V31.9286C5.39551 31.573 5.6838 31.2847 6.03937 31.2847H16.8241C17.1796 31.2847 17.4679 31.573 17.4679 31.9286V33.0554C17.4679 33.4109 17.1796 33.6992 16.8241 33.6992Z" stroke="#214759" stroke-miterlimit="10" stroke-linecap="round" stroke-linejoin="round"/>
<path d="M5.65759 37.7636L6.68327 33.6992" stroke="#214759" stroke-miterlimit="10" stroke-linecap="round" stroke-linejoin="round"/>
<path d="M17.2058 37.7636L16.1802 33.6992" stroke="#214759" stroke-miterlimit="10" stroke-linecap="round" stroke-linejoin="round"/>
<path d="M34.319 31.2847H24.822V27.0996C24.822 26.744 25.1103 26.4558 25.4659 26.4558H33.6751C34.0307 26.4558 34.319 26.744 34.319 27.0996V31.2847Z" stroke="#214759" stroke-miterlimit="10" stroke-linecap="round" stroke-linejoin="round"/>
<path d="M34.9629 33.6992H24.1782C23.8226 33.6992 23.5343 33.4109 23.5343 33.0554V31.9286C23.5343 31.573 23.8226 31.2847 24.1782 31.2847H34.9629C35.3184 31.2847 35.6067 31.573 35.6067 31.9286V33.0554C35.6067 33.4109 35.3184 33.6992 34.9629 33.6992Z" stroke="#214759" stroke-miterlimit="10" stroke-linecap="round" stroke-linejoin="round"/>
<path d="M23.7964 37.7636L24.8221 33.6992" stroke="#214759" stroke-miterlimit="10" stroke-linecap="round" stroke-linejoin="round"/>
<path d="M35.3446 37.7636L34.319 33.6992" stroke="#214759" stroke-miterlimit="10" stroke-linecap="round" stroke-linejoin="round"/>
</svg>
