<svg width="41" height="39" viewBox="0 0 41 39" fill="none" xmlns="http://www.w3.org/2000/svg">
<path d="M8.5 26.15C8.5 25.1006 9.39544 24.25 10.5 24.25H30.5C31.6046 24.25 32.5 25.1006 32.5 26.15C32.5 28.2487 30.7092 29.95 28.5 29.95H12.5C10.2909 29.95 8.5 28.2487 8.5 26.15Z" stroke="#214759" stroke-linecap="round"/>
<path d="M9.75614 9.55504C10.2389 5.7334 10.4802 3.82257 11.6436 2.51706C12.0128 2.10274 12.4424 1.74066 12.9194 1.44177C14.4225 0.5 16.4483 0.5 20.4999 0.5C24.5515 0.5 26.5773 0.5 28.0803 1.44177C28.5573 1.74066 28.9871 2.10274 29.3563 2.51706C30.5195 3.82257 30.7609 5.7334 31.2437 9.55504L31.4255 10.9945C31.9265 14.9607 32.1769 16.9437 30.9833 18.2219C29.7897 19.5 27.6873 19.5 23.4825 19.5H17.5173C13.3125 19.5 11.2101 19.5 10.0164 18.2219C8.82282 16.9437 9.07332 14.9607 9.5743 10.9945L9.75614 9.55504Z" stroke="#214759" stroke-linecap="round"/>
<path d="M20.5 19.5V23.3" stroke="#214759" stroke-linecap="round"/>
<path d="M20.5 38.5V34.7M20.5 34.7V29.95M20.5 34.7L21.4322 34.9214C23.3428 35.3753 24.8772 36.725 25.5 38.5M20.5 34.7L19.5678 34.9214C17.6572 35.3753 16.1228 36.725 15.5 38.5M8.5 27.1L6.76968 22.1686C6.62346 21.7519 6.55036 21.5435 6.40848 21.2528C6.2666 20.9621 6.20826 20.8709 6.09158 20.6886C5.17884 19.2629 3.965 18.55 0.5 18.55M32.5 27.1L34.2304 22.1686C34.3766 21.7519 34.4496 21.5435 34.5916 21.2528C34.7334 20.9621 34.7918 20.8709 34.9084 20.6886C35.8212 19.2629 37.035 18.55 40.5 18.55" stroke="#214759" stroke-linecap="round"/>
</svg>
