<svg width="41" height="41" viewBox="0 0 41 41" fill="none" xmlns="http://www.w3.org/2000/svg">
<path d="M40.5 40.5H0.5V10.3149L20.6641 0.5L40.5 10.3149V40.5Z" stroke="#214759" stroke-linecap="round" stroke-linejoin="round"/>
<path d="M32.1045 13.5C25.9698 13.5 20.9966 18.4732 20.9966 24.6079C20.9966 30.7426 25.9698 35.7158 32.1045 35.7158" stroke="#214759" stroke-linecap="round" stroke-linejoin="round"/>
<path d="M32.1046 17.9432C28.4237 17.9432 25.4398 20.9271 25.4398 24.6079C25.4398 28.2888 28.4237 31.2727 32.1046 31.2727" stroke="#214759" stroke-linecap="round" stroke-linejoin="round"/>
<path d="M17.9115 14.8098C18.1672 16.3193 18.5247 18.9565 18.496 21.773C18.4812 23.2265 17.5104 24.5291 15.984 24.8712C15.669 24.9419 15.3327 25.0053 14.9816 25.055L15.9726 32.7933C16.1469 34.1546 15.309 35.5031 13.9481 35.681C13.7797 35.703 13.6262 35.716 13.4988 35.716C13.3714 35.716 13.218 35.703 13.0495 35.681C11.6886 35.5031 10.8506 34.1546 11.025 32.7933L12.016 25.0549C11.665 25.0053 11.3287 24.9418 11.0137 24.8712C9.48728 24.5291 8.51643 23.2263 8.50163 21.7728C8.47294 18.9567 8.82982 16.3198 9.0851 14.8102C9.21521 14.0408 9.88797 13.5 10.6683 13.5H16.3285C17.1086 13.5 17.7813 14.0406 17.9115 14.8098Z" stroke="#214759" stroke-linecap="round" stroke-linejoin="round"/>
<path d="M12.1103 13.5L11.8326 19.6093" stroke="#214759" stroke-linecap="round" stroke-linejoin="round"/>
<path d="M14.8873 13.5L15.165 19.6093" stroke="#214759" stroke-linecap="round" stroke-linejoin="round"/>
</svg>
