<svg width="41" height="41" viewBox="0 0 41 41" fill="none" xmlns="http://www.w3.org/2000/svg">
<path d="M0.5 40.5H40.5" stroke="#214759" stroke-miterlimit="10" stroke-linecap="round" stroke-linejoin="round"/>
<path d="M20.1216 24.0819C23.9479 24.0819 27.6175 25.6115 30.3231 28.3341C33.0287 31.0567 34.5486 34.7494 34.5486 38.5997V40.5H5.69464V38.5997C5.69464 34.7494 7.21463 31.0567 9.92021 28.3341C12.6258 25.6115 16.2954 24.0819 20.1216 24.0819Z" stroke="#214759" stroke-miterlimit="10" stroke-linecap="round" stroke-linejoin="round"/>
<path d="M20.1216 20.4525V24.082" stroke="#214759" stroke-miterlimit="10" stroke-linecap="round" stroke-linejoin="round"/>
<path d="M18.3277 18.6473C18.3277 19.1261 18.5167 19.5852 18.8531 19.9238C19.1896 20.2623 19.6459 20.4525 20.1216 20.4525C20.5974 20.4525 21.0537 20.2623 21.3901 19.9238C21.7266 19.5852 21.9156 19.1261 21.9156 18.6473C21.9156 18.1685 21.7266 17.7094 21.3901 17.3708C21.0537 17.0323 20.5974 16.8421 20.1216 16.8421C19.6459 16.8421 19.1896 17.0323 18.8531 17.3708C18.5167 17.7094 18.3277 18.1685 18.3277 18.6473Z" stroke="#214759" stroke-miterlimit="10" stroke-linecap="round" stroke-linejoin="round"/>
<path d="M5.69464 4.12949C11.9451 8.48103 3.12648 10.6473 9.30139 14.9988" stroke="#214759" stroke-miterlimit="10" stroke-linecap="round" stroke-linejoin="round"/>
<path d="M18.3277 0.500031C24.5593 4.85157 15.684 7.03684 21.9156 11.3884" stroke="#214759" stroke-miterlimit="10" stroke-linecap="round" stroke-linejoin="round"/>
<path d="M30.9419 4.12949C37.1735 8.48103 28.2982 10.6663 34.5486 15.0178" stroke="#214759" stroke-miterlimit="10" stroke-linecap="round" stroke-linejoin="round"/>
</svg>
