<svg width="41" height="41" viewBox="0 0 41 41" fill="none" xmlns="http://www.w3.org/2000/svg">
<path d="M10.5 40.5H4.94442C2.48979 40.5 0.5 38.5102 0.5 36.0556V4.94442C0.5 2.48979 2.48979 0.5 4.94442 0.5H36.0554C38.51 0.5 40.4998 2.48979 40.4998 4.94442L40.5 36.0556C40.5 38.5102 38.5102 40.5 36.0556 40.5H30.5" stroke="#214759" stroke-linecap="round" stroke-linejoin="round"/>
<path d="M40.5 9.38885H0.500214" stroke="#214759" stroke-linecap="round" stroke-linejoin="round"/>
<path d="M20.5001 29.3888V40.4999M20.5001 40.4999H16.0556M20.5001 40.4999H24.9445" stroke="#214759" stroke-linecap="round" stroke-linejoin="round"/>
<path d="M20.5 29.3889C24.182 29.3889 27.1667 26.0726 27.1667 21.9815V16.0556H13.8333V21.9815C13.8333 26.0726 16.818 29.3889 20.5 29.3889Z" stroke="#214759" stroke-linecap="round" stroke-linejoin="round"/>
<path d="M33.8333 4.9667L33.8556 4.94202" stroke="#214759" stroke-linecap="round" stroke-linejoin="round"/>
<path d="M27.1668 4.9667L27.1889 4.94202" stroke="#214759" stroke-linecap="round" stroke-linejoin="round"/>
</svg>
