<svg width="41" height="41" viewBox="0 0 41 41" fill="none" xmlns="http://www.w3.org/2000/svg">
<path d="M4.50008 16.5001V38.4999C4.49697 38.7634 4.54665 39.0249 4.64612 39.2689C4.74558 39.5129 4.89278 39.7345 5.079 39.9208C5.2654 40.1072 5.487 40.2544 5.73109 40.3538C5.97509 40.4532 6.23651 40.5029 6.50006 40.4999C6.76343 40.5029 7.02485 40.4532 7.26894 40.3538C7.51294 40.2544 7.73463 40.1072 7.92093 39.9208C8.10724 39.7345 8.25444 39.5129 8.35382 39.2689C8.45337 39.0249 8.50297 38.7634 8.50004 38.4999" stroke="#214759" stroke-miterlimit="10" stroke-linecap="round"/>
<path d="M8.50008 27.1666V38.4999C8.49697 38.7634 8.54665 39.0249 8.64612 39.2689C8.74558 39.5129 8.89278 39.7345 9.079 39.9208C9.2654 40.1072 9.487 40.2544 9.73109 40.3538C9.97509 40.4532 10.2365 40.5029 10.5001 40.4999C10.7634 40.5029 11.0249 40.4532 11.2689 40.3538C11.5129 40.2544 11.7346 40.1072 11.9209 39.9208C12.1072 39.7345 12.2544 39.5129 12.3538 39.2689C12.4534 39.0249 12.503 38.7634 12.5 38.4999V16.5001" stroke="#214759" stroke-miterlimit="10" stroke-linecap="round"/>
<path d="M4.50008 14V22.2499C4.5031 22.5463 4.45359 22.8405 4.35412 23.1151C4.25484 23.3896 4.10755 23.6391 3.92124 23.8487C3.73493 24.0582 3.51316 24.2239 3.26907 24.3357C3.02508 24.4475 2.76357 24.5033 2.50011 24.4998C2.23656 24.5033 1.97505 24.4475 1.73106 24.3357C1.48697 24.2239 1.26529 24.0582 1.07889 23.8487C0.892494 23.6391 0.745386 23.3896 0.645921 23.1151C0.546545 22.8405 0.496946 22.5463 0.500146 22.2499V14C0.500146 12.8065 0.92156 11.6619 1.67168 10.818C2.4218 9.97409 3.43912 9.5 4.50008 9.5H12.4999C13.5607 9.5 14.5781 9.97409 15.3283 10.818C16.0784 11.6619 16.4999 12.8065 16.4999 14V22.2499C16.503 22.5463 16.4534 22.8405 16.3539 23.1151C16.2546 23.3896 16.1073 23.6391 15.921 23.8487C15.7347 24.0582 15.5129 24.2239 15.2689 24.3357C15.0249 24.4475 14.7634 24.5033 14.4999 24.4998C14.2364 24.5033 13.9749 24.4475 13.7308 24.3357C13.4868 24.2239 13.2651 24.0582 13.0787 23.8487C12.8924 23.6391 12.7452 23.3896 12.6458 23.1151C12.5463 22.8405 12.4967 22.5463 12.4999 22.2499V14" stroke="#214759" stroke-miterlimit="10" stroke-linecap="round"/>
<path d="M8.50096 7.16731C10.3421 7.16731 11.8346 5.67478 11.8346 3.83366C11.8346 1.99253 10.3421 0.5 8.50096 0.5C6.65991 0.5 5.1673 1.99253 5.1673 3.83366C5.1673 5.67478 6.65991 7.16731 8.50096 7.16731Z" stroke="#214759" stroke-miterlimit="10" stroke-linecap="round"/>
<path d="M15.5 0.5H35.5V38.5H15.5" stroke="#214759" stroke-linecap="round" stroke-linejoin="round"/>
<path d="M31.5 19.5L27.5 19.5" stroke="#214759" stroke-linecap="round"/>
<path d="M31.5 38.5H40.5" stroke="#214759" stroke-linecap="round"/>
</svg>
