<svg width="41" height="26" viewBox="0 0 41 26" fill="none" xmlns="http://www.w3.org/2000/svg">
<path d="M6.31131 3.09733C6.34162 1.83905 7.05335 0.712953 8.30366 0.568095C8.66338 0.526476 9.07699 0.5 9.54757 0.5C10.0181 0.5 10.4318 0.526476 10.7915 0.568095C12.0418 0.712953 12.7535 1.83905 12.7839 3.09733C12.8284 4.94876 12.8809 8.13524 12.8809 12.8809C12.8809 17.6267 12.8284 20.8131 12.7839 22.6646C12.7535 23.9229 12.0418 25.0489 10.7915 25.1938C10.4318 25.2354 10.0181 25.2619 9.54757 25.2619C9.07699 25.2619 8.66338 25.2354 8.30366 25.1938C7.05336 25.0489 6.34163 23.9229 6.31131 22.6646C6.26671 20.8131 6.21423 17.6267 6.21423 12.8809C6.21423 8.13524 6.2667 4.94876 6.31131 3.09733Z" stroke="#214759" stroke-linecap="round" stroke-linejoin="round"/>
<path d="M34.6886 3.09733C34.6583 1.83905 33.9465 0.712953 32.6963 0.568095C32.3365 0.526476 31.9229 0.5 31.4523 0.5C30.9818 0.5 30.5682 0.526476 30.2084 0.568095C28.9582 0.712953 28.2464 1.83905 28.2161 3.09733C28.1715 4.94876 28.119 8.13524 28.119 12.8809C28.119 17.6267 28.1715 20.8131 28.2161 22.6646C28.2464 23.9229 28.9582 25.0489 30.2084 25.1938C30.5682 25.2354 30.9818 25.2619 31.4523 25.2619C31.9229 25.2619 32.3365 25.2354 32.6963 25.1938C33.9465 25.0489 34.6583 23.9229 34.6886 22.6646C34.7332 20.8131 34.7857 17.6267 34.7857 12.8809C34.7857 8.13524 34.7332 4.94876 34.6886 3.09733Z" stroke="#214759" stroke-linecap="round" stroke-linejoin="round"/>
<path d="M12.8741 15.721C14.7877 15.7313 17.006 15.7381 19.5475 15.7381C22.9818 15.7381 25.8263 15.7258 28.1255 15.7087" stroke="#214759" stroke-linecap="round" stroke-linejoin="round"/>
<path d="M28.1249 10.0532C25.8257 10.0361 22.9812 10.0238 19.5469 10.0238C17.0054 10.0238 14.787 10.0306 12.8735 10.041" stroke="#214759" stroke-linecap="round" stroke-linejoin="round"/>
<path d="M0.55261 7.93116C0.586914 6.51192 1.48924 5.31402 2.90817 5.26888C3.05053 5.2644 3.20014 5.26192 3.35714 5.26192C3.51414 5.26192 3.66374 5.2644 3.80611 5.26888C5.22504 5.31402 6.12736 6.51192 6.16166 7.93116C6.18984 9.09649 6.21428 10.728 6.21428 12.881C6.21428 15.0339 6.18984 16.6654 6.16167 17.8308C6.12737 19.25 5.22505 20.4479 3.80611 20.4931C3.66375 20.4975 3.51414 20.5 3.35714 20.5C3.20014 20.5 3.05053 20.4975 2.90817 20.4931C1.48924 20.4479 0.586914 19.25 0.55261 17.8308C0.524448 16.6654 0.5 15.0339 0.5 12.881C0.5 10.728 0.524448 9.09649 0.55261 7.93116Z" stroke="#214759" stroke-linecap="round" stroke-linejoin="round"/>
<path d="M40.4475 7.93116C40.4131 6.51192 39.5108 5.31402 38.0919 5.26888C37.9495 5.2644 37.8 5.26192 37.6429 5.26192C37.4859 5.26192 37.3363 5.2644 37.194 5.26888C35.775 5.31402 34.8727 6.51192 34.8383 7.93116C34.8102 9.09649 34.7858 10.728 34.7858 12.881C34.7858 15.0339 34.8102 16.6654 34.8383 17.8308C34.8727 19.25 35.775 20.4479 37.194 20.4931C37.3363 20.4975 37.4859 20.5 37.6429 20.5C37.7999 20.5 37.9495 20.4975 38.0919 20.4931C39.5108 20.4479 40.4131 19.25 40.4475 17.8308C40.4756 16.6654 40.5001 15.0339 40.5001 12.881C40.5001 10.728 40.4756 9.09649 40.4475 7.93116Z" stroke="#214759" stroke-linecap="round" stroke-linejoin="round"/>
</svg>
