<svg width="34" height="41" viewBox="0 0 34 41" fill="none" xmlns="http://www.w3.org/2000/svg">
<path d="M7.453 16.0292V10.0761C7.453 4.7881 11.7274 0.500017 16.9997 0.500017C19.6368 0.500017 22.0234 1.57188 23.7506 3.30501C25.4787 5.03824 26.5473 7.4321 26.5473 10.0761V16.0292" stroke="#214759" stroke-miterlimit="10" stroke-linecap="round" stroke-linejoin="round"/>
<path d="M10.2047 16.0292V10.0761C10.2047 6.31792 13.2527 3.25993 16.9997 3.25993C20.7466 3.25993 23.7955 6.31792 23.7955 10.0761V16.0292" stroke="#214759" stroke-miterlimit="10" stroke-linecap="round" stroke-linejoin="round"/>
<path d="M21.1007 16.0287H29.3273C30.261 16.0287 31.0457 16.732 31.1503 17.6624L33.4882 38.4539C33.6109 39.5448 32.7599 40.5 31.6653 40.5H2.33471C1.24016 40.5 0.389138 39.5448 0.511774 38.4539L2.84974 17.6624C2.9544 16.732 3.73901 16.0287 4.67258 16.0287H21.1007Z" stroke="#214759" stroke-miterlimit="10" stroke-linecap="round" stroke-linejoin="round"/>
<path d="M5.79333 21.4244V26.7957" stroke="#214759" stroke-miterlimit="10" stroke-linecap="round" stroke-linejoin="round"/>
<path d="M9.53744 24.1515C9.53744 25.6575 8.70412 26.8492 7.38191 26.8723C6.94182 26.8801 5.80434 26.8844 5.80434 26.8844C5.80434 26.8844 5.79728 24.9047 5.79728 24.1456C5.79728 23.522 5.79333 21.4187 5.79333 21.4187H7.33678C8.78695 21.4187 9.53744 22.6455 9.53744 24.1515Z" stroke="#214759" stroke-miterlimit="10" stroke-linecap="round" stroke-linejoin="round"/>
<path d="M24.6338 21.2521L26.4276 24.0073L28.2066 21.2664" stroke="#214759" stroke-miterlimit="10" stroke-linecap="round" stroke-linejoin="round"/>
<path d="M26.4207 26.8844L26.4276 24.0074" stroke="#214759" stroke-miterlimit="10" stroke-linecap="round" stroke-linejoin="round"/>
<path d="M12.2954 21.2521V25.1277C12.2954 25.7877 12.6219 26.2321 13.1763 26.5874C13.4465 26.7605 13.7876 26.8838 14.2114 26.8844C14.5786 26.8849 14.8854 26.7997 15.1391 26.6714C15.7853 26.345 16.1975 25.8494 16.1975 25.1237V21.2521" stroke="#214759" stroke-miterlimit="10" stroke-linecap="round" stroke-linejoin="round"/>
<path d="M18.9207 21.2521H22.022" stroke="#214759" stroke-miterlimit="10" stroke-linecap="round" stroke-linejoin="round"/>
<path d="M20.4652 21.4319V26.8844" stroke="#214759" stroke-miterlimit="10" stroke-linecap="round" stroke-linejoin="round"/>
<path d="M10.2063 29.6856H7.9469V35.2766" stroke="#214759" stroke-miterlimit="10" stroke-linecap="round" stroke-linejoin="round"/>
<path d="M7.94678 32.4282H10.0266" stroke="#214759" stroke-miterlimit="10" stroke-linecap="round" stroke-linejoin="round"/>
<path d="M20.9879 29.6957H18.6432V35.2766H20.9879" stroke="#214759" stroke-miterlimit="10" stroke-linecap="round" stroke-linejoin="round"/>
<path d="M20.8149 32.4861H18.6432" stroke="#214759" stroke-miterlimit="10" stroke-linecap="round" stroke-linejoin="round"/>
<path d="M26.0533 29.6957H23.7087V35.2766H26.0533" stroke="#214759" stroke-miterlimit="10" stroke-linecap="round" stroke-linejoin="round"/>
<path d="M25.8804 32.4861H23.7087" stroke="#214759" stroke-miterlimit="10" stroke-linecap="round" stroke-linejoin="round"/>
<path d="M13.5397 32.5884L15.8986 35.2766" stroke="#214759" stroke-miterlimit="10" stroke-linecap="round" stroke-linejoin="round"/>
<path d="M12.8625 29.6443V35.2766" stroke="#214759" stroke-miterlimit="10" stroke-linecap="round" stroke-linejoin="round"/>
<path d="M15.8987 31.1081C15.8987 31.9165 15.192 32.5719 14.3566 32.5719C13.9424 32.5719 12.8748 32.5783 12.8748 32.5783C12.8748 32.5783 12.8681 31.5156 12.8681 31.1081C12.8681 30.7733 12.8644 29.6443 12.8644 29.6443H14.3566C15.192 29.6443 15.8987 30.2996 15.8987 31.1081Z" stroke="#214759" stroke-miterlimit="10" stroke-linecap="round" stroke-linejoin="round"/>
</svg>
