<svg width="41" height="41" viewBox="0 0 41 41" fill="none" xmlns="http://www.w3.org/2000/svg">
<path d="M0.5 20.5C0.5 25.8044 2.60713 30.8915 6.35787 34.6422C10.1086 38.3928 15.1957 40.5 20.5 40.5C25.8044 40.5 30.8915 38.3928 34.6422 34.6422C38.3928 30.8915 40.5 25.8044 40.5 20.5C40.5 15.1957 38.3928 10.1086 34.6422 6.35787C30.8915 2.60713 25.8044 0.5 20.5 0.5C15.1957 0.5 10.1086 2.60713 6.35787 6.35787C2.60713 10.1086 0.5 15.1957 0.5 20.5Z" stroke="#214759" stroke-linecap="round" stroke-linejoin="round"/>
<path d="M17.7871 14.4198L12.3577 2.24915" stroke="#214759" stroke-linecap="round" stroke-linejoin="round"/>
<path d="M2.19067 12.4874L14.4005 17.8296" stroke="#214759" stroke-linecap="round" stroke-linejoin="round"/>
<path d="M38.8075 28.5125L26.5995 23.1685" stroke="#214759" stroke-linecap="round" stroke-linejoin="round"/>
<path d="M23.2128 26.5798L28.6422 38.7505" stroke="#214759" stroke-linecap="round" stroke-linejoin="round"/>
<path d="M13.8333 20.5C13.8333 22.2682 14.5357 23.9638 15.7859 25.2141C17.0362 26.4643 18.7318 27.1667 20.5 27.1667C22.2682 27.1667 23.9638 26.4643 25.2141 25.2141C26.4642 23.9638 27.1666 22.2682 27.1666 20.5C27.1666 18.7318 26.4642 17.0362 25.2141 15.786C23.9638 14.5357 22.2682 13.8333 20.5 13.8333C18.7318 13.8333 17.0362 14.5357 15.7859 15.786C14.5357 17.0362 13.8333 18.7318 13.8333 20.5Z" stroke="#214759" stroke-linecap="round" stroke-linejoin="round"/>
</svg>
