<svg width="34" height="41" viewBox="0 0 34 41" fill="none" xmlns="http://www.w3.org/2000/svg">
<path d="M26.5189 12.1881C27.4746 11.9032 28.4885 11.75 29.5387 11.75H33.1144C33.3273 11.75 33.5 11.92 33.5 12.1297V15.6513C33.5 21.3131 28.8396 25.9028 23.0908 25.9028H19.5385" stroke="#214759" stroke-miterlimit="10" stroke-linecap="round" stroke-linejoin="round"/>
<path d="M19.5382 19.1474C20.2491 16.7272 21.8412 14.6755 23.9502 13.3512" stroke="#214759" stroke-miterlimit="10" stroke-linecap="round" stroke-linejoin="round"/>
<path d="M29.7019 15.4906L19.5385 25.5" stroke="#214759" stroke-miterlimit="10" stroke-linecap="round" stroke-linejoin="round"/>
<path d="M26.3147 18.8265H29.7018" stroke="#214759" stroke-miterlimit="10" stroke-linecap="round" stroke-linejoin="round"/>
<path d="M23.7744 21.3283V17.9925" stroke="#214759" stroke-miterlimit="10" stroke-linecap="round" stroke-linejoin="round"/>
<path d="M0.5 25.7585V14.5669C0.5 13.0112 1.78057 11.75 3.36023 11.75H16.6782C18.2579 11.75 19.5384 13.0112 19.5384 14.5669V32.6831C19.5384 34.2389 18.2579 35.5 16.6782 35.5H3.36023C1.78057 35.5 0.5 34.2389 0.5 32.6831V28.5754" stroke="#214759" stroke-miterlimit="10" stroke-linecap="round" stroke-linejoin="round"/>
<path d="M4.30764 40.5C5.70957 40.5 6.84606 39.3807 6.84606 38C6.84606 36.6193 5.70957 35.5001 4.30764 35.5001C2.90571 35.5001 1.76923 36.6193 1.76923 38C1.76923 39.3807 2.90571 40.5 4.30764 40.5Z" stroke="#214759" stroke-miterlimit="10" stroke-linecap="round" stroke-linejoin="round"/>
<path d="M5.57693 11.5V3.40237C5.57693 3.18016 5.39396 2.99996 5.16832 2.99996H4.26433C3.58735 2.99996 3.03851 2.45944 3.03851 1.79272V0.902414C3.03851 0.680201 3.22149 0.5 3.44712 0.5H5.39208H8.25231H16.5914C16.817 0.5 17 0.680201 17 0.902414V1.79272C17 2.45944 16.4511 2.99996 15.7741 2.99996H14.8701C14.6444 2.99996 14.4615 3.18016 14.4615 3.40237C14.4615 3.40237 14.4615 10.6809 14.4615 11.5M8.11535 11.5C8.11535 10.6809 8.11535 3.40237 8.11535 3.40237C8.11535 3.18016 8.29832 2.99996 8.52395 2.99996H11.5144C11.7401 2.99996 11.923 3.18016 11.923 3.40237C11.923 3.40237 11.923 10.6809 11.923 11.5" stroke="#214759" stroke-miterlimit="10" stroke-linecap="round" stroke-linejoin="round"/>
<path d="M4.30768 38V35.5" stroke="#214759" stroke-miterlimit="10" stroke-linecap="round" stroke-linejoin="round"/>
<path d="M15.7308 40.5C17.1327 40.5 18.2692 39.3807 18.2692 38C18.2692 36.6193 17.1327 35.5001 15.7308 35.5001C14.3288 35.5001 13.1924 36.6193 13.1924 38C13.1924 39.3807 14.3288 40.5 15.7308 40.5Z" stroke="#214759" stroke-miterlimit="10" stroke-linecap="round" stroke-linejoin="round"/>
<path d="M15.7307 38V35.5" stroke="#214759" stroke-miterlimit="10" stroke-linecap="round" stroke-linejoin="round"/>
<path d="M4.30768 15.5V31.75" stroke="#214759" stroke-miterlimit="10" stroke-linecap="round" stroke-linejoin="round"/>
<path d="M8.11536 15.5V31.75" stroke="#214759" stroke-miterlimit="10" stroke-linecap="round" stroke-linejoin="round"/>
<path d="M11.9231 15.5V31.75" stroke="#214759" stroke-miterlimit="10" stroke-linecap="round" stroke-linejoin="round"/>
<path d="M15.7307 15.5V31.75" stroke="#214759" stroke-miterlimit="10" stroke-linecap="round" stroke-linejoin="round"/>
</svg>
