<svg width="37" height="33" viewBox="0 0 37 33" fill="none" xmlns="http://www.w3.org/2000/svg">
<path d="M31.7143 16.1072C32.8497 16.6961 33.8181 17.5621 34.5298 18.6249C35.2415 19.6878 35.6736 20.913 35.7857 22.1872C35.7857 27.4257 27.8871 31.6872 18.1429 31.6872C8.39857 31.6872 0.5 27.4529 0.5 22.2143C0.607754 20.9354 1.03765 19.7046 1.74959 18.6367C2.46153 17.5688 3.43232 16.6985 4.57143 16.1072" stroke="#214759" stroke-linecap="round" stroke-linejoin="round"/>
<path d="M10.2172 3.21432C4.78867 10 15.6458 12.7143 10.2172 19.5" stroke="#214759" stroke-linecap="round" stroke-linejoin="round"/>
<path d="M18.1428 0.500031C12.7142 7.28574 23.5713 15.4286 18.1428 22.2143" stroke="#214759" stroke-linecap="round" stroke-linejoin="round"/>
<path d="M26.0686 3.21432C20.64 10 31.4971 12.7143 26.0686 19.5" stroke="#214759" stroke-linecap="round" stroke-linejoin="round"/>
</svg>
