<svg width="41" height="41" viewBox="0 0 41 41" fill="none" xmlns="http://www.w3.org/2000/svg">
<path d="M3.35714 34.7857V20.9413C3.35714 14.4847 3.47931 9.7761 3.60789 6.6085C3.73399 3.50149 5.88492 0.970933 8.98419 0.717581C10.5312 0.591114 12.4548 0.5 14.7857 0.5C17.1167 0.5 19.0402 0.591105 20.5872 0.717581C23.6865 0.970933 25.8374 3.50149 25.9635 6.6085C26.0921 9.7761 26.2143 14.4847 26.2143 20.9413V34.7857H27.1063C28.0115 34.7857 28.8303 35.2562 28.9683 36.1509C29.029 36.5446 29.0714 37.0366 29.0714 37.6429C29.0714 38.2491 29.029 38.7411 28.9683 39.1349C28.8303 40.0295 28.0115 40.5 27.1063 40.5H2.46516C1.55988 40.5 0.741133 40.0295 0.603105 39.1349C0.542362 38.7411 0.5 38.2491 0.5 37.6429C0.5 37.0366 0.542362 36.5446 0.603105 36.1509C0.741133 35.2562 1.55988 34.7857 2.46516 34.7857H3.35714Z" stroke="#214759" stroke-linecap="round" stroke-linejoin="round"/>
<path d="M19.2341 14.693C20.2314 14.64 21.0624 14.0588 21.2334 13.0749C21.3544 12.3795 21.4524 11.3934 21.4524 10.0238C21.4524 8.65419 21.3544 7.66809 21.2334 6.97276C21.0624 5.98881 20.2314 5.40762 19.2341 5.35458C18.3126 5.30557 16.8987 5.2619 14.7857 5.2619C12.6728 5.2619 11.2589 5.30557 10.3373 5.35458C9.34 5.40762 8.50905 5.98881 8.338 6.97276C8.21705 7.66809 8.11905 8.65419 8.11905 10.0238C8.11905 11.3934 8.21705 12.3795 8.338 13.0749C8.50905 14.0588 9.34 14.64 10.3373 14.693C11.2589 14.742 12.6728 14.7857 14.7857 14.7857C16.8987 14.7857 18.3126 14.742 19.2341 14.693Z" stroke="#214759" stroke-linecap="round" stroke-linejoin="round"/>
<path d="M13.1168 28.6633C11.61 28.471 10.3911 28.2498 9.53438 28.0728C8.86238 27.9339 8.60591 27.1535 9.0521 26.632C10.3273 25.1414 12.758 22.4065 15.3844 20.0078C15.9949 19.4503 16.9398 19.9192 16.8863 20.7441C16.7551 22.7662 16.5994 24.4044 16.4547 25.67C17.9614 25.8624 19.1803 26.0835 20.0371 26.2606C20.7091 26.3994 20.9655 27.1798 20.5193 27.7014C19.2441 29.1919 16.8134 31.9269 14.1871 34.3255C13.5766 34.8831 12.6316 34.4142 12.6851 33.5893C12.8164 31.5672 12.972 29.929 13.1168 28.6633Z" stroke="#214759" stroke-linecap="round" stroke-linejoin="round"/>
<path d="M26.2143 30.0238H36.0828C38.5223 30.0238 40.5 28.0461 40.5 25.6066C40.5 24.1933 39.8238 22.8654 38.6809 22.0341L36.8308 20.6886C35.8451 19.9717 35.2619 18.8265 35.2619 17.6077V11.9286" stroke="#214759" stroke-linecap="round" stroke-linejoin="round"/>
<path d="M32.9128 6.24865C31.9413 6.28228 31.138 6.84015 31.0361 7.80677C30.9999 8.15039 30.9762 8.56763 30.9762 9.07144C30.9762 9.25239 30.9792 9.4221 30.9849 9.58134C31.036 11.0383 32.2114 11.8857 33.6691 11.9144C34.1147 11.9232 34.6413 11.9286 35.2619 11.9286C35.8824 11.9286 36.4091 11.9232 36.8548 11.9144C38.3124 11.8857 39.4878 11.0383 39.539 9.58134C39.5446 9.4221 39.5476 9.25239 39.5476 9.07144C39.5476 8.56763 39.5239 8.15039 39.4877 7.80677C39.3858 6.84015 38.5825 6.28228 37.6111 6.24865C37.0424 6.22895 36.2778 6.21429 35.2619 6.21429C34.246 6.21429 33.4814 6.22895 32.9128 6.24865Z" stroke="#214759" stroke-linecap="round" stroke-linejoin="round"/>
<path d="M37.6429 6.21425V2.40472" stroke="#214759" stroke-linecap="round" stroke-linejoin="round"/>
<path d="M32.881 6.21425V2.40472" stroke="#214759" stroke-linecap="round" stroke-linejoin="round"/>
</svg>
