<svg width="36" height="41" viewBox="0 0 36 41" fill="none" xmlns="http://www.w3.org/2000/svg">
<path d="M26.9375 40.4992H9.04416C8.16904 40.4992 7.3295 40.155 6.70898 39.5418C6.08847 38.9286 5.73744 38.0962 5.7326 37.2266V36.8084L7.56219 10.9362H28.4927L30.3223 36.8084V37.2266C30.3199 37.6634 30.2301 38.0954 30.0581 38.4973C29.886 38.8993 29.6351 39.2632 29.3201 39.5678C29.005 39.8724 28.6321 40.1117 28.223 40.2716C27.814 40.4315 27.377 40.5089 26.9375 40.4992Z" stroke="#214759" stroke-miterlimit="10" stroke-linecap="round"/>
<path d="M12.7399 3.97266H23.2418C24.6344 3.97266 25.97 4.52242 26.9547 5.501C27.9395 6.47957 28.4927 7.80681 28.4927 9.19073V11.0089H7.48901V9.19073C7.48901 7.80681 8.04223 6.47957 9.02697 5.501C10.0117 4.52242 11.3473 3.97266 12.7399 3.97266Z" stroke="#214759" stroke-miterlimit="10" stroke-linecap="round"/>
<path d="M29.5905 28.3177H31.9872C32.9157 28.3177 33.8064 27.9524 34.4647 27.3016C35.123 26.6509 35.4952 25.7677 35.5 24.845V16.1543C35.4952 15.2316 35.123 14.3483 34.4647 13.6976C33.8064 13.0469 32.9157 12.6816 31.9872 12.6816H28.6025" stroke="#214759" stroke-miterlimit="10" stroke-linecap="round"/>
<path d="M7.48902 10.9362H0.5V12.6816L6.59253 25.245" stroke="#214759" stroke-miterlimit="10" stroke-linecap="round"/>
<path d="M17.9908 0.5V3.97266" stroke="#214759" stroke-miterlimit="10" stroke-linecap="round"/>
<path d="M17.9908 17.8996H18.0091C18.0091 17.8996 21.5037 17.8996 21.5037 21.3723V30.0812C21.5037 30.0812 21.5037 33.5538 18.0091 33.5538H17.9908C17.9908 33.5538 14.4963 33.5538 14.4963 30.0812V21.3723C14.4963 21.3723 14.4963 17.8996 17.9908 17.8996Z" stroke="#214759" stroke-miterlimit="10" stroke-linecap="round"/>
</svg>
