<svg width="31" height="41" viewBox="0 0 31 41" fill="none" xmlns="http://www.w3.org/2000/svg">
<path d="M30.5 37.4231L30.5 3.57692C30.5 1.87758 29.0076 0.5 27.1667 0.5L3.83333 0.499999C1.99233 0.499999 0.500003 1.87758 0.500003 3.57692L0.500001 37.4231C0.500001 39.1225 1.99233 40.5 3.83333 40.5L27.1667 40.5C29.0076 40.5 30.5 39.1225 30.5 37.4231Z" stroke="#214759" stroke-linecap="round" stroke-linejoin="round"/>
<path d="M10.7308 12.8077C10.7308 15.3567 12.7971 17.4231 15.3462 17.4231C17.8952 17.4231 19.9615 15.3567 19.9615 12.8077C19.9615 10.2587 17.8952 8.19229 15.3462 8.19229C12.7971 8.19229 10.7308 10.2587 10.7308 12.8077Z" stroke="#214759" stroke-linecap="round" stroke-linejoin="round"/>
<path d="M19.9615 25.1154L19.9615 32.8077" stroke="#214759" stroke-linecap="round" stroke-linejoin="round"/>
<path d="M10.7308 25.1154L10.7308 32.8077" stroke="#214759" stroke-linecap="round" stroke-linejoin="round"/>
</svg>
