<svg width="41" height="41" viewBox="0 0 41 41" fill="none" xmlns="http://www.w3.org/2000/svg">
<path d="M2.23913 0.5H38.7609C38.7609 0.5 40.5 0.5 40.5 2.23913V38.7609C40.5 38.7609 40.5 40.5 38.7609 40.5H2.23913C2.23913 40.5 0.5 40.5 0.5 38.7609V2.23913C0.5 2.23913 0.5 0.5 2.23913 0.5Z" stroke="#214759" stroke-linecap="round" stroke-linejoin="round"/>
<path d="M17.8914 40.5V10.9348" stroke="#214759" stroke-linecap="round" stroke-linejoin="round"/>
<path d="M30.0652 40.5V11.8043C30.0652 11.5737 29.9736 11.3525 29.8105 11.1895C29.6475 11.0264 29.4263 10.9348 29.1957 10.9348H6.58697C6.35635 10.9348 6.13517 11.0264 5.9721 11.1895C5.80902 11.3525 5.71741 11.5737 5.71741 11.8043V40.5" stroke="#214759" stroke-linecap="round" stroke-linejoin="round"/>
<path d="M33.5435 18.7609C33.5435 19.2221 33.7267 19.6645 34.0528 19.9906C34.379 20.3168 34.8213 20.5 35.2826 20.5C35.7438 20.5 36.1862 20.3168 36.5123 19.9906C36.8385 19.6645 37.0217 19.2221 37.0217 18.7609C37.0217 18.2996 36.8385 17.8573 36.5123 17.5311C36.1862 17.205 35.7438 17.0217 35.2826 17.0217C34.8213 17.0217 34.379 17.205 34.0528 17.5311C33.7267 17.8573 33.5435 18.2996 33.5435 18.7609Z" stroke="#214759" stroke-linecap="round" stroke-linejoin="round"/>
<path d="M33.5435 27.4565C33.5435 27.9178 33.7267 28.3601 34.0528 28.6863C34.379 29.0124 34.8213 29.1957 35.2826 29.1957C35.7438 29.1957 36.1862 29.0124 36.5123 28.6863C36.8385 28.3601 37.0217 27.9178 37.0217 27.4565C37.0217 26.9953 36.8385 26.5529 36.5123 26.2268C36.1862 25.9006 35.7438 25.7174 35.2826 25.7174C34.8213 25.7174 34.379 25.9006 34.0528 26.2268C33.7267 26.5529 33.5435 26.9953 33.5435 27.4565Z" stroke="#214759" stroke-linecap="round" stroke-linejoin="round"/>
<path d="M14.4131 5.71739H21.3696" stroke="#214759" stroke-linecap="round" stroke-linejoin="round"/>
</svg>
