<svg width="30" height="41" viewBox="0 0 30 41" fill="none" xmlns="http://www.w3.org/2000/svg">
<path d="M4.60218 29.2179L1.06518 25.5005C0.311605 24.7084 0.311605 23.4244 1.06518 22.6324C1.81868 21.8404 3.04043 21.8404 3.79401 22.6324L4.64286 23.5246" stroke="#214759" stroke-miterlimit="10" stroke-linecap="round" stroke-linejoin="round"/>
<path d="M4.64231 23.0641L1.05764 19.8367C0.314119 19.1673 0.314119 18.0819 1.05764 17.4124C1.80125 16.7429 3.00682 16.7429 3.75034 17.4124L4.64286 18.2159" stroke="#214759" stroke-miterlimit="10" stroke-linecap="round" stroke-linejoin="round"/>
<path d="M4.64286 17.9359L1.12736 14.9196C0.29088 14.2019 0.29088 13.0382 1.12736 12.3204C1.96393 11.6026 3.32022 11.6026 4.1567 12.3204L4.59297 12.6947" stroke="#214759" stroke-miterlimit="10" stroke-linecap="round" stroke-linejoin="round"/>
<path d="M24.3214 26.0738V3.84419C24.3214 1.99721 22.8769 0.500032 21.095 0.500032H7.86924C6.08737 0.500032 4.64282 1.99721 4.64282 3.84419V32.0276C4.64282 33.8746 6.08737 35.3718 7.86924 35.3718H16.5716" stroke="#214759" stroke-miterlimit="10" stroke-linecap="round" stroke-linejoin="round"/>
<path d="M4.64282 4.60254H10.8571" stroke="#214759" stroke-miterlimit="10" stroke-linecap="round" stroke-linejoin="round"/>
<path d="M18.1071 30.2435H4.64282" stroke="#214759" stroke-miterlimit="10" stroke-linecap="round" stroke-linejoin="round"/>
<path d="M15 13.8333H16.0357V19.9872" stroke="#214759" stroke-miterlimit="10" stroke-linecap="round" stroke-linejoin="round"/>
<path d="M8.78568 19.9872C8.78568 19.9872 11.4613 18.5668 11.8928 15.8846" stroke="#214759" stroke-miterlimit="10" stroke-linecap="round" stroke-linejoin="round"/>
<path d="M11.8928 15.8846C11.8928 17.0175 10.9654 17.9359 9.8214 17.9359C8.6774 17.9359 7.74997 17.0175 7.74997 15.8846C7.74997 14.7518 8.6774 13.8333 9.8214 13.8333C10.9654 13.8333 11.8928 14.7518 11.8928 15.8846Z" stroke="#214759" stroke-miterlimit="10" stroke-linecap="round" stroke-linejoin="round"/>
<path d="M20.1786 13.8333H21.2143V19.9872" stroke="#214759" stroke-miterlimit="10" stroke-linecap="round" stroke-linejoin="round"/>
<path d="M8.78568 35.3718C8.78568 38.2063 11.1019 40.5 13.9643 40.5" stroke="#214759" stroke-miterlimit="10" stroke-linecap="round" stroke-linejoin="round"/>
<path d="M24.3214 27.1667C20.3141 27.1667 17.0714 30.8366 17.0714 35.3718" stroke="#214759" stroke-miterlimit="10" stroke-linecap="round" stroke-linejoin="round"/>
<path d="M24.3214 27.1128V22.4645C24.3214 19.9635 26.64 17.9359 29.5 17.9359V34.0345C29.5 36.4265 28.4784 38.7323 26.6354 40.5" stroke="#214759" stroke-miterlimit="10" stroke-linecap="round" stroke-linejoin="round"/>
<path d="M18.1071 4.60254H24.3214" stroke="#214759" stroke-miterlimit="10" stroke-linecap="round" stroke-linejoin="round"/>
</svg>
