<svg width="41" height="41" viewBox="0 0 41 41" fill="none" xmlns="http://www.w3.org/2000/svg">
<path d="M14.7859 3.35715C14.7859 1.7792 16.065 0.5 17.643 0.5H37.6428C39.2207 0.5 40.5 1.7792 40.5 3.35715V37.6427C40.5 39.2209 39.2207 40.5 37.6428 40.5H27.6429" stroke="#214759" stroke-linecap="round" stroke-linejoin="round"/>
<path d="M19.0695 15.5016C19.0695 16.1584 19.1988 16.8088 19.4502 17.4156C19.7015 18.0224 20.0699 18.5738 20.5344 19.0382C20.9988 19.5027 21.5502 19.8711 22.157 20.1224C22.7638 20.3738 23.4142 20.5032 24.071 20.5032C24.7278 20.5032 25.3782 20.3738 25.985 20.1224C26.5918 19.8711 27.1432 19.5027 27.6077 19.0382C28.0721 18.5738 28.4405 18.0224 28.6919 17.4156C28.9432 16.8088 29.0726 16.1584 29.0726 15.5016C29.0726 14.1751 28.5456 12.9029 27.6077 11.9649C26.6697 11.0269 25.3975 10.5 24.071 10.5C22.7445 10.5 21.4724 11.0269 20.5344 11.9649C19.5964 12.9029 19.0695 14.1751 19.0695 15.5016Z" stroke="#214759" stroke-linecap="round" stroke-linejoin="round"/>
<path d="M6.21399 17.6429L12.0317 17.643C12.8804 17.643 13.6943 17.9802 14.2944 18.5803L22.4198 26.7058C23.0199 27.3059 23.8339 27.643 24.6826 27.643L29.071 27.6429" stroke="#214759" stroke-linecap="round" stroke-linejoin="round"/>
<path d="M17.6427 21.9285L10.0086 29.5627C9.4085 30.1627 8.59456 30.5 7.74589 30.5H0.5" stroke="#214759" stroke-linecap="round" stroke-linejoin="round"/>
<path d="M11.9285 27.643L16.7055 32.42C17.3056 33.02 17.6427 33.8341 17.6427 34.6827V40.5" stroke="#214759" stroke-linecap="round" stroke-linejoin="round"/>
</svg>
