<svg width="37" height="41" viewBox="0 0 37 41" fill="none" xmlns="http://www.w3.org/2000/svg">
<path d="M8.38487 36.2113C8.43669 36.7548 8.37352 37.3029 8.1994 37.8207C8.02528 38.3385 7.74406 38.8145 7.37375 39.2183C7.00343 39.622 6.55219 39.9446 6.04892 40.1653C5.54566 40.386 5.00147 40.5 4.45122 40.5C3.90096 40.5 3.35677 40.386 2.8535 40.1653C2.35024 39.9446 1.899 39.622 1.52868 39.2183C1.15837 38.8145 0.877145 38.3385 0.703028 37.8207C0.528911 37.3029 0.46574 36.7548 0.517561 36.2113L1.72927 24.8534C1.79381 24.2718 1.76417 23.6837 1.64146 23.1114L0.939024 20.7074C0.914899 20.58 0.918067 20.4491 0.948323 20.323C0.978579 20.197 1.03524 20.0786 1.11463 19.9757C1.20041 19.8789 1.30566 19.801 1.42361 19.747C1.54157 19.693 1.66961 19.6641 1.79951 19.6622H7.0678C7.19769 19.6641 7.32574 19.693 7.44369 19.747C7.56165 19.801 7.6669 19.8789 7.75267 19.9757C7.83206 20.0786 7.88873 20.197 7.91899 20.323C7.94924 20.4491 7.95241 20.58 7.92828 20.7074L7.43658 23.181C7.25116 23.7434 7.15634 24.3313 7.1556 24.9231L8.38487 36.2113Z" stroke="#214759" stroke-linecap="round" stroke-linejoin="round"/>
<path d="M11.4756 10.9521C11.4189 9.60405 11.6369 8.2585 12.1164 6.99593C12.596 5.73336 13.3274 4.5797 14.2667 3.60395C15.2061 2.6282 16.3342 1.85041 17.5836 1.31708C18.8329 0.783755 20.1779 0.505855 21.538 0.5C24.4582 0.5 27.2589 1.65075 29.3238 3.69911C31.3887 5.74747 32.5487 8.52563 32.5487 11.4224V19.6622" stroke="#214759" stroke-linecap="round" stroke-linejoin="round"/>
<path d="M11.4756 10.9521C11.4756 12.8001 12.2157 14.5725 13.533 15.8793C14.8503 17.186 16.637 17.9202 18.5 17.9202C20.363 17.9202 22.1497 17.186 23.467 15.8793C24.7843 14.5725 25.5244 12.8001 25.5244 10.9521C25.5244 8.18003 24.4143 5.5215 22.4383 3.56135C20.4623 1.6012 17.7823 0.5 14.9878 0.5C12.1933 0.5 9.51331 1.6012 7.53732 3.56135C5.56133 5.5215 4.45123 8.18003 4.45123 10.9521V19.6622" stroke="#214759" stroke-linecap="round" stroke-linejoin="round"/>
<path d="M7.17308 24.8882H1.72919" stroke="#214759" stroke-linecap="round" stroke-linejoin="round"/>
<path d="M36.4825 36.2113C36.5343 36.7548 36.4711 37.3029 36.297 37.8207C36.1229 38.3385 35.8417 38.8145 35.4713 39.2183C35.101 39.622 34.6498 39.9446 34.1465 40.1653C33.6433 40.386 33.0991 40.5 32.5488 40.5C31.9986 40.5 31.4544 40.386 30.9511 40.1653C30.4478 39.9446 29.9966 39.622 29.6263 39.2183C29.256 38.8145 28.9747 38.3385 28.8006 37.8207C28.6265 37.3029 28.5633 36.7548 28.6152 36.2113L29.8269 24.8534C29.8914 24.2718 29.8618 23.6837 29.7391 23.1114L29.0366 20.7074C29.0125 20.58 29.0157 20.4491 29.0459 20.323C29.0762 20.197 29.1328 20.0786 29.2122 19.9757C29.298 19.8789 29.4033 19.801 29.5212 19.747C29.6392 19.693 29.7672 19.6641 29.8971 19.6622H35.1654C35.2953 19.6641 35.4233 19.693 35.5413 19.747C35.6592 19.801 35.7645 19.8789 35.8503 19.9757C35.9297 20.0786 35.9863 20.197 36.0166 20.323C36.0468 20.4491 36.05 20.58 36.0259 20.7074L35.341 23.181C35.2183 23.7534 35.1887 24.3415 35.2532 24.9231L36.4825 36.2113Z" stroke="#214759" stroke-linecap="round" stroke-linejoin="round"/>
<path d="M35.2707 24.8882H29.8268" stroke="#214759" stroke-linecap="round" stroke-linejoin="round"/>
</svg>
