<svg width="41" height="41" viewBox="0 0 41 41" fill="none" xmlns="http://www.w3.org/2000/svg">
<path d="M31.2719 23.9249C31.372 25.0491 29.9775 26.0202 28.3839 25.7641L25.1956 25.2513C24.9988 25.2198 24.7975 25.2064 24.5963 25.2116L18.0193 25.3867L11.4421 25.2116C11.2409 25.2064 11.0396 25.2198 10.8428 25.2513L7.65452 25.7641C5.84012 26.0557 4.28348 24.7562 4.89748 23.4514C4.90961 23.4258 4.92201 23.3998 4.9347 23.3735C5.94377 21.3069 5.41966 19.549 5.20021 18.9866C5.1459 18.8475 5.11337 18.7042 5.10454 18.5595L4.99619 16.7853L5.10454 15.0111C5.11335 14.8665 5.14588 14.7232 5.20021 14.5841C5.41966 14.0216 5.94377 12.2637 4.9347 10.1971C4.92201 10.1709 4.90961 10.1448 4.89748 10.1193C4.28348 8.8145 5.84012 7.51494 7.65452 7.80657L9.68866 8.13369L10.8428 8.31935C11.0396 8.35091 11.2409 8.36432 11.4421 8.35906L13.4316 8.30621L18.0193 8.18393L24.5962 8.35906C24.7975 8.36432 24.9988 8.35091 25.1956 8.31935L28.3839 7.80658C30.1983 7.51495 31.7549 8.8145 31.1409 10.1193C31.1291 10.1448 31.1164 10.1709 31.1037 10.1972C30.0946 12.2638 30.6187 14.0216 30.8382 14.5841C30.8925 14.7232 30.925 14.8665 30.9341 15.0112L31.0422 16.7854L30.9341 18.5595C30.925 18.7042 30.8925 18.8475 30.8382 18.9866C30.791 19.107 30.7301 19.2827 30.673 19.5044C30.4646 20.3169 30.311 21.75 31.1037 23.3735C31.1164 23.3998 31.1291 23.4259 31.1409 23.4514C31.2159 23.6102 31.2584 23.769 31.2719 23.9249Z" stroke="#214759" stroke-miterlimit="10" stroke-linecap="round" stroke-linejoin="round"/>
<path d="M9.68872 8.13371L10.1323 6.98852C10.185 6.85256 10.26 6.72451 10.3546 6.60643C10.7364 6.12943 11.7747 4.59348 11.4411 2.33623C11.4367 2.30756 11.4328 2.27918 11.429 2.25129C11.2404 0.832368 13.1265 0.0219196 14.7733 0.805541L16.2646 1.51527L17.6662 2.18213C17.8449 2.26707 18.0335 2.33571 18.2276 2.38645L24.5726 4.0473L30.8107 6.04291C31.0018 6.10392 31.1983 6.14705 31.3963 6.1715L34.6027 6.56724C36.4276 6.79259 37.5197 8.46819 36.5335 9.54578C36.5142 9.56707 36.4943 9.58839 36.4742 9.60994C34.8773 11.3063 34.8415 13.1336 34.8798 13.7326C34.8892 13.8809 34.8765 14.0269 34.841 14.1678L34.4023 15.8952L33.7566 17.5621C33.704 17.6981 33.629 17.8261 33.5347 17.9442C33.2546 18.2939 32.621 19.2143 32.4352 20.5709C32.3676 21.0634 32.3594 21.6132 32.4481 22.2144C32.4523 22.243 32.4564 22.2714 32.46 22.2993C32.5637 23.0803 32.0393 23.677 31.272 23.9249" stroke="#214759" stroke-miterlimit="10" stroke-linecap="round" stroke-linejoin="round"/>
<path d="M30.4091 35.0375H3.36364M3.36364 35.0375C1.78209 35.0375 0.5 36.2603 0.5 37.7688C0.5 39.2772 1.78209 40.5 3.36364 40.5H34.6818C37.8951 40.5 40.5 38.0155 40.5 34.9508C40.5 31.886 37.8951 29.4016 34.6818 29.4016H3.36364C1.78209 29.4016 0.5 30.6244 0.5 32.1328V32.3062C0.5 33.8147 1.78209 35.0375 3.36364 35.0375Z" stroke="#214759" stroke-miterlimit="10" stroke-linecap="round" stroke-linejoin="round"/>
<path d="M32.6931 32.859L30.4091 35.0375L32.6875 37.2106" stroke="#214759" stroke-miterlimit="10" stroke-linecap="round" stroke-linejoin="round"/>
<path d="M0.636719 31.2981V31.2976L1.86123 22.2499C1.86123 21.2416 2.7185 20.4244 3.77575 20.4244H5.51688" stroke="#214759" stroke-miterlimit="10" stroke-linecap="round" stroke-linejoin="round"/>
<path d="M40.0973 32.9187V32.9183L37.9838 22.2499C37.9838 21.2416 37.1266 20.4244 36.0698 20.4244H32.4577H32.4572" stroke="#214759" stroke-miterlimit="10" stroke-linecap="round" stroke-linejoin="round"/>
</svg>
