<svg width="41" height="41" viewBox="0 0 41 41" fill="none" xmlns="http://www.w3.org/2000/svg">
<path d="M8.83026 19.9198L8.58374 22.382M13.6236 22.382L13.3771 19.9199" stroke="#214759" stroke-miterlimit="22.9256" stroke-linecap="round" stroke-linejoin="round"/>
<path d="M13.6236 22.382L16.281 23.1233M28.8788 21.1527L28.5837 23.5892L25.2321 24.8077M33.3286 21.1527L33.6237 23.5892L37.6051 25.0367C39.1014 25.5806 40.5002 26.3402 40.5002 27.9317V38.1641H37.4822L33.8603 38.1642H28.1564M12.8437 38.1642H0.5V26.7246C0.5 25.1324 1.86153 24.2573 3.39506 23.8295L5.47611 23.2489L8.58373 22.3819" stroke="#214759" stroke-miterlimit="22.9256" stroke-linecap="round" stroke-linejoin="round"/>
<path fill-rule="evenodd" clip-rule="evenodd" d="M28.6893 11.438C28.6893 12.766 29.7759 13.8525 31.1038 13.8525H35.9328V16.8706C35.9328 19.5265 33.7597 21.6996 31.1037 21.6996C28.4479 21.6996 26.2748 19.5265 26.2748 16.8706V13.8525C27.6028 13.8525 28.6893 12.766 28.6893 11.438Z" stroke="#214759" stroke-miterlimit="22.9256" stroke-linecap="round" stroke-linejoin="round"/>
<path d="M5.0675 12.6453V8.21873C5.0675 7.55474 5.61077 7.01148 6.27475 7.01148C6.27475 5.68222 8.07025 4.59698 11.1037 4.59698C14.1371 4.59698 15.9326 5.68222 15.9326 7.01148C16.5966 7.01148 17.1398 7.55474 17.1398 8.21873V12.6453M15.9326 12.6453V15.6634C15.9326 18.3194 13.7595 20.4924 11.1037 20.4924C8.4478 20.4924 6.27475 18.3194 6.27475 15.6634V12.6453" stroke="#214759" stroke-miterlimit="22.9256" stroke-linecap="round" stroke-linejoin="round"/>
<path d="M15.9327 15.6633H17.1399C17.8039 15.6633 18.3472 15.1201 18.3472 14.4561V13.8525C18.3472 13.1885 17.8039 12.6452 17.1399 12.6452H15.9326H11.1037C9.77574 12.6452 8.68922 11.5587 8.68922 10.2307C8.68922 11.5587 7.6027 12.6452 6.27472 12.6452H5.06748C4.40357 12.6452 3.86023 13.1885 3.86023 13.8525V14.4561C3.86023 15.1201 4.40349 15.6633 5.06748 15.6633H6.27472" stroke="#214759" stroke-miterlimit="22.9256" stroke-linecap="round" stroke-linejoin="round"/>
<path d="M23.8603 21.9563V12.8253C23.8603 8.84142 27.1199 5.58185 31.1037 5.58185C35.0875 5.58185 38.3471 8.84166 38.3471 12.8253V25.3331" stroke="#214759" stroke-miterlimit="22.9256" stroke-linecap="round" stroke-linejoin="round"/>
<path d="M18.7074 32.4836L18.513 34.4252M22.4872 34.4252L22.2928 32.4836" stroke="#214759" stroke-miterlimit="22.9256" stroke-linecap="round" stroke-linejoin="round"/>
<path d="M24.308 26.7473V29.1273C24.308 31.2216 22.5944 32.9352 20.5002 32.9352C18.4059 32.9352 16.6923 31.2216 16.6923 29.1273V26.7473" stroke="#214759" stroke-miterlimit="22.9256" stroke-linecap="round" stroke-linejoin="round"/>
<path d="M15.418 26.5001H25.5821" stroke="#214759" stroke-miterlimit="22.9256" stroke-linecap="round" stroke-linejoin="round"/>
<path d="M15.7403 26.7474V25.3194C15.7403 22.7015 17.8822 20.5596 20.5001 20.5596C23.118 20.5596 25.26 22.7015 25.26 25.3194V26.7474" stroke="#214759" stroke-miterlimit="22.9256" stroke-linecap="round" stroke-linejoin="round"/>
<path d="M18.513 34.4251L15.7388 35.269C14.2157 35.7322 12.8438 36.572 12.8438 38.164V40.5001H28.1565V38.164C28.1565 36.5719 26.7845 35.7322 25.2614 35.269L22.4872 34.4251" stroke="#214759" stroke-miterlimit="22.9256" stroke-linecap="round" stroke-linejoin="round"/>
<path d="M22.4872 34.4251C22.4872 35.3011 21.5975 36.0112 20.5001 36.0112C19.4026 36.0112 18.5129 35.3011 18.5129 34.4251" stroke="#214759" stroke-miterlimit="22.9256" stroke-linecap="round" stroke-linejoin="round"/>
<path d="M13.6236 22.382C13.6236 23.258 12.4954 23.9681 11.1037 23.9681C9.71195 23.9681 8.58374 23.258 8.58374 22.382" stroke="#214759" stroke-miterlimit="22.9256" stroke-linecap="round" stroke-linejoin="round"/>
<path d="M33.6237 23.5892C33.6237 24.4652 32.4954 25.1753 31.1037 25.1753C29.712 25.1753 28.5838 24.4652 28.5838 23.5892" stroke="#214759" stroke-miterlimit="22.9256" stroke-linecap="round" stroke-linejoin="round"/>
<path fill-rule="evenodd" clip-rule="evenodd" d="M20.5001 6.96583L18.075 5.17773C14.7929 2.75777 17.8954 -1.23315 20.5001 1.32444C23.1049 -1.23315 26.2073 2.75777 22.9252 5.17773L20.5001 6.96583Z" stroke="#214759" stroke-miterlimit="22.9256" stroke-linecap="round" stroke-linejoin="round"/>
</svg>
