<svg width="41" height="38" viewBox="0 0 41 38" fill="none" xmlns="http://www.w3.org/2000/svg">
<path d="M14.1683 21.3807C14.1683 23.0421 14.8355 24.6354 16.0231 25.8102C17.2108 26.9849 18.8216 27.6449 20.5012 27.6449C22.1808 27.6449 23.7916 26.9849 24.9792 25.8102C26.1668 24.6354 26.8341 23.0421 26.8341 21.3807C26.8341 19.7193 26.1668 18.126 24.9792 16.9512C23.7916 15.7765 22.1808 15.1165 20.5012 15.1165C18.8216 15.1165 17.2108 15.7765 16.0231 16.9512C14.8355 18.126 14.1683 19.7193 14.1683 21.3807Z" stroke="#214759" stroke-linecap="round" stroke-linejoin="round"/>
<path d="M25.0756 16.1605C26.5997 12.9491 27.5159 9.80653 27.8262 6.73498C28.2906 3.33142 26.2177 0.5 20.5012 0.5C14.7847 0.5 12.7117 3.33351 13.1761 6.73498C13.4864 9.80653 14.4026 12.9491 15.9267 16.1605" stroke="#214759" stroke-linecap="round" stroke-linejoin="round"/>
<path d="M22.4078 27.9801C24.4555 30.8929 27.3111 34.4812 29.8443 36.2832C32.5886 38.3713 36.1075 38.0226 38.9658 33.1261C41.824 28.2296 40.3801 25.0369 37.1715 23.7339C34.3259 22.4644 31.1172 21.6772 27.5412 21.3786" stroke="#214759" stroke-linecap="round" stroke-linejoin="round"/>
<path d="M13.4589 21.3807C9.88506 21.6793 6.6764 22.4665 3.83293 23.7361C0.620044 25.0369 -0.823856 28.2317 2.03439 33.1282C4.89264 38.0247 8.4095 38.3839 11.1559 36.2854C13.689 34.4833 16.5912 30.4272 18.6409 27.5143" stroke="#214759" stroke-linecap="round" stroke-linejoin="round"/>
</svg>
