<svg width="41" height="41" viewBox="0 0 41 41" fill="none" xmlns="http://www.w3.org/2000/svg">
<path d="M4.5 0.5L0.5 4.94444V38.2778C0.5 39.6111 1.3 40.5 2.5 40.5H6.5C7.7 40.5 8.5 39.6111 8.5 38.2778V4.94444L4.5 0.5Z" stroke="#214759" stroke-linecap="round" stroke-linejoin="round"/>
<path d="M8.49988 13.5H16.4999" stroke="#214759" stroke-linecap="round" stroke-linejoin="round"/>
<path d="M8.49988 27.5H16.4999" stroke="#214759" stroke-linecap="round" stroke-linejoin="round"/>
<path d="M8.49988 18.3889H16.4999" stroke="#214759" stroke-linecap="round" stroke-linejoin="round"/>
<path d="M8.49988 32.3889H16.4999" stroke="#214759" stroke-linecap="round" stroke-linejoin="round"/>
<path d="M20.5 0.5L16.5 4.94444V38.2778C16.5 39.6111 17.3 40.5 18.5 40.5H22.5C23.7 40.5 24.5 39.6111 24.5 38.2778V4.94444L20.5 0.5Z" stroke="#214759" stroke-linecap="round" stroke-linejoin="round"/>
<path d="M24.5 13.5H32.5" stroke="#214759" stroke-linecap="round" stroke-linejoin="round"/>
<path d="M24.5 27.5H32.5" stroke="#214759" stroke-linecap="round" stroke-linejoin="round"/>
<path d="M24.5 18.3889H32.5" stroke="#214759" stroke-linecap="round" stroke-linejoin="round"/>
<path d="M24.5 32.3889H32.5" stroke="#214759" stroke-linecap="round" stroke-linejoin="round"/>
<path d="M36.5 0.5L32.5 4.94444V38.2778C32.5 39.6111 33.3 40.5 34.5 40.5H38.5C39.7 40.5 40.5 39.6111 40.5 38.2778V4.94444L36.5 0.5Z" stroke="#214759" stroke-linecap="round" stroke-linejoin="round"/>
</svg>
