<svg width="27" height="41" viewBox="0 0 27 41" fill="none" xmlns="http://www.w3.org/2000/svg">
<path d="M20.5 9.49999V2.5C20.5 2.23735 20.4483 1.97728 20.3478 1.73463C20.2473 1.49198 20.0999 1.2715 19.9142 1.08579C19.7285 0.900069 19.508 0.75275 19.2654 0.652241C19.0227 0.551732 18.7627 0.5 18.5 0.5H14.5C13.9696 0.5 13.4609 0.710713 13.0858 1.08579C12.7107 1.46086 12.5 1.96957 12.5 2.5V9.49999" stroke="#214759" stroke-linecap="round" stroke-linejoin="round"/>
<path d="M8.5 32.4999H24.5" stroke="#214759" stroke-linecap="round" stroke-linejoin="round"/>
<path d="M26.5 2.5H20.5" stroke="#214759" stroke-linecap="round" stroke-linejoin="round"/>
<path d="M12.5 2.5C9.31742 2.5 6.26516 3.76428 4.01472 6.01471C1.76428 8.26515 0.5 11.3174 0.5 14.5V36.5" stroke="#214759" stroke-linecap="round" stroke-linejoin="round"/>
<path d="M0.5 22.5H8.50001" stroke="#214759" stroke-linecap="round" stroke-linejoin="round"/>
<path d="M24.5 16.5001C24.5 14.3783 23.6572 12.3435 22.1569 10.8432C20.6566 9.34291 18.6217 8.50006 16.5 8.50006C14.3783 8.50006 12.3434 9.34291 10.8431 10.8432C9.34286 12.3435 8.5 14.3783 8.5 16.5001V36.5C8.5 37.0253 8.60346 37.5455 8.80448 38.0308C9.0055 38.5161 9.30014 38.957 9.67157 39.3285C10.043 39.6999 10.484 39.9945 10.9693 40.1955C11.4546 40.3966 11.9747 40.5 12.5 40.5H20.5C21.5609 40.5 22.5783 40.0786 23.3285 39.3285C24.0786 38.5783 24.5 37.5609 24.5 36.5V16.5001Z" stroke="#214759" stroke-linecap="round" stroke-linejoin="round"/>
</svg>
