<svg width="37" height="41" viewBox="0 0 37 41" fill="none" xmlns="http://www.w3.org/2000/svg">
<path d="M0.5 17.3334C0.5 10.9381 0.5 7.74056 1.25504 6.66482C2.01006 5.58908 5.01664 4.55992 11.0298 2.50158L12.1754 2.10944C15.31 1.03648 16.8772 0.5 18.5 0.5C20.1228 0.5 21.69 1.03648 24.8246 2.10944L25.9702 2.50158C31.9834 4.55992 34.99 5.58908 35.745 6.66482C36.5 7.74056 36.5 10.9381 36.5 17.3334V20.4828C36.5 31.7588 28.022 37.231 22.7028 39.5546C21.26 40.1848 20.5386 40.5 18.5 40.5C16.4614 40.5 15.74 40.1848 14.2971 39.5546C8.97792 37.231 0.5 31.7588 0.5 20.4828V17.3334Z" stroke="#214759" stroke-linecap="round"/>
<path d="M26.5 23.1911C26.5 24.1509 26.306 25.1014 25.9291 25.9881C25.5522 26.8749 24.9997 27.6806 24.3033 28.3593C23.6069 29.038 22.7801 29.5763 21.8701 29.9436C20.9602 30.311 19.9849 30.5 19 30.5C18.0151 30.5 17.0398 30.311 16.1299 29.9436C15.2199 29.5763 14.3931 29.038 13.6967 28.3593C13.0003 27.6806 12.4478 26.8749 12.0709 25.9881C11.694 25.1014 11.5 24.1509 11.5 23.1911C11.5 18.8548 14.1415 16.4952 16.217 14.1048L17.4434 15.8823L19 11.5C19 11.5 26.5 15.8823 26.5 23.1911Z" stroke="#214759" stroke-miterlimit="10" stroke-linecap="round"/>
<path d="M22.75 27.5929C22.75 28.3639 22.3549 29.1033 21.6516 29.6485C20.9484 30.1937 19.9946 30.5 19 30.5C18.0054 30.5 17.0516 30.1937 16.3483 29.6485C15.6451 29.1033 15.25 28.3639 15.25 27.5929C15.25 24.6858 19 22.3571 19 22.3571C19 22.3571 22.75 24.6858 22.75 27.5929Z" stroke="#214759" stroke-miterlimit="10" stroke-linecap="round"/>
</svg>
