<svg width="45" height="41" viewBox="0 0 45 41" fill="none" xmlns="http://www.w3.org/2000/svg">
<path d="M4.11902 7.77619H40.4809V40.5H4.11902V7.77619Z" stroke="#214759" stroke-miterlimit="10" stroke-linecap="round" stroke-linejoin="round"/>
<path d="M22.3095 18.5952C25.2041 18.5952 27.9802 19.7451 30.027 21.792C32.0738 23.8388 33.2237 26.6149 33.2237 29.5095V40.5H11.3952V29.5857C11.3851 28.146 11.66 26.7186 12.204 25.3856C12.748 24.0526 13.5503 22.8404 14.5648 21.8188C15.5793 20.7973 16.7859 19.9865 18.1151 19.4333C19.4442 18.88 20.8697 18.5952 22.3095 18.5952Z" stroke="#214759" stroke-miterlimit="10" stroke-linecap="round" stroke-linejoin="round"/>
<path d="M0.5 7.77619H44.119" stroke="#214759" stroke-miterlimit="10" stroke-linecap="round" stroke-linejoin="round"/>
<path d="M5.94763 0.5H38.6714V7.77619H5.94763V0.5Z" stroke="#214759" stroke-miterlimit="10" stroke-linecap="round" stroke-linejoin="round"/>
<path d="M27.7572 35.0524C27.7572 36.4972 27.1832 37.8828 26.1616 38.9044C25.14 39.9261 23.7544 40.5 22.3096 40.5C20.8648 40.5 19.4791 39.9261 18.4575 38.9044C17.4359 37.8828 16.8619 36.4972 16.8619 35.0524C16.8619 32.0238 22.3096 26.8619 22.3096 26.8619C22.3096 26.8619 27.7572 32.0238 27.7572 35.0524Z" stroke="#214759" stroke-miterlimit="10" stroke-linecap="round" stroke-linejoin="round"/>
<path d="M0.5 40.5H44.119" stroke="#214759" stroke-miterlimit="10" stroke-linecap="round" stroke-linejoin="round"/>
</svg>
