<svg width="36" height="41" viewBox="0 0 36 41" fill="none" xmlns="http://www.w3.org/2000/svg">
<path d="M22.4073 25.341C23.1482 24.4035 23.591 23.2245 23.591 21.9427C23.591 21.0782 23.2993 20.3274 22.8504 19.549C22.394 19.8474 21.8335 20.0028 21.2339 19.9487C20.0198 19.8395 19.0484 18.8547 18.9662 17.6523C18.95 17.4157 18.9674 17.1855 19.0142 16.9661C19.2673 15.7792 19.1763 14.5447 18.2915 13.7043C18.2637 13.6779 18.249 13.6642 18.249 13.6642C16.0649 17.1616 12.4093 17.6315 12.4093 21.9426C12.4093 23.2245 12.852 24.4034 13.5929 25.3409" stroke="#214759" stroke-miterlimit="10" stroke-linecap="round" stroke-linejoin="round"/>
<path d="M18 34.3599V40.5" stroke="#214759" stroke-miterlimit="10" stroke-linecap="round" stroke-linejoin="round"/>
<path d="M25.8789 34.3599L26.8179 36.5833C27.505 38.2105 29.1141 39.2702 30.898 39.2702H33.8411" stroke="#214759" stroke-miterlimit="10" stroke-linecap="round" stroke-linejoin="round"/>
<path d="M10.1211 34.3599L9.18214 36.5833C8.49498 38.2105 6.88587 39.2702 5.10201 39.2702H2.15881" stroke="#214759" stroke-miterlimit="10" stroke-linecap="round" stroke-linejoin="round"/>
<path d="M27.4386 25.341C28.9929 23.351 29.9183 20.8563 29.9183 18.1477C29.9183 15.4132 28.5534 13.2135 26.7475 10.5616C26.1652 10.9062 25.4838 11.1041 24.7553 11.1025C22.6928 11.0978 20.9772 9.464 20.8999 7.42667C20.8976 7.3669 20.8967 7.30738 20.8972 7.24819C20.918 4.70198 20.1235 2.25973 18.2556 0.506395C18.2511 0.502132 18.2488 0.5 18.2488 0.5C14.4656 7.07561 6.08154 8.95733 6.08154 18.1477C6.08154 20.8563 7.0069 23.351 8.56127 25.341" stroke="#214759" stroke-miterlimit="10" stroke-linecap="round" stroke-linejoin="round"/>
<path d="M8.72039 34.3599H27.2795C31.8196 34.3599 35.5 30.7218 35.5 26.2341V25.341H0.5V26.2341C0.5 30.7218 4.18036 34.3599 8.72039 34.3599Z" stroke="#214759" stroke-miterlimit="10" stroke-linecap="round" stroke-linejoin="round"/>
</svg>
