<svg width="41" height="41" viewBox="0 0 41 41" fill="none" xmlns="http://www.w3.org/2000/svg">
<path d="M10.5001 10.5V5.50001C10.5001 4.17392 11.0269 2.90215 11.9646 1.96447C12.9023 1.02679 14.174 0.5 15.5001 0.5H25.5001C26.8262 0.5 28.098 1.02679 29.0357 1.96447C29.9733 2.90215 30.5001 4.17392 30.5001 5.50001V10.5" stroke="#214759" stroke-linecap="round" stroke-linejoin="round"/>
<path d="M0.5 15.4999C0.5 14.1739 1.02678 12.9021 1.96447 11.9644C2.90215 11.0267 4.17392 10.4999 5.5 10.4999H35.5C36.8261 10.4999 38.0979 11.0267 39.0355 11.9644C39.9732 12.9021 40.5 14.1739 40.5 15.4999V35.5C40.5 36.8261 39.9732 38.0978 39.0355 39.0355C38.0979 39.9732 36.8261 40.5 35.5 40.5H5.5C4.17392 40.5 2.90215 39.9732 1.96447 39.0355C1.02678 38.0978 0.5 36.8261 0.5 35.5V15.4999Z" stroke="#214759" stroke-linecap="round" stroke-linejoin="round"/>
<path d="M15.5 25.5H25.5" stroke="#214759" stroke-linecap="round" stroke-linejoin="round"/>
<path d="M20.5001 20.5V30.5" stroke="#214759" stroke-linecap="round" stroke-linejoin="round"/>
</svg>
