<svg width="33" height="23" viewBox="0 0 33 23" fill="none" xmlns="http://www.w3.org/2000/svg">
<path d="M5.91217 11.6718C4.83217 11.6113 4.10961 11.5188 3.15915 10.7889C0.59007 8.81633 0.499242 4.28894 0.499242 4.28894C0.499242 4.28894 4.57373 2.9599 7.14282 4.9326C8.06356 5.63967 8.62507 6.41292 9.01906 7.45025" stroke="#214759" stroke-miterlimit="10" stroke-linecap="round" stroke-linejoin="round"/>
<path d="M5.91215 11.6718C4.8327 11.7287 4.11061 11.9926 3.16218 12.7096C0.598572 14.6471 0.518114 19.1081 0.518114 19.1081C0.518114 19.1081 4.59409 20.4275 7.15771 18.4899C7.91216 17.8547 8.41217 17.3395 8.91222 16.8242" stroke="#214759" stroke-miterlimit="10" stroke-linecap="round" stroke-linejoin="round"/>
<ellipse cx="27.2722" cy="9.84357" rx="0.851007" ry="0.876957" stroke="#214759" stroke-linecap="round" stroke-linejoin="round"/>
<path d="M32.2813 12.6769C29.5804 17.9524 24.6094 21.2061 19.226 21.2061C13.836 21.2061 8.85967 17.9443 6.16121 12.6584C5.99042 12.3243 6.00568 11.926 6.1707 11.6175C8.87173 6.34204 13.8426 3.08835 19.226 3.08835C24.616 3.08835 29.5924 6.35012 32.2908 11.636C32.4616 11.9701 32.4463 12.3684 32.2813 12.6769Z" stroke="#214759" stroke-miterlimit="22.926" stroke-linecap="round" stroke-linejoin="round"/>
<path d="M17.2604 3.21514C15.0967 0.465455 11.5183 0.0589065 10.4361 0.872909C9.10276 1.87585 10.4988 3.6873 11.2758 5.58539" stroke="#214759" stroke-miterlimit="22.926" stroke-linecap="round" stroke-linejoin="round"/>
<path d="M10.8388 18.3791C10.1006 19.9098 9.33129 21.2961 10.4362 22.1271C11.3567 22.8196 14.084 22.6286 16.2098 20.8635" stroke="#214759" stroke-miterlimit="22.926" stroke-linecap="round" stroke-linejoin="round"/>
<path d="M23.5828 20.4694C21.0897 18.5988 19.4688 15.5683 19.4688 12.1471C19.4688 8.72734 21.0883 5.69787 23.5796 3.82715" stroke="#214759" stroke-miterlimit="22.926" stroke-linecap="round" stroke-linejoin="round"/>
<path d="M19.6663 14.3184C18.9678 14.7615 18.1705 15.0058 17.3421 15.0058C15.6412 15.0058 14.0709 13.9765 13.2193 12.3085C13.1654 12.203 13.1703 12.0773 13.2223 11.9799C14.0746 10.3152 15.6434 9.28844 17.3421 9.28844C18.1671 9.28844 18.9614 9.53076 19.6579 9.9705" stroke="#214759" stroke-miterlimit="22.926" stroke-linecap="round" stroke-linejoin="round"/>
</svg>
