<svg width="41" height="41" viewBox="0 0 41 41" fill="none" xmlns="http://www.w3.org/2000/svg">
<path d="M9.91802 34.6748H7.10944C6.54703 34.6748 6.09116 34.2257 6.09116 33.6716V30.8318C6.09116 30.2777 6.54703 29.8285 7.10944 29.8285H13.7449" stroke="#214759" stroke-miterlimit="10" stroke-linecap="round" stroke-linejoin="round"/>
<path d="M13.2059 7.77755H12.3981V6.15988C13.1975 5.54648 13.6952 4.56939 13.6329 3.48045C13.5427 1.90365 12.2537 0.616178 10.6544 0.507732C8.77823 0.380547 7.21617 1.8423 7.21617 3.66346C7.21617 4.67832 7.7019 5.58104 8.45618 6.15988L8.45628 6.15997V7.77755H7.64839C6.13521 7.77755 4.9086 8.98609 4.9086 10.4768V16.1048C4.9086 17.3917 5.96748 18.4349 7.27372 18.4349V25.661C7.27372 27.3962 7.5056 28.153 7.96355 29.8286H12.8909C13.3487 28.153 13.5807 27.3962 13.5807 25.661V18.4349C14.8869 18.4349 15.9458 17.3917 15.9458 16.1048V10.4769C15.9458 8.98609 14.7191 7.77755 13.2059 7.77755Z" stroke="#214759" stroke-miterlimit="10" stroke-linecap="round" stroke-linejoin="round"/>
<path d="M33.6967 30.8318V33.6716C33.6967 34.2257 33.2408 34.6748 32.6784 34.6748H26.0429C25.4805 34.6748 25.0246 34.2257 25.0246 33.6716V30.8318C25.0246 30.2777 25.4805 29.8286 26.0429 29.8286H32.6784C33.2408 29.8286 33.6967 30.2777 33.6967 30.8318Z" stroke="#214759" stroke-miterlimit="10" stroke-linecap="round" stroke-linejoin="round"/>
<path d="M32.5141 18.4349C33.8204 18.4349 34.8793 17.3917 34.8793 16.1048V10.4769C34.8793 8.9861 33.6526 7.77755 32.1394 7.77755H31.3316V6.15988C32.1309 5.54648 32.6287 4.56939 32.5664 3.48046C32.4761 1.90366 31.1871 0.616181 29.5879 0.507734C27.7117 0.38055 26.1497 1.8423 26.1497 3.66347C26.1497 4.67842 26.6354 5.58104 27.3897 6.15988V7.77755H26.5818C25.0687 7.77755 23.842 8.98609 23.842 10.4768V16.1048C23.842 17.3917 24.9009 18.4349 26.2072 18.4349V25.661C26.2072 27.3962 26.439 28.153 26.897 29.8286H31.8243C32.1257 28.7256 32.3292 28.0209 32.433 27.1731" stroke="#214759" stroke-miterlimit="10" stroke-linecap="round" stroke-linejoin="round"/>
<path d="M40.5 14.5H35.5V9.5H40.5V14.5Z" stroke="#214759" stroke-miterlimit="10" stroke-linecap="round" stroke-linejoin="round"/>
<path d="M4.5 14.5H0.5V9.5H4.5V14.5Z" stroke="#214759" stroke-miterlimit="10" stroke-linecap="round" stroke-linejoin="round"/>
<path d="M23.842 14.499H15.9458V10.2272H23.842V14.499Z" stroke="#214759" stroke-miterlimit="10" stroke-linecap="round" stroke-linejoin="round"/>
<path d="M21.0765 35.0631C21.0765 32.0604 18.6057 29.6262 15.5579 29.6262C12.51 29.6262 10.0392 32.0604 10.0392 35.0631C10.0392 38.0658 12.51 40.5 15.5579 40.5C18.6057 40.5 21.0765 38.0658 21.0765 35.0631Z" stroke="#214759" stroke-miterlimit="10" stroke-linecap="round" stroke-linejoin="round"/>
</svg>
