<svg width="23" height="41" viewBox="0 0 23 41" fill="none" xmlns="http://www.w3.org/2000/svg">
<path d="M3.64286 0.5H19.3571C20.1907 0.5 20.9901 0.883298 21.5795 1.56557C22.1689 2.24785 22.5 3.17321 22.5 4.13809V40.5H0.5V4.13809C0.5 3.17321 0.831122 2.24785 1.42052 1.56557C2.00992 0.883298 2.80932 0.5 3.64286 0.5Z" stroke="#214759" stroke-miterlimit="10" stroke-linecap="round"/>
<path d="M3.64286 0.5H19.3571C20.1907 0.5 20.9901 0.883298 21.5795 1.56557C22.1689 2.24785 22.5 3.17321 22.5 4.13809V16.8619H0.5V4.13809C0.5 3.17321 0.831122 2.24785 1.42052 1.56557C2.00992 0.883298 2.80932 0.5 3.64286 0.5Z" stroke="#214759" stroke-miterlimit="10" stroke-linecap="round"/>
<path d="M5.5 5.5V10.5" stroke="#214759" stroke-miterlimit="10" stroke-linecap="round"/>
<path d="M5.5 22.5V27.5" stroke="#214759" stroke-miterlimit="10" stroke-linecap="round"/>
</svg>
