<svg width="37" height="41" viewBox="0 0 37 41" fill="none" xmlns="http://www.w3.org/2000/svg">
<path d="M16.083 36.739H2.29851C1.30926 36.739 0.5 35.9416 0.5 34.9668V6.54011C0.5 5.56531 1.30926 4.76791 2.29851 4.76791H4.83131" stroke="#214759" stroke-miterlimit="10" stroke-linecap="round" stroke-linejoin="round"/>
<path d="M16.2676 22.8334L11.0967 17.9155C9.67473 16.4659 9.67473 14.0899 11.0967 12.6381C12.3362 11.3705 14.392 11.5411 15.69 12.7371C16.284 13.2834 16.2489 13.2834 16.8429 12.7371C18.1432 11.5411 20.1966 11.3705 21.4385 12.6381C22.8605 14.0899 22.8605 16.4659 21.4385 17.9155L16.2676 22.8334Z" stroke="#214759" stroke-miterlimit="10" stroke-linecap="round" stroke-linejoin="round"/>
<path d="M18.1807 27.5484H27.1287C28.2817 27.5484 29.2264 28.4795 29.2264 29.6156V38.4328C29.2264 39.569 28.2817 40.5 27.1287 40.5H18.1807C17.0277 40.5 16.0829 39.569 16.0829 38.4328V29.6156C16.0829 28.4795 17.0277 27.5484 18.1807 27.5484Z" stroke="#214759" stroke-miterlimit="10" stroke-linecap="round" stroke-linejoin="round"/>
<path d="M23.3588 27.5485V22.5891C23.3588 21.4529 24.3012 20.522 25.4542 20.522H34.4022C35.5575 20.522 36.5 21.4529 36.5 22.5891V31.4063C36.5 32.5425 35.5575 33.4734 34.4022 33.4734H29.2265" stroke="#214759" stroke-miterlimit="10" stroke-linecap="round" stroke-linejoin="round"/>
<path d="M27.248 24.3567V24.3503" stroke="#214759" stroke-miterlimit="10" stroke-linecap="round" stroke-linejoin="round"/>
<path d="M32.6107 24.3567V24.3503" stroke="#214759" stroke-miterlimit="10" stroke-linecap="round" stroke-linejoin="round"/>
<path d="M32.6107 29.6433V29.6369" stroke="#214759" stroke-miterlimit="10" stroke-linecap="round" stroke-linejoin="round"/>
<path d="M27.7017 20.5219V2.27212C27.7017 1.29732 26.8925 0.500006 25.9055 0.500006H6.62975C5.64041 0.500006 4.83124 1.29732 4.83124 2.27212V18.4524V25.7532V30.6988C4.83124 31.6713 5.64041 32.4687 6.62975 32.4687H16.0829" stroke="#214759" stroke-miterlimit="10" stroke-linecap="round" stroke-linejoin="round"/>
<path d="M22.6548 34.0266V34.0202" stroke="#214759" stroke-miterlimit="10" stroke-linecap="round" stroke-linejoin="round"/>
<path d="M19.9722 36.6699V36.6635" stroke="#214759" stroke-miterlimit="10" stroke-linecap="round" stroke-linejoin="round"/>
<path d="M25.3373 31.3833V31.3769" stroke="#214759" stroke-miterlimit="10" stroke-linecap="round" stroke-linejoin="round"/>
<path d="M8.85156 6.27972V4.45915" stroke="#214759" stroke-miterlimit="10" stroke-linecap="round" stroke-linejoin="round"/>
</svg>
