<svg width="41" height="41" viewBox="0 0 41 41" fill="none" xmlns="http://www.w3.org/2000/svg">
<path d="M40.5 40.5H0.5V10.3149L20.6641 0.5L40.5 10.3149V40.5Z" stroke="#214759" stroke-linecap="round" stroke-linejoin="round"/>
<path d="M14.7332 22.0001V26.4873" stroke="#214759" stroke-linecap="round" stroke-linejoin="round"/>
<path d="M17.0741 24.2438H12.3925" stroke="#214759" stroke-linecap="round" stroke-linejoin="round"/>
<path d="M8.3639 22.3741L7.52884 29.5776C7.22443 32.2035 9.369 34.5 12.1255 34.5C13.8773 34.5 15.4788 33.5513 16.2623 32.0495L16.9904 30.6538H23.0097L23.7378 32.0495C24.5212 33.5513 26.1227 34.5 27.8746 34.5C30.631 34.5 32.7756 32.2035 32.4712 29.5776L31.6361 22.3741C31.2941 19.424 28.6924 17.1922 25.5956 17.1922H14.4045C11.3076 17.1922 8.70589 19.424 8.3639 22.3741Z" stroke="#214759" stroke-linecap="round" stroke-linejoin="round"/>
<path d="M20 17.1924V15.288C20 14.2155 20.907 13.3462 22.0259 13.3462H24.9966C26.1154 13.3462 27.0224 12.4768 27.0224 11.4044V9.50001" stroke="#214759" stroke-linecap="round" stroke-linejoin="round"/>
<path d="M27.0225 22.9616C26.7456 22.9616 26.5211 22.7464 26.5211 22.4809C26.5211 22.2153 26.7456 22.0001 27.0225 22.0001" stroke="#214759" stroke-linecap="round" stroke-linejoin="round"/>
<path d="M27.0225 22.9616C27.2996 22.9616 27.5241 22.7464 27.5241 22.4809C27.5241 22.2154 27.2996 22.0001 27.0225 22.0001" stroke="#214759" stroke-linecap="round" stroke-linejoin="round"/>
<path d="M23.5112 25.3655C23.5112 25.1 23.7358 24.8848 24.0128 24.8848C24.2899 24.8848 24.5144 25.1 24.5144 25.3655" stroke="#214759" stroke-linecap="round" stroke-linejoin="round"/>
<path d="M23.5115 25.3654C23.5115 25.6309 23.736 25.8462 24.0131 25.8462C24.2901 25.8462 24.5147 25.6309 24.5147 25.3654" stroke="#214759" stroke-linecap="round" stroke-linejoin="round"/>
</svg>
