<svg width="41" height="41" viewBox="0 0 41 41" fill="none" xmlns="http://www.w3.org/2000/svg">
<path d="M12.0732 20.5002V27.6797" stroke="#214759" stroke-linecap="round" stroke-linejoin="round"/>
<path d="M15.8188 24.0901H8.32812" stroke="#214759" stroke-linecap="round" stroke-linejoin="round"/>
<path d="M1.88248 21.0986L0.546382 32.6242C0.0593258 36.8255 3.49064 40.5 7.9011 40.5C10.704 40.5 13.2663 38.982 14.5198 36.5792L15.6848 34.346H25.3157L26.4807 36.5792C27.7342 38.982 30.2966 40.5 33.0995 40.5C37.5099 40.5 40.9413 36.8255 40.4541 32.6242L39.118 21.0986C38.5708 16.3784 34.4081 12.8074 29.4532 12.8074H11.5474C6.59236 12.8074 2.42968 16.3784 1.88248 21.0986Z" stroke="#214759" stroke-linecap="round" stroke-linejoin="round"/>
<path d="M20.5002 12.8078V9.76072C20.5002 8.04485 21.9515 6.6539 23.7417 6.6539H28.4948C30.2849 6.6539 31.7361 5.26291 31.7361 3.54708V0.5" stroke="#214759" stroke-linecap="round" stroke-linejoin="round"/>
<path d="M31.7361 22.0386C31.293 22.0386 30.9338 21.6942 30.9338 21.2694C30.9338 20.8445 31.293 20.5002 31.7361 20.5002" stroke="#214759" stroke-linecap="round" stroke-linejoin="round"/>
<path d="M31.736 22.0386C32.1794 22.0386 32.5385 21.6942 32.5385 21.2694C32.5385 20.8445 32.1794 20.5002 31.736 20.5002" stroke="#214759" stroke-linecap="round" stroke-linejoin="round"/>
<path d="M26.1182 25.8848C26.1182 25.46 26.4775 25.1156 26.9208 25.1156C27.364 25.1156 27.7233 25.46 27.7233 25.8848" stroke="#214759" stroke-linecap="round" stroke-linejoin="round"/>
<path d="M26.1187 25.8846C26.1187 26.3094 26.478 26.6538 26.9212 26.6538C27.3645 26.6538 27.7238 26.3094 27.7238 25.8846" stroke="#214759" stroke-linecap="round" stroke-linejoin="round"/>
</svg>
