<svg width="26" height="41" viewBox="0 0 26 41" fill="none" xmlns="http://www.w3.org/2000/svg">
<path d="M0.5 27.1667C0.5 30.7029 1.81696 34.0943 4.16116 36.5948C6.50537 39.0952 9.68479 40.5 13 40.5C16.3152 40.5 19.4946 39.0952 21.8388 36.5948C24.183 34.0943 25.5 30.7029 25.5 27.1667" stroke="#214759" stroke-linecap="round" stroke-linejoin="round"/>
<path d="M25.5 27.1667C22.1848 27.1667 19.0054 28.5714 16.6612 31.0719C14.317 33.5724 13 36.9638 13 40.5" stroke="#214759" stroke-linecap="round" stroke-linejoin="round"/>
<path d="M13 40.5C13 36.9638 11.683 33.5724 9.33883 31.0719C6.99463 28.5714 3.8152 27.1667 0.5 27.1667" stroke="#214759" stroke-linecap="round" stroke-linejoin="round"/>
<path d="M13 40.5V18.2778" stroke="#214759" stroke-linecap="round" stroke-linejoin="round"/>
<path d="M13 18.2778C10.2374 18.2778 7.58785 17.1071 5.63434 15.0234C3.68084 12.9397 2.58337 10.1135 2.58337 7.16667V0.5L8.83337 4.94444L13 0.5L17.1667 4.94444L23.4167 0.5V7.16667C23.4167 8.6258 23.1473 10.0706 22.6238 11.4187C22.1003 12.7668 21.333 13.9916 20.3657 15.0234C19.3985 16.0552 18.2501 16.8736 16.9863 17.432C15.7225 17.9904 14.368 18.2778 13 18.2778Z" stroke="#214759" stroke-linecap="round" stroke-linejoin="round"/>
</svg>
