<svg width="41" height="41" viewBox="0 0 41 41" fill="none" xmlns="http://www.w3.org/2000/svg">
<path d="M0.5 33.5C0.5 34.4193 1.01732 35.3295 2.02241 36.1788C3.0275 37.0281 4.5007 37.7997 6.35787 38.4498C8.21504 39.0998 10.4198 39.6154 12.8463 39.9672C15.2729 40.3189 17.8736 40.5 20.5 40.5C23.1265 40.5 25.7272 40.3189 28.1537 39.9672C30.5802 39.6154 32.785 39.0998 34.6422 38.4498C36.4993 37.7997 37.9725 37.0281 38.9776 36.1788C39.9827 35.3295 40.5 34.4193 40.5 33.5C40.5 31.6435 38.3929 29.863 34.6422 28.5503C30.8914 27.2375 25.8043 26.5 20.5 26.5C15.1957 26.5 10.1086 27.2375 6.35787 28.5503C2.60714 29.863 0.5 31.6435 0.5 33.5Z" stroke="#214759" stroke-linecap="round"/>
<path d="M20.5 32.5V0.5" stroke="#214759" stroke-linecap="round"/>
<path d="M20.4998 3.5L31.3444 8.92228C34.4668 10.4834 36.0278 11.2639 36.0278 12.5C36.0278 13.7361 34.4668 14.5166 31.3444 16.0777L20.4998 21.5" stroke="#214759" stroke-linecap="round"/>
</svg>
