<svg width="40" height="41" viewBox="0 0 40 41" fill="none" xmlns="http://www.w3.org/2000/svg">
<circle cx="14.1813" cy="33.7189" r="6" stroke="#214759"/>
<path d="M38.8622 0.500137L33.9255 18.9239" stroke="#214759" stroke-miterlimit="10" stroke-linecap="round" stroke-linejoin="round"/>
<path d="M30.1757 17.9192L34.8431 0.500283" stroke="#214759" stroke-miterlimit="10" stroke-linecap="round" stroke-linejoin="round"/>
<path d="M34.2444 24.0501L27.3669 22.2073" stroke="#214759" stroke-miterlimit="10" stroke-linecap="round" stroke-linejoin="round"/>
<path d="M19.9363 35.8127H26.2758C29.1169 35.8127 31.6038 33.9044 32.3391 31.1601L35.0485 21.0485C35.3003 20.1088 34.7426 19.1428 33.8029 18.891L30.3188 17.9575C29.3791 17.7057 28.4132 18.2634 28.1614 19.2031L27.356 22.2092C26.8864 23.9615 24.9586 24.8759 23.3046 24.1309L9.66401 17.9869C6.66893 16.6378 3.17604 18.2753 2.29729 21.4405L0.758146 26.9841C-0.473963 31.4221 2.86361 35.8127 7.46955 35.8127H8.07643" stroke="#214759" stroke-miterlimit="10" stroke-linecap="round" stroke-linejoin="round"/>
</svg>
