<svg width="41" height="41" viewBox="0 0 41 41" fill="none" xmlns="http://www.w3.org/2000/svg">
<path d="M39.1228 6.05835H33.7971C28.0704 5.92438 22.4652 4.43422 17.4729 1.71852C15.9095 0.953409 14.1881 0.537813 12.4362 0.502462C10.6842 0.46711 8.94645 0.812908 7.35135 1.51429C5.75625 2.21566 4.34463 3.25468 3.22086 4.55452C2.09709 5.85435 1.28991 7.38176 0.859008 9.0238C0.428107 10.6658 0.384502 12.3805 0.73142 14.041C1.07834 15.7016 1.8069 17.2655 2.86325 18.6171C3.91959 19.9688 5.2767 21.0736 6.83422 21.8499C8.39174 22.6262 10.1098 23.0541 11.8615 23.102C13.944 23.1136 15.9902 22.5747 17.779 21.5436C22.9403 18.749 28.7806 17.3392 34.6949 17.4603H39.1228V6.05835Z" stroke="#214759" stroke-miterlimit="10" stroke-linecap="round" stroke-linejoin="round"/>
<path d="M6.88452 11.7387C6.88452 12.6928 7.25743 13.6078 7.9212 14.2825C8.58498 14.9572 9.48525 15.3362 10.424 15.3362C11.3627 15.3362 12.263 14.9572 12.9267 14.2825C13.5905 13.6078 13.9634 12.6928 13.9634 11.7387C13.9634 10.7846 13.5905 9.86951 12.9267 9.19485C12.263 8.52018 11.3627 8.14116 10.424 8.14116C9.48525 8.14116 8.58498 8.52018 7.9212 9.19485C7.25743 9.86951 6.88452 10.7846 6.88452 11.7387Z" stroke="#214759" stroke-miterlimit="10" stroke-linecap="round" stroke-linejoin="round"/>
<path d="M5.64294 21.3446L7.90375 31.6663C8.11207 32.6463 8.64563 33.5237 9.41492 34.1513C10.1842 34.7788 11.1424 35.1185 12.1289 35.1131C12.6021 35.1085 13.0715 35.0258 13.5187 34.8683C14.5262 34.5222 15.3717 33.8089 15.8919 32.8662C16.4122 31.9234 16.5702 30.8182 16.3354 29.7639L14.5001 23" stroke="#214759" stroke-miterlimit="10" stroke-linecap="round" stroke-linejoin="round"/>
<path d="M13.5187 34.8683L14.4452 37.2038C14.8246 38.1775 15.4835 39.0126 16.3362 39.6004C17.1889 40.1883 18.1959 40.5017 19.2263 40.5H19.4487C20.815 40.5 22.1253 39.9483 23.0914 38.9663C24.0576 37.9844 24.6003 36.6525 24.6003 35.2638V30.6115C24.5979 30.0212 24.7102 29.4363 24.9307 28.8903C25.1513 28.3442 25.4757 27.8478 25.8855 27.4295C26.2953 27.0113 26.7823 26.6794 27.3186 26.4529C27.855 26.2265 28.43 26.1099 29.0107 26.1099C30.1854 26.1099 31.3119 26.5842 32.1425 27.4284C32.9731 28.2726 33.4397 29.4176 33.4397 30.6115C33.4372 31.4368 33.5951 32.2544 33.9041 33.0175C34.2131 33.7807 34.6673 34.4743 35.2405 35.0588C35.8138 35.6432 36.4949 36.1069 37.2448 36.4232C37.9947 36.7396 38.7986 36.9025 39.6106 36.9025H40.5001" stroke="#214759" stroke-miterlimit="10" stroke-linecap="round" stroke-linejoin="round"/>
</svg>
