<svg width="41" height="36" viewBox="0 0 41 36" fill="none" xmlns="http://www.w3.org/2000/svg">
<path d="M8.67884 0.500118C8.04957 5.29899 7.8455 10.1116 7.8764 14.5508L8.07477 20.8354C8.32274 25.3418 8.75201 29.1192 9.08778 31.5988H5.21217C4.3455 31.5988 3.49835 31.8589 2.78128 32.3457L1.91136 32.9363C1.53412 15.0717 5.03656 0.500118 5.03656 0.500118" stroke="#214759" stroke-miterlimit="10" stroke-linecap="round" stroke-linejoin="round"/>
<path d="M32.0869 0.500117C32.7268 5.38405 32.9276 10.2826 32.8878 14.7866L32.6617 21.3684C32.33 26.9984 31.7252 31.4222 31.4056 33.492H33.8967C34.8317 33.492 35.7406 33.7941 36.4878 34.3531C36.5195 34.3766 36.5512 34.3993 36.5829 34.4211" stroke="#214759" stroke-miterlimit="10" stroke-linecap="round" stroke-linejoin="round"/>
<path d="M35.7291 0.500119C35.7291 0.500119 39.4673 17.0143 38.9747 35.2871" stroke="#214759" stroke-miterlimit="10" stroke-linecap="round" stroke-linejoin="round"/>
<path d="M0.5 33.8937L2.78146 32.3455C3.49821 31.8591 4.34528 31.5989 5.21244 31.5989H14.611C15.6735 31.5989 16.6987 31.9892 17.4905 32.6951L19.4073 34.4039C20.1991 35.1099 21.2243 35.5001 22.2867 35.5001H24.9038C25.8803 35.5001 26.828 35.1704 27.5921 34.5646L27.7651 34.4276C28.5293 33.8219 29.477 33.4921 30.4535 33.4921H33.8972C34.8315 33.4921 35.7406 33.7942 36.4881 34.3527C37.4995 35.0928 38.5074 35.2895 39.0792 35.2895H40.5" stroke="#214759" stroke-miterlimit="10" stroke-linecap="round" stroke-linejoin="round"/>
<path d="M20.4159 19.3499C11.368 19.3499 8.03577 13.3719 8.03577 13.3719C8.03577 28.2983 20.4159 27.3025 20.4159 27.3025C20.4159 27.3025 32.7961 28.2983 32.7961 13.3719C32.7961 13.3719 29.4638 19.3499 20.4159 19.3499Z" stroke="#214759" stroke-miterlimit="10" stroke-linecap="round" stroke-linejoin="round"/>
<path d="M3.19128 12.8356H7.49742" stroke="#214759" stroke-miterlimit="10" stroke-linecap="round" stroke-linejoin="round"/>
<path d="M33.3344 12.8354L37.6405 12.8911" stroke="#214759" stroke-miterlimit="10" stroke-linecap="round" stroke-linejoin="round"/>
</svg>
