<svg width="41" height="41" viewBox="0 0 41 41" fill="none" xmlns="http://www.w3.org/2000/svg">
<path d="M33.2196 25.9326H37.1856C38.0622 25.9326 38.9032 25.5856 39.5249 24.9676C40.1465 24.3495 40.4983 23.5105 40.5033 22.6339C40.5079 21.9969 40.331 21.3717 39.9933 20.8314C39.6557 20.2912 39.1712 19.8582 38.5966 19.5831L20.4826 11.3842L2.40682 19.5831C1.83219 19.8582 1.34774 20.2912 1.01009 20.8314C0.672446 21.3717 0.49555 21.9969 0.500085 22.6339C0.505123 23.5105 0.85689 24.3495 1.47854 24.9676C2.10018 25.5856 2.94118 25.9326 3.8178 25.9326H7.74567" stroke="#214759" stroke-miterlimit="10" stroke-linecap="round" stroke-linejoin="round"/>
<path d="M20.4827 11.3842V10.9456C20.517 10.1854 20.7299 9.44397 21.1042 8.78142C21.4786 8.11886 22.0038 7.55385 22.6373 7.13218C23.1534 6.77336 23.5679 6.28706 23.8404 5.72057C24.1129 5.15408 24.2342 4.5267 24.1923 3.89947C24.1505 3.27224 23.947 2.66652 23.6017 2.14125C23.2564 1.61597 22.7809 1.18902 22.2217 0.901945C21.6625 0.614867 21.0384 0.477434 20.4103 0.503018C19.7822 0.528602 19.1714 0.716331 18.6374 1.04794C18.1034 1.37955 17.6642 1.84375 17.3628 2.39537C17.0613 2.94699 16.9078 3.56725 16.9171 4.19581" stroke="#214759" stroke-miterlimit="10" stroke-linecap="round" stroke-linejoin="round"/>
<path d="M11.3875 22.386H29.5968C30.5627 22.386 31.489 22.7697 32.172 23.4527C32.855 24.1357 33.2387 25.062 33.2387 26.0279V40.5H7.74567V25.9326C7.77052 24.9833 8.16517 24.0813 8.84547 23.4188C9.52578 22.7563 10.4379 22.3857 11.3875 22.386Z" stroke="#214759" stroke-miterlimit="10" stroke-linecap="round" stroke-linejoin="round"/>
</svg>
