<svg width="41" height="41" viewBox="0 0 41 41" fill="none" xmlns="http://www.w3.org/2000/svg">
<path d="M7.77618 5V4.0429C7.79617 3.09304 8.18888 2.18912 8.86954 1.52628C9.5502 0.863441 10.4642 0.494844 11.4143 0.500055C12.3792 0.500055 13.3045 0.883352 13.9868 1.56563C14.6691 2.2479 15.0524 3.17326 15.0524 4.13814V22.4048" stroke="#214759" stroke-miterlimit="10" stroke-linecap="round" stroke-linejoin="round"/>
<path d="M22.4047 0.50005C22.8831 0.497525 23.3573 0.589904 23.7999 0.77184C24.2424 0.953777 24.6445 1.22166 24.9828 1.55999C25.3211 1.89832 25.589 2.30039 25.771 2.74292C25.9529 3.18545 26.0453 3.65967 26.0428 4.13814V22.4048" stroke="#214759" stroke-miterlimit="10" stroke-linecap="round" stroke-linejoin="round"/>
<path d="M15.0524 16.8619H25.9476" stroke="#214759" stroke-miterlimit="10" stroke-linecap="round" stroke-linejoin="round"/>
<path d="M15.0524 9.58575H25.9476" stroke="#214759" stroke-miterlimit="10" stroke-linecap="round" stroke-linejoin="round"/>
<path d="M26.5 7.77625H40.4999V40.5H0.5V7.77625H11.4143" stroke="#214759" stroke-miterlimit="10" stroke-linecap="round" stroke-linejoin="round"/>
<path d="M13.5 28.5C16.9737 31.2976 12.0263 32.7024 15.5 35.5" stroke="#214759" stroke-miterlimit="10" stroke-linecap="round" stroke-linejoin="round"/>
<path d="M19.5 25.5C22.9737 28.2976 18.0263 29.7024 21.5 32.5" stroke="#214759" stroke-miterlimit="10" stroke-linecap="round" stroke-linejoin="round"/>
<path d="M25.5 28.5C28.9737 31.2976 24.0263 32.7024 27.5 35.5" stroke="#214759" stroke-miterlimit="10" stroke-linecap="round" stroke-linejoin="round"/>
</svg>
