<svg width="37" height="41" viewBox="0 0 37 41" fill="none" xmlns="http://www.w3.org/2000/svg">
<path d="M16.2088 12.079L21.728 16.0506C22.1847 16.3792 22.2827 16.4933 22.7612 16.617L28.9709 18.2219C29.8054 18.4893 30.7056 18.0209 30.9713 17.1816C31.237 16.3423 30.7717 15.4366 29.9372 15.1691L23.8476 13.6026L19.6973 10.5413C19.3189 9.79397 18.4202 7.84033 16.6491 7.84033C14.7785 7.84033 12.8279 8.00548 12.8279 9.67317V12.9183V21.898M16.6208 27.3177L19.4415 30.2724L19.6855 37.937M19.6855 37.937V40.5M19.6855 37.937H24.744C25.4447 37.937 26.0179 38.5137 26.0179 39.2184V40.5M23.4703 37.937L23.5445 32V28.6497L18.3939 21.898L19.5777 14.5034" stroke="#214759" stroke-miterlimit="22.9256" stroke-linecap="round" stroke-linejoin="round"/>
<path d="M12.8279 21.898L11.8328 27.7431L7.8233 34.0162M7.8233 34.0162L5.95386 35.7574L10.2558 40.432L11.1906 39.5614C11.7047 39.0826 11.7359 38.2677 11.2599 37.7505L7.8233 34.0162ZM10.3945 36.8101L15.9963 29.2266L18.3939 21.898" stroke="#214759" stroke-miterlimit="22.9256" stroke-linecap="round" stroke-linejoin="round"/>
<path d="M12.8279 21.898H18.3939" stroke="#214759" stroke-miterlimit="22.9256" stroke-linecap="round" stroke-linejoin="round"/>
<path fill-rule="evenodd" clip-rule="evenodd" d="M16.001 0.5H17.2973C18.6173 0.5 19.6973 1.58652 19.6973 2.91449V4.17018C19.6973 6.18877 18.6556 7.84036 16.6491 7.84036C14.6426 7.84036 13.601 6.18877 13.601 4.17018V2.91449C13.601 1.58652 14.681 0.5 16.001 0.5Z" stroke="#214759" stroke-miterlimit="22.9256" stroke-linecap="round" stroke-linejoin="round"/>
<path d="M13.601 4.17017H22.0973" stroke="#214759" stroke-miterlimit="22.9256" stroke-linecap="round" stroke-linejoin="round"/>
<path d="M12.8279 9.67321C12.8279 8.1792 11.613 6.95691 10.1279 6.95691C8.64288 6.95691 7.42792 8.17928 7.42792 9.67321V14.1256" stroke="#214759" stroke-miterlimit="22.9256" stroke-linecap="round" stroke-linejoin="round"/>
<path d="M12.8279 19.7853H7.42784C6.76808 19.7853 6.22784 19.2421 6.22784 18.5781V15.3329C6.22784 14.6689 6.76784 14.1256 7.42784 14.1256H8.62784C9.28784 14.1256 9.82784 14.669 9.82784 15.3329V18.5781C9.82784 19.2419 9.28784 19.7853 8.62784 19.7853" stroke="#214759" stroke-miterlimit="22.9256" stroke-linecap="round" stroke-linejoin="round"/>
<path d="M12.8279 17.3708C14.9208 17.3708 16.8046 14.8144 17.5873 13.071" stroke="#214759" stroke-miterlimit="22.9256" stroke-linecap="round" stroke-linejoin="round"/>
<path d="M12.8279 19.7853C15.3765 19.7853 18.3019 17.3454 19.5777 14.5033" stroke="#214759" stroke-miterlimit="22.9256" stroke-linecap="round" stroke-linejoin="round"/>
<path d="M28.9709 11.5822V14.9206M28.9709 18.2218V40.5" stroke="#214759" stroke-miterlimit="22.9256" stroke-linecap="round" stroke-linejoin="round"/>
<path d="M0.5 40.5H36.5" stroke="#214759" stroke-miterlimit="22.9256" stroke-linecap="round" stroke-linejoin="round"/>
<path d="M27.171 14.4575V17.7567" stroke="#214759" stroke-miterlimit="22.9256" stroke-linecap="round" stroke-linejoin="round"/>
</svg>
