<svg width="41" height="40" viewBox="0 0 41 40" fill="none" xmlns="http://www.w3.org/2000/svg">
<path d="M2.8631 15.1387C2.8631 15.1387 5.07501 13.6521 6.95195 15.5503" stroke="#214759" stroke-miterlimit="10" stroke-linecap="round" stroke-linejoin="round"/>
<path d="M17.0001 28.7963L16.9996 22.1607" stroke="#214759" stroke-miterlimit="10" stroke-linecap="round" stroke-linejoin="round"/>
<path d="M14.1195 21.8336L14.5942 33.4468C14.5999 33.5669 14.5523 33.6834 14.4632 33.7641C14.1715 34.0282 13.5134 34.7237 13.3527 35.7444C13.3146 35.9865 13.5078 36.2037 13.7529 36.2037H15.6296C15.7659 36.2037 15.8931 36.1349 15.9677 36.0208L16.8345 34.6951C16.8767 34.6305 16.8996 34.5551 16.9003 34.4778C16.9003 34.4778 16.9938 33.5687 17.0001 32.7963V28.7963" stroke="#214759" stroke-miterlimit="10" stroke-linecap="round" stroke-linejoin="round"/>
<path d="M27.7276 20.9662C27.7276 20.9662 28.6328 22.7307 30.008 23.7558C30.1955 23.8955 30.2297 24.1623 30.0794 24.3414L27.5268 27.3818C27.45 27.4733 27.4176 27.5942 27.4385 27.7118L27.7077 29.2344C27.7202 29.3052 27.7139 29.3778 27.6887 29.445C27.5447 29.8291 27.0907 31.2654 27.8825 32.3415C28.0206 32.5291 28.293 32.5533 28.4687 32.4001L30.3182 30.7884C30.4181 30.7013 30.4689 30.5708 30.4542 30.439L30.2419 28.538C30.2295 28.4265 30.264 28.3149 30.3371 28.2298L34.6505 23.2126" stroke="#214759" stroke-miterlimit="10" stroke-linecap="round" stroke-linejoin="round"/>
<path d="M34.6504 9.80963C34.6504 9.80963 37.8623 8.38831 39.7984 11.8338C41.1463 14.2326 40.2077 18.6447 39.8133 20.1988C39.7397 20.4885 39.3894 20.5999 39.1607 20.4075C38.5807 19.9195 37.6898 18.8846 37.5753 17.0732" stroke="#214759" stroke-miterlimit="10" stroke-linecap="round" stroke-linejoin="round"/>
<path d="M4.21635 4.93227C4.17168 4.96938 7.82407 3.67771 10.2473 7.63763C12.5805 11.4503 11.9257 14.1131 15.2502 15.6771C15.4687 15.7798 15.7293 15.6677 15.8047 15.4383C16.2464 14.0932 17.29 9.74097 13.7574 6.29976" stroke="#214759" stroke-miterlimit="10" stroke-linecap="round" stroke-linejoin="round"/>
<path d="M27.7277 9.80963V13.8084C27.7277 15.1333 26.6536 16.2074 25.3287 16.2074H21.3794C20.0545 16.2074 18.9805 15.1333 18.9805 13.8084V10.0016" stroke="#214759" stroke-miterlimit="10" stroke-linecap="round" stroke-linejoin="round"/>
<path d="M29.4727 9.19704C28.2732 9.38513 27.0245 9.74827 25.7321 10.179C22.6396 11.2098 19.0459 9.9543 17.5726 9.20211C16.0995 8.44992 14.7213 7.07422 13.104 5.75495C11.4868 4.43567 8.73029 3.12613 5.76151 4.18126C5.00779 4.44911 4.29036 4.81579 3.68159 5.33C2.64014 4.46722 1.44924 4.45829 0.858332 4.52251C0.642477 4.54593 0.481914 4.73611 0.501712 4.95229C0.677648 6.87149 2.19878 7.52541 2.19878 7.52541L2.20047 7.52291C1.4366 9.94931 2.22904 11.164 2.58364 13.213C2.71266 13.9586 2.85431 15.0427 2.96666 15.9679C3.08191 16.9168 3.84352 17.6773 4.79733 17.739C5.8366 17.8062 6.73423 17.0637 6.87958 16.0527L7.42413 12.2671C7.44674 12.1097 7.62236 12.0255 7.75942 12.1061C10.0494 13.453 9.31636 16.4142 9.31636 17.7031C9.31636 18.5822 9.46735 19.2966 9.57125 19.6843C9.62139 19.8714 9.53214 20.0671 9.35797 20.152L6.8424 21.3769C6.29536 21.6433 5.85664 22.0898 5.5999 22.6414L3.9855 26.1102C3.75717 26.6007 3.68449 27.1495 3.77721 27.6825L4.1323 29.7245C4.14099 29.7745 4.13954 29.826 4.1294 29.8757C3.96634 30.6711 4.02598 31.338 4.1125 31.7768C4.16819 32.0593 4.49053 32.1969 4.73125 32.0387L6.66727 30.7662C6.7995 30.6793 6.8688 30.5232 6.84457 30.3668L6.35218 27.1884C6.33849 27.1 6.35451 27.0096 6.39773 26.9313L8.11515 23.8213C8.16465 23.7317 8.24642 23.6642 8.34381 23.6325L14.2135 21.7861C14.8193 21.5955 15.4646 21.5712 16.0828 21.7165C17.7704 22.1131 21.2681 22.7378 24.4138 22.044C27.8011 21.2968 30.0224 19.7915 30.8348 19.1663C31.021 19.023 31.2877 19.0704 31.4176 19.2663C32.7706 21.3049 35.6774 23.67 37.0414 24.7215C37.5055 25.0794 37.7775 25.632 37.7796 26.2181L37.8031 32.9022C37.8036 33.0245 37.748 33.1405 37.653 33.2176C36.7258 33.9708 36.4618 34.7471 36.3941 35.2225C36.3594 35.4659 36.5482 35.6832 36.7941 35.6832H39.3123C39.471 35.6832 39.615 35.5902 39.6804 35.4456L40.2092 34.2758C40.2327 34.2239 40.2449 34.1678 40.2451 34.1108L40.2749 24.755C40.2765 24.2646 40.0884 23.7928 39.7501 23.438L38.4909 22.1176C37.7243 21.3137 37.333 20.2238 37.4138 19.1158C37.5166 17.7066 37.6338 15.8014 37.5962 14.8623C37.5324 13.2663 36.7057 10.9385 34.1839 9.72018C33.5549 9.41636 32.9056 9.22867 32.237 9.1341" stroke="#214759" stroke-miterlimit="10" stroke-linecap="round" stroke-linejoin="round"/>
<circle cx="4.63255" cy="10.9472" r="0.603622" fill="#214759"/>
</svg>
