<svg width="41" height="41" viewBox="0 0 41 41" fill="none" xmlns="http://www.w3.org/2000/svg">
<path d="M0.500002 7.7001H20.221V40.5H0.5L0.500002 7.7001Z" stroke="#214759" stroke-linecap="round" stroke-linejoin="round"/>
<path d="M20.2211 26.0776H34.6668V40.4996H20.2211V26.0776Z" stroke="#214759" stroke-linecap="round" stroke-linejoin="round"/>
<path d="M7.7085 22.0678V14.0017M13.013 14.0017V22.0678M7.7085 17.6986H13.013" stroke="#214759" stroke-linecap="round" stroke-linejoin="round"/>
<path d="M40.5 7.20684C40.5 10.9179 33.8839 19.8753 33.8839 19.8753C33.8839 19.8753 27.2681 10.9179 27.2681 7.20684C27.2681 5.42807 27.9651 3.72215 29.2059 2.46438C30.4465 1.2066 32.1293 0.5 33.8839 0.5C35.6385 0.5 37.3214 1.2066 38.5621 2.46438C39.8029 3.72215 40.5 5.42807 40.5 7.20684Z" stroke="#214759" stroke-linecap="round" stroke-linejoin="round"/>
<path d="M33.8841 8.06311C33.452 8.06311 33.1016 7.70792 33.1016 7.26978C33.1016 6.83164 33.452 6.47644 33.8841 6.47644" stroke="#214759" stroke-linecap="round" stroke-linejoin="round"/>
<path d="M33.8839 8.06311C34.316 8.06311 34.6665 7.70792 34.6665 7.26978C34.6665 6.83164 34.316 6.47644 33.8839 6.47644" stroke="#214759" stroke-linecap="round" stroke-linejoin="round"/>
<path d="M10.3612 40.4996V34.8328" stroke="#214759" stroke-linecap="round" stroke-linejoin="round"/>
</svg>
