<svg width="38" height="41" viewBox="0 0 38 41" fill="none" xmlns="http://www.w3.org/2000/svg">
<path d="M35.7857 16.5C35.7857 15.7928 35.4998 15.1145 34.9908 14.6144C34.4818 14.1143 33.7912 13.8333 33.0714 13.8333H0.5V40.5H8.64285V27.1667C8.64285 25.7523 9.21479 24.3956 10.2328 23.3955C11.2509 22.3953 12.6317 21.8333 14.0714 21.8333H33.0714C33.7912 21.8333 34.4818 21.5524 34.9908 21.0524C35.4998 20.5523 35.7857 19.8739 35.7857 19.1667V16.5Z" stroke="#214759" stroke-linecap="round" stroke-linejoin="round"/>
<path d="M0.5 13.8333C0.5 10.2971 1.92985 6.90572 4.47498 4.40524C7.02011 1.90476 10.4721 0.5 14.0714 0.5H24.9286C24.9286 1.91449 24.3566 3.27104 23.3385 4.27124C22.3205 5.27143 20.9396 5.83333 19.5 5.83333H16.7857C14.6261 5.83333 12.5549 6.6762 11.0278 8.17648C9.50077 9.67676 8.64285 11.7116 8.64285 13.8333H0.5Z" stroke="#214759" stroke-linecap="round" stroke-linejoin="round"/>
<path d="M24.125 22.5V25.5H33.125V22.5" stroke="#214759" stroke-linecap="round" stroke-linejoin="round"/>
<path d="M29.2679 30.5V38.5" stroke="#214759" stroke-linecap="round" stroke-linejoin="round"/>
<path d="M34.6965 30.5L37.4108 37.1667" stroke="#214759" stroke-linecap="round" stroke-linejoin="round"/>
<path d="M23.8393 30.5L21.125 37.1667" stroke="#214759" stroke-linecap="round" stroke-linejoin="round"/>
</svg>
