<svg width="41" height="41" viewBox="0 0 41 41" fill="none" xmlns="http://www.w3.org/2000/svg">
<path d="M5.11305 18.5H36.4499C36.4499 18.5 39.9338 18.5 39.9338 21.9839C39.9338 25.4678 39.9338 25.4678 36.4499 25.4678H5.11305C5.11305 25.4678 1.62915 25.4678 1.62915 21.9839C1.62915 18.5 1.62915 18.5 5.11305 18.5Z" stroke="#214759" stroke-miterlimit="10" stroke-linecap="round" stroke-linejoin="round"/>
<path d="M4.62915 25.5H36.6292V40.5H4.62915V25.5Z" stroke="#214759" stroke-miterlimit="10" stroke-linecap="round" stroke-linejoin="round"/>
<path d="M0.5 40.5H40.5" stroke="#214759" stroke-miterlimit="10" stroke-linecap="round" stroke-linejoin="round"/>
<path d="M12.5 25.5V40.5" stroke="#214759" stroke-miterlimit="10" stroke-linecap="round" stroke-linejoin="round"/>
<path d="M20.5 25.5V40.5" stroke="#214759" stroke-miterlimit="10" stroke-linecap="round" stroke-linejoin="round"/>
<path d="M28.5 25.5V40.5" stroke="#214759" stroke-miterlimit="10" stroke-linecap="round" stroke-linejoin="round"/>
<path d="M7.08115 2.57959C13.1187 7.468 4.60046 9.89396 10.565 14.7824" stroke="#214759" stroke-miterlimit="10" stroke-linecap="round" stroke-linejoin="round"/>
<path d="M18.7672 0.500015C24.7865 5.37018 16.2135 7.79615 22.2328 12.6846" stroke="#214759" stroke-miterlimit="10" stroke-linecap="round" stroke-linejoin="round"/>
<path d="M30.4349 2.57959C36.4542 7.468 27.8813 9.87572 33.9188 14.7824" stroke="#214759" stroke-miterlimit="10" stroke-linecap="round" stroke-linejoin="round"/>
</svg>
