<svg width="41" height="41" viewBox="0 0 41 41" fill="none" xmlns="http://www.w3.org/2000/svg">
<path d="M40.4999 20.5C40.4999 31.4998 31.4998 40.4999 20.5 40.4999C9.50015 40.4999 0.5 31.4998 0.5 20.5C0.5 9.50015 9.50015 0.500002 20.5 0.500002C31.4998 0.500002 40.4999 9.50015 40.4999 20.5Z" stroke="#214759" stroke-miterlimit="10" stroke-linecap="round" stroke-linejoin="round"/>
<path d="M20.5 34.193V40.5" stroke="#214759" stroke-miterlimit="10" stroke-linecap="round" stroke-linejoin="round"/>
<path d="M20.5 9.29675V0.500087" stroke="#214759" stroke-miterlimit="10" stroke-linecap="round" stroke-linejoin="round"/>
<path d="M6.80704 20.4999H0.5" stroke="#214759" stroke-miterlimit="10" stroke-linecap="round" stroke-linejoin="round"/>
<path d="M34.1929 20.4999H40.4999" stroke="#214759" stroke-miterlimit="10" stroke-linecap="round" stroke-linejoin="round"/>
<path d="M25.4792 22.9896C25.4792 20.2396 23.2499 18.0103 20.4999 18.0103C17.75 18.0103 15.5207 20.2396 15.5207 22.9896C15.5207 24.1799 15.9434 25.2651 16.6438 26.1162C17.377 27.0069 18.0097 27.9747 18.5348 29.0018C18.9874 29.8873 19.6974 30.4584 20.4999 30.4584C21.3024 30.4584 22.0125 29.8873 22.4651 29.0018C22.9853 27.9842 23.6297 26.9987 24.356 26.1162C25.0564 25.2651 25.4792 24.1799 25.4792 22.9896Z" stroke="#214759" stroke-miterlimit="10" stroke-linecap="round" stroke-linejoin="round"/>
<path d="M10.5414 9.29667V10.5415C10.5414 11.9164 11.6561 13.0311 13.0311 13.0311H16.0665C17.2089 13.0311 18.2047 13.8086 18.4818 14.9169L19.292 18.1579" stroke="#214759" stroke-miterlimit="10" stroke-linecap="round" stroke-linejoin="round"/>
<path d="M21.7079 18.1579L22.5181 14.9169C22.7952 13.8086 23.791 13.0311 24.9334 13.0311H27.9688C29.3438 13.0311 30.4584 11.9165 30.4584 10.5415V9.29667" stroke="#214759" stroke-miterlimit="10" stroke-linecap="round" stroke-linejoin="round"/>
<path d="M15.5207 9.29676V13.0312" stroke="#214759" stroke-miterlimit="10" stroke-linecap="round" stroke-linejoin="round"/>
<path d="M25.4792 9.29676V13.0312" stroke="#214759" stroke-miterlimit="10" stroke-linecap="round" stroke-linejoin="round"/>
<path d="M25.4792 22.9896H26.724C28.7865 22.9896 30.4584 21.3176 30.4584 19.2551V18.0103H27.9688C26.4767 18.0103 25.189 18.8853 24.5909 20.1503" stroke="#214759" stroke-miterlimit="10" stroke-linecap="round" stroke-linejoin="round"/>
<path d="M15.5207 22.9896H14.2759C12.2134 22.9896 10.5414 21.3176 10.5414 19.2551V18.0103H13.0311C14.5232 18.0103 15.8109 18.8853 16.409 20.1503" stroke="#214759" stroke-miterlimit="10" stroke-linecap="round" stroke-linejoin="round"/>
</svg>
