<svg width="41" height="31" viewBox="0 0 41 31" fill="none" xmlns="http://www.w3.org/2000/svg">
<path d="M16.86 16.7673L12.9233 19.0072C12.2015 19.4179 11.322 19.4179 10.6002 19.0072C9.45732 18.3571 8.04878 19.1974 8.04878 20.5294V20.9164C8.04878 22.2918 6.66862 23.221 5.42407 22.6835C4.72699 22.3824 4.27439 21.6868 4.27439 20.9164V18.0767C4.27439 19.4521 2.89423 20.3813 1.64968 19.8438C0.952683 19.5428 0.5 18.8471 0.5 18.0768V11.841C0.5 11.0157 0.905935 10.1905 1.71789 9.72855L10.6002 4.67478C11.322 4.26409 12.2016 4.26409 12.9234 4.67478L17.7085 7.39729" stroke="#214759" stroke-miterlimit="10" stroke-linecap="round" stroke-linejoin="round"/>
<path d="M0.5 11.8411V23.0271C0.5 23.8524 0.905935 24.6776 1.71789 25.1395L10.6002 30.1933C11.322 30.604 12.2016 30.604 12.9234 30.1933L21.8058 25.1395C22.2707 24.875 22.6026 24.4912 22.8013 24.0566" stroke="#214759" stroke-miterlimit="10" stroke-linecap="round" stroke-linejoin="round"/>
<path d="M11.7618 19.3152V29.9718" stroke="#214759" stroke-miterlimit="10" stroke-linecap="round" stroke-linejoin="round"/>
<path d="M34.4275 2.95952L35.9971 3.41074C36.793 3.63949 37.4149 4.27223 37.6398 5.08171L40.4075 15.0442C40.9135 16.8655 39.2611 18.5463 37.4706 18.0316L27.6768 15.2163C26.881 14.9875 26.259 14.3548 26.0341 13.5453L23.2665 3.58284C22.7605 1.76152 24.4128 0.080705 26.2033 0.595435L27.3855 0.935254" stroke="#214759" stroke-miterlimit="10" stroke-linecap="round" stroke-linejoin="round"/>
<path d="M32.0244 25.3236C31.4507 25.9072 30.59 26.1987 29.6948 25.9413L19.901 23.126C19.1051 22.8973 18.4832 22.2645 18.2583 21.4551L15.4907 11.4926C15.2377 10.5819 15.5242 9.7064 16.0979 9.12286" stroke="#214759" stroke-miterlimit="10" stroke-linecap="round" stroke-linejoin="round"/>
<path d="M39.8003 17.4139L32.0244 25.3237" stroke="#214759" stroke-miterlimit="10" stroke-linecap="round" stroke-linejoin="round"/>
<path d="M23.8737 1.21304L16.0978 9.12281" stroke="#214759" stroke-miterlimit="10" stroke-linecap="round" stroke-linejoin="round"/>
<path d="M26.6413 14.5985L19.2336 22.1339" stroke="#214759" stroke-miterlimit="10" stroke-linecap="round" stroke-linejoin="round"/>
</svg>
