<svg width="41" height="37" viewBox="0 0 41 37" fill="none" xmlns="http://www.w3.org/2000/svg">
<path d="M36.8783 0.500018V9.07159L38.6259 14.1608C39.0673 15.4464 39.2928 16.7977 39.2928 18.1587V23.9057H27.935L17.2855 29.5197H0.5V27.2396C0.5 23.1978 3.74298 19.9213 7.74346 19.9213C9.75956 19.9213 11.7261 19.29 13.3724 18.1144L14.2282 17.5032C19.6928 13.6009 22.9419 7.26095 22.9419 0.500018H36.8783Z" stroke="#214759" stroke-miterlimit="10" stroke-linecap="round" stroke-linejoin="round"/>
<path d="M39.2927 23.9057V29.5197H27.935V23.9057" stroke="#214759" stroke-miterlimit="10" stroke-linecap="round" stroke-linejoin="round"/>
<path d="M22.3679 5.37897H27.0452" stroke="#214759" stroke-miterlimit="10" stroke-linecap="round" stroke-linejoin="round"/>
<path d="M20.5381 10.2579H27.0452" stroke="#214759" stroke-miterlimit="10" stroke-linecap="round" stroke-linejoin="round"/>
<path d="M16.9907 15.1368H27.0451" stroke="#214759" stroke-miterlimit="10" stroke-linecap="round" stroke-linejoin="round"/>
<path d="M40.5 36.5H3.75851C1.95891 36.5 0.5 35.026 0.5 33.2078" stroke="#214759" stroke-miterlimit="10" stroke-linecap="round" stroke-linejoin="round"/>
<path d="M33.6139 29.5197V36.4999" stroke="#214759" stroke-miterlimit="10" stroke-linecap="round" stroke-linejoin="round"/>
<path d="M8.89276 29.5197V36.4999" stroke="#214759" stroke-miterlimit="10" stroke-linecap="round" stroke-linejoin="round"/>
</svg>
