<svg width="38" height="41" viewBox="0 0 38 41" fill="none" xmlns="http://www.w3.org/2000/svg">
<path d="M5.29997 13.325V20.5M1.5 20.5V13.325C1.5 12.1911 1.90035 11.1038 2.61297 10.3021C3.32559 9.50039 4.29205 9.05 5.29997 9.05H12.8999C13.9077 9.05 14.8742 9.50039 15.5869 10.3021C16.2995 11.1038 16.6999 12.1911 16.6999 13.325L16.6999 20.5M12.8999 20.5V13.325" stroke="#214759" stroke-miterlimit="10" stroke-linecap="round" stroke-linejoin="round"/>
<path d="M9.10097 6.83394C10.8501 6.83394 12.268 5.41604 12.268 3.66698C12.268 1.9179 10.8501 0.5 9.10097 0.5C7.35195 0.5 5.93396 1.9179 5.93396 3.66698C5.93396 5.41604 7.35195 6.83394 9.10097 6.83394Z" stroke="#214759" stroke-miterlimit="10" stroke-linecap="round" stroke-linejoin="round"/>
<path d="M21.5 20.5L0.5 20.5V39.5H25.5M36.5 24.5V39.5H33.5" stroke="#214759" stroke-linecap="round" stroke-linejoin="round"/>
<path d="M25.5001 16.5001V38.4999C25.497 38.7634 25.5467 39.0249 25.6461 39.2689C25.7456 39.5129 25.8928 39.7345 26.079 39.9208C26.2654 40.1072 26.487 40.2544 26.7311 40.3538C26.9751 40.4532 27.2365 40.5029 27.5001 40.4999C27.7634 40.5029 28.0249 40.4532 28.2689 40.3538C28.5129 40.2544 28.7346 40.1072 28.9209 39.9208C29.1072 39.7345 29.2544 39.5129 29.3538 39.2689C29.4534 39.0249 29.503 38.7634 29.5 38.4999" stroke="#214759" stroke-miterlimit="10" stroke-linecap="round" stroke-linejoin="round"/>
<path d="M29.5001 27.1666V38.4999C29.497 38.7634 29.5467 39.0249 29.6461 39.2689C29.7456 39.5129 29.8928 39.7345 30.079 39.9208C30.2654 40.1072 30.487 40.2544 30.7311 40.3538C30.9751 40.4532 31.2365 40.5029 31.5001 40.4999C31.7634 40.5029 32.0249 40.4532 32.2689 40.3538C32.5129 40.2544 32.7346 40.1072 32.9209 39.9208C33.1072 39.7345 33.2544 39.5129 33.3538 39.2689C33.4534 39.0249 33.503 38.7634 33.5 38.4999V16.5001" stroke="#214759" stroke-miterlimit="10" stroke-linecap="round" stroke-linejoin="round"/>
<path d="M25.5001 14V22.2499C25.5031 22.5463 25.4536 22.8405 25.3541 23.1151C25.2548 23.3896 25.1075 23.6391 24.9212 23.8487C24.7349 24.0582 24.5132 24.2239 24.2691 24.3357C24.0251 24.4475 23.7636 24.5033 23.5001 24.4998C23.2366 24.5033 22.9751 24.4475 22.7311 24.3357C22.487 24.2239 22.2653 24.0582 22.0789 23.8487C21.8925 23.6391 21.7454 23.3896 21.6459 23.1151C21.5465 22.8405 21.4969 22.5463 21.5001 22.2499V14C21.5001 12.8065 21.9216 11.6619 22.6717 10.818C23.4218 9.97409 24.4391 9.5 25.5001 9.5H33.4999C34.5607 9.5 35.5781 9.97409 36.3283 10.818C37.0784 11.6619 37.4999 12.8065 37.4999 14V22.2499C37.503 22.5463 37.4534 22.8405 37.3539 23.1151C37.2546 23.3896 37.1073 23.6391 36.921 23.8487C36.7347 24.0582 36.5129 24.2239 36.2689 24.3357C36.0249 24.4475 35.7634 24.5033 35.4999 24.4998C35.2364 24.5033 34.9749 24.4475 34.7308 24.3357C34.4868 24.2239 34.2651 24.0582 34.0787 23.8487C33.8924 23.6391 33.7452 23.3896 33.6458 23.1151C33.5463 22.8405 33.4967 22.5463 33.4999 22.2499V14" stroke="#214759" stroke-miterlimit="10" stroke-linecap="round" stroke-linejoin="round"/>
<path d="M29.501 7.16731C31.3421 7.16731 32.8346 5.67478 32.8346 3.83366C32.8346 1.99253 31.3421 0.5 29.501 0.5C27.6599 0.5 26.1673 1.99253 26.1673 3.83366C26.1673 5.67478 27.6599 7.16731 29.501 7.16731Z" stroke="#214759" stroke-miterlimit="10" stroke-linecap="round" stroke-linejoin="round"/>
</svg>
