<svg width="41" height="41" viewBox="0 0 41 41" fill="none" xmlns="http://www.w3.org/2000/svg">
<path d="M0.5 20.5C0.5 25.8043 2.60714 30.8914 6.35786 34.6421C10.1086 38.3929 15.1957 40.5 20.5 40.5C25.8043 40.5 30.8914 38.3929 34.6421 34.6421C38.3929 30.8914 40.5 25.8043 40.5 20.5C40.5 15.1957 38.3929 10.1086 34.6421 6.35786C30.8914 2.60714 25.8043 0.5 20.5 0.5C15.1957 0.5 10.1086 2.60714 6.35786 6.35786C2.60714 10.1086 0.5 15.1957 0.5 20.5Z" stroke="#214759" stroke-linecap="round" stroke-linejoin="round"/>
<path d="M11.9286 20.5C11.9286 15.1957 12.8316 10.1086 14.4391 6.35786C16.0466 2.60714 18.2267 0.5 20.5 0.5C22.7733 0.5 24.9535 2.60714 26.5609 6.35786C28.1684 10.1086 29.0714 15.1957 29.0714 20.5C29.0714 25.8043 28.1684 30.8914 26.5609 34.6421C24.9535 38.3929 22.7733 40.5 20.5 40.5C18.2267 40.5 16.0466 38.3929 14.4391 34.6421C12.8316 30.8914 11.9286 25.8043 11.9286 20.5Z" stroke="#214759" stroke-linecap="round" stroke-linejoin="round"/>
<path d="M1.92859 27.1667H39.0714" stroke="#214759" stroke-linecap="round"/>
<path d="M1.92859 13.8333H39.0714" stroke="#214759" stroke-linecap="round"/>
</svg>
