<svg width="41" height="41" viewBox="0 0 41 41" fill="none" xmlns="http://www.w3.org/2000/svg">
<path d="M7.16663 13.8333H3.16664C2.45925 13.8333 1.78124 14.1142 1.28133 14.6144C0.780581 15.1145 0.5 15.7927 0.5 16.4999C0.5 17.2072 0.780581 17.8855 1.28133 18.3856C1.78124 18.8857 2.45925 19.1667 3.16664 19.1667H7.16663V13.8333Z" stroke="#214759" stroke-miterlimit="10" stroke-linecap="round" stroke-linejoin="round"/>
<path d="M12.5001 21.8333L31.1667 40.5" stroke="#214759" stroke-miterlimit="10" stroke-linecap="round" stroke-linejoin="round"/>
<path d="M31.1666 19.1667L9.83337 40.5" stroke="#214759" stroke-miterlimit="10" stroke-linecap="round" stroke-linejoin="round"/>
<path d="M7.16663 21.8333H19.1666V13.8333H7.16663V21.8333Z" stroke="#214759" stroke-miterlimit="10" stroke-linecap="round" stroke-linejoin="round"/>
<path d="M19.1666 19.1666H40.5V13.8333H19.1666V19.1666Z" stroke="#214759" stroke-miterlimit="10" stroke-linecap="round" stroke-linejoin="round"/>
<path d="M31.1667 0.500248C33.728 3.06124 35.1667 6.53468 35.1667 10.1565V13.8333H27.1667V10.1565C27.1667 6.53468 28.6054 3.06124 31.1667 0.500248ZM31.1667 0.500248V0.499998" stroke="#214759" stroke-miterlimit="10" stroke-linecap="round" stroke-linejoin="round"/>
</svg>
