<svg width="41" height="41" viewBox="0 0 41 41" fill="none" xmlns="http://www.w3.org/2000/svg">
<path d="M20.7037 35.7941V40.5" stroke="#214759" stroke-linecap="round" stroke-linejoin="round"/>
<path d="M13.9691 0.5H30.7135C32.3076 0.50012 33.8501 1.09298 35.0664 2.17311C36.2827 3.25325 37.094 4.75061 37.356 6.39882L38.6513 14.5494L40.4696 25.9965C40.523 26.3332 40.5059 26.6781 40.4194 27.0072C40.3329 27.3363 40.1792 27.6417 39.9688 27.9023C39.7584 28.1629 39.4965 28.3723 39.2011 28.5162C38.9058 28.66 38.5841 28.7348 38.2584 28.7353H0.5C0.5 24.367 2.15557 20.1777 5.10252 17.0888C8.04946 14 12.0464 12.2647 16.214 12.2647H38.2135" stroke="#214759" stroke-linecap="round" stroke-linejoin="round"/>
<path d="M11.7243 35.7941L9.47943 40.5" stroke="#214759" stroke-linecap="round" stroke-linejoin="round"/>
<path d="M29.6831 35.7941L31.928 40.5" stroke="#214759" stroke-linecap="round" stroke-linejoin="round"/>
</svg>
