<svg width="41" height="40" viewBox="0 0 41 40" fill="none" xmlns="http://www.w3.org/2000/svg">
<path d="M33.0617 25.4699L40.5 20H0.5L2.74074 26.6599" stroke="#214759" stroke-miterlimit="22.926" stroke-linecap="round" stroke-linejoin="round"/>
<path d="M0.5 19.9156L3.76381 15.9032C4.19327 15.3752 4.74182 15.0331 5.41609 14.9982L19.5438 14.2675C21.5951 13.0668 23.6466 10.1802 25.698 8.97945C32.101 8.45053 39.5854 14.5203 40.417 19.6628" stroke="#214759" stroke-miterlimit="22.926" stroke-linecap="round" stroke-linejoin="round"/>
<path d="M0.500854 28.015C3.81993 26.7443 7.06557 25.4859 10.5006 25.4859C13.9356 25.4859 17.0654 28.015 20.5004 28.015C23.9353 28.015 27.0651 25.4859 30.5001 25.4859C33.9351 25.4859 37.3468 26.8286 40.4999 28.015" stroke="#214759" stroke-miterlimit="22.926" stroke-linecap="round" stroke-linejoin="round"/>
<path d="M7.38843 34.5C10.5005 33.4041 11.7326 32.814 13.9444 32.814C16.1563 32.814 18.2886 34.5 20.5004 34.5C22.7123 34.5 24.8446 32.814 27.0564 32.814C29.2683 32.814 31.8697 33.8256 33.6124 34.5" stroke="#214759" stroke-miterlimit="22.926" stroke-linecap="round" stroke-linejoin="round"/>
<path d="M23.3954 10.0536L19.9969 6.6013" stroke="#214759" stroke-miterlimit="22.926" stroke-linecap="round" stroke-linejoin="round"/>
<path d="M20.9149 5.5L18.9232 7.52325" stroke="#214759" stroke-miterlimit="22.926" stroke-linecap="round" stroke-linejoin="round"/>
</svg>
