<svg width="41" height="41" viewBox="0 0 41 41" fill="none" xmlns="http://www.w3.org/2000/svg">
<path d="M13.0354 13.0354C5.85974 20.2109 1.66364 29.157 0.518355 38.1825C0.343965 39.5564 1.44388 40.6562 2.81779 40.4819C11.8432 39.3366 20.7894 35.1405 27.9649 27.9649C35.1405 20.7894 39.3366 11.8432 40.4819 2.81779C40.6562 1.44388 39.5564 0.343964 38.1825 0.518354C29.157 1.66364 20.2109 5.85974 13.0354 13.0354Z" stroke="#214759" stroke-miterlimit="10" stroke-linecap="round" stroke-linejoin="round"/>
<path d="M6.78083 20.8594C6.56839 24.4469 7.75156 27.9933 10.3701 30.6118C13.0012 33.2429 16.5691 34.4252 20.1742 34.1982" stroke="#214759" stroke-miterlimit="10" stroke-linecap="round" stroke-linejoin="round"/>
<path d="M27.6457 8.22131C25.5622 7.12798 23.2033 6.65847 20.827 6.80139" stroke="#214759" stroke-miterlimit="10" stroke-linecap="round" stroke-linejoin="round"/>
<path d="M34.1777 20.2065C34.3306 17.8127 33.8621 15.4349 32.7607 13.3364" stroke="#214759" stroke-miterlimit="10" stroke-linecap="round" stroke-linejoin="round"/>
<path d="M25.7474 15.2346C24.1332 13.6204 21.5163 13.6204 19.9022 15.2346L15.2165 19.9205C13.6023 21.5344 13.6023 24.1515 15.2165 25.7656C16.8305 27.3797 19.4475 27.3797 21.0616 25.7656L25.7474 21.0798C27.3615 19.4657 27.3615 16.8487 25.7474 15.2346Z" stroke="#214759" stroke-miterlimit="10" stroke-linecap="round" stroke-linejoin="round"/>
<path d="M10.6132 10.6131L30.3688 30.3687" stroke="#214759" stroke-miterlimit="10" stroke-linecap="round" stroke-linejoin="round"/>
<path d="M40.4447 36.2431L34.9989 30.7972L30.3688 30.3688L30.7972 34.9988L36.2431 40.4446L40.4447 36.2431Z" stroke="#214759" stroke-miterlimit="10" stroke-linecap="round" stroke-linejoin="round"/>
<path d="M4.73886 0.537232L10.1847 5.98309L10.6131 10.6131L5.98317 10.1847L0.537231 4.73886L4.73886 0.537232Z" stroke="#214759" stroke-miterlimit="10" stroke-linecap="round" stroke-linejoin="round"/>
<path d="M34.2047 6.79553L35.0137 5.98651" stroke="#214759" stroke-miterlimit="10" stroke-linecap="round" stroke-linejoin="round"/>
<path d="M6.79572 34.2046L5.98669 35.0136" stroke="#214759" stroke-miterlimit="10" stroke-linecap="round" stroke-linejoin="round"/>
</svg>
