<svg width="41" height="41" viewBox="0 0 41 41" fill="none" xmlns="http://www.w3.org/2000/svg">
<path d="M0.5 40.5H40.5" stroke="#214759" stroke-linecap="round" stroke-linejoin="round"/>
<path d="M40.5 3.16667C40.5 2.45943 40.2191 1.78114 39.719 1.28105C39.2189 0.780951 38.5405 0.5 37.8333 0.5H7.16667C6.45943 0.5 5.78114 0.780951 5.28105 1.28105C4.78096 1.78114 4.5 2.45943 4.5 3.16667V13.8333C4.5 14.5406 4.78096 15.2189 5.28105 15.719C5.78114 16.219 6.45943 16.5 7.16667 16.5H20.5C21.2072 16.5 21.8856 16.781 22.3857 17.281C22.8858 17.7811 23.1667 18.4595 23.1667 19.1667V40.5H40.5V3.16667Z" stroke="#214759" stroke-linecap="round" stroke-linejoin="round"/>
<path d="M32.5 40.5H40.5V21.8333H35.1667C34.4595 21.8333 33.7811 22.1142 33.281 22.6143C32.7809 23.1144 32.5 23.7928 32.5 24.5V40.5Z" stroke="#214759" stroke-linecap="round" stroke-linejoin="round"/>
<path d="M11.1667 16.5V21.8333" stroke="#214759" stroke-linecap="round" stroke-linejoin="round"/>
<path d="M9.83331 8.50001C9.83331 9.20725 10.1143 9.88554 10.6144 10.3856C11.1145 10.8857 11.7927 11.1667 12.5 11.1667C13.2072 11.1667 13.8855 10.8857 14.3856 10.3856C14.8857 9.88554 15.1666 9.20725 15.1666 8.50001C15.1666 7.79277 14.8857 7.11448 14.3856 6.61439C13.8855 6.1143 13.2072 5.83334 12.5 5.83334C11.7927 5.83334 11.1145 6.1143 10.6144 6.61439C10.1143 7.11448 9.83331 7.79277 9.83331 8.50001Z" stroke="#214759" stroke-linecap="round" stroke-linejoin="round"/>
<path d="M40.5 8.50002H32.5" stroke="#214759" stroke-linecap="round" stroke-linejoin="round"/>
<path d="M40.5 13.8333H32.5" stroke="#214759" stroke-linecap="round" stroke-linejoin="round"/>
<path d="M4.66711 31.1667C4.66711 34.8484 4.66711 40.5 11.3338 40.5C16.6671 40.5 17.0511 35.7089 17.7907 32.8324C17.8414 32.6353 17.8463 32.4292 17.8051 32.2299C17.764 32.0307 17.6776 31.8435 17.5528 31.6826C17.4282 31.5219 17.2682 31.3917 17.0854 31.3023C16.9026 31.2129 16.7017 31.1665 16.4982 31.1667H4.66711Z" stroke="#214759" stroke-linecap="round" stroke-linejoin="round"/>
<path d="M4.66711 31.1667C3.60625 31.1667 2.58883 31.5882 1.83868 32.3382C1.08855 33.0884 0.667114 34.1059 0.667114 35.1667" stroke="#214759" stroke-linecap="round" stroke-linejoin="round"/>
</svg>
