<svg width="44" height="41" viewBox="0 0 44 41" fill="none" xmlns="http://www.w3.org/2000/svg">
<path d="M11.4889 16.5204C11.6132 17.7116 12.3789 18.7024 13.4721 19.2025C15.7418 20.2408 19.7266 21.9011 22 21.9011C24.2733 21.9011 28.2581 20.2408 30.5278 19.2025C31.621 18.7024 32.3867 17.7116 32.511 16.5204C32.6331 15.3511 32.75 13.6039 32.75 11.2005C32.75 8.79719 32.6331 7.04995 32.511 5.88059C32.3867 4.68942 31.621 3.69864 30.5278 3.19854C28.2581 2.16024 24.2733 0.5 22 0.5C19.7266 0.5 15.7418 2.16024 13.4721 3.19854C12.3789 3.69864 11.6132 4.68942 11.4889 5.8806C11.3668 7.04995 11.25 8.79719 11.25 11.2005C11.25 13.6039 11.3668 15.3511 11.4889 16.5204Z" stroke="#214759" stroke-linecap="round" stroke-linejoin="round"/>
<path d="M11.9992 5C11.9992 5 19.8294 9.06083 22 9.06083C24.1705 9.06083 31.9992 5 31.9992 5" stroke="#214759" stroke-linecap="round" stroke-linejoin="round"/>
<path d="M22 9.06082V21.9015" stroke="#214759" stroke-linecap="round" stroke-linejoin="round"/>
<path d="M0.738906 35.119C0.863227 36.3102 1.62897 37.301 2.72218 37.801C4.9919 38.8394 8.97663 40.4996 11.25 40.4996C13.5234 40.4996 17.5081 38.8394 19.7778 37.801C20.871 37.301 21.6367 36.3102 21.761 35.119C21.8832 33.9497 22 32.2024 22 29.7991C22 27.3957 21.8832 25.6485 21.761 24.4792C21.6367 23.288 20.871 22.2972 19.7778 21.7971C17.5081 20.7588 13.5234 19.0985 11.25 19.0985C8.97663 19.0985 4.9919 20.7588 2.72219 21.7971C1.62897 22.2972 0.863227 23.288 0.738906 24.4792C0.616858 25.6485 0.5 27.3957 0.5 29.7991C0.5 32.2024 0.616858 33.9497 0.738906 35.119Z" stroke="#214759" stroke-linecap="round" stroke-linejoin="round"/>
<path d="M0.999268 24C0.999268 24 9.07942 27.6594 11.25 27.6594C13.4206 27.6594 21.4993 24 21.4993 24" stroke="#214759" stroke-linecap="round" stroke-linejoin="round"/>
<path d="M11.25 27.6594V40.5" stroke="#214759" stroke-linecap="round" stroke-linejoin="round"/>
<path d="M22.239 35.119C22.3632 36.3102 23.129 37.301 24.2222 37.801C26.4919 38.8394 30.4766 40.4996 32.75 40.4996C35.0234 40.4996 39.0081 38.8394 41.2778 37.801C42.371 37.301 43.1367 36.3102 43.261 35.119C43.3832 33.9497 43.5 32.2024 43.5 29.7991C43.5 27.3957 43.3832 25.6485 43.261 24.4792C43.1367 23.288 42.371 22.2972 41.2778 21.7971C39.0081 20.7588 35.0234 19.0985 32.75 19.0985C30.4766 19.0985 26.4919 20.7588 24.2222 21.7971C23.129 22.2972 22.3632 23.288 22.239 24.4792C22.1168 25.6485 22 27.3957 22 29.7991C22 32.2024 22.1168 33.9497 22.239 35.119Z" stroke="#214759" stroke-linecap="round" stroke-linejoin="round"/>
<path d="M22.4993 24C22.4993 24 30.5794 27.6594 32.75 27.6594C34.9206 27.6594 42.9993 23.5 42.9993 23.5" stroke="#214759" stroke-linecap="round" stroke-linejoin="round"/>
<path d="M32.75 27.6594V40.5" stroke="#214759" stroke-linecap="round" stroke-linejoin="round"/>
</svg>
