<svg width="41" height="41" viewBox="0 0 41 41" fill="none" xmlns="http://www.w3.org/2000/svg">
<rect x="0.5" y="23.5" width="40" height="17" stroke="#214759" stroke-linecap="round" stroke-linejoin="round"/>
<path d="M4.0625 0.5H15.9375L19.5 6.5H0.5L4.0625 0.5Z" stroke="#214759" stroke-linecap="round" stroke-linejoin="round"/>
<path d="M20 23.5V40.5" stroke="#214759" stroke-linecap="round"/>
<path d="M10.5 23.5V40.5" stroke="#214759" stroke-linecap="round"/>
<path d="M14.5 31.5V33.5" stroke="#214759" stroke-linecap="round"/>
<path d="M10.5 21.5V23.5" stroke="#214759" stroke-linecap="round"/>
<path d="M34.5 20.5L30.5 20.5" stroke="#214759" stroke-linecap="round"/>
<path d="M6.5 23V21H7.5" stroke="#214759" stroke-linecap="round" stroke-linejoin="round"/>
<path d="M14.5 23V21H13.5" stroke="#214759" stroke-linecap="round" stroke-linejoin="round"/>
<path d="M31.5 27.5L29.5 27.5" stroke="#214759" stroke-linecap="round"/>
<path d="M31.5 35.5L29.5 35.5" stroke="#214759" stroke-linecap="round"/>
<path d="M6.5 31.5V33.5" stroke="#214759" stroke-linecap="round"/>
<path d="M40.5 31.5H20.5" stroke="#214759" stroke-linecap="round"/>
<path d="M26.5 16.5C26.5 14.8431 27.8431 13.5 29.5 13.5C31.1569 13.5 32.5 14.8431 32.5 16.5V23.5" stroke="#214759" stroke-linecap="round"/>
</svg>
