<svg width="37" height="41" viewBox="0 0 37 41" fill="none" xmlns="http://www.w3.org/2000/svg">
<path d="M0.5 37.6571C0.5 38.0304 0.573106 38.4 0.715166 38.7449C0.857227 39.0899 1.06543 39.4032 1.32793 39.6672C1.59041 39.9312 1.90202 40.1407 2.24497 40.2836C2.58794 40.4264 2.9555 40.5 3.32672 40.5H24.2974C24.6955 40.4989 25.0887 40.4129 25.4511 40.2475C25.8136 40.0821 26.1369 39.841 26.3998 39.5405C26.6685 39.2467 26.8694 38.8968 26.9885 38.516C27.1075 38.1353 27.1418 37.7328 27.0888 37.3373C26.3839 31.3295 23.6872 25.7357 19.4339 21.4581C15.1806 17.1805 9.61841 14.4684 3.64472 13.7594C3.25155 13.7108 2.85259 13.7476 2.47471 13.8671C2.09683 13.9866 1.74879 14.1862 1.45402 14.4523C1.15599 14.7174 0.916976 15.0427 0.752585 15.4071C0.588194 15.7714 0.50212 16.1666 0.5 16.5667V37.6571Z" stroke="#214759" stroke-linecap="round" stroke-linejoin="round"/>
<path d="M6.13586 29.1641L11.7716 23.4962" stroke="#214759" stroke-linecap="round" stroke-linejoin="round"/>
<path d="M11.7716 34.8319L17.4074 29.164" stroke="#214759" stroke-linecap="round" stroke-linejoin="round"/>
<path d="M26.7888 2.33471L25.1811 0.824451C24.9145 0.595092 24.5695 0.479694 24.2195 0.502937C23.8695 0.526179 23.5425 0.686218 23.3084 0.948821L15.7292 9.44183L19.2626 12.7289L26.8418 4.2181C27.0829 3.96125 27.2128 3.61856 27.2029 3.26537C27.193 2.9122 27.0441 2.57744 26.7888 2.33471Z" stroke="#214759" stroke-linecap="round" stroke-linejoin="round"/>
<path d="M10.3759 15.4651L15.6759 9.44177L20.976 14.2568C21.2525 14.5335 21.4302 14.8945 21.4813 15.2834C21.5325 15.6723 21.4543 16.0673 21.2587 16.4068C21.2587 16.4068 19.7923 18.1835 17.955 20.1557" stroke="#214759" stroke-linecap="round" stroke-linejoin="round"/>
<path d="M36.0636 12.2492L34.4029 10.7567C34.1478 10.5537 33.828 10.4509 33.5029 10.4672C33.178 10.4835 32.8701 10.618 32.6362 10.8456L25.0747 19.3563L28.6081 22.6434L36.1696 14.1326C36.3998 13.8669 36.5176 13.5211 36.4978 13.1692C36.478 12.8173 36.3222 12.4871 36.0636 12.2492Z" stroke="#214759" stroke-linecap="round" stroke-linejoin="round"/>
<path d="M21.2941 23.5318L25.0041 19.3563L30.3042 24.1892C30.5984 24.4553 30.7872 24.8194 30.836 25.2144C30.8846 25.6093 30.7899 26.0088 30.5692 26.3391L25.7815 31.7583" stroke="#214759" stroke-linecap="round" stroke-linejoin="round"/>
</svg>
