<svg width="42" height="42" viewBox="0 0 42 42" fill="none" xmlns="http://www.w3.org/2000/svg">
<path d="M39.8407 33.7662L39.4207 33.4949L39.8407 33.7662ZM38.1148 35.1696L37.9319 34.7043L38.1148 35.1696ZM36.2601 36.4377L35.8893 36.1023L36.2601 36.4377ZM34.5133 37.7765L34.2871 37.3305L34.5133 37.7765ZM30.2575 38.9811L30.4919 39.4227L30.2575 38.9811ZM28.1814 39.7082L28.0903 39.2166L28.1814 39.7082ZM21.6165 40.7666L21.6134 41.2666L21.6165 40.7666ZM17.2249 39.9884L17.3017 39.4944L17.2249 39.9884ZM8.5781 38.4757L8.4536 38.9599L8.5781 38.4757ZM6.78685 23.0686L6.58978 22.609L6.78685 23.0686ZM13.1285 21.0458L13.0579 20.5508L13.1285 21.0458ZM28.5152 21.4141L28.4223 21.9054L28.5152 21.4141ZM30.6956 21.8154L30.6075 22.3076L30.6956 21.8154ZM32.7837 22.5203L33.0119 22.0754L32.7837 22.5203ZM34.8613 23.3517L34.7188 23.831V23.831L34.8613 23.3517ZM36.7379 24.489L36.3792 24.8374L36.7379 24.489ZM40.6821 29.5272L40.1833 29.5611L40.6821 29.5272ZM40.5299 31.6481L40.0306 31.6212C39.9943 32.2978 39.7922 32.9196 39.4207 33.4949L39.8407 33.7662L40.2607 34.0375C40.726 33.317 40.9834 32.5268 41.0292 31.6749L40.5299 31.6481ZM39.8407 33.7662L39.4207 33.4949C39.0602 34.053 38.5687 34.454 37.9319 34.7043L38.1148 35.1696L38.2977 35.635C39.1251 35.3097 39.7842 34.7751 40.2607 34.0375L39.8407 33.7662ZM38.1148 35.1696L37.9319 34.7043C37.1313 35.0189 36.4477 35.4848 35.8893 36.1023L36.2601 36.4377L36.6309 36.773C37.081 36.2754 37.6339 35.8959 38.2977 35.635L38.1148 35.1696ZM36.2601 36.4377L35.8893 36.1023C35.4253 36.6152 34.8919 37.0237 34.2871 37.3305L34.5133 37.7765L34.7395 38.2224C35.4551 37.8593 36.0862 37.3753 36.6309 36.773L36.2601 36.4377ZM34.5133 37.7765L34.2871 37.3305C33.6869 37.635 33.0417 37.8146 32.3473 37.8683L32.3859 38.3669L32.4245 38.8654C33.2461 38.8018 34.0192 38.5878 34.7395 38.2224L34.5133 37.7765ZM32.3859 38.3669L32.3473 37.8683C31.5219 37.9322 30.7457 38.1559 30.0231 38.5394L30.2575 38.9811L30.4919 39.4227C31.0912 39.1046 31.7338 38.9188 32.4245 38.8654L32.3859 38.3669ZM30.2575 38.9811L30.0231 38.5394C29.4063 38.8668 28.7625 39.0921 28.0903 39.2166L28.1814 39.7082L28.2725 40.1999C29.0465 40.0565 29.7868 39.797 30.4919 39.4227L30.2575 38.9811ZM28.1814 39.7082L28.0903 39.2166C27.3926 39.3458 26.688 39.4206 25.9762 39.4409L25.9905 39.9407L26.0047 40.4405C26.7679 40.4187 27.5239 40.3385 28.2725 40.1999L28.1814 39.7082ZM25.9905 39.9407L25.9762 39.4409C25.182 39.4636 24.4003 39.6188 23.633 39.9043L23.8074 40.3729L23.9817 40.8415C24.6503 40.5928 25.3241 40.4599 26.0047 40.4405L25.9905 39.9407ZM23.8074 40.3729L23.633 39.9043C22.97 40.1509 22.2998 40.2708 21.6196 40.2666L21.6165 40.7666L21.6134 41.2666C22.4185 41.2716 23.2088 41.129 23.9817 40.8415L23.8074 40.3729ZM21.6165 40.7666L21.6196 40.2666C20.9216 40.2623 20.2283 40.1658 19.5385 39.9762L19.406 40.4583L19.2735 40.9405C20.0458 41.1527 20.8261 41.2617 21.6134 41.2666L21.6165 40.7666ZM19.406 40.4583L19.5385 39.9762C18.7898 39.7705 18.0442 39.6098 17.3017 39.4944L17.2249 39.9884L17.1482 40.4825C17.8517 40.5919 18.5602 40.7444 19.2735 40.9405L19.406 40.4583ZM17.2249 39.9884L17.3017 39.4944C16.5568 39.3786 15.8054 39.3124 15.0477 39.2958L15.0367 39.7957L15.0257 40.2955C15.7396 40.3112 16.447 40.3736 17.1482 40.4825L17.2249 39.9884ZM15.0367 39.7957L15.0477 39.2958C14.3378 39.2802 13.6346 39.2098 12.9376 39.0846L12.8492 39.5767L12.7608 40.0688C13.509 40.2032 14.2641 40.2788 15.0257 40.2955L15.0367 39.7957ZM12.8492 39.5767L12.9376 39.0846C12.2334 38.9581 11.5386 38.7927 10.8531 38.5882L10.7102 39.0673L10.5673 39.5464C11.2886 39.7616 12.0198 39.9358 12.7608 40.0688L12.8492 39.5767ZM10.7102 39.0673L10.8531 38.5882C10.1435 38.3765 9.42669 38.1776 8.70261 37.9914L8.5781 38.4757L8.4536 38.9599C9.16546 39.1429 9.87001 39.3384 10.5673 39.5464L10.7102 39.0673ZM8.5781 38.4757L8.70261 37.9914C8.05147 37.824 7.45942 37.533 6.92291 37.1159L6.61603 37.5107L6.30915 37.9054C6.9528 38.4058 7.66879 38.7581 8.4536 38.9599L8.5781 38.4757ZM6.61603 37.5107L6.92291 37.1159C6.30702 36.6371 5.65541 36.2268 4.96833 35.8856L4.74595 36.3334L4.52356 36.7812C5.14976 37.0922 5.74488 37.4667 6.30915 37.9054L6.61603 37.5107ZM4.74595 36.3334L4.96833 35.8856C4.37505 35.591 3.8739 35.191 3.46056 34.6831L3.07277 34.9988L2.68499 35.3144C3.18926 35.9339 3.80356 36.4237 4.52356 36.7812L4.74595 36.3334ZM3.07277 34.9988L3.46056 34.6831C2.98243 34.0957 2.44011 33.5392 1.83464 33.0134L1.50678 33.3909L1.17892 33.7684C1.74382 34.259 2.24549 34.7744 2.68499 35.3144L3.07277 34.9988ZM1.50678 33.3909L1.83464 33.0134C1.34649 32.5894 1.0797 32.0692 1.02078 31.4282L0.522879 31.4739L0.0249775 31.5197C0.107561 32.4182 0.496705 33.1759 1.17892 33.7684L1.50678 33.3909ZM0.522879 31.4739L1.02078 31.4282C0.956575 30.7296 1.04145 30.0711 1.27217 29.4465L0.803142 29.2733L0.334118 29.1C0.0496542 29.8701 -0.052317 30.6787 0.0249775 31.5197L0.522879 31.4739ZM0.803142 29.2733L1.27217 29.4465C1.51196 28.7974 1.83938 28.213 2.25413 27.6908L1.86259 27.3798L1.47104 27.0688C0.988379 27.6766 0.609511 28.3545 0.334118 29.1L0.803142 29.2733ZM1.86259 27.3798L2.25413 27.6908C2.68375 27.1498 3.15872 26.6533 3.67928 26.201L3.35134 25.8236L3.02341 25.4462C2.45637 25.9388 1.93883 26.4798 1.47104 27.0688L1.86259 27.3798ZM3.35134 25.8236L3.67928 26.201C4.23282 25.7201 4.77925 25.2077 5.31861 24.664L4.96364 24.3118L4.60867 23.9597C4.0859 24.4867 3.55747 24.9821 3.02341 25.4462L3.35134 25.8236ZM4.96364 24.3118L5.31861 24.664C5.80502 24.1737 6.35932 23.7959 6.98392 23.5281L6.78685 23.0686L6.58978 22.609C5.84557 22.9282 5.1844 23.3793 4.60867 23.9597L4.96364 24.3118ZM6.78685 23.0686L6.98392 23.5281C7.6781 23.2304 8.36444 22.9098 9.04293 22.5665L8.81717 22.1204L8.5914 21.6742C7.93162 22.0081 7.26442 22.3197 6.58978 22.609L6.78685 23.0686ZM8.81717 22.1204L9.04293 22.5665C9.66974 22.2493 10.3267 22.0271 11.0152 21.8992L10.924 21.4076L10.8327 20.916C10.0504 21.0613 9.30286 21.3142 8.5914 21.6742L8.81717 22.1204ZM10.924 21.4076L11.0152 21.8992C11.7438 21.7639 12.4718 21.6445 13.199 21.5408L13.1285 21.0458L13.0579 20.5508C12.3166 20.6565 11.5749 20.7782 10.8327 20.916L10.924 21.4076ZM13.1285 21.0458L13.199 21.5408C13.9052 21.4401 14.6168 21.3997 15.3343 21.4196L15.3481 20.9198L15.362 20.4199C14.5884 20.3985 13.8203 20.4421 13.0579 20.5508L13.1285 21.0458ZM15.3481 20.9198L15.3343 21.4196C16.1043 21.4409 16.8663 21.4054 17.6199 21.313L17.5591 20.8167L17.4982 20.3204C16.7949 20.4067 16.0829 20.4399 15.362 20.4199L15.3481 20.9198ZM17.5591 20.8167L17.6199 21.313C18.3358 21.2252 19.0547 21.1647 19.7768 21.1314L19.7538 20.632L19.7308 20.1325C18.9835 20.1669 18.2392 20.2295 17.4982 20.3204L17.5591 20.8167ZM19.7538 20.632L19.7768 21.1314C20.5011 21.0981 21.2258 21.0874 21.9511 21.0993L21.9594 20.5994L21.9676 20.0995C21.2215 20.0872 20.4759 20.0982 19.7308 20.1325L19.7538 20.632ZM21.9594 20.5994L21.9511 21.0993C22.6763 21.1113 23.4005 21.1461 24.1237 21.2038L24.1635 20.7054L24.2033 20.207C23.459 20.1476 22.7138 20.1117 21.9676 20.0995L21.9594 20.5994ZM24.1635 20.7054L24.1237 21.2038C24.8392 21.2609 25.549 21.357 26.2532 21.4921L26.3474 21.0011L26.4417 20.5101C25.7014 20.368 24.9553 20.267 24.2033 20.207L24.1635 20.7054ZM26.3474 21.0011L26.2532 21.4921C26.9759 21.6308 27.6989 21.7686 28.4223 21.9054L28.5152 21.4141L28.6082 20.9228C27.8856 20.7862 27.1634 20.6486 26.4417 20.5101L26.3474 21.0011ZM28.5152 21.4141L28.4223 21.9054C29.1469 22.0425 29.8753 22.1765 30.6075 22.3076L30.6956 21.8154L30.7837 21.3232C30.0547 21.1927 29.3295 21.0593 28.6082 20.9228L28.5152 21.4141ZM30.6956 21.8154L30.6075 22.3076C31.2892 22.4296 31.9381 22.6486 32.5556 22.9652L32.7837 22.5203L33.0119 22.0754C32.3063 21.7137 31.5631 21.4627 30.7837 21.3232L30.6956 21.8154ZM32.7837 22.5203L32.5556 22.9652C33.245 23.3187 33.9662 23.6072 34.7188 23.831L34.8613 23.3517L35.0038 22.8724C34.3093 22.666 33.6455 22.4003 33.0119 22.0754L32.7837 22.5203ZM34.8613 23.3517L34.7188 23.831C35.36 24.0216 35.9111 24.3555 36.3792 24.8374L36.7379 24.489L37.0965 24.1407C36.5095 23.5363 35.8096 23.112 35.0038 22.8724L34.8613 23.3517ZM36.7379 24.489L36.3792 24.8374C36.935 25.4096 37.5547 25.9099 38.2373 26.3378L38.5029 25.9142L38.7685 25.4905C38.1529 25.1046 37.5959 24.6548 37.0965 24.1407L36.7379 24.489ZM38.5029 25.9142L38.2373 26.3378C38.8147 26.6998 39.271 27.1794 39.6103 27.7835L40.0462 27.5386L40.4822 27.2937C40.062 26.5457 39.4893 25.9424 38.7685 25.4905L38.5029 25.9142ZM40.0462 27.5386L39.6103 27.7835C39.9606 28.4069 40.145 28.9983 40.1833 29.5611L40.6821 29.5272L41.181 29.4933C41.1309 28.7566 40.8915 28.0223 40.4822 27.2937L40.0462 27.5386ZM40.6821 29.5272L40.1833 29.5611C40.2051 29.883 40.214 30.1102 40.2122 30.2518C40.2118 30.2862 40.2108 30.3124 40.2095 30.3316C40.2081 30.352 40.2069 30.3585 40.2074 30.3553C40.2078 30.3534 40.2093 30.3451 40.2128 30.3323C40.2161 30.3208 40.2237 30.2958 40.2392 30.2645C40.2537 30.2353 40.3747 30.0017 40.6699 30.0017V30.5017V31.0017C40.9782 31.0017 41.1107 30.758 41.1353 30.7084C41.1724 30.6334 41.1865 30.562 41.1927 30.5263C41.2068 30.4451 41.211 30.3518 41.2121 30.2643C41.2144 30.0811 41.2032 29.8211 41.181 29.4933L40.6821 29.5272ZM40.6699 30.5017V30.0017C40.5025 30.0017 40.3837 30.0808 40.3204 30.1393C40.2603 30.195 40.2261 30.253 40.2093 30.2846C40.1751 30.3488 40.1571 30.4117 40.1477 30.448C40.1269 30.5286 40.1117 30.6267 40.0994 30.7277C40.0739 30.9362 40.0513 31.2365 40.0306 31.6212L40.5299 31.6481L41.0292 31.6749C41.0496 31.2953 41.0708 31.0225 41.092 30.8489C41.103 30.7588 41.1119 30.7136 41.1158 30.6987C41.1188 30.6872 41.1133 30.7143 41.0919 30.7547C41.0814 30.7743 41.0536 30.8234 40.9999 30.873C40.9431 30.9256 40.8308 31.0017 40.6699 31.0017V30.5017Z" fill="#214759"/>
<path d="M2.59149 11.6555C4.25816 11.0929 6.48038 12.0929 7.59149 14.343" stroke="#214759" stroke-linecap="round"/>
<path d="M12.5915 11.6555C10.9248 11.0929 8.7026 12.0929 7.59149 14.3429" stroke="#214759" stroke-linecap="round"/>
<path d="M10.5915 0.65547C12.2582 0.0929474 14.4804 1.09295 15.5915 3.34296" stroke="#214759" stroke-linecap="round"/>
<path d="M20.5915 0.65547C18.9248 0.0929474 16.7026 1.09292 15.5915 3.34293" stroke="#214759" stroke-linecap="round"/>
<path d="M30.5915 3.65547C32.2582 3.09295 34.4804 4.09295 35.5915 6.34296" stroke="#214759" stroke-linecap="round"/>
<path d="M40.5915 3.65547C38.9248 3.09295 36.7026 4.09292 35.5915 6.34293" stroke="#214759" stroke-linecap="round"/>
<path d="M10.5915 32.4335C15.4535 30.1401 16.1631 35.4521 21.0251 33.1587" stroke="#214759" stroke-miterlimit="10" stroke-linecap="round" stroke-linejoin="round"/>
<path d="M20.5915 28.4335C25.4535 26.1401 26.1631 31.4521 31.0251 29.1587" stroke="#214759" stroke-miterlimit="10" stroke-linecap="round" stroke-linejoin="round"/>
</svg>
