<svg width="41" height="41" viewBox="0 0 41 41" fill="none" xmlns="http://www.w3.org/2000/svg">
<path d="M40.3883 27.633V27.6337L40.4718 28.3821C40.475 28.4134 40.4776 28.444 40.4801 28.4746C40.6592 30.6443 39.554 32.6925 37.7603 33.5533L25.3196 39.5212C24.5636 39.884 23.7758 40.1635 22.9669 40.3343C21.1216 40.7227 20.4855 40.3065 20.4855 40.3065L3.02331 30.6373C2.33428 30.2552 1.72109 29.7124 1.26471 29.021C0.291401 27.5477 0.38254 26.0786 0.79303 24.8935C1.06264 24.1152 1.48716 23.4259 2.0213 22.861" stroke="#214759" stroke-miterlimit="10" stroke-linecap="round" stroke-linejoin="round"/>
<path d="M39.8224 24.6038C40.1149 25.0698 40.3202 25.6035 40.4144 26.1761C40.4873 26.6208 40.4992 27.0951 40.4025 27.5697C40.3981 27.5911 40.3933 27.6124 40.3884 27.6331V27.6337C39.9861 29.4698 38.7992 29.6293 38.7992 29.6293L23.8063 37.1814C23.6146 37.2782 23.4143 37.3236 23.2182 37.3236C22.6145 37.3236 22.0466 36.8948 21.8515 36.2052C21.6296 35.4214 21.9668 34.5763 22.6375 34.2362L23.1628 33.9694C23.1633 33.9694 23.1633 33.9694 23.1639 33.9694L25.3357 32.8673C25.3362 32.8673 25.3362 32.8667 25.3368 32.8667L25.5299 32.7687L25.6975 32.684" stroke="#214759" stroke-miterlimit="10" stroke-linecap="round" stroke-linejoin="round"/>
<path d="M1.67069 16.2187C1.30056 16.6961 1.00078 17.2425 0.793009 17.842C0.382698 19.0278 0.291561 20.4963 1.26483 21.9703C1.48396 22.3017 1.7383 22.5992 2.02144 22.8611C2.32675 23.1455 2.66502 23.3873 3.02324 23.5859L20.4857 33.2551C20.4857 33.2551 21.3174 34.3587 23.1628 33.9694C23.1634 33.9694 23.1634 33.9694 23.1639 33.9694" stroke="#214759" stroke-miterlimit="10" stroke-linecap="round" stroke-linejoin="round"/>
<path d="M25.3356 32.8674C25.3361 32.8674 25.3361 32.8667 25.3367 32.8667C25.4018 32.8318 25.4661 32.7993 25.5298 32.7687L25.6974 32.684L37.8165 26.5546C38.6726 26.144 39.3583 25.452 39.8223 24.6038C40.3315 23.6749 40.5739 22.5587 40.48 21.4239C40.4775 21.3933 40.475 21.362 40.4717 21.3314L40.3883 20.5825" stroke="#214759" stroke-miterlimit="10" stroke-linecap="round" stroke-linejoin="round"/>
<path d="M37.7603 20.2203L35.0533 21.4667L23.1021 26.9714H23.1014L22.6374 27.1856C21.9668 27.5256 21.6296 28.3707 21.8515 29.1547C22.0465 29.8433 22.6144 30.2723 23.218 30.2723C23.4144 30.2723 23.6145 30.2268 23.8064 30.13L37.9611 23.0004L38.7993 22.5778C38.7993 22.5778 39.9861 22.4192 40.3883 20.5824C40.3934 20.5617 40.3979 20.5397 40.4024 20.5183C40.4992 20.0438 40.4871 19.5701 40.4145 19.1254C40.3412 18.6808 40.2016 18.2611 40.0059 17.8776" stroke="#214759" stroke-miterlimit="10" stroke-linecap="round" stroke-linejoin="round"/>
<path d="M40.3883 14.3C39.9861 16.1369 38.7993 16.2955 38.7993 16.2955L38.6788 16.356L31.8682 19.787L23.8064 23.8477C23.6145 23.9445 23.4144 23.99 23.218 23.99C22.6144 23.99 22.0465 23.561 21.8515 22.8724C21.6296 22.0884 21.9668 21.2433 22.6374 20.9032L28.4211 17.9687L35.2356 14.5113L37.4881 13.3688" stroke="#214759" stroke-miterlimit="10" stroke-linecap="round" stroke-linejoin="round"/>
<path d="M23.1021 26.9714H23.1015C23.0569 26.9822 23.0115 26.9921 22.9669 27.0014C21.1217 27.3898 20.4856 26.9736 20.4856 26.9736L7.47944 19.7715L3.02316 17.3037C2.52171 17.026 2.0607 16.6627 1.67062 16.2187C1.52489 16.0529 1.38887 15.8758 1.26476 15.6881C0.2915 14.2141 0.382637 12.7457 0.792948 11.5599C1.28386 10.144 2.28596 9.02434 3.52821 8.40532L18.8754 0.76138C19.5925 0.403632 20.4147 0.413515 21.1253 0.788587L38.3052 9.84807C39.3907 10.4207 40.1983 11.5249 40.4144 12.843C40.4872 13.2877 40.4991 13.7623 40.4024 14.236C40.398 14.2574 40.3933 14.2787 40.3883 14.3L40.4717 15.0492C40.475 15.0804 40.4775 15.1111 40.48 15.1417C40.5598 16.1092 40.3844 17.0532 40.006 17.8776C39.5367 18.902 38.754 19.7436 37.7603 20.2201" stroke="#214759" stroke-miterlimit="10" stroke-linecap="round" stroke-linejoin="round"/>
</svg>
