<svg width="41" height="41" viewBox="0 0 41 41" fill="none" xmlns="http://www.w3.org/2000/svg">
<path d="M38.0104 40.5H2.98963C1.61461 40.5 0.5 39.3854 0.5 38.0104V13.944H40.5V38.0104C40.5 39.3854 39.3854 40.5 38.0104 40.5Z" stroke="#214759" stroke-miterlimit="10" stroke-linecap="round" stroke-linejoin="round"/>
<path d="M40.5 13.944H0.5V6.47509C0.5 5.10007 1.61461 3.98546 2.98963 3.98546H38.0104C39.3854 3.98546 40.5 5.10007 40.5 6.47509V13.944Z" stroke="#214759" stroke-miterlimit="10" stroke-linecap="round" stroke-linejoin="round"/>
<path d="M15.5208 7.47095V0.499993" stroke="#214759" stroke-miterlimit="10" stroke-linecap="round" stroke-linejoin="round"/>
<path d="M35.4378 7.47095V0.499993" stroke="#214759" stroke-miterlimit="10" stroke-linecap="round" stroke-linejoin="round"/>
<path d="M25.4793 7.47095V0.499993" stroke="#214759" stroke-miterlimit="10" stroke-linecap="round" stroke-linejoin="round"/>
<path d="M31.8333 30.4709V23.5" stroke="#214759" stroke-miterlimit="10" stroke-linecap="round" stroke-linejoin="round"/>
<path d="M28.3529 26.9805L35.3238 26.9805" stroke="#214759" stroke-miterlimit="10" stroke-linecap="round" stroke-linejoin="round"/>
<path d="M5.56223 7.47095V0.499993" stroke="#214759" stroke-miterlimit="10" stroke-linecap="round" stroke-linejoin="round"/>
<path d="M5.88785 23.7544C6.15009 22.4197 7.32635 21.4129 8.73789 21.4129C10.342 21.4129 11.6425 22.7133 11.6425 24.3174C11.6425 25.9216 10.342 27.222 8.73789 27.222" stroke="#214759" stroke-miterlimit="10" stroke-linecap="round" stroke-linejoin="round"/>
<path d="M8.73791 27.222C10.3421 27.222 11.6425 28.5225 11.6425 30.1265C11.6425 31.7307 10.3421 33.0312 8.73791 33.0312C7.27127 33.0312 6.05849 31.9441 5.86139 30.5317C5.84289 30.3992 5.83334 30.2641 5.83334 30.1265" stroke="#214759" stroke-miterlimit="10" stroke-linecap="round" stroke-linejoin="round"/>
<path d="M22.2478 29.8031C22.2478 31.5858 20.8026 33.0311 19.0199 33.0311C17.2371 33.0311 15.7918 31.5858 15.7918 29.8031V24.6409C15.7918 22.858 17.2371 21.4128 19.0199 21.4128C20.8026 21.4128 22.2478 22.858 22.2478 24.6409V29.8031Z" stroke="#214759" stroke-miterlimit="10" stroke-linecap="round" stroke-linejoin="round"/>
</svg>
