<svg width="41" height="41" viewBox="0 0 41 41" fill="none" xmlns="http://www.w3.org/2000/svg">
<path d="M34.3462 8.26498H6.65385C3.25517 8.26498 0.5 11.3033 0.5 15.0513V33.7137C0.5 37.4618 3.25517 40.5 6.65385 40.5H34.3462C37.7449 40.5 40.5 37.4618 40.5 33.7137V15.0513C40.5 11.3033 37.7449 8.26498 34.3462 8.26498Z" stroke="#214759" stroke-linecap="round" stroke-linejoin="round"/>
<path d="M10.5 40.5V8.26498" stroke="#214759" stroke-linecap="round" stroke-linejoin="round"/>
<path d="M30.5 40.5V8.26498" stroke="#214759" stroke-linecap="round" stroke-linejoin="round"/>
<path d="M12.8077 8.26494C12.8077 6.20556 13.6181 4.2305 15.0607 2.77429C16.5033 1.31808 18.4599 0.5 20.5 0.5C22.5401 0.5 24.4967 1.31808 25.9393 2.77429C27.3819 4.2305 28.1923 6.20556 28.1923 8.26494" stroke="#214759" stroke-linecap="round" stroke-linejoin="round"/>
</svg>
