<svg width="35" height="41" viewBox="0 0 35 41" fill="none" xmlns="http://www.w3.org/2000/svg">
<path d="M11.7173 10.0755C10.566 9.24171 9.60624 8.1698 8.91672 6.93706C8.14492 5.55739 7.70508 3.97829 7.70508 2.30645V0.5H11.4481V2.30645C11.4481 3.34376 11.7181 4.31845 12.1919 5.16539C12.4138 5.56204 12.6789 5.93127 12.9809 6.26637" stroke="#214759" stroke-miterlimit="2.6131" stroke-linecap="round" stroke-linejoin="round"/>
<path d="M23.0987 10.527C22.9335 12.7037 21.4766 14.5954 19.3717 15.3284V18.9559H22.0718C23.1054 18.9559 23.9432 19.7813 23.9432 20.7995C23.9432 21.8177 23.1054 22.6431 22.0718 22.6431H19.3717V34.2141C21.4405 33.9012 23.3584 33.0771 24.9685 31.86C26.2342 30.9032 27.3108 29.7023 28.1222 28.315C27.5251 28.1751 27.0102 27.7486 26.7909 27.1362C26.4478 26.1776 26.9584 25.1265 27.9313 24.7885L30.9425 23.7365C31.9155 23.3984 32.9825 23.9014 33.3256 24.8599L34.3935 27.8263C34.7367 28.7848 34.226 29.8359 33.2531 30.174C32.638 30.3877 31.9854 30.2651 31.5018 29.9039C29.5222 34.9119 23.3261 40.5 17.5004 40.5C11.6746 40.5 5.47859 34.9119 3.49896 29.9041C3.01536 30.2652 2.36272 30.3877 1.74761 30.174C0.774618 29.836 0.264089 28.7848 0.607231 27.8264L1.67511 24.8599C2.01833 23.9014 3.0853 23.3984 4.05821 23.7365L7.06942 24.7885C8.04242 25.1265 8.55295 26.1777 8.20981 27.1362C7.99055 27.7487 7.47563 28.1752 6.8785 28.315C7.68983 29.7023 8.76649 30.9033 10.0322 31.86C11.6423 33.0771 13.5602 33.9012 15.6289 34.2141V22.6432H12.9289C11.8954 22.6432 11.0574 21.8178 11.0574 20.7996C11.0574 19.7815 11.8953 18.956 12.9289 18.956H15.6289V15.3285C13.3914 14.5492 11.8861 12.461 11.8861 10.1126C11.8861 7.05828 14.4 4.58179 17.5003 4.58179C19.0617 4.58179 20.4743 5.21011 21.492 6.22383" stroke="#214759" stroke-miterlimit="2.6131" stroke-linecap="round" stroke-linejoin="round"/>
<path fill-rule="evenodd" clip-rule="evenodd" d="M27.2958 0.5V2.30645C27.2958 4.96204 26.1944 7.37494 24.4199 9.1231C22.6454 10.8712 20.1961 11.9562 17.5004 11.9562C16.4668 11.9562 15.6289 11.1308 15.6289 10.1126C15.6289 9.09437 16.4668 8.2689 17.5004 8.2689C19.1628 8.2689 20.6756 7.59755 21.7735 6.516C22.8713 5.43445 23.5528 3.94416 23.5528 2.30645V0.5H27.2958Z" stroke="#214759" stroke-miterlimit="2.6131" stroke-linecap="round" stroke-linejoin="round"/>
</svg>
