<svg width="41" height="30" viewBox="0 0 41 30" fill="none" xmlns="http://www.w3.org/2000/svg">
<path d="M38.9615 0.5H2.03846C1.18879 0.5 0.5 1.14671 0.5 1.94445V25.0556C0.5 25.8532 1.18879 26.5 2.03846 26.5H38.9615C39.8111 26.5 40.5 25.8532 40.5 25.0556V1.94445C40.5 1.14671 39.8111 0.5 38.9615 0.5Z" stroke="#214759" stroke-linecap="round" stroke-linejoin="round"/>
<path d="M27.5 3.5H5.5C4.39544 3.5 3.5 4.39544 3.5 5.5V21.5C3.5 22.6046 4.39544 23.5 5.5 23.5H27.5C28.6046 23.5 29.5 22.6046 29.5 21.5V5.5C29.5 4.39544 28.6046 3.5 27.5 3.5Z" stroke="#214759" stroke-linecap="round" stroke-linejoin="round"/>
<path d="M32.8077 7.72223H34.3462" stroke="#214759" stroke-linecap="round" stroke-linejoin="round"/>
<path d="M32.8077 13.5001H34.3462" stroke="#214759" stroke-linecap="round" stroke-linejoin="round"/>
<path d="M4.021 26.5305L3.50005 29.4849" stroke="#214759" stroke-linecap="round" stroke-linejoin="round"/>
<path d="M36.5 26.5305L37.0209 29.4849" stroke="#214759" stroke-linecap="round" stroke-linejoin="round"/>
<path d="M9.5 11.5C12.9737 14.2976 8.02632 15.7024 11.5 18.5" stroke="#214759" stroke-miterlimit="10" stroke-linecap="round" stroke-linejoin="round"/>
<path d="M15.5 8.5C18.9737 11.2976 14.0263 12.7024 17.5 15.5" stroke="#214759" stroke-miterlimit="10" stroke-linecap="round" stroke-linejoin="round"/>
<path d="M21.5 11.5C24.9737 14.2976 20.0263 15.7024 23.5 18.5" stroke="#214759" stroke-miterlimit="10" stroke-linecap="round" stroke-linejoin="round"/>
</svg>
