<svg width="41" height="41" viewBox="0 0 41 41" fill="none" xmlns="http://www.w3.org/2000/svg">
<rect x="0.5" y="0.5" width="40" height="40" stroke="#214759" stroke-linecap="round" stroke-linejoin="round"/>
<path d="M0.5 25L15.5 40.5" stroke="#214759" stroke-linecap="round"/>
<path d="M0.5 35L5.74999 40.5" stroke="#214759" stroke-linecap="round"/>
<path d="M0.500122 15L25.5 40.5" stroke="#214759" stroke-linecap="round"/>
<path d="M1 6.00002L35 40" stroke="#214759" stroke-linecap="round"/>
<path d="M5.5 0.500015L40.5 35.5" stroke="#214759" stroke-linecap="round"/>
<path d="M15.0001 0.500015L40.5 25.5" stroke="#214759" stroke-linecap="round"/>
<path d="M26.0001 0.500015L40.5001 15" stroke="#214759" stroke-linecap="round"/>
<path d="M36.5 0.5L40.5 4.5" stroke="#214759" stroke-linecap="round"/>
<path d="M25 40.5L40 25.5" stroke="#214759" stroke-linecap="round"/>
<path d="M34.5 40.5L40.5 34.5" stroke="#214759" stroke-linecap="round"/>
<path d="M15 40.5L40.5 15" stroke="#214759" stroke-linecap="round"/>
<path d="M5.49988 40L40.4999 5" stroke="#214759" stroke-linecap="round"/>
<path d="M1 34.5L35 0.500011" stroke="#214759" stroke-linecap="round"/>
<path d="M0.5 25.5L25.0002 0.500018" stroke="#214759" stroke-linecap="round"/>
<path d="M0.5 15L14.5001 0.500016" stroke="#214759" stroke-linecap="round"/>
<path d="M0.5 5L4.74999 0.500008" stroke="#214759" stroke-linecap="round"/>
</svg>
