<svg width="37" height="41" viewBox="0 0 37 41" fill="none" xmlns="http://www.w3.org/2000/svg">
<path d="M23.1077 0.500061L17.7321 9.78969M16.1622 13.6746L14.8392 18.6009" stroke="#214759" stroke-miterlimit="2.6131" stroke-linecap="round" stroke-linejoin="round"/>
<path d="M11.4134 23.4683H7.60462M4.67945 25.1652C2.60249 27.2375 3.09855 29.7952 0.5 32.3878" stroke="#214759" stroke-miterlimit="2.6131" stroke-linecap="round" stroke-linejoin="round"/>
<path fill-rule="evenodd" clip-rule="evenodd" d="M16.3277 9.91255C17.1996 9.68006 18.0954 10.1969 18.3284 11.0669C18.5614 11.9369 18.0434 12.8306 17.1714 13.0631L12.1489 14.4058L14.2395 19.1153L18.0659 18.7028C18.5409 18.6517 18.9956 18.6667 19.3687 18.9047L24.8538 22.0643C25.6339 22.5152 25.9001 23.5117 25.4482 24.2901C24.9964 25.0686 23.9976 25.334 23.2174 24.8832L18.2594 22.0272L13.0483 23.4204C12.336 23.6108 11.5831 23.2977 11.2137 22.6614L7.3605 16.0026C6.36542 14.283 7.18238 12.3575 8.86456 11.9077L16.3277 9.91255Z" stroke="#214759" stroke-miterlimit="2.6131" stroke-linecap="round" stroke-linejoin="round"/>
<path d="M15.4858 22.7687L17.0729 26.2785C17.2572 26.6862 17.2978 27.2906 17.1904 27.691L15.5812 33.683C15.3482 34.553 14.4524 35.0698 13.5805 34.8374C12.7085 34.6049 12.1905 33.7112 12.4235 32.8412L13.9084 27.3122L11.2662 22.7463" stroke="#214759" stroke-miterlimit="2.6131" stroke-linecap="round" stroke-linejoin="round"/>
<path d="M8.31828 17.6579L7.29776 19.4215V23.4682C7.29776 24.3699 6.56516 25.1009 5.66139 25.1009C4.75763 25.1009 4.02502 24.3699 4.02502 23.4682V18.9981C4.02478 18.7131 4.10684 18.4345 4.24872 18.1882L7.80119 12.0491" stroke="#214759" stroke-miterlimit="2.6131" stroke-linecap="round" stroke-linejoin="round"/>
<path d="M8.1118 12.0154C9.73642 11.7524 10.8397 10.2251 10.576 8.60409C10.3123 6.98312 8.78158 5.88231 7.15696 6.14538C5.53234 6.40845 4.42908 7.93576 4.69275 9.55674C4.95642 11.1777 6.48718 12.2785 8.1118 12.0154Z" stroke="#214759" stroke-miterlimit="2.6131" stroke-linecap="round" stroke-linejoin="round"/>
<path d="M15.7738 33.6011L19.1871 32.1504L21.0373 26.8013L23.0324 25.0458M24.9652 21.8564L26.4578 14.7621L30.2592 11.7834L32.9691 5.24099L36.5 4.58173V40.5001L10.4476 40.4273L13.4428 35.083" stroke="#214759" stroke-miterlimit="2.6131" stroke-linecap="round" stroke-linejoin="round"/>
<path d="M14.2394 19.1154L10.7804 21.1079" stroke="#214759" stroke-miterlimit="2.6131" stroke-linecap="round" stroke-linejoin="round"/>
</svg>
