<svg width="41" height="37" viewBox="0 0 41 37" fill="none" xmlns="http://www.w3.org/2000/svg">
<path d="M8.51498 16.0793C12.9403 16.0793 16.5278 19.6862 16.5278 24.1355C16.5278 28.5847 12.9403 32.1915 8.51498 32.1915C4.08967 32.1915 0.502197 28.5847 0.502197 24.1355C0.502197 19.6862 4.08967 16.0793 8.51498 16.0793Z" stroke="#214759" stroke-miterlimit="10" stroke-linecap="round" stroke-linejoin="round"/>
<path d="M24.4724 14.1529C24.4724 9.70366 28.0599 6.09681 32.4853 6.09681C36.9106 6.09681 40.498 9.70366 40.498 14.1529C40.498 18.6021 36.9106 22.209 32.4853 22.209C28.0599 22.209 24.4724 18.6021 24.4724 14.1529Z" stroke="#214759" stroke-miterlimit="10" stroke-linecap="round" stroke-linejoin="round"/>
<path d="M22.2844 4.24346L15.8145 20.4174L8.85229 23.3168L9.93254 9.37335" stroke="#214759" stroke-miterlimit="10" stroke-linecap="round" stroke-linejoin="round"/>
<path d="M32.0082 13.6735L18.4242 0.500009L14.9624 1.94178" stroke="#214759" stroke-miterlimit="10" stroke-linecap="round" stroke-linejoin="round"/>
<path d="M3.98395 10.2146L10.9157 4.8746" stroke="#214759" stroke-miterlimit="10" stroke-linecap="round" stroke-linejoin="round"/>
<path d="M7.34058 8L18.4786 13.7577" stroke="#214759" stroke-miterlimit="10" stroke-linecap="round" stroke-linejoin="round"/>
<path d="M40.5001 23.938L35.5516 21.5959L18.4785 32.1932L8.51498 32.1915L0.500122 35.6279" stroke="#214759" stroke-miterlimit="10" stroke-linecap="round" stroke-linejoin="round"/>
</svg>
