<svg width="37" height="40" viewBox="0 0 37 40" fill="none" xmlns="http://www.w3.org/2000/svg">
<path d="M32.8999 22.2303H4.09998V0.49997H32.8999V22.2303Z" stroke="#214759" stroke-miterlimit="10" stroke-linecap="round" stroke-linejoin="round"/>
<path d="M6.50007 29.4738C6.50007 30.8073 5.42551 31.8883 4.10007 31.8883C2.77463 31.8883 1.70007 30.8073 1.70007 29.4738C1.70007 28.1404 2.77463 27.0593 4.10007 27.0593C5.42551 27.0593 6.50007 28.1404 6.50007 29.4738Z" stroke="#214759" stroke-miterlimit="10" stroke-linecap="round" stroke-linejoin="round"/>
<path d="M4 31.8883V38.8883" stroke="#214759" stroke-miterlimit="10" stroke-linecap="round" stroke-linejoin="round"/>
<path d="M20.9 29.4738C20.9 30.8073 19.8254 31.8883 18.5 31.8883C17.1745 31.8883 16.1 30.8073 16.1 29.4738C16.1 28.1404 17.1745 27.0593 18.5 27.0593C19.8254 27.0593 20.9 28.1404 20.9 29.4738Z" stroke="#214759" stroke-miterlimit="10" stroke-linecap="round" stroke-linejoin="round"/>
<path d="M18.5 32.5V38.5" stroke="#214759" stroke-miterlimit="10" stroke-linecap="round" stroke-linejoin="round"/>
<path d="M35.2999 29.4738C35.2999 30.8073 34.2253 31.8883 32.8999 31.8883C31.5744 31.8883 30.4999 30.8073 30.4999 29.4738C30.4999 28.1404 31.5744 27.0593 32.8999 27.0593C34.2253 27.0593 35.2999 28.1404 35.2999 29.4738Z" stroke="#214759" stroke-miterlimit="10" stroke-linecap="round" stroke-linejoin="round"/>
<path d="M33 31.8883V38.8883" stroke="#214759" stroke-miterlimit="10" stroke-linecap="round" stroke-linejoin="round"/>
<path d="M4.09998 12.5724H11.7733C14.5945 12.5724 17.3526 13.4125 19.7 14.9869C22.0473 16.5613 24.8054 17.4014 27.6266 17.4014H32.8999" stroke="#214759" stroke-miterlimit="10" stroke-linecap="round" stroke-linejoin="round"/>
<path d="M23.3 7.74347C23.3 9.07691 22.2254 10.158 20.9 10.158C19.5746 10.158 18.5 9.07691 18.5 7.74347C18.5 6.41003 19.5746 5.32899 20.9 5.32899C22.2254 5.32899 23.3 6.41003 23.3 7.74347Z" stroke="#214759" stroke-miterlimit="10" stroke-linecap="round" stroke-linejoin="round"/>
<path d="M32.8998 12.6096C28.7874 12.8202 24.7748 13.9222 21.1349 15.8324" stroke="#214759" stroke-miterlimit="10" stroke-linecap="round" stroke-linejoin="round"/>
<path d="M0.5 39.2927H7.69999" stroke="#214759" stroke-miterlimit="10" stroke-linecap="round" stroke-linejoin="round"/>
<path d="M14.9 39.2927H22.1" stroke="#214759" stroke-miterlimit="10" stroke-linecap="round" stroke-linejoin="round"/>
<path d="M29.3 39.2927H36.5" stroke="#214759" stroke-miterlimit="10" stroke-linecap="round" stroke-linejoin="round"/>
<path d="M4.09998 31.8883C8.45997 34.8125 14.14 34.8125 18.5 31.8883" stroke="#214759" stroke-miterlimit="10" stroke-linecap="round" stroke-linejoin="round"/>
<path d="M18.5 31.8883C22.86 34.8125 28.54 34.8125 32.9 31.8883" stroke="#214759" stroke-miterlimit="10" stroke-linecap="round" stroke-linejoin="round"/>
</svg>
