<svg width="41" height="41" viewBox="0 0 41 41" fill="none" xmlns="http://www.w3.org/2000/svg">
<path d="M1.26702 24.086C0.374961 17.7588 -0.0710586 14.5953 1.82464 12.5477C3.72034 10.5 7.09516 10.5 13.8448 10.5H27.1552C33.9048 10.5 37.2796 10.5 39.1754 12.5477C41.071 14.5953 40.625 17.7588 39.733 24.086L38.887 30.086C38.1874 35.0478 37.8378 37.5286 36.0434 39.0144C34.249 40.5 31.6024 40.5 26.3092 40.5H14.6907C9.39761 40.5 6.75106 40.5 4.95668 39.0144C3.1623 37.5286 2.81252 35.0478 2.11296 30.086L1.26702 24.086Z" stroke="#214759" stroke-linecap="round"/>
<path d="M20.5 30.5C20.5 32.1568 19.1568 33.5 17.5 33.5C15.8431 33.5 14.5 32.1568 14.5 30.5C14.5 28.8432 15.8431 27.5 17.5 27.5C19.1568 27.5 20.5 28.8432 20.5 30.5ZM20.5 30.5V17.5C20.5 20.8138 24.2908 23.5 26.5 23.5" stroke="#214759" stroke-linecap="round" stroke-linejoin="round"/>
<path d="M35.6239 10.5C36.0811 7.89046 34.0731 5.5 31.4239 5.5H9.57624C6.92694 5.5 4.91892 7.89046 5.37618 10.5" stroke="#214759" stroke-linecap="round"/>
<path d="M31.5001 5.5C31.5569 4.98184 31.5853 4.7227 31.5857 4.5087C31.5901 2.46144 30.0481 0.74128 28.0125 0.52284C27.7997 0.5 27.5391 0.5 27.0177 0.5H13.9822C13.4609 0.5 13.2003 0.5 12.9875 0.52284C10.9519 0.74128 9.40986 2.46144 9.41432 4.50868C9.41478 4.7227 9.44316 4.9818 9.4999 5.5" stroke="#214759" stroke-linecap="round"/>
</svg>
