<svg width="41" height="41" viewBox="0 0 41 41" fill="none" xmlns="http://www.w3.org/2000/svg">
<path d="M0.500122 40.0111C1.52965 39.7052 2.47806 39.1739 3.2764 38.456C4.07473 37.7378 4.70302 36.8511 5.11552 35.86C5.74996 37.3391 6.83468 38.5809 8.21554 39.4089C9.59641 40.2369 11.2032 40.6089 12.8078 40.4723C14.4124 40.6089 16.0192 40.2369 17.4001 39.4089C18.781 38.5809 19.8657 37.3391 20.5001 35.86C21.1346 37.3391 22.2193 38.5809 23.6002 39.4089C24.9811 40.2369 26.5879 40.6089 28.1924 40.4723C29.797 40.6089 31.404 40.2369 32.7846 39.4089C34.1656 38.5809 35.2503 37.3391 35.8846 35.86C36.2972 36.8511 36.9256 37.7378 37.7237 38.456C38.5221 39.1739 39.4705 39.7052 40.5001 40.0111" stroke="#214759" stroke-linecap="round" stroke-linejoin="round"/>
<path d="M0.500122 27.7121C2.55916 27.1003 4.29048 25.5432 5.11552 23.5611C6.40216 26.5607 9.7309 28.1733 12.8078 28.1733C18.9617 28.1733 23.5771 23.5611 23.5771 18.9489C23.5771 12.7993 20.5001 6.64962 12.8078 9.72444C13.3206 6.64962 16.5001 0.5 25.1155 0.5C33.7308 0.5 38.9615 6.64962 40.5001 9.72444" stroke="#214759" stroke-linecap="round" stroke-linejoin="round"/>
</svg>
