<svg width="41" height="41" viewBox="0 0 41 41" fill="none" xmlns="http://www.w3.org/2000/svg">
<path d="M40.5 38.7609C40.5 39.2221 40.3168 39.6645 39.9906 39.9906C39.6645 40.3168 39.2221 40.5 38.7609 40.5H30.0652C29.604 40.5 29.1616 40.3168 28.8355 39.9906C28.5093 39.6645 28.3261 39.2221 28.3261 38.7609V24.8478H0.5V21.3696C0.5 20.9083 0.683229 20.466 1.00938 20.1398C1.33553 19.8137 1.77788 19.6304 2.23913 19.6304H38.7609C39.2221 19.6304 39.6645 19.8137 39.9906 20.1398C40.3168 20.466 40.5 20.9083 40.5 21.3696V38.7609Z" stroke="#214759" stroke-linecap="round" stroke-linejoin="round"/>
<path d="M17.8914 16.1522V19.6304" stroke="#214759" stroke-linecap="round" stroke-linejoin="round"/>
<path d="M7.45654 0.5H28.3261C28.3261 0.5 30.0652 0.5 30.0652 2.23913V14.413C30.0652 14.413 30.0652 16.1522 28.3261 16.1522H7.45654C7.45654 16.1522 5.71741 16.1522 5.71741 14.413V2.23913C5.71741 2.23913 5.71741 0.5 7.45654 0.5Z" stroke="#214759" stroke-linecap="round" stroke-linejoin="round"/>
<path d="M5.71741 11.8044H30.0652" stroke="#214759" stroke-linecap="round" stroke-linejoin="round"/>
<path d="M0.5 24.8478V40.5" stroke="#214759" stroke-linecap="round" stroke-linejoin="round"/>
<path d="M28.3262 24.8478H40.5001" stroke="#214759" stroke-linecap="round" stroke-linejoin="round"/>
</svg>
