<svg width="41" height="41" viewBox="0 0 41 41" fill="none" xmlns="http://www.w3.org/2000/svg">
<path d="M15.3355 27.4692H40.4999" stroke="#214759" stroke-miterlimit="10" stroke-linecap="round" stroke-linejoin="round"/>
<path d="M40.5 18.87V40.4992" stroke="#214759" stroke-miterlimit="10" stroke-linecap="round" stroke-linejoin="round"/>
<path d="M20.7721 31.821C19.8565 30.2918 19.7578 27.4703 23.0196 27.4703C26.2813 27.4703 26.8456 31.5684 27.9178 34.2752C29.287 37.7318 32.7833 39.515 35.755 38.8395C38.6766 38.1754 40.4989 36.2669 40.4989 33.6113C40.4989 30.9557 39.0845 27.4693 34.8394 27.4693C31.0394 27.4693 30.7905 33.225 34.6909 33.225" stroke="#214759" stroke-miterlimit="10" stroke-linecap="round" stroke-linejoin="round"/>
<path d="M12.431 32.4485H12.4134C10.8093 32.4485 9.50891 31.1481 9.50891 29.5439V27.4693H15.3356V29.5439C15.3356 31.1481 14.0351 32.4485 12.431 32.4485Z" stroke="#214759" stroke-miterlimit="10" stroke-linecap="round" stroke-linejoin="round"/>
<path d="M18.2594 27.4692H6.60607L3.27661 10.2707H21.589L18.2594 27.4692Z" stroke="#214759" stroke-miterlimit="10" stroke-linecap="round" stroke-linejoin="round"/>
<path d="M14.415 3.23846H10.3293C8.12532 3.23846 6.10556 4.47573 5.12191 6.44203C4.19361 8.29789 2.69137 10.2708 0.5 10.2708H24.3445C22.0426 10.2708 20.5602 8.36295 19.6681 6.53465C18.6877 4.52535 16.6563 3.23846 14.415 3.23846Z" stroke="#214759" stroke-miterlimit="10" stroke-linecap="round" stroke-linejoin="round"/>
<path d="M9.10321 10.2707L9.93558 27.4692" stroke="#214759" stroke-miterlimit="10" stroke-linecap="round" stroke-linejoin="round"/>
<path d="M15.7623 10.2707L14.9299 27.4692" stroke="#214759" stroke-miterlimit="10" stroke-linecap="round" stroke-linejoin="round"/>
<path d="M12.4223 3.2384V0.499977" stroke="#214759" stroke-miterlimit="10" stroke-linecap="round" stroke-linejoin="round"/>
</svg>
