<svg width="41" height="41" viewBox="0 0 41 41" fill="none" xmlns="http://www.w3.org/2000/svg">
<path d="M0.5 16.3551C0.5 22.3913 1.70724 22.3913 1.70724 28.4276V30.8421L0.5 40.5" stroke="#214759" stroke-miterlimit="10" stroke-linecap="round" stroke-linejoin="round"/>
<path d="M12.0493 30.842H1.70728" stroke="#214759" stroke-miterlimit="10" stroke-linecap="round" stroke-linejoin="round"/>
<path d="M1.70728 28.4276H9.63484C10.9683 28.4276 12.0493 29.5086 12.0493 30.8421V40.5" stroke="#214759" stroke-miterlimit="10" stroke-linecap="round" stroke-linejoin="round"/>
<path d="M28.9508 30.842H39.2929" stroke="#214759" stroke-miterlimit="10" stroke-linecap="round" stroke-linejoin="round"/>
<path d="M20.5001 38.0855V24.8058" stroke="#214759" stroke-miterlimit="10" stroke-linecap="round" stroke-linejoin="round"/>
<path d="M26.5363 40.5C26.5363 32.6529 22.9146 32.6529 22.9146 24.8058" stroke="#214759" stroke-miterlimit="10" stroke-linecap="round" stroke-linejoin="round"/>
<path d="M14.4639 40.5C14.4639 32.6529 18.0856 32.6529 18.0856 24.8058" stroke="#214759" stroke-miterlimit="10" stroke-linecap="round" stroke-linejoin="round"/>
<path d="M35.671 24.8058H5.32898V22.3914H35.671V24.8058Z" stroke="#214759" stroke-miterlimit="10" stroke-linecap="round" stroke-linejoin="round"/>
<path d="M40.5001 16.3551C40.5001 22.3913 39.2928 22.3913 39.2928 28.4276V30.8421L40.5001 40.5" stroke="#214759" stroke-miterlimit="10" stroke-linecap="round" stroke-linejoin="round"/>
<path d="M39.2929 28.4276H31.3653C30.0319 28.4276 28.9508 29.5086 28.9508 30.8421V40.5" stroke="#214759" stroke-miterlimit="10" stroke-linecap="round" stroke-linejoin="round"/>
<path d="M17.0619 30.842H23.9383" stroke="#214759" stroke-miterlimit="10" stroke-linecap="round" stroke-linejoin="round"/>
<path d="M20.5001 2.91449V0.500003" stroke="#214759" stroke-miterlimit="10" stroke-linecap="round" stroke-linejoin="round"/>
<path d="M30.5001 8.95068C30.5001 7.78247 30.0853 6.80815 29.5342 6.58457L20.5001 2.91447L11.466 6.58457C10.9149 6.80815 10.5001 7.78247 10.5001 8.95068" stroke="#214759" stroke-miterlimit="10" stroke-linecap="round" stroke-linejoin="round"/>
<path d="M0.5 8.95068H40.5" stroke="#214759" stroke-miterlimit="10" stroke-linecap="round" stroke-linejoin="round"/>
<path d="M20.5 11.3652H28.0855C29.419 11.3652 30.5 10.2842 30.5 8.95071C30.5 10.2842 31.581 11.3652 32.9145 11.3652H38.0855C39.419 11.3652 40.5 10.2842 40.5 8.95071C40.5 7.7825 39.6704 6.80818 38.5682 6.5846L20.5 2.9145L2.43175 6.5846C1.32962 6.80818 0.5 7.7825 0.5 8.95071C0.5 10.2842 1.58105 11.3652 2.91449 11.3652H8.08551C9.41895 11.3652 10.5 10.2842 10.5 8.95071C10.5 10.2842 11.581 11.3652 12.9145 11.3652H20.5ZM20.5 11.3652V22.3914" stroke="#214759" stroke-miterlimit="10" stroke-linecap="round" stroke-linejoin="round"/>
</svg>
