<svg width="28" height="41" viewBox="0 0 28 41" fill="none" xmlns="http://www.w3.org/2000/svg">
<path d="M24.1341 15.1666C24.4356 15.1668 24.7333 15.2325 25.006 15.3591C25.2789 15.4857 25.5201 15.6701 25.7125 15.8993C25.9049 16.1284 26.0439 16.3966 26.1197 16.6847C26.1953 16.9729 26.2057 17.2741 26.1501 17.5667C25.528 20.2855 23.9881 22.7144 21.7835 24.4547C19.5787 26.195 16.8403 27.1429 14.0181 27.1429C11.1959 27.1429 8.45754 26.195 6.25287 24.4547C4.04822 22.7144 2.50834 20.2855 1.88617 17.5667C1.82692 17.2721 1.83527 16.9683 1.9106 16.6774C1.98593 16.3865 2.12633 16.116 2.32145 15.8857C2.51659 15.6555 2.76149 15.4714 3.03815 15.3469C3.31481 15.2225 3.6162 15.1609 3.92017 15.1666H24.1341Z" stroke="#214759" stroke-linecap="round" stroke-linejoin="round"/>
<path d="M27.5001 40.5L21.6141 24.6423" stroke="#214759" stroke-linecap="round" stroke-linejoin="round"/>
<path d="M0.500122 40.5L6.38611 24.6423" stroke="#214759" stroke-linecap="round" stroke-linejoin="round"/>
<path d="M25.52 35.1667H2.47998" stroke="#214759" stroke-linecap="round" stroke-linejoin="round"/>
<path d="M4.85608 0.500031L3.74008 1.95781C3.2945 2.53504 3.09083 3.25943 3.17125 3.98092C3.25167 4.70241 3.61003 5.3657 4.17208 5.83336C4.48481 6.09004 4.73897 6.4092 4.91782 6.76986C5.09669 7.13052 5.19619 7.52451 5.2098 7.92588C5.22339 8.32725 5.1508 8.72693 4.99675 9.09859C4.84271 9.47027 4.61074 9.80551 4.31608 10.0823" stroke="#214759" stroke-linecap="round" stroke-linejoin="round"/>
<path d="M15.0082 0.500031L13.8922 1.95781C13.4467 2.53504 13.2429 3.25943 13.3234 3.98092C13.4038 4.70241 13.7622 5.3657 14.3242 5.83336C14.632 6.09319 14.8816 6.41349 15.0573 6.77384C15.233 7.13422 15.3305 7.52675 15.3442 7.92647C15.3577 8.32618 15.2868 8.7243 15.136 9.09546C14.9851 9.46661 14.7578 9.80268 14.4682 10.0823" stroke="#214759" stroke-linecap="round" stroke-linejoin="round"/>
<path d="M24.458 0.500031L23.342 1.95781C22.8965 2.53504 22.6927 3.25943 22.7732 3.98092C22.8536 4.70241 23.212 5.3657 23.774 5.83336C24.0818 6.09319 24.3314 6.41349 24.5071 6.77384C24.6828 7.13422 24.7804 7.52675 24.794 7.92647C24.8075 8.32618 24.7366 8.7243 24.5858 9.09546C24.4349 9.46661 24.2076 9.80268 23.918 10.0823" stroke="#214759" stroke-linecap="round" stroke-linejoin="round"/>
</svg>
