<svg width="41" height="41" viewBox="0 0 41 41" fill="none" xmlns="http://www.w3.org/2000/svg">
<path d="M10.9889 11.2556C11.6604 10.3603 12.7142 9.83334 13.8333 9.83334H27.1667C28.2858 9.83334 29.3396 10.3603 30.0111 11.2556L36.1444 19.4333C36.6186 20.0655 36.6186 20.9345 36.1444 21.5667L30.0111 29.7445C29.3396 30.6397 28.2858 31.1667 27.1667 31.1667H13.8333C12.7142 31.1667 11.6604 30.6397 10.9889 29.7445L4.85556 21.5667C4.38148 20.9345 4.38148 20.0655 4.85556 19.4333L10.9889 11.2556Z" stroke="#214759" stroke-linecap="round" stroke-linejoin="round" stroke-dasharray="5 5"/>
<path d="M35.1667 0.5H5.83333C2.88782 0.5 0.5 2.88782 0.5 5.83333V35.1667C0.5 38.1123 2.88782 40.5 5.83333 40.5H35.1667C38.1123 40.5 40.5 38.1123 40.5 35.1667V5.83333C40.5 2.88782 38.1123 0.5 35.1667 0.5Z" stroke="#214759" stroke-linecap="round" stroke-linejoin="round" stroke-dasharray="7 7"/>
<path d="M13.1663 21.388C12.6756 21.388 12.2778 20.9903 12.2778 20.4996C12.2778 20.009 12.6756 19.6111 13.1663 19.6111" stroke="#214759" stroke-linecap="round" stroke-linejoin="round"/>
<path d="M13.1671 21.388C13.6578 21.388 14.0556 20.9903 14.0556 20.4996C14.0556 20.009 13.6578 19.6111 13.1671 19.6111" stroke="#214759" stroke-linecap="round" stroke-linejoin="round"/>
<path d="M20.4996 25.2769C20.009 25.2769 19.6111 24.8792 19.6111 24.3885C19.6111 23.8979 20.009 23.5 20.4996 23.5" stroke="#214759" stroke-linecap="round" stroke-linejoin="round"/>
<path d="M20.5005 25.2769C20.9912 25.2769 21.389 24.8792 21.389 24.3885C21.389 23.8979 20.9912 23.5 20.5005 23.5" stroke="#214759" stroke-linecap="round" stroke-linejoin="round"/>
<path d="M27.833 21.388C27.3423 21.388 26.9445 20.9903 26.9445 20.4996C26.9445 20.009 27.3423 19.6111 27.833 19.6111" stroke="#214759" stroke-linecap="round" stroke-linejoin="round"/>
<path d="M27.8337 21.388C28.3244 21.388 28.7223 20.9903 28.7223 20.4996C28.7223 20.009 28.3244 19.6111 27.8337 19.6111" stroke="#214759" stroke-linecap="round" stroke-linejoin="round"/>
</svg>
