<svg width="31" height="41" viewBox="0 0 31 41" fill="none" xmlns="http://www.w3.org/2000/svg">
<path d="M12.6436 35.5208H0.5L3 10.5415H28L30.5 35.5208H18.3564" stroke="#214759" stroke-miterlimit="10" stroke-linecap="round" stroke-linejoin="round"/>
<path d="M7.99994 14.2759V7.96888C7.99994 3.8439 11.3578 0.500002 15.4999 0.500002C19.6421 0.500002 22.9999 3.8439 22.9999 7.96888V14.2759" stroke="#214759" stroke-miterlimit="10" stroke-linecap="round" stroke-linejoin="round"/>
<path d="M9.24994 40.5H21.7499" stroke="#214759" stroke-miterlimit="10" stroke-linecap="round" stroke-linejoin="round"/>
<path d="M15.5 40.5L9.4955 30.0331C8.55667 28.7858 8 27.2376 8 25.5622C8 21.4436 11.3642 18.0934 15.5 18.0934C19.6358 18.0934 23 21.4436 23 25.5622C23 27.2376 22.4433 28.7858 21.5045 30.0331L15.5 40.5Z" stroke="#214759" stroke-miterlimit="10" stroke-linecap="round" stroke-linejoin="round"/>
<path d="M17.9999 25.5623C17.9999 26.9372 16.8806 28.0519 15.4999 28.0519C14.1193 28.0519 12.9999 26.9372 12.9999 25.5623C12.9999 24.1872 14.1193 23.0726 15.4999 23.0726C16.8806 23.0726 17.9999 24.1872 17.9999 25.5623Z" stroke="#214759" stroke-miterlimit="10" stroke-linecap="round" stroke-linejoin="round"/>
<path d="M15.5 40.5L9.00058 29.2919C8.36417 28.1944 8 26.9207 8 25.5622C8 21.4373 11.3578 18.0934 15.5 18.0934C19.6422 18.0934 23 21.4373 23 25.5622C23 26.9207 22.6358 28.1944 21.9994 29.2919L15.5 40.5Z" stroke="#214759" stroke-miterlimit="10" stroke-linecap="round" stroke-linejoin="round"/>
</svg>
