<svg width="41" height="41" viewBox="0 0 41 41" fill="none" xmlns="http://www.w3.org/2000/svg">
<path d="M9.5 27.5V7.5H17.5C19.0913 7.5 20.6174 8.13214 21.7426 9.25736C22.8679 10.3826 23.5 11.9087 23.5 13.5C23.5 15.0913 22.8679 16.6174 21.7426 17.7426C20.6174 18.8679 19.0913 19.5 17.5 19.5H9.5" stroke="#214759" stroke-linecap="round" stroke-linejoin="round"/>
<path d="M30.5 40.5C36.0229 40.5 40.5 36.0229 40.5 30.5C40.5 24.9772 36.0229 20.5 30.5 20.5C24.9772 20.5 20.5 24.9772 20.5 30.5C20.5 36.0229 24.9772 40.5 30.5 40.5Z" stroke="#214759" stroke-linecap="round" stroke-linejoin="round"/>
<path d="M33.1182 27.7652C33.0282 27.5104 32.8892 27.2788 32.7126 27.0815C32.337 26.6618 31.7912 26.3977 31.1837 26.3977H29.5959C28.5847 26.3977 27.7649 27.2175 27.7649 28.2287C27.7649 29.0892 28.364 29.8336 29.2046 30.0175L31.622 30.5463C32.5637 30.7523 33.235 31.5868 33.235 32.5508C33.235 33.6837 32.3166 34.6028 31.1837 34.6028H29.8162C28.923 34.6028 28.1632 34.032 27.8816 33.2353" stroke="#214759" stroke-linecap="round" stroke-linejoin="round"/>
<path d="M30.5 26.3975V24.3462" stroke="#214759" stroke-linecap="round" stroke-linejoin="round"/>
<path d="M30.5 36.6536V34.6024" stroke="#214759" stroke-linecap="round" stroke-linejoin="round"/>
<path d="M20.5 40.5H0.5V0.5H32.5V16.5" stroke="#214759" stroke-linecap="round" stroke-linejoin="round"/>
</svg>
