<svg width="34" height="25" viewBox="0 0 34 25" fill="none" xmlns="http://www.w3.org/2000/svg">
<path d="M16.9709 23.7946H16.9901" stroke="#214759" stroke-linecap="round" stroke-linejoin="round"/>
<path d="M11.4812 18.3049C12.9373 16.8493 14.9119 16.0315 16.9708 16.0315C19.0298 16.0315 21.0044 16.8493 22.4605 18.3049" stroke="#214759" stroke-linecap="round" stroke-linejoin="round"/>
<path d="M5.98975 12.8134C7.4318 11.3712 9.14378 10.2273 11.0279 9.44681M22.914 9.44681C24.7982 10.2273 26.5102 11.3712 27.9522 12.8134" stroke="#214759" stroke-linecap="round" stroke-linejoin="round"/>
<path d="M0.5 7.32372C9.59635 -1.77457 24.3454 -1.77457 33.5 7.32372" stroke="#214759" stroke-linecap="round" stroke-linejoin="round"/>
<path d="M19.5687 5.35128C19.401 5.06041 19.1574 4.82061 18.8639 4.65756C18.5704 4.49451 18.2381 4.41434 17.9025 4.42564H16.0512C15.5602 4.42564 15.0894 4.62069 14.7422 4.96787C14.395 5.31505 14.2 5.78593 14.2 6.27692C14.2 6.76791 14.395 7.23879 14.7422 7.58598C15.0894 7.93316 15.5602 8.1282 16.0512 8.1282H17.9025C18.3935 8.1282 18.8644 8.32325 19.2116 8.67043C19.5588 9.01761 19.7538 9.48849 19.7538 9.97949C19.7538 10.4705 19.5588 10.9414 19.2116 11.2885C18.8644 11.6357 18.3935 11.8308 17.9025 11.8308H16.0512C15.7157 11.8421 15.3834 11.7619 15.0899 11.5988C14.7964 11.4358 14.5528 11.196 14.3851 10.9051" stroke="#214759" stroke-linecap="round" stroke-linejoin="round"/>
<path d="M16.9769 3.5V12.7564" stroke="#214759" stroke-linecap="round" stroke-linejoin="round"/>
</svg>
