<svg width="41" height="41" viewBox="0 0 41 41" fill="none" xmlns="http://www.w3.org/2000/svg">
<path d="M25.899 9.57959C27.0429 9.57702 27.9684 8.5315 27.9662 7.24456C27.9639 5.95751 27.0346 4.91621 25.8906 4.91878C21.2386 4.91878 16.6804 6.28366 12.6507 8.90131C8.621 11.5188 5.29133 15.2777 2.96532 19.8104C2.39126 20.9237 2.72806 22.3497 3.71767 22.9955C4.70728 23.6412 5.97462 23.2622 6.54868 22.1489C8.50544 18.3357 11.3427 15.1562 14.731 12.9552C18.1194 10.7543 21.9854 9.57959 25.899 9.57959Z" stroke="#214759" stroke-miterlimit="2.613" stroke-linecap="round" stroke-linejoin="round"/>
<path d="M27.9662 7.24456C28.0098 -11.4573 -10.6997 13.687 3.71774 22.9955" stroke="#214759" stroke-miterlimit="2.613" stroke-linecap="round" stroke-linejoin="round"/>
<path d="M28.0153 24.9888C29.1193 25.3321 29.767 26.6174 29.4618 27.8596C29.1567 29.1017 28.0142 29.8303 26.9102 29.487L26.2133 29.269L27.4007 31.4179L29.7416 31.0332C30.5552 30.9029 31.3255 31.3221 31.7565 32.0401L34.8374 36.7841C35.5152 37.8242 35.3151 39.2855 34.3905 40.0481C33.466 40.8105 32.1671 40.5853 31.4893 39.5452L29.097 35.8615L26.3662 36.9277C25.4655 37.2794 24.2581 36.5768 23.776 35.6005L19.8076 27.5645C18.5169 25.0492 20.8771 23.0349 23.1056 23.7279L28.0153 24.9888Z" stroke="#214759" stroke-miterlimit="2.613" stroke-linecap="round" stroke-linejoin="round"/>
<path d="M24.6167 24.0625C25.6132 23.2998 26.2096 22.0317 26.2096 20.6759C26.2096 18.4138 24.5798 16.58 22.569 16.58C20.5584 16.58 18.9285 18.4138 18.9285 20.6759C18.9285 22.0238 19.5179 23.2853 20.5048 24.0496" stroke="#214759" stroke-miterlimit="22.926" stroke-linecap="round" stroke-linejoin="round"/>
<path d="M6.54871 22.1489L19.7053 27.5228" stroke="#214759" stroke-miterlimit="2.613" stroke-linecap="round" stroke-linejoin="round"/>
<path d="M25.8991 9.57962L24.8219 17.2611" stroke="#214759" stroke-miterlimit="2.613" stroke-linecap="round" stroke-linejoin="round"/>
<path d="M29.4615 27.8597L40.5001 31.5001" stroke="#214759" stroke-miterlimit="2.613" stroke-linecap="round" stroke-linejoin="round"/>
<path d="M27.4004 31.4179L23.2604 34.0058" stroke="#214759" stroke-miterlimit="2.613" stroke-linecap="round" stroke-linejoin="round"/>
<path d="M29.097 35.8615L32.2524 33.2676" stroke="#214759" stroke-miterlimit="2.613" stroke-linecap="round" stroke-linejoin="round"/>
</svg>
