<svg width="41" height="37" viewBox="0 0 41 37" fill="none" xmlns="http://www.w3.org/2000/svg">
<path d="M20.5 14.7105C14.4676 14.7105 9.37048 19.9504 7.72477 26.6805C7.00096 29.6401 8.09239 32.7816 10.7714 34.2576C12.8952 35.4276 16.0543 36.5 20.5 36.5C24.9457 36.5 28.1057 35.4276 30.2295 34.2576C32.9086 32.7816 33.9991 29.6401 33.2753 26.6805C31.6295 19.9495 26.5324 14.7105 20.5 14.7105Z" stroke="#214759" stroke-linecap="round" stroke-linejoin="round"/>
<path d="M0.5 13.2364C0.5 15.853 2.20476 18.5 4.30952 18.5C6.41429 18.5 8.11905 15.853 8.11905 13.2364C8.11905 10.6207 6.41429 9.02631 4.30952 9.02631C2.20476 9.02631 0.5 10.6207 0.5 13.2364Z" stroke="#214759" stroke-linecap="round" stroke-linejoin="round"/>
<path d="M40.5 13.2364C40.5 15.853 38.7952 18.5 36.6905 18.5C34.5857 18.5 32.881 15.853 32.881 13.2364C32.881 10.6207 34.5857 9.02631 36.6905 9.02631C38.7952 9.02631 40.5 10.6207 40.5 13.2364Z" stroke="#214759" stroke-linecap="round" stroke-linejoin="round"/>
<path d="M10.5 4.71011C10.5 7.32674 12.2048 9.97369 14.3095 9.97369C16.4143 9.97369 18.1191 7.32674 18.1191 4.71011C18.1191 2.09442 16.4143 0.5 14.3095 0.5C12.2048 0.5 10.5 2.09442 10.5 4.71011Z" stroke="#214759" stroke-linecap="round" stroke-linejoin="round"/>
<path d="M30.5 4.71011C30.5 7.32674 28.7952 9.97369 26.6905 9.97369C24.5857 9.97369 22.881 7.32674 22.881 4.71011C22.881 2.09442 24.5857 0.5 26.6905 0.5C28.7952 0.5 30.5 2.09442 30.5 4.71011Z" stroke="#214759" stroke-linecap="round" stroke-linejoin="round"/>
</svg>
