<svg width="41" height="41" viewBox="0 0 41 41" fill="none" xmlns="http://www.w3.org/2000/svg">
<path d="M3.16667 35.1344H37.8333C38.5405 35.1344 39.2189 34.8516 39.719 34.3485C40.2191 33.8453 40.5 33.163 40.5 32.4515V24.4029C40.5 23.6915 40.2191 23.0089 39.719 22.5058C39.2189 22.0027 38.5405 21.7201 37.8333 21.7201H11.1667C10.4594 21.7201 9.78114 22.0027 9.28105 22.5058C8.78096 23.0089 8.5 23.6915 8.5 24.4029C8.5 25.1144 8.21904 25.7968 7.71895 26.2999C7.21886 26.803 6.54057 27.0858 5.83333 27.0858H3.16667C2.45943 27.0858 1.78114 27.3684 1.28105 27.8715C0.780951 28.3746 0.5 29.0572 0.5 29.7686V32.4515C0.5 33.163 0.780951 33.8453 1.28105 34.3485C1.78114 34.8516 2.45943 35.1344 3.16667 35.1344Z" stroke="#214759" stroke-linecap="round" stroke-linejoin="round"/>
<path d="M11.1666 21.7199L17.9222 2.24234C18.0656 1.85145 18.298 1.49983 18.6009 1.2157C18.9039 0.931585 19.2688 0.722881 19.6664 0.60635C20.064 0.48982 20.4832 0.468709 20.8905 0.544716C21.2976 0.620721 21.6815 0.791725 22.0111 1.044L22.9888 1.77731C23.9677 2.51576 24.6644 3.57033 24.9622 4.76422C25.4777 6.87473 25.5666 8.19827 27.22 8.75272L29.9044 9.64701C33.9933 11.2925 37.0155 16.3541 37.6733 20.7183L37.8333 21.7199" stroke="#214759" stroke-linecap="round" stroke-linejoin="round"/>
<path d="M24.5 21.7201L20.5 15.0129" stroke="#214759" stroke-linecap="round" stroke-linejoin="round"/>
<path d="M8.5 35.1343V40.5" stroke="#214759" stroke-linecap="round" stroke-linejoin="round"/>
<path d="M35.1666 35.1343V40.5" stroke="#214759" stroke-linecap="round" stroke-linejoin="round"/>
</svg>
