<svg width="41" height="41" viewBox="0 0 41 41" fill="none" xmlns="http://www.w3.org/2000/svg">
<path d="M22.1044 39.8593C18.4873 40.882 14.6331 40.6758 11.1457 39.2731C7.65836 37.8703 4.73489 35.3503 2.83338 32.1078C0.931875 28.8653 0.15978 25.0837 0.638075 21.3553C1.11637 17.627 2.81803 14.1626 5.47642 11.5051L7.07697 9.90456C9.68428 7.29723 13.069 5.60888 16.7203 5.09438C20.3715 4.57988 24.091 5.26716 27.3173 7.05246L32.6236 1.83955C33.4686 1.00209 34.604 0.522593 35.7935 0.500778C36.9831 0.478964 38.1352 0.916511 39.0104 1.72243C39.8856 2.52834 40.4165 3.6406 40.4926 4.8279C40.5688 6.0152 40.1843 7.18616 39.4192 8.09727L39.1614 8.37736L33.9462 13.6836C35.6699 16.799 36.3715 20.3771 35.9519 23.9127C35.5322 27.4483 34.0127 30.7628 31.6077 33.3882" stroke="#214759" stroke-linecap="round" stroke-linejoin="round"/>
<path d="M18.2853 33.8284C18.2853 35.5971 18.9879 37.2934 20.2386 38.544C21.4892 39.7947 23.1855 40.4973 24.9542 40.4973C26.723 40.4973 28.4192 39.7947 29.6699 38.544C30.9206 37.2934 31.6232 35.5971 31.6232 33.8284C31.6232 32.0596 30.9206 30.3634 29.6699 29.1127C28.4192 27.862 26.723 27.1594 24.9542 27.1594C23.1855 27.1594 21.4892 27.862 20.2386 29.1127C18.9879 30.3634 18.2853 32.0596 18.2853 33.8284Z" stroke="#214759" stroke-linecap="round" stroke-linejoin="round"/>
<path d="M14.5061 5.59641L35.4022 26.4925" stroke="#214759" stroke-linecap="round" stroke-linejoin="round"/>
</svg>
