<svg width="42" height="41" viewBox="0 0 42 41" fill="none" xmlns="http://www.w3.org/2000/svg">
<path d="M4.19393 4.65394L2.97052 5.96442C2.1891 6.7403 1.25213 7.44337 0.767893 8.46015C-0.0360375 10.1493 1.03601 12.1829 2.97666 12.2859C4.26033 12.3543 5.41342 11.4414 6.61686 11.1207C6.61686 11.1207 9.62218 10.3076 9.10683 13.1804C9.10683 13.1804 7.73393 18.0856 9.16619 20.985C9.81498 22.2987 10.9275 23.0787 11.9497 23.5384C12.9108 23.9707 13.9562 24.1826 15.0102 24.1826H25.9603C27.1785 24.1826 28.3828 23.8889 29.4503 23.3024C30.6406 22.648 31.8674 21.5273 32.2411 19.63C33.0328 15.6119 30.831 13.3698 28.3627 13.126C25.8944 12.8823 20.9181 12.9367 20.9181 12.9367C20.9181 12.9367 17.2427 13.2614 16.6463 8.79021C16.0696 4.46788 13.1359 1.58933 9.70733 2.038C9.43021 2.0744 9.14818 2.05273 8.87965 1.97461C7.39828 1.54352 5.82193 0.673984 5.1539 0.514882C4.76381 0.422039 4.41178 0.781551 4.5223 1.16642C4.61399 1.48544 5.07776 2.33494 5.23004 3.05355C5.30331 3.39957 5.19074 3.75908 4.93941 4.00857L4.19393 4.65394Z" stroke="#214759" stroke-miterlimit="10" stroke-linecap="round"/>
<path d="M18.6078 12.3416V14.9211C18.6078 17.4455 20.6557 19.4917 23.1821 19.4917C25.7086 19.4917 27.7564 17.4455 27.7564 14.9211V13.063" stroke="#214759" stroke-miterlimit="10" stroke-linecap="round"/>
<path d="M30.0688 13.6512C30.0688 13.6512 31.7475 7.4307 37.4249 10.4884C38.8535 11.3375 39.3595 12.4831 39.052 14.0549C38.7446 15.6267 38.4917 17.4042 40.4986 18.7793C39.8748 19.1924 36.8826 20.041 35.7974 17.5858C35.7974 17.5858 35.1102 16.5363 35.4323 14.6594C35.5166 14.1682 35.2506 13.6741 34.8204 13.4218C34.2281 13.0745 33.5203 13.2982 33.0668 13.7764C32.4159 14.4631 31.9505 15.7232 31.9505 15.7232" stroke="#214759" stroke-miterlimit="10" stroke-linecap="round"/>
<path d="M23.4569 24.5001C23.4569 24.5001 24.1984 27.4486 18.0265 27.8929C17.8394 27.9063 17.8149 28.1891 17.9968 28.2384C21.286 29.1318 22.6398 29.6099 23.1692 29.8245C23.3016 29.8782 23.3141 30.0719 23.1896 30.1433C22.4272 30.5822 20.3032 31.7111 18.1974 31.9837C18.0124 32.0079 18.0041 32.2912 18.187 32.3304C20.9191 32.9131 23.1797 33.0961 23.4845 34.0528C23.8363 35.157 17.4986 36.5001 17.4986 36.5001" stroke="#214759" stroke-miterlimit="10" stroke-linecap="round"/>
<path d="M28.4986 36.5001H12.4986V40.5001H28.4986V36.5001Z" stroke="#214759" stroke-linecap="round" stroke-linejoin="round"/>
<path d="M6.90991 7.30716C7.43914 7.30716 7.86816 6.87848 7.86816 6.34968C7.86816 5.82089 7.43914 5.39221 6.90991 5.39221C6.38068 5.39221 5.95166 5.82089 5.95166 6.34968C5.95166 6.87848 6.38068 7.30716 6.90991 7.30716Z" fill="#214759"/>
</svg>
