<svg width="41" height="41" viewBox="0 0 41 41" fill="none" xmlns="http://www.w3.org/2000/svg">
<path d="M15.5 15.5C15.5 16.8261 16.0268 18.0979 16.9645 19.0356C17.9021 19.9732 19.1739 20.5 20.5 20.5C21.8261 20.5 23.0979 19.9732 24.0355 19.0356C24.9732 18.0979 25.5 16.8261 25.5 15.5C25.5 14.1739 24.9732 12.9022 24.0355 11.9645C23.0979 11.0268 21.8261 10.5 20.5 10.5C19.1739 10.5 17.9021 11.0268 16.9645 11.9645C16.0268 12.9022 15.5 14.1739 15.5 15.5Z" stroke="#214759" stroke-linecap="round" stroke-linejoin="round"/>
<path d="M15.5 25.5C15.5 26.8261 16.0268 28.0979 16.9645 29.0355C17.9021 29.9732 19.1739 30.5 20.5 30.5C21.8261 30.5 23.0979 29.9732 24.0355 29.0355C24.9732 28.0979 25.5 26.8261 25.5 25.5C25.5 24.1739 24.9732 22.9021 24.0355 21.9645C23.0979 21.0268 21.8261 20.5 20.5 20.5C19.1739 20.5 17.9021 21.0268 16.9645 21.9645C16.0268 22.9021 15.5 24.1739 15.5 25.5Z" stroke="#214759" stroke-linecap="round" stroke-linejoin="round"/>
<path d="M0.5 20.5C0.5 25.8043 2.60714 30.8914 6.35787 34.6421C10.1086 38.3929 15.1957 40.5 20.5 40.5C25.8043 40.5 30.8914 38.3929 34.6421 34.6421C38.3929 30.8914 40.5 25.8043 40.5 20.5C40.5 15.1957 38.3929 10.1086 34.6421 6.35787C30.8914 2.60714 25.8043 0.5 20.5 0.5C15.1957 0.5 10.1086 2.60714 6.35787 6.35787C2.60714 10.1086 0.5 15.1957 0.5 20.5Z" stroke="#214759" stroke-linecap="round" stroke-linejoin="round"/>
</svg>
