<svg width="41" height="41" viewBox="0 0 41 41" fill="none" xmlns="http://www.w3.org/2000/svg">
<path d="M31.2692 32.8077H37.4231C38.2391 32.8077 39.0219 32.4834 39.5988 31.9065C40.1757 31.3296 40.5 30.5468 40.5 29.7308V15.8846C40.5 15.0686 40.1757 14.286 39.5988 13.7089C39.0219 13.1319 38.2391 12.8077 37.4231 12.8077H3.57692C2.76086 12.8077 1.97825 13.1319 1.40121 13.7089C0.824176 14.286 0.5 15.0686 0.5 15.8846V29.7308C0.5 30.5468 0.824176 31.3296 1.40121 31.9065C1.97825 32.4834 2.76086 32.8077 3.57692 32.8077H9.73077" stroke="#214759" stroke-linecap="round" stroke-linejoin="round"/>
<path d="M9.73071 28.1923V38.9615C9.73071 39.3695 9.8928 39.7609 10.1813 40.0495C10.4698 40.3379 10.8611 40.5 11.2692 40.5H29.7307C30.1387 40.5 30.5301 40.3379 30.8187 40.0495C31.107 39.7609 31.2692 39.3695 31.2692 38.9615V28.1923H9.73071Z" stroke="#214759" stroke-linecap="round" stroke-linejoin="round"/>
<path d="M31.2692 12.8077V2.03846C31.2692 1.63044 31.107 1.23912 30.8187 0.950606C30.5301 0.662086 30.1387 0.5 29.7307 0.5H11.2692C10.8611 0.5 10.4698 0.662086 10.1813 0.950606C9.8928 1.23912 9.73071 1.63044 9.73071 2.03846V12.8077" stroke="#214759" stroke-linecap="round" stroke-linejoin="round"/>
<path d="M32.8078 20.5H29.7308" stroke="#214759" stroke-linecap="round" stroke-linejoin="round"/>
</svg>
