<svg width="41" height="41" viewBox="0 0 41 41" fill="none" xmlns="http://www.w3.org/2000/svg">
<path d="M22.5 3.50203H28.5C29.5609 3.50203 30.5783 3.94201 31.3284 4.72519C32.0786 5.50837 32.5 6.57059 32.5 7.67818V36.9112" stroke="#214759" stroke-linecap="round" stroke-linejoin="round"/>
<path d="M0.5 36.9112H6.50001" stroke="#214759" stroke-linecap="round" stroke-linejoin="round"/>
<path d="M22.5 36.9112H40.5" stroke="#214759" stroke-linecap="round" stroke-linejoin="round"/>
<path d="M16.5 20.2066V20.2276" stroke="#214759" stroke-linecap="round" stroke-linejoin="round"/>
<path d="M22.5 4.67551V38.4125C22.5 38.7297 22.4307 39.0427 22.2974 39.3277C22.1642 39.6127 21.9705 39.8624 21.7311 40.0576C21.4917 40.2528 21.2128 40.3885 20.9156 40.4544C20.6184 40.5203 20.3108 40.5147 20.016 40.4379L6.5 36.9112V6.76359C6.50014 5.83233 6.79841 4.92783 7.34741 4.19386C7.89642 3.45989 8.66465 2.93856 9.53001 2.71273L17.53 0.624652C18.1195 0.470811 18.7349 0.45921 19.3293 0.59073C19.9237 0.72225 20.4817 0.993434 20.9607 1.3837C21.4398 1.77396 21.8274 2.27304 22.0941 2.84305C22.3608 3.41307 22.4996 4.03903 22.5 4.67343V4.67551Z" stroke="#214759" stroke-linecap="round" stroke-linejoin="round"/>
</svg>
