<svg width="41" height="41" viewBox="0 0 41 41" fill="none" xmlns="http://www.w3.org/2000/svg">
<path d="M6.5 18.5V8.21429C6.5 6.16833 7.13214 4.20617 8.25736 2.75946C9.38258 1.31275 10.9087 0.5 12.5 0.5H28.5C30.0913 0.5 31.6174 1.31275 32.7426 2.75946C33.8679 4.20617 34.5 6.16833 34.5 8.21429V18.5" stroke="#214759" stroke-linecap="round" stroke-linejoin="round"/>
<path d="M28.5 28.5V24.5C28.5 23.3133 28.8519 22.1533 29.5112 21.1666C30.1705 20.1799 31.1075 19.4108 32.2039 18.9567C33.3003 18.5026 34.5067 18.3838 35.6705 18.6153C36.8344 18.8468 37.9035 19.4182 38.7426 20.2573C39.5818 21.0965 40.1532 22.1656 40.3847 23.3294C40.6162 24.4933 40.4974 25.6997 40.0433 26.7961C39.5891 27.8924 38.8201 28.8295 37.8334 29.4888C36.8467 30.1481 35.6867 30.5 34.5 30.5V36.5H6.5V30.5C5.31331 30.5 4.15328 30.1481 3.16658 29.4888C2.17989 28.8295 1.41085 27.8924 0.956725 26.7961C0.5026 25.6997 0.38378 24.4933 0.615291 23.3294C0.846802 22.1656 1.41825 21.0965 2.25736 20.2573C3.09648 19.4182 4.16557 18.8468 5.32946 18.6153C6.49335 18.3838 7.69975 18.5026 8.7961 18.9567C9.89246 19.4108 10.8295 20.1799 11.4888 21.1666C12.1481 22.1533 12.5 23.3133 12.5 24.5V28.5" stroke="#214759" stroke-linecap="round" stroke-linejoin="round"/>
<path d="M12.5 25.5H28.5" stroke="#214759" stroke-linecap="round" stroke-linejoin="round"/>
<path d="M10.5 36.5V40.5" stroke="#214759" stroke-linecap="round" stroke-linejoin="round"/>
<path d="M30.5 36.5V40.5" stroke="#214759" stroke-linecap="round" stroke-linejoin="round"/>
</svg>
