<svg width="41" height="41" viewBox="0 0 41 41" fill="none" xmlns="http://www.w3.org/2000/svg">
<path d="M0.5 20.5C0.5 25.8043 2.60714 30.8914 6.35786 34.6421C10.1086 38.3929 15.1957 40.5 20.5 40.5C25.8043 40.5 30.8914 38.3929 34.6421 34.6421C38.3929 30.8914 40.5 25.8043 40.5 20.5C40.5 15.1957 38.3929 10.1086 34.6421 6.35786C30.8914 2.60714 25.8043 0.5 20.5 0.5C15.1957 0.5 10.1086 2.60714 6.35786 6.35786C2.60714 10.1086 0.5 15.1957 0.5 20.5Z" stroke="#214759" stroke-linecap="round" stroke-linejoin="round"/>
<path d="M14.5 30.5001V10.5001H22.5C24.0913 10.5001 25.6174 11.1322 26.7426 12.2574C27.8679 13.3826 28.5 14.9088 28.5 16.5001C28.5 18.0914 27.8679 19.6175 26.7426 20.7427C25.6174 21.8679 24.0913 22.5001 22.5 22.5001H14.5" stroke="#214759" stroke-linecap="round" stroke-linejoin="round"/>
</svg>
