<svg width="43" height="41" viewBox="0 0 43 41" fill="none" xmlns="http://www.w3.org/2000/svg">
<path d="M38.8478 5.95453H40.6739C41.1582 5.95453 41.6228 6.14609 41.9651 6.48706C42.3075 6.82804 42.5 7.29049 42.5 7.77271V38.6818C42.5 39.164 42.3075 39.6265 41.9651 39.9674C41.6228 40.3084 41.1582 40.5 40.6739 40.5H2.32609C1.84177 40.5 1.37731 40.3084 1.03485 39.9674C0.692391 39.6265 0.5 39.164 0.5 38.6818V7.77271C0.5 7.29049 0.692391 6.82804 1.03485 6.48706C1.37731 6.14609 1.84177 5.95453 2.32609 5.95453H31.5435" stroke="#214759" stroke-linecap="round" stroke-linejoin="round"/>
<path d="M22.4131 36.0891C19.8542 36.9866 17.0854 37.1071 14.4577 36.4355C11.83 35.7637 9.46184 34.3302 7.65356 32.3166C5.84526 30.3029 4.67833 27.8 4.30077 25.1251C3.92321 22.4502 4.35203 19.724 5.53283 17.292C6.71364 14.8602 8.59323 12.8322 10.9332 11.4654C13.2732 10.0986 15.9682 9.45461 18.6762 9.61497C21.3845 9.77535 23.9837 10.7329 26.1446 12.3662C28.3052 13.9996 29.9302 16.235 30.8131 18.7891" stroke="#214759" stroke-linecap="round" stroke-linejoin="round"/>
<path d="M17.8478 27.7727C20.3691 27.7727 22.413 25.7376 22.413 23.2273C22.413 20.7169 20.3691 18.6818 17.8478 18.6818C15.3265 18.6818 13.2826 20.7169 13.2826 23.2273C13.2826 25.7376 15.3265 27.7727 17.8478 27.7727Z" stroke="#214759" stroke-linecap="round" stroke-linejoin="round"/>
<path d="M35.1956 9.59091V21.4091L30.1447 27.4327" stroke="#214759" stroke-linecap="round" stroke-linejoin="round"/>
<path d="M35.1958 0.5C34.2272 0.5 33.2983 0.883109 32.6133 1.56507C31.9283 2.24702 31.5436 3.17195 31.5436 4.13637V7.77273C31.5436 8.25495 31.736 8.7174 32.0784 9.05839C32.4208 9.39935 32.8854 9.59091 33.3697 9.59091H37.0218C37.5061 9.59091 37.9707 9.39935 38.3131 9.05839C38.6555 8.7174 38.8479 8.25495 38.8479 7.77273V4.13637C38.8479 3.17195 38.4632 2.24702 37.7782 1.56507C37.0932 0.883109 36.1643 0.5 35.1958 0.5Z" stroke="#214759" stroke-linecap="round" stroke-linejoin="round"/>
<path d="M26.9783 26.8818C27.3207 26.5409 27.7851 26.3495 28.2694 26.3495C28.7537 26.3495 29.218 26.5409 29.5604 26.8818L30.6415 27.9582C30.9839 28.2991 31.1761 28.7615 31.1761 29.2436C31.1761 29.7258 30.9839 30.1882 30.6415 30.5291L29.4363 31.7291C29.2325 32.0687 28.9542 32.3582 28.6222 32.5758C28.2904 32.7936 27.9135 32.9338 27.5196 32.9864C27.1257 33.0387 26.7249 33.002 26.3472 32.8787C25.9696 32.7555 25.6248 32.5489 25.3385 32.2745C25.0683 31.9942 24.861 31.6598 24.7306 31.2936C24.6 30.9275 24.5493 30.5378 24.5816 30.1505C24.6137 29.7633 24.7284 29.3875 24.9178 29.0476C25.1071 28.7078 25.367 28.4122 25.68 28.18L26.9783 26.8818Z" stroke="#214759" stroke-linecap="round" stroke-linejoin="round"/>
<path d="M17.8479 23.6818C17.5958 23.6818 17.3914 23.4783 17.3914 23.2273C17.3914 22.9762 17.5958 22.7727 17.8479 22.7727" stroke="#214759" stroke-linecap="round"/>
<path d="M17.8479 23.6818C18.1001 23.6818 18.3044 23.4783 18.3044 23.2273C18.3044 22.9762 18.1001 22.7727 17.8479 22.7727" stroke="#214759" stroke-linecap="round"/>
</svg>
