<svg width="41" height="41" viewBox="0 0 41 41" fill="none" xmlns="http://www.w3.org/2000/svg">
<path d="M40.5 9.5H0.5L4.42 0.5H36.58L40.5 9.5Z" stroke="#214759" stroke-linecap="round" stroke-linejoin="round"/>
<path d="M39.8403 30.217H1.17969C0.815364 30.217 0.52002 30.5053 0.52002 30.8609V33.2805C0.52002 33.6361 0.815364 33.9244 1.17969 33.9244H39.8403C40.2047 33.9244 40.5 33.6361 40.5 33.2805V30.8609C40.5 30.5053 40.2047 30.217 39.8403 30.217Z" stroke="#214759" stroke-linecap="round" stroke-linejoin="round"/>
<path d="M15.6024 14.6951H8.90576C8.54144 14.6951 8.24609 14.9834 8.24609 15.339V29.5634C8.24609 29.919 8.54144 30.2073 8.90576 30.2073H15.6024C15.9667 30.2073 16.2621 29.919 16.2621 29.5634V15.339C16.2621 14.9834 15.9667 14.6951 15.6024 14.6951Z" stroke="#214759" stroke-linecap="round" stroke-linejoin="round"/>
<path d="M31.5845 14.6854H22.1492C21.7848 14.6854 21.4895 14.9736 21.4895 15.3293V22.4805C21.4895 22.8361 21.7848 23.1244 22.1492 23.1244H31.5845C31.9488 23.1244 32.2441 22.8361 32.2441 22.4805V15.3293C32.2441 14.9736 31.9488 14.6854 31.5845 14.6854Z" stroke="#214759" stroke-linecap="round" stroke-linejoin="round"/>
<path d="M4.51807 9.52441V30.2171" stroke="#214759" stroke-linecap="round" stroke-linejoin="round"/>
<path d="M40.5 40.5C38.501 40.5 38.501 38.5488 36.502 38.5488C34.503 38.5488 34.503 40.5 32.504 40.5C30.505 40.5 30.505 38.5488 28.506 38.5488C26.507 38.5488 26.507 40.5 24.508 40.5C22.509 40.5 22.509 38.5488 20.51 38.5488C18.511 38.5488 18.511 40.5 16.512 40.5C14.513 40.5 14.513 38.5488 12.514 38.5488C10.515 38.5488 10.515 40.5 8.51599 40.5C6.51699 40.5 6.51699 38.5488 4.50799 38.5488C2.499 38.5488 2.50899 40.5 0.5 40.5" stroke="#214759" stroke-linecap="round" stroke-linejoin="round"/>
<path d="M4.51001 34.1879V38.1879" stroke="#214759" stroke-linecap="round" stroke-linejoin="round"/>
<path d="M12.51 34.1879V38.1879" stroke="#214759" stroke-linecap="round" stroke-linejoin="round"/>
<path d="M20.51 34.1879V38.1879" stroke="#214759" stroke-linecap="round" stroke-linejoin="round"/>
<path d="M36.51 34.1879V38.1879" stroke="#214759" stroke-linecap="round" stroke-linejoin="round"/>
<path d="M28.51 34.1879V38.1879" stroke="#214759" stroke-linecap="round" stroke-linejoin="round"/>
<path d="M36.502 9.52441V30.2171" stroke="#214759" stroke-linecap="round" stroke-linejoin="round"/>
</svg>
