<svg width="41" height="39" viewBox="0 0 41 39" fill="none" xmlns="http://www.w3.org/2000/svg">
<path d="M40.5001 32.9325C39.647 33.0904 38.7688 32.9788 37.9511 32.5977L36.7367 32.0315C35.5804 31.4926 34.3026 31.4926 33.1464 32.0316L31.9327 32.5974C30.7764 33.1365 29.4986 33.1365 28.3423 32.5974L27.1286 32.0316C25.9722 31.4926 24.6944 31.4926 23.538 32.0316L22.3246 32.5973C21.1682 33.1364 19.8904 33.1364 18.734 32.5973L17.5206 32.0316C16.3643 31.4926 15.0864 31.4926 13.9301 32.0316L12.7165 32.5974C11.5601 33.1365 10.2823 33.1365 9.12594 32.5974L7.91248 32.0318C6.75616 31.4927 5.47828 31.4927 4.32196 32.0318L3.10833 32.5976C2.27188 32.9875 1.37184 33.0953 0.500122 32.921" stroke="#214759" stroke-miterlimit="10" stroke-linecap="round" stroke-linejoin="round"/>
<path d="M40.5001 26.8052C39.647 26.963 38.7688 26.8514 37.9511 26.4703L36.7367 25.9042C35.5804 25.3652 34.3026 25.3652 33.1464 25.9043L31.9327 26.4701C30.7764 27.0092 29.4986 27.0092 28.3423 26.4701L27.1286 25.9043C25.9722 25.3652 24.6944 25.3652 23.538 25.9043L22.3246 26.47C21.1682 27.0091 19.8904 27.0091 18.734 26.47L17.5206 25.9043C16.3643 25.3652 15.0864 25.3652 13.9301 25.9043L12.7165 26.4701C11.5601 27.0092 10.2823 27.0092 9.12594 26.4701L7.91248 25.9044C6.75616 25.3654 5.47828 25.3654 4.32196 25.9044L3.10833 26.4702C2.27188 26.8602 1.37184 26.968 0.500122 26.7937" stroke="#214759" stroke-miterlimit="10" stroke-linecap="round" stroke-linejoin="round"/>
<path d="M40.5001 38.4306C39.647 38.5885 38.7688 38.4769 37.9511 38.0958L36.7367 37.5297C35.5804 36.9907 34.3026 36.9907 33.1464 37.5298L31.9327 38.0956C30.7764 38.6347 29.4986 38.6347 28.3423 38.0956L27.1286 37.5298C25.9722 36.9907 24.6944 36.9907 23.538 37.5298L22.3246 38.0955C21.1682 38.6346 19.8904 38.6346 18.734 38.0955L17.5206 37.5298C16.3643 36.9907 15.0864 36.9907 13.9301 37.5298L12.7165 38.0956C11.5601 38.6347 10.2823 38.6347 9.12594 38.0956L7.91248 37.5299C6.75616 36.9908 5.47828 36.9908 4.32196 37.5299L3.10833 38.0957C2.27188 38.4857 1.37184 38.5935 0.500122 38.4192" stroke="#214759" stroke-miterlimit="10" stroke-linecap="round" stroke-linejoin="round"/>
<path d="M26.6841 16.0664V21.2797" stroke="#214759" stroke-miterlimit="10" stroke-linecap="round" stroke-linejoin="round"/>
<path d="M34.73 5.90757C34.6039 2.89789 32.3362 0.500009 29.5568 0.500009C28.4941 0.500009 27.5062 0.850912 26.6841 1.4522C25.8621 0.850912 24.8742 0.500009 23.8114 0.500009C21.0322 0.500009 18.7645 2.89789 18.6383 5.90757C17.7088 6.94655 17.1354 8.36912 17.1354 9.93861C17.1354 13.1202 19.4904 15.6993 22.3953 15.6993H30.973C33.8779 15.6993 36.2328 13.1202 36.2328 9.93861C36.2328 8.36912 35.6595 6.94655 34.73 5.90757Z" stroke="#214759" stroke-miterlimit="10" stroke-linecap="round" stroke-linejoin="round"/>
<path d="M14.2642 16.0664V21.2797" stroke="#214759" stroke-miterlimit="10" stroke-linecap="round" stroke-linejoin="round"/>
<path d="M20.3405 1.71536C19.4591 0.954224 18.3464 0.500008 17.1368 0.500008C16.074 0.500008 15.0861 0.850913 14.2641 1.4522C13.442 0.850913 12.4542 0.500008 11.3914 0.500008C8.61206 0.500008 6.34441 2.89782 6.21821 5.90757C5.28872 6.94655 4.71539 8.36912 4.71539 9.93861C4.71539 13.1202 7.07032 15.6993 9.97526 15.6993H18.5529C19.2046 15.6993 19.8286 15.5695 20.4046 15.3321" stroke="#214759" stroke-miterlimit="10" stroke-linecap="round" stroke-linejoin="round"/>
<path d="M0.500122 21.5H40.5001" stroke="#214759" stroke-miterlimit="10" stroke-linecap="round" stroke-linejoin="round"/>
</svg>
