<svg width="37" height="41" viewBox="0 0 37 41" fill="none" xmlns="http://www.w3.org/2000/svg">
<path d="M14.1554 23.5457L10.5221 24.4998" stroke="#214759" stroke-miterlimit="22.9256" stroke-linecap="round" stroke-linejoin="round"/>
<path d="M19.5187 13.4304C21.0919 15.4824 22.6685 14.6881 23.6155 17.1942C24.5902 19.7735 22.2281 22.5156 24.4302 25.5531C26.5324 28.4528 25.4908 30.3212 24.9414 31.5334" stroke="#214759" stroke-miterlimit="22.9256" stroke-linecap="round" stroke-linejoin="round"/>
<path d="M23.5376 35.013C23.425 37.3443 20.7111 37.5847 20.7907 40.5H36.5V0.5H0.5C0.5 3.77975 3.71855 2.50269 4.99274 3.75151C6.42427 5.15453 7.84898 5.27478 9.02705 4.8129C10.7562 4.13502 12.2751 4.53029 13.4572 6.38955C14.5189 8.05943 13.99 9.49918 16.008 11.1259" stroke="#214759" stroke-miterlimit="22.9256" stroke-linecap="round" stroke-linejoin="round"/>
<path fill-rule="evenodd" clip-rule="evenodd" d="M16.2175 11.2884C16.7683 10.4323 17.9229 10.1758 18.7964 10.7156C19.6699 11.2553 19.9316 12.387 19.3808 13.2432L16.728 17.3904C16.4669 17.7964 16.0704 18.0692 15.6321 18.1846L13.6685 18.7002L14.9772 25.0981L19.3694 26.6291C19.723 26.7524 20.1091 27.0141 20.343 27.2682L24.8668 31.7019C25.5971 32.4188 25.5964 33.5803 24.8649 34.2961C24.1335 35.0119 22.9485 35.0111 22.2181 34.2943L17.987 30.1475L12.2305 29.0844C11.5872 28.9148 11.0808 28.4167 10.908 27.7864L8.29125 18.2147C8.02305 17.2363 8.61484 16.2301 9.61309 15.9673L13.9541 14.8273L16.2175 11.2884Z" stroke="#214759" stroke-miterlimit="22.9256" stroke-linecap="round" stroke-linejoin="round"/>
<path fill-rule="evenodd" clip-rule="evenodd" d="M12.094 12.4919C12.4808 13.9068 11.6241 15.3612 10.1803 15.7403C8.73663 16.1194 7.25271 15.2798 6.86582 13.8647C6.47902 12.4498 7.33575 10.9954 8.77945 10.6163C10.2233 10.2372 11.7071 11.0769 12.094 12.4919Z" stroke="#214759" stroke-miterlimit="22.9256" stroke-linecap="round" stroke-linejoin="round"/>
</svg>
