<svg width="41" height="41" viewBox="0 0 41 41" fill="none" xmlns="http://www.w3.org/2000/svg">
<path d="M4.11236 28.7759C1.80863 25.3349 0.5 21.2217 0.5 16.886C0.5 11.182 5.1239 6.55811 10.8279 6.55811H10.9109C13.65 6.55811 16.2769 7.64624 18.2138 9.58308L18.5083 9.87761L18.8028 9.58308C20.7397 7.64624 23.3666 6.55811 26.1057 6.55811C31.8097 6.55811 36.4336 11.182 36.4336 16.886V16.9099C36.4336 19.5194 35.9596 22.0484 35.0797 24.3989" stroke="#214759" stroke-miterlimit="10" stroke-linecap="round" stroke-linejoin="round"/>
<path d="M25.0035 35.8306C24.1959 36.2546 23.3548 36.6303 22.4832 36.9531L18.5083 38.4253L14.4805 36.9404C13.93 36.7374 13.3916 36.5134 12.8661 36.2694" stroke="#214759" stroke-miterlimit="10" stroke-linecap="round" stroke-linejoin="round"/>
<path d="M40.5 29.1778C40.5 33.6043 37.9361 37.63 33.925 39.5019L31.7863 40.5L29.6927 39.5136C25.7021 37.6334 23.1556 33.6186 23.1556 29.2073V29.1778C23.1556 26.5852 25.2574 24.4834 27.85 24.4834C29.0951 24.4834 30.2891 24.978 31.1695 25.8584L31.7863 26.4751L32.403 25.8584C33.2834 24.978 34.4774 24.4834 35.7225 24.4834H35.8055C38.3982 24.4834 40.5 26.5852 40.5 29.1778Z" stroke="#214759" stroke-miterlimit="10" stroke-linecap="round" stroke-linejoin="round"/>
<path d="M18.5083 22.4917L3.23859 37.7614" stroke="#214759" stroke-miterlimit="10" stroke-linecap="round" stroke-linejoin="round"/>
<path d="M35.7697 5.23029L32.4502 8.54979" stroke="#214759" stroke-miterlimit="10" stroke-linecap="round" stroke-linejoin="round"/>
<path d="M13.1971 27.8029L5.89419 27.139L0.5 32.4502L6.55809 34.4419L13.1971 27.8029Z" stroke="#214759" stroke-miterlimit="10" stroke-linecap="round" stroke-linejoin="round"/>
<path d="M13.1971 27.8029L13.861 35.1058L8.54981 40.5L6.55811 34.4419L13.1971 27.8029Z" stroke="#214759" stroke-miterlimit="10" stroke-linecap="round" stroke-linejoin="round"/>
<path d="M33.1141 2.57469L38.4253 7.88589L40.5 0.5L33.1141 2.57469Z" stroke="#214759" stroke-miterlimit="10" stroke-linecap="round" stroke-linejoin="round"/>
</svg>
