<svg width="41" height="41" viewBox="0 0 41 41" fill="none" xmlns="http://www.w3.org/2000/svg">
<path d="M22.5001 40.3218C25.3012 37.8838 29.2328 36.3644 33.5803 36.3644C36.0677 36.3644 38.4187 36.8623 40.5001 37.7444" stroke="#214759" stroke-miterlimit="10" stroke-linecap="round" stroke-linejoin="round"/>
<path d="M17.1309 40.4999C20.6037 35.0313 26.7548 31.3881 33.7506 31.3881C36.1212 31.3881 38.3947 31.8065 40.5001 32.5722" stroke="#214759" stroke-miterlimit="10" stroke-linecap="round" stroke-linejoin="round"/>
<path d="M39.6665 27.5565C37.7725 27.084 35.7909 26.8322 33.7507 26.8322C24.1184 26.8322 15.7822 32.4249 11.8831 40.4999" stroke="#214759" stroke-miterlimit="10" stroke-linecap="round" stroke-linejoin="round"/>
<path d="M0.500244 37.5327C2.53042 36.5172 4.82354 35.944 7.2497 35.944C9.55344 35.944 11.7373 36.4607 13.6899 37.3823C13.0123 38.3714 12.4078 39.4134 11.8832 40.4999" stroke="#214759" stroke-miterlimit="10" stroke-linecap="round" stroke-linejoin="round"/>
<path d="M1.33386 27.5565C3.22778 27.084 5.20951 26.8322 7.24967 26.8322C12.1372 26.8322 16.6902 28.2734 20.5002 30.7468C16.8015 33.1478 13.804 36.5227 11.883 40.4999" stroke="#214759" stroke-miterlimit="10" stroke-linecap="round" stroke-linejoin="round"/>
<path d="M15.1871 0.75019C14.8254 0.41662 14.1749 0.41662 13.8132 0.75019L5.50012 8.41492H23.5001L15.1871 0.75019Z" stroke="#214759" stroke-miterlimit="10" stroke-linecap="round" stroke-linejoin="round"/>
<path d="M14.5001 23.5027V24.4921" stroke="#214759" stroke-miterlimit="10" stroke-linecap="round" stroke-linejoin="round"/>
<path d="M27.079 0.750135C26.8957 0.583387 26.6395 0.500013 26.383 0.500013H14.5001C14.7565 0.500013 15.0127 0.583387 15.196 0.750135L23.617 8.41492H35.5001L27.079 0.750135Z" stroke="#214759" stroke-miterlimit="10" stroke-linecap="round" stroke-linejoin="round"/>
<path d="M24.5001 28.4495V8.41486H5.50012V26.6174" stroke="#214759" stroke-miterlimit="10" stroke-linecap="round" stroke-linejoin="round"/>
<path d="M19.5001 30V17.623C19.5001 17.0454 19.0657 16.5771 18.5298 16.5771H12.4705C11.9347 16.5771 11.5001 17.0454 11.5001 17.623V27" stroke="#214759" stroke-miterlimit="10" stroke-linecap="round" stroke-linejoin="round"/>
<path d="M0.500122 32.5723C2.16732 31.9659 3.94036 31.5784 5.7831 31.4429C6.28937 31.4181 7.56153 31.3815 8.59999 31.4342C11.5204 31.6318 14.267 32.4648 16.6999 33.7938C14.7297 35.7282 13.0938 37.9949 11.884 40.5" stroke="#214759" stroke-miterlimit="10" stroke-linecap="round" stroke-linejoin="round"/>
<path d="M35.5001 8.41492V14.5599V18.748V26.2234" stroke="#214759" stroke-miterlimit="10" stroke-linecap="round" stroke-linejoin="round"/>
</svg>
