<svg width="41" height="41" viewBox="0 0 41 41" fill="none" xmlns="http://www.w3.org/2000/svg">
<path d="M0.5 20.5C0.5 11.0719 0.5 6.35786 3.42894 3.42894C6.35786 0.5 11.0719 0.5 20.5 0.5C29.928 0.5 34.6422 0.5 37.571 3.42894C40.5 6.35786 40.5 11.0719 40.5 20.5C40.5 29.928 40.5 34.6422 37.571 37.571C34.6422 40.5 29.928 40.5 20.5 40.5C11.0719 40.5 6.35786 40.5 3.42894 37.571C0.5 34.6422 0.5 29.928 0.5 20.5Z" stroke="#214759" stroke-linecap="round"/>
<path d="M6.5 18.5C6.5 12.8431 6.5 10.0147 8.25736 8.25736C10.0147 6.5 12.8431 6.5 18.5 6.5H22.5C28.1568 6.5 30.9852 6.5 32.7426 8.25736C34.5 10.0147 34.5 12.8431 34.5 18.5V22.5C34.5 28.1568 34.5 30.9852 32.7426 32.7426C30.9852 34.5 28.1568 34.5 22.5 34.5H18.5C12.8431 34.5 10.0147 34.5 8.25736 32.7426C6.5 30.9852 6.5 28.1568 6.5 22.5V18.5Z" stroke="#214759" stroke-linecap="round"/>
<path d="M12.5 20.5C12.5 16.0817 16.0817 12.5 20.5 12.5C24.9182 12.5 28.5 16.0817 28.5 20.5C28.5 24.9182 24.9182 28.5 20.5 28.5C16.0817 28.5 12.5 24.9182 12.5 20.5Z" stroke="#214759" stroke-linecap="round"/>
<path d="M20.5 20.5V12.5" stroke="#214759" stroke-linecap="round"/>
<path d="M20.5 20.5L27.5 23.5" stroke="#214759" stroke-linecap="round"/>
<path d="M20.5001 20.5L13.5001 23.5" stroke="#214759" stroke-linecap="round"/>
<path d="M5.5 10.5V16.5" stroke="#214759" stroke-linecap="round"/>
<path d="M5.5 24.5001V30.5001" stroke="#214759" stroke-linecap="round"/>
</svg>
