<svg width="41" height="41" viewBox="0 0 41 41" fill="none" xmlns="http://www.w3.org/2000/svg">
<path d="M0.5 36.5C0.5 37.0253 0.603463 37.5455 0.804482 38.0307C1.00549 38.516 1.30014 38.9571 1.67157 39.3284C2.04301 39.6998 2.48397 39.9946 2.96927 40.1955C3.45456 40.3965 3.97472 40.5 4.50001 40.5C5.02529 40.5 5.54545 40.3965 6.03074 40.1955C6.51604 39.9946 6.957 39.6998 7.32844 39.3284C7.69987 38.9571 7.99452 38.516 8.19553 38.0307C8.39654 37.5455 8.50001 37.0253 8.50001 36.5C8.50001 35.9747 8.39654 35.4545 8.19553 34.9693C7.99452 34.484 7.69987 34.0429 7.32844 33.6716C6.957 33.3002 6.51604 33.0054 6.03074 32.8045C5.54545 32.6035 5.02529 32.5 4.50001 32.5C3.97472 32.5 3.45456 32.6035 2.96927 32.8045C2.48397 33.0054 2.04301 33.3002 1.67157 33.6716C1.30014 34.0429 1.00549 34.484 0.804482 34.9693C0.603463 35.4545 0.5 35.9747 0.5 36.5Z" stroke="#214759" stroke-linecap="round" stroke-linejoin="round"/>
<path d="M16.5 36.5C16.5 37.5608 16.9214 38.5782 17.6716 39.3284C18.4218 40.0785 19.4392 40.5 20.5 40.5C21.5608 40.5 22.5782 40.0785 23.3285 39.3284C24.0785 38.5782 24.5 37.5608 24.5 36.5C24.5 35.4392 24.0785 34.4218 23.3285 33.6716C22.5782 32.9215 21.5608 32.5 20.5 32.5C19.4392 32.5 18.4218 32.9215 17.6716 33.6716C16.9214 34.4218 16.5 35.4392 16.5 36.5Z" stroke="#214759" stroke-linecap="round" stroke-linejoin="round"/>
<path d="M32.5 36.5C32.5 37.5608 32.9215 38.5782 33.6716 39.3284C34.4218 40.0785 35.4392 40.5 36.5 40.5C37.5608 40.5 38.5782 40.0785 39.3285 39.3284C40.0785 38.5782 40.5 37.5608 40.5 36.5C40.5 35.4392 40.0785 34.4218 39.3285 33.6716C38.5782 32.9215 37.5608 32.5 36.5 32.5C35.4392 32.5 34.4218 32.9215 33.6716 33.6716C32.9215 34.4218 32.5 35.4392 32.5 36.5Z" stroke="#214759" stroke-linecap="round" stroke-linejoin="round"/>
<path d="M15.1667 9.83337H25.8334C25.8334 9.83337 28.5 9.83337 28.5 12.5V19.1667C28.5 19.1667 28.5 21.8334 25.8334 21.8334H15.1667C15.1667 21.8334 12.5 21.8334 12.5 19.1667V12.5C12.5 12.5 12.5 9.83337 15.1667 9.83337Z" stroke="#214759" stroke-linecap="round" stroke-linejoin="round"/>
<path d="M20.5 32.5V21.8334" stroke="#214759" stroke-linecap="round" stroke-linejoin="round"/>
<path d="M4.5 32.5V27.1667H36.5V32.5" stroke="#214759" stroke-linecap="round" stroke-linejoin="round"/>
<path d="M15.1667 9.83333V5.83333C15.1667 4.41884 15.7287 3.06229 16.7288 2.0621C17.7291 1.0619 19.0857 0.5 20.5001 0.5C21.9145 0.5 23.2711 1.0619 24.2713 2.0621C25.2715 3.06229 25.8334 4.41884 25.8334 5.83333V9.83333" stroke="#214759" stroke-linecap="round" stroke-linejoin="round"/>
</svg>
