<svg width="41" height="41" viewBox="0 0 41 41" fill="none" xmlns="http://www.w3.org/2000/svg">
<path d="M7.96716 14.4453V7.24326C7.96716 3.51907 10.9862 0.5 14.7104 0.5C18.4346 0.5 21.4537 3.51907 21.4537 7.24326V14.4453" stroke="#214759" stroke-miterlimit="10" stroke-linecap="round" stroke-linejoin="round"/>
<path d="M6.74121 14.6063H9.44544" stroke="#214759" stroke-miterlimit="10" stroke-linecap="round" stroke-linejoin="round"/>
<path d="M20.1016 14.6063H22.8058" stroke="#214759" stroke-miterlimit="10" stroke-linecap="round" stroke-linejoin="round"/>
<path d="M27.4855 24.2573V27.2488C27.4855 29.334 29.1759 31.0244 31.2611 31.0244C33.3464 31.0244 35.0368 29.334 35.0368 27.2488V24.2573" stroke="#214759" stroke-miterlimit="10" stroke-linecap="round" stroke-linejoin="round"/>
<path d="M26.7992 24.1292H28.3133" stroke="#214759" stroke-miterlimit="10" stroke-linecap="round" stroke-linejoin="round"/>
<path d="M34.2797 24.1292H35.7938" stroke="#214759" stroke-miterlimit="10" stroke-linecap="round" stroke-linejoin="round"/>
<path d="M18.7042 27.016L20.5921 25.128C21.9734 23.7467 21.9734 21.5072 20.5921 20.1259C19.2108 18.7447 16.9714 18.7447 15.59 20.1259L15.2317 20.4842C14.9438 20.7722 14.4769 20.7722 14.189 20.4842L13.8307 20.1259C12.4494 18.7447 10.2099 18.7447 8.8286 20.1259C7.44735 21.5072 7.44735 23.7467 8.8286 25.128L14.189 30.4884C14.477 30.7764 14.9439 30.7764 15.2317 30.4884L16.8267 28.8934" stroke="#214759" stroke-miterlimit="10" stroke-linecap="round" stroke-linejoin="round"/>
<path d="M22.6928 40.5H1.625C0.955063 40.5 0.433695 39.9181 0.506935 39.2522L1.50006 30.5L2.00006 26.5" stroke="#214759" stroke-miterlimit="10" stroke-linecap="round" stroke-linejoin="round"/>
<path d="M27.0825 21.4625L26.0711 12.2712C26.0084 11.7011 25.5267 11.2695 24.9531 11.2695H4.59396C4.02035 11.2695 3.53866 11.7011 3.47597 12.2712L2.00006 26.5" stroke="#214759" stroke-miterlimit="10" stroke-linecap="round" stroke-linejoin="round"/>
<path d="M30.2195 21.6462H24.7525C24.3701 21.6462 24.049 21.934 24.0072 22.3141L22.0975 39.6681C22.0487 40.1121 22.3963 40.5 22.8429 40.5H39.7502C40.1968 40.5 40.5444 40.1121 40.4955 39.6681L38.5859 22.3141C38.5441 21.934 38.2229 21.6462 37.8406 21.6462H32.8502" stroke="#214759" stroke-miterlimit="10" stroke-linecap="round" stroke-linejoin="round"/>
</svg>
