<svg width="28" height="41" viewBox="0 0 28 41" fill="none" xmlns="http://www.w3.org/2000/svg">
<path d="M25.5109 40.5V33.5M9.54605 7.46364C9.5411 5.62472 10.281 3.85894 11.6034 2.55353C12.9258 1.24811 14.7228 0.509621 16.6003 0.5H18.4567C20.3342 0.509621 22.1312 1.24811 23.4536 2.55353C24.776 3.85894 25.5159 5.62472 25.5109 7.46364V29.5" stroke="#214759" stroke-miterlimit="10" stroke-linecap="round" stroke-linejoin="round"/>
<path d="M9.17566 7.46364C10.3156 7.45885 11.4453 7.68011 12.4999 8.11473C13.5545 8.54934 14.5131 9.18875 15.3209 9.99625C16.1287 10.8038 16.7696 11.7635 17.207 12.8203C17.6443 13.8771 17.8694 15.0102 17.8694 16.1545V17.9727H0.5V16.1545C0.499998 15.0117 0.724531 13.8801 1.16075 12.8245C1.59696 11.7689 2.23629 10.81 3.04214 10.0027C3.84799 9.19544 4.80452 8.55566 5.857 8.11997C6.90947 7.68428 8.03721 7.46125 9.17566 7.46364Z" stroke="#214759" stroke-miterlimit="10" stroke-linecap="round" stroke-linejoin="round"/>
<path d="M23.5154 31.5C23.5154 32.0304 23.7256 32.5391 24.0999 32.9142C24.4741 33.2893 24.9817 33.5 25.511 33.5C26.0403 33.5 26.5479 33.2893 26.9221 32.9142C27.2964 32.5391 27.5066 32.0304 27.5066 31.5C27.5066 30.9696 27.2964 30.4609 26.9221 30.0858C26.5479 29.7107 26.0403 29.5 25.511 29.5C24.9817 29.5 24.4741 29.7107 24.0999 30.0858C23.7256 30.4609 23.5154 30.9696 23.5154 31.5Z" stroke="#214759" stroke-miterlimit="10" stroke-linecap="round" stroke-linejoin="round"/>
<path d="M2.23877 21.5V24.9909" stroke="#214759" stroke-miterlimit="10" stroke-linecap="round" stroke-linejoin="round"/>
<path d="M9.17566 21.5V24.9909" stroke="#214759" stroke-miterlimit="10" stroke-linecap="round" stroke-linejoin="round"/>
<path d="M16.0944 21.5V24.9909" stroke="#214759" stroke-miterlimit="10" stroke-linecap="round" stroke-linejoin="round"/>
<path d="M2.23877 29.5V32.9727" stroke="#214759" stroke-miterlimit="10" stroke-linecap="round" stroke-linejoin="round"/>
<path d="M9.17566 29.5V32.9727" stroke="#214759" stroke-miterlimit="10" stroke-linecap="round" stroke-linejoin="round"/>
<path d="M16.0944 29.5V32.9727" stroke="#214759" stroke-miterlimit="10" stroke-linecap="round" stroke-linejoin="round"/>
<path d="M2.23877 37.0273V40.5" stroke="#214759" stroke-miterlimit="10" stroke-linecap="round" stroke-linejoin="round"/>
<path d="M9.17566 37.0273V40.5" stroke="#214759" stroke-miterlimit="10" stroke-linecap="round" stroke-linejoin="round"/>
<path d="M16.0944 37.0273V40.5" stroke="#214759" stroke-miterlimit="10" stroke-linecap="round" stroke-linejoin="round"/>
</svg>
