<svg width="41" height="41" viewBox="0 0 41 41" fill="none" xmlns="http://www.w3.org/2000/svg">
<path d="M40.5 40.5H0.5V10.3149L20.6641 0.5L40.5 10.3149V40.5Z" stroke="#214759" stroke-linecap="round" stroke-linejoin="round"/>
<path d="M16.1432 36.5C14.6994 36.5 13.5291 35.3296 13.5291 33.8859V11.1141C13.5291 9.67037 14.6994 8.5 16.1432 8.5C17.5869 8.5 18.7573 9.67037 18.7573 11.1141V33.8859C18.7573 35.3296 17.5869 36.5 16.1432 36.5Z" stroke="#214759" stroke-miterlimit="10" stroke-linecap="round" stroke-linejoin="round"/>
<path d="M9.98548 15.0062C9.98548 14.0437 9.20525 13.2635 8.24274 13.2635C7.28022 13.2635 6.5 14.0437 6.5 15.0062V19.6535H9.98548V15.0062Z" stroke="#214759" stroke-miterlimit="10" stroke-linecap="round" stroke-linejoin="round"/>
<path d="M8.24274 19.6536V36.5" stroke="#214759" stroke-miterlimit="10" stroke-linecap="round" stroke-linejoin="round"/>
<path d="M6.79047 33.5955H9.69503" stroke="#214759" stroke-miterlimit="10" stroke-linecap="round" stroke-linejoin="round"/>
<path d="M34.5 15.0062C34.5 14.0437 33.7198 13.2635 32.7573 13.2635C31.7948 13.2635 31.0145 14.0437 31.0145 15.0062V19.6535H34.5V15.0062Z" stroke="#214759" stroke-miterlimit="10" stroke-linecap="round" stroke-linejoin="round"/>
<path d="M32.7573 19.6536V36.5" stroke="#214759" stroke-miterlimit="10" stroke-linecap="round" stroke-linejoin="round"/>
<path d="M31.305 33.5955H34.2096" stroke="#214759" stroke-miterlimit="10" stroke-linecap="round" stroke-linejoin="round"/>
<path d="M16.1432 17.5C14.6994 17.5 13.5291 18.6704 13.5291 20.1141V23.0187C13.5291 24.4624 14.6994 25.6328 16.1432 25.6328C17.5869 25.6328 18.7573 24.4624 18.7573 23.0187V20.1141C18.7573 18.6704 17.5869 17.5 16.1432 17.5Z" stroke="#214759" stroke-miterlimit="10" stroke-linecap="round" stroke-linejoin="round"/>
<path d="M24.8568 8.5C26.3006 8.5 27.471 9.67037 27.471 11.1141V33.8859C27.471 35.3296 26.3006 36.5 24.8568 36.5C23.4131 36.5 22.2427 35.3296 22.2427 33.8859V11.1141C22.2427 9.67037 23.4131 8.5 24.8568 8.5Z" stroke="#214759" stroke-miterlimit="10" stroke-linecap="round" stroke-linejoin="round"/>
<path d="M24.8568 25.6328C26.3006 25.6328 27.471 24.4624 27.471 23.0187V20.1141C27.471 18.6704 26.3006 17.5 24.8568 17.5C23.4131 17.5 22.2427 18.6704 22.2427 20.1141V23.0187C22.2427 24.4624 23.4131 25.6328 24.8568 25.6328Z" stroke="#214759" stroke-miterlimit="10" stroke-linecap="round" stroke-linejoin="round"/>
</svg>
