<svg width="41" height="41" viewBox="0 0 41 41" fill="none" xmlns="http://www.w3.org/2000/svg">
<path d="M14.2759 40.5C12.2134 40.5 10.5415 38.8281 10.5415 36.7656V4.23444C10.5415 2.17195 12.2134 0.5 14.2759 0.5C16.3384 0.5 18.0104 2.17195 18.0104 4.23444V36.7656C18.0104 38.8281 16.3384 40.5 14.2759 40.5Z" stroke="#214759" stroke-miterlimit="10" stroke-linecap="round" stroke-linejoin="round"/>
<path d="M5.47925 9.79462C5.47925 8.4196 4.36465 7.30499 2.98963 7.30499C1.61461 7.30499 0.5 8.4196 0.5 9.79462V16.4336H5.47925V9.79462Z" stroke="#214759" stroke-miterlimit="10" stroke-linecap="round" stroke-linejoin="round"/>
<path d="M2.98963 16.4336V40.5" stroke="#214759" stroke-miterlimit="10" stroke-linecap="round" stroke-linejoin="round"/>
<path d="M0.91494 36.3506H5.06432" stroke="#214759" stroke-miterlimit="10" stroke-linecap="round" stroke-linejoin="round"/>
<path d="M40.5 9.79462C40.5 8.4196 39.3854 7.30499 38.0104 7.30499C36.6354 7.30499 35.5208 8.4196 35.5208 9.79462V16.4336H40.5V9.79462Z" stroke="#214759" stroke-miterlimit="10" stroke-linecap="round" stroke-linejoin="round"/>
<path d="M38.0104 16.4336V40.5" stroke="#214759" stroke-miterlimit="10" stroke-linecap="round" stroke-linejoin="round"/>
<path d="M35.9357 36.3506H40.0851" stroke="#214759" stroke-miterlimit="10" stroke-linecap="round" stroke-linejoin="round"/>
<path d="M14.2759 11.5C12.2134 11.5 10.5415 13.172 10.5415 15.2344V19.3838C10.5415 21.4463 12.2134 23.1183 14.2759 23.1183C16.3384 23.1183 18.0104 21.4463 18.0104 19.3838V15.2344C18.0104 13.172 16.3384 11.5 14.2759 11.5Z" stroke="#214759" stroke-miterlimit="10" stroke-linecap="round" stroke-linejoin="round"/>
<path d="M26.7241 0.5C28.7866 0.5 30.4585 2.17195 30.4585 4.23444V36.7656C30.4585 38.8281 28.7866 40.5 26.7241 40.5C24.6616 40.5 22.9896 38.8281 22.9896 36.7656V4.23444C22.9896 2.17195 24.6616 0.5 26.7241 0.5Z" stroke="#214759" stroke-miterlimit="10" stroke-linecap="round" stroke-linejoin="round"/>
<path d="M26.7241 23.1183C28.7866 23.1183 30.4585 21.4463 30.4585 19.3838V15.2344C30.4585 13.172 28.7866 11.5 26.7241 11.5C24.6616 11.5 22.9896 13.172 22.9896 15.2344V19.3838C22.9896 21.4463 24.6616 23.1183 26.7241 23.1183Z" stroke="#214759" stroke-miterlimit="10" stroke-linecap="round" stroke-linejoin="round"/>
</svg>
