<svg width="41" height="41" viewBox="0 0 41 41" fill="none" xmlns="http://www.w3.org/2000/svg">
<path d="M32.8643 14.6084L31.9551 6.90444C31.7593 5.24585 30.233 4.116 28.652 4.45964C27.2182 4.77134 26.2705 6.18881 26.4949 7.68645L27.6502 15.3998C27.9246 17.2317 28.9941 18.8332 30.5535 19.7469L34.5027 22.0613C36.4571 23.2065 38.94 22.4547 39.9885 20.4L40.5001 19.3977L32.8643 14.6084Z" stroke="#214759" stroke-miterlimit="10" stroke-linecap="round" stroke-linejoin="round"/>
<path d="M23.8017 16.1223C27.7992 18.2503 28.0265 24.0768 24.2179 26.5477L19.5123 29.5981L20.1079 29.8467C22.2441 30.7381 22.7352 33.6382 21.0191 35.2276L20.5378 35.6733" stroke="#214759" stroke-miterlimit="10" stroke-linecap="round" stroke-linejoin="round"/>
<path d="M32.899 21.117L35.5647 16.3347" stroke="#214759" stroke-miterlimit="10" stroke-linecap="round" stroke-linejoin="round"/>
<path d="M32.3877 7.54682C31.3022 6.02793 31.6126 3.88652 33.081 2.7637L35.228 1.17021C36.6964 0.0473848 38.7668 0.368498 39.8522 1.8873C40.9377 3.40618 40.6273 5.54759 39.159 6.67042L37.0119 8.26391C35.5435 9.38673 33.4732 9.0657 32.3877 7.54682Z" stroke="#214759" stroke-miterlimit="10" stroke-linecap="round" stroke-linejoin="round"/>
<path d="M34.4261 1.76086L38.3571 7.26107" stroke="#214759" stroke-miterlimit="10" stroke-linecap="round" stroke-linejoin="round"/>
<path d="M30.5534 19.747L4.77661 5.90845" stroke="#214759" stroke-miterlimit="10" stroke-linecap="round" stroke-linejoin="round"/>
<path d="M0.500122 27.2455L30.3483 39.7996C33.0175 40.911 36.0326 40.6911 38.5247 39.2033" stroke="#214759" stroke-miterlimit="10" stroke-linecap="round" stroke-linejoin="round"/>
<path d="M23.2325 27.1881L17.6597 24.1064" stroke="#214759" stroke-miterlimit="10" stroke-linecap="round" stroke-linejoin="round"/>
<path d="M12.4816 32.2849C10.6565 31.5189 10.4191 28.9531 12.0721 27.8466L20.9977 21.872L18.0963 20.3936C14.7606 18.6939 14.539 13.8703 17.704 11.8525L26.7038 6.11481" stroke="#214759" stroke-miterlimit="10" stroke-linecap="round" stroke-linejoin="round"/>
</svg>
