<svg width="41" height="36" viewBox="0 0 41 36" fill="none" xmlns="http://www.w3.org/2000/svg">
<path d="M37.8333 35.5H5.83331V24.7308H37.8333C38.5405 24.7308 39.2189 25.0144 39.719 25.5193C40.2191 26.0242 40.5 26.7091 40.5 27.4231V32.8077C40.5 33.5217 40.2191 34.2066 39.719 34.7115C39.2189 35.2164 38.5405 35.5 37.8333 35.5Z" stroke="#214759" stroke-linecap="round" stroke-linejoin="round"/>
<path d="M27.1667 24.7308V35.5" stroke="#214759" stroke-linecap="round" stroke-linejoin="round"/>
<path d="M0.5 24.7308V35.5" stroke="#214759" stroke-linecap="round" stroke-linejoin="round"/>
<path d="M13.8333 0.5C13.8333 2.64213 12.9905 4.69653 11.4902 6.21124C9.9899 7.72596 7.95506 8.57692 5.83333 8.57692C4.41884 8.57692 3.06229 9.14423 2.0621 10.154C1.0619 11.1639 0.5 12.5334 0.5 13.9615" stroke="#214759" stroke-linecap="round" stroke-linejoin="round"/>
<path d="M21.8333 0.5C21.8333 4.78427 20.1476 8.89305 17.1471 11.9225C14.1464 14.9519 10.0768 16.6538 5.83331 16.6538" stroke="#214759" stroke-linecap="round" stroke-linejoin="round"/>
</svg>
