<svg width="41" height="40" viewBox="0 0 41 40" fill="none" xmlns="http://www.w3.org/2000/svg">
<path d="M30.0015 11.8469L26.7625 14.9272L24.005 17.5494H4.23891L0.61145 19.787V27.2219H25.0415L36.2941 21.0863V16.3944L22.4504 6" stroke="#214759" stroke-miterlimit="10" stroke-linecap="round" stroke-linejoin="round"/>
<path d="M20.473 27.2219H0.61145V26.2878C0.61145 24.1298 2.40561 22.3804 4.61876 22.3804H20.473V27.2219Z" stroke="#214759" stroke-miterlimit="10" stroke-linecap="round" stroke-linejoin="round"/>
<path d="M4.23889 17.5494V12.1356H8.53171L19.045 17.5494" stroke="#214759" stroke-miterlimit="10" stroke-linecap="round" stroke-linejoin="round"/>
<path d="M22.5419 34H37.6912C39.2424 34 40.5 32.7738 40.5 31.2612C40.5 30.5348 40.2041 29.8382 39.6773 29.3246L38.7207 28.3919" stroke="#214759" stroke-miterlimit="10" stroke-linecap="round" stroke-linejoin="round"/>
<path d="M29.3125 25.0834L33.2671 33.8971" stroke="#214759" stroke-miterlimit="10" stroke-linecap="round" stroke-linejoin="round"/>
<path d="M3.72525 27.2868L0.906721 30.8208C0.64242 31.1522 0.5 31.552 0.5 31.9624C0.5 33.0309 1.44534 33.8971 2.61152 33.8971H14.9288L18.5784 27.2868" stroke="#214759" stroke-miterlimit="10" stroke-linecap="round" stroke-linejoin="round"/>
<path d="M36.0919 18.4155L31.038 18.4155" stroke="#214759" stroke-miterlimit="10" stroke-linecap="round" stroke-linejoin="round"/>
</svg>
