<svg width="40" height="40" viewBox="0 0 40 40" fill="none" xmlns="http://www.w3.org/2000/svg">
<path d="M2.96102 36.6366C-0.339161 33.3364 -0.317059 28.2072 3.00818 25.6994L9.65387 20.6877C13.8311 17.5375 17.5375 13.8311 20.6877 9.65385L25.6995 3.00809C28.2072 -0.317077 33.3364 -0.339178 36.6366 2.961C39.9368 6.26118 39.9147 11.3904 36.5894 13.8981L29.9437 18.9098C25.7665 22.06 22.0601 25.7665 18.9099 29.9437L13.8981 36.5894C11.3904 39.9147 6.2612 39.9368 2.96102 36.6366Z" stroke="#214759" stroke-miterlimit="10" stroke-linecap="round" stroke-linejoin="round"/>
<path d="M19.45 28.7429L19.4489 28.7441C18.2885 29.9045 16.4072 29.9045 15.2468 28.7441L10.8536 24.3509C9.69332 23.1905 9.69332 21.3092 10.8536 20.1488L10.8548 20.1477C12.0152 18.9874 13.8965 18.9874 15.0569 20.1477L19.45 24.5409C20.6104 25.7013 20.6104 27.5826 19.45 28.7429Z" stroke="#214759" stroke-miterlimit="10" stroke-linecap="round" stroke-linejoin="round"/>
<path d="M28.5573 19.6355L28.5562 19.6366C27.3958 20.7971 25.5145 20.7971 24.3541 19.6366L19.9609 15.2435C18.8006 14.0831 18.8006 12.2018 19.9609 11.0414L19.9621 11.0403C21.1225 9.87993 23.0038 9.87993 24.1642 11.0403L28.5573 15.4334C29.7177 16.5938 29.7177 18.4752 28.5573 19.6355Z" stroke="#214759" stroke-miterlimit="10" stroke-linecap="round" stroke-linejoin="round"/>
</svg>
