<svg width="38" height="41" viewBox="0 0 38 41" fill="none" xmlns="http://www.w3.org/2000/svg">
<path d="M22.2316 24.9917L19.1221 23.8625" stroke="#214759" stroke-miterlimit="10" stroke-linecap="round" stroke-linejoin="round"/>
<path d="M0.5 29.8054V27.4835C0.5 26.4308 1.16002 25.4915 2.15208 25.131L5.64448 23.8625" stroke="#214759" stroke-miterlimit="10" stroke-linecap="round" stroke-linejoin="round"/>
<path d="M22.2312 40.5H1.14629C0.789215 40.5 0.5 40.2118 0.5 39.8561V30" stroke="#214759" stroke-miterlimit="10" stroke-linecap="round" stroke-linejoin="round"/>
<path d="M17.4118 17.3917L18.7181 18.4155C19.0001 18.6368 19.1649 18.9756 19.1649 19.333V23.6171C19.1649 23.8561 19.0469 24.079 18.8498 24.2135L14.2668 27.3547C14.0479 27.5044 13.7894 27.5849 13.5244 27.5849H11.2422C10.9772 27.5849 10.7187 27.5044 10.4997 27.3547L5.91593 24.2135C5.71962 24.079 5.60167 23.8561 5.60167 23.6171V19.333C5.60167 18.9756 5.76647 18.6368 6.04842 18.4155L7.35473 17.3917" stroke="#214759" stroke-miterlimit="10" stroke-linecap="round" stroke-linejoin="round"/>
<path d="M12.3829 40.5V19.9615" stroke="#214759" stroke-miterlimit="10" stroke-linecap="round" stroke-linejoin="round"/>
<path d="M19.1649 13.7265V13.8746C19.1649 17.0191 14.6392 19.9615 12.3829 19.9615C10.1265 19.9615 5.60167 17.0191 5.60167 13.8746V13.7265" stroke="#214759" stroke-miterlimit="10" stroke-linecap="round" stroke-linejoin="round"/>
<path d="M10.8718 16.3126C11.6653 16.7352 13.1012 16.7352 13.8946 16.3126" stroke="#214759" stroke-miterlimit="10" stroke-linecap="round" stroke-linejoin="round"/>
<path d="M20.9244 9.39529V8.06869C20.9244 3.88865 17.5231 0.5 13.3272 0.5H11.4395C7.24365 0.5 3.84222 3.88857 3.84222 8.06869V9.39529" stroke="#214759" stroke-miterlimit="10" stroke-linecap="round" stroke-linejoin="round"/>
<path d="M3.84239 8.50714V12.557C3.84239 12.9351 4.09057 13.2688 4.4537 13.3788L8.61977 14.6411C9.07929 14.7804 9.57822 14.6856 9.95412 14.3878L11.7591 12.9576C12.1245 12.6681 12.6422 12.6681 13.0076 12.9576L14.8126 14.3878C15.1885 14.6856 15.6874 14.7804 16.147 14.6411L20.313 13.3788C20.6762 13.2688 20.9243 12.9351 20.9243 12.557V8.50714H3.84239Z" stroke="#214759" stroke-miterlimit="10" stroke-linecap="round" stroke-linejoin="round"/>
<path d="M4.92047 40.4999V34.556" stroke="#214759" stroke-miterlimit="10" stroke-linecap="round" stroke-linejoin="round"/>
<path d="M19.8459 40.4999V34.556" stroke="#214759" stroke-miterlimit="10" stroke-linecap="round" stroke-linejoin="round"/>
<path d="M29.8656 12.782C29.8656 10.6817 28.1566 8.97913 26.0484 8.97913C23.9402 8.97913 22.2312 10.6817 22.2312 12.782V40.5H29.8655" stroke="#214759" stroke-miterlimit="10" stroke-linecap="round" stroke-linejoin="round"/>
<path d="M37.5 34.0688V12.782C37.5 10.6817 35.791 8.97913 33.6828 8.97913C31.5746 8.97913 29.8655 10.6817 29.8655 12.782V40.5H36.8537C37.2106 40.5 37.5 40.2117 37.5 39.8561V34.0688Z" stroke="#214759" stroke-miterlimit="10" stroke-linecap="round" stroke-linejoin="round"/>
</svg>
