<svg width="33" height="41" viewBox="0 0 33 41" fill="none" xmlns="http://www.w3.org/2000/svg">
<path d="M4.5 0.5H28.5C28.5 0.5 32.5 0.5 32.5 4.5V36.5C32.5 36.5 32.5 40.5 28.5 40.5H4.5C4.5 40.5 0.5 40.5 0.5 36.5V4.5C0.5 4.5 0.5 0.5 4.5 0.5Z" stroke="#214759" stroke-linecap="round" stroke-linejoin="round"/>
<path d="M6.5 26.5C6.5 29.1522 7.55357 31.6957 9.42893 33.5711C11.3043 35.4464 13.8478 36.5 16.5 36.5C19.1522 36.5 21.6957 35.4464 23.5711 33.5711C25.4464 31.6957 26.5 29.1522 26.5 26.5C26.5 23.8478 25.4464 21.3043 23.5711 19.4289C21.6957 17.5536 19.1522 16.5 16.5 16.5C13.8478 16.5 11.3043 17.5536 9.42893 19.4289C7.55357 21.3043 6.5 23.8478 6.5 26.5Z" stroke="#214759" stroke-linecap="round" stroke-linejoin="round"/>
<path d="M12.5 26.5C12.5 27.5609 12.9214 28.5783 13.6716 29.3284C14.4217 30.0786 15.4391 30.5 16.5 30.5C17.5609 30.5 18.5783 30.0786 19.3284 29.3284C20.0786 28.5783 20.5 27.5609 20.5 26.5C20.5 25.4391 20.0786 24.4217 19.3284 23.6716C18.5783 22.9214 17.5609 22.5 16.5 22.5C15.4391 22.5 14.4217 22.9214 13.6716 23.6716C12.9214 24.4217 12.5 25.4391 12.5 26.5Z" stroke="#214759" stroke-linecap="round" stroke-linejoin="round"/>
<path d="M12.5 8.5C12.5 9.56087 12.9214 10.5783 13.6716 11.3284C14.4217 12.0786 15.4391 12.5 16.5 12.5C17.5609 12.5 18.5783 12.0786 19.3284 11.3284C20.0786 10.5783 20.5 9.56087 20.5 8.5C20.5 7.43913 20.0786 6.42172 19.3284 5.67157C18.5783 4.92143 17.5609 4.5 16.5 4.5C15.4391 4.5 14.4217 4.92143 13.6716 5.67157C12.9214 6.42172 12.5 7.43913 12.5 8.5Z" stroke="#214759" stroke-linecap="round" stroke-linejoin="round"/>
</svg>
