<svg width="41" height="41" viewBox="0 0 41 41" fill="none" xmlns="http://www.w3.org/2000/svg">
<path d="M35.2704 24.1515C35.2962 24.025 35.2936 23.8943 35.2626 23.769C35.2316 23.6436 35.1731 23.5267 35.0914 23.4268C35.0096 23.3269 34.9066 23.2464 34.7899 23.1913C34.6731 23.1361 34.5456 23.1077 34.4165 23.1079H1.37152C1.24241 23.1077 1.11485 23.1361 0.998115 23.1913C0.881377 23.2464 0.778385 23.3269 0.696617 23.4268C0.61485 23.5267 0.556358 23.6436 0.525388 23.769C0.494418 23.8943 0.491747 24.025 0.51757 24.1515C1.04104 26.8635 2.26289 29.3921 4.06245 31.4875C5.86201 33.5829 8.17703 35.1727 10.7789 36.0998C10.8911 36.1398 10.9939 36.2024 11.081 36.2837C11.168 36.365 11.2374 36.4634 11.2848 36.5726C11.3323 36.6819 11.3568 36.7997 11.3568 36.9188C11.3568 37.038 11.3324 37.1558 11.285 37.2651C10.9601 38.0115 10.7914 38.8164 10.7893 39.6304C10.7893 39.861 10.8809 40.0822 11.044 40.2453C11.2071 40.4084 11.4283 40.5 11.6589 40.5H24.129C24.3597 40.5 24.5809 40.4084 24.7439 40.2453C24.907 40.0822 24.9986 39.861 24.9986 39.6304C24.9983 38.8136 24.8301 38.0056 24.5047 37.2564C24.4568 37.1467 24.4321 37.0283 24.4321 36.9086C24.4321 36.7888 24.4568 36.6704 24.5047 36.5607C24.5527 36.4517 24.6223 36.3536 24.7093 36.2723C24.7963 36.191 24.8988 36.1282 25.0108 36.0876C27.6108 35.1613 29.9245 33.5733 31.7236 31.4802C33.5227 29.387 34.7452 26.8611 35.2704 24.1515Z" stroke="#214759" stroke-linecap="round" stroke-linejoin="round"/>
<path d="M40.3472 7.85334C40.4414 8.06161 40.4937 8.28642 40.501 8.51492C40.5083 8.74342 40.4705 8.97111 40.3898 9.18499C40.309 9.39886 40.1869 9.59471 40.0303 9.76133C39.8738 9.92795 39.686 10.0621 39.4776 10.156L29.5815 14.6502C29.4256 14.7213 29.2573 14.7609 29.0861 14.7669C28.9149 14.7729 28.7442 14.745 28.5838 14.6849C28.4233 14.6248 28.2763 14.5337 28.1512 14.4167C28.026 14.2997 27.9252 14.1592 27.8544 14.0032L24.6178 6.87243C24.5467 6.71658 24.507 6.54823 24.501 6.37703C24.4951 6.20583 24.5229 6.03513 24.583 5.87471C24.6431 5.71429 24.7343 5.5673 24.8513 5.44215C24.9682 5.31701 25.1088 5.21616 25.2648 5.14539L35.1678 0.654762C35.3761 0.560488 35.6009 0.508201 35.8294 0.50089C36.0579 0.493579 36.2856 0.531388 36.4994 0.612155C36.7133 0.692922 36.9092 0.815062 37.0758 0.971588C37.2424 1.12811 37.3765 1.31595 37.4705 1.52437L40.3472 7.85334Z" stroke="#214759" stroke-linecap="round" stroke-linejoin="round"/>
<path d="M17.3357 11.5839L19.5306 10.1717" stroke="#214759" stroke-linecap="round" stroke-linejoin="round"/>
<path d="M20.8142 18.5408L22.1395 17.1285" stroke="#214759" stroke-linecap="round" stroke-linejoin="round"/>
<path d="M16.9218 16.2589L18.7775 14.6467" stroke="#214759" stroke-linecap="round" stroke-linejoin="round"/>
</svg>
