<svg width="41" height="41" viewBox="0 0 41 41" fill="none" xmlns="http://www.w3.org/2000/svg">
<path d="M40.5 40.5H0.5" stroke="#214759" stroke-linecap="round" stroke-linejoin="round"/>
<path d="M0.5 12.6739H11.8044C12.035 12.6739 12.2562 12.7655 12.4192 12.9286C12.5823 13.0917 12.6739 13.3128 12.6739 13.5435V19.6304H18.7609C18.8751 19.6304 18.9881 19.6529 19.0936 19.6966C19.1991 19.7403 19.295 19.8044 19.3758 19.8851C19.4565 19.9658 19.5206 20.0617 19.5643 20.1672C19.608 20.2727 19.6304 20.3858 19.6304 20.5V26.5869H25.7174C25.948 26.5869 26.1692 26.6785 26.3323 26.8416C26.4954 27.0047 26.587 27.2259 26.587 27.4565V33.5435H32.6739C32.9046 33.5435 33.1257 33.6351 33.2888 33.7981C33.4519 33.9612 33.5435 34.1824 33.5435 34.413V40.5" stroke="#214759" stroke-linecap="round" stroke-linejoin="round"/>
<path d="M21.3695 0.5L40.5 19.6304" stroke="#214759" stroke-linecap="round" stroke-linejoin="round"/>
<path d="M40.5001 10.9348V19.6304H31.8044" stroke="#214759" stroke-linecap="round" stroke-linejoin="round"/>
<path d="M9.5 12.5V0.5" stroke="#214759" stroke-linecap="round"/>
</svg>
