<svg width="41" height="41" viewBox="0 0 41 41" fill="none" xmlns="http://www.w3.org/2000/svg">
<path d="M40.5 17.6457L20.5 0.5L0.5 17.6457" stroke="#214759" stroke-miterlimit="10" stroke-linecap="round" stroke-linejoin="round"/>
<path d="M8.41424 40.5H2.94757V16" stroke="#214759" stroke-miterlimit="10" stroke-linecap="round" stroke-linejoin="round"/>
<path d="M32.5858 40.5H38.0524V16" stroke="#214759" stroke-miterlimit="10" stroke-linecap="round" stroke-linejoin="round"/>
<path d="M10.6227 21.6484C9.5292 21.7474 8.08554 21.4935 7.14388 21.2855C6.62977 21.172 6.35414 20.6102 6.57908 20.1341C7.12748 18.9732 8.15613 17.0588 9.1784 16.5573C10.6735 15.8238 12.4195 16.3177 13.0781 17.6602" stroke="#214759" stroke-miterlimit="10" stroke-linecap="round" stroke-linejoin="round"/>
<path d="M30.8151 21.6484C31.9086 21.7474 33.3522 21.4934 34.2938 21.2855C34.8079 21.172 35.0835 20.6102 34.8586 20.1341C34.3102 18.9732 33.2815 17.0588 32.2592 16.5573C30.7641 15.8238 29.0181 16.3177 28.3595 17.6602C28.3053 17.7706 28.2602 17.8833 28.2238 17.9976" stroke="#214759" stroke-miterlimit="10" stroke-linecap="round" stroke-linejoin="round"/>
<path d="M13.213 26.2051C13.3501 25.9411 13.4605 25.7043 13.5436 25.5153C13.6633 25.2431 13.922 25.0595 14.2182 25.036C15.3405 24.9468 18.1674 24.4652 20.1799 21.9129C20.421 21.607 20.8849 21.6096 21.1262 21.9153C23.1404 24.4679 25.9695 24.9478 27.0892 25.0362C27.3849 25.0596 27.6422 25.246 27.7616 25.5176C27.9208 25.8799 27.959 26.0468 28.3151 26.6154" stroke="#214759" stroke-miterlimit="10" stroke-linecap="round" stroke-linejoin="round"/>
<path d="M23.4445 15.1458C22.5553 14.8874 21.6191 14.7446 20.6521 14.7343C18.0873 14.7616 15.7394 15.7209 13.9085 17.2991V17.2972C12.3274 18.6577 11.1367 20.4937 10.5308 22.5259H10.5316C10.2227 23.5588 10.0555 24.6561 10.0555 25.7938C10.0555 25.8459 10.0558 25.8978 10.0566 25.9496" stroke="#214759" stroke-miterlimit="10" stroke-linecap="round" stroke-linejoin="round"/>
<path d="M31.2477 25.9497C31.2484 25.898 31.2487 25.8461 31.2487 25.7939C31.2487 24.6562 31.0815 23.5589 30.7726 22.526H30.7734C30.1675 20.4938 28.9769 18.6578 27.3957 17.2973V17.2992C26.8844 16.8585 26.3327 16.4659 25.7473 16.1286" stroke="#214759" stroke-miterlimit="10" stroke-linecap="round" stroke-linejoin="round"/>
<path d="M13.1174 26.3851C13.2991 26.0495 13.4415 25.7475 13.543 25.5166C13.6633 25.2429 13.9245 25.0595 14.2225 25.0357C15.3554 24.9451 18.2083 24.4554 20.2207 21.8608C20.44 21.5779 20.8638 21.5775 21.0832 21.8604C23.0959 24.4557 25.9497 24.9452 27.0822 25.0357C27.3801 25.0595 27.6412 25.2437 27.7614 25.5174C27.8963 25.8242 28.0252 26.2108 28.1995 26.6215" stroke="#214759" stroke-miterlimit="10" stroke-linecap="round" stroke-linejoin="round"/>
<path d="M30.3406 30.6318C28.5984 34.268 24.9444 36.7343 20.7188 36.7343C16.5571 36.7343 12.9499 34.3421 11.1773 30.7961" stroke="#214759" stroke-miterlimit="10" stroke-linecap="round" stroke-linejoin="round"/>
<path d="M11.3505 30.4952C10.0953 30.4952 9.07773 29.4777 9.07773 28.2224C9.07773 26.9672 10.0953 25.9496 11.3505 25.9496C12.121 25.9496 12.8019 26.333 13.2129 26.9194" stroke="#214759" stroke-miterlimit="10" stroke-linecap="round" stroke-linejoin="round"/>
<path d="M30.0871 30.4952C31.3423 30.4952 32.3599 29.4777 32.3599 28.2224C32.3599 26.9672 31.3423 25.9496 30.0871 25.9496C29.3166 25.9496 28.6357 26.333 28.2247 26.9194" stroke="#214759" stroke-miterlimit="10" stroke-linecap="round" stroke-linejoin="round"/>
<path d="M17.2998 27.0944V27.6455" stroke="#214759" stroke-miterlimit="10" stroke-linecap="round" stroke-linejoin="round"/>
<path d="M24.1377 27.0944V27.6455" stroke="#214759" stroke-miterlimit="10" stroke-linecap="round" stroke-linejoin="round"/>
<path d="M23.3442 31.0893C22.9286 31.8311 21.9025 32.3559 20.7027 32.3559C19.5328 32.3559 18.5281 31.857 18.0934 31.1444" stroke="#214759" stroke-miterlimit="10" stroke-linecap="round" stroke-linejoin="round"/>
</svg>
