<svg width="37" height="41" viewBox="0 0 37 41" fill="none" xmlns="http://www.w3.org/2000/svg">
<path d="M16.245 18.6521V20.8541C16.245 21.4288 16.6023 21.9438 17.1402 22.1434L21.8308 23.8867" stroke="#214759" stroke-miterlimit="10" stroke-linecap="round" stroke-linejoin="round"/>
<path d="M8.41741 18.6512V20.8541C8.41741 21.4287 8.06092 21.9438 7.52298 22.1434L2.33784 24.071C1.23305 24.4814 0.5 25.5373 0.5 26.718V40.5" stroke="#214759" stroke-miterlimit="10" stroke-linecap="round" stroke-linejoin="round"/>
<path d="M6.01929 40.4999V29.8472C6.01929 27.0038 7.89005 24.5989 10.4642 23.7997" stroke="#214759" stroke-miterlimit="10" stroke-linecap="round" stroke-linejoin="round"/>
<path d="M14.1984 23.7997C16.7733 24.5981 18.644 27.0038 18.644 29.8472V40.4999" stroke="#214759" stroke-miterlimit="10" stroke-linecap="round" stroke-linejoin="round"/>
<path d="M7.76978 22.0211C8.82543 23.2767 10.4755 24.0858 12.3314 24.0858C14.1873 24.0858 15.8373 23.2767 16.893 22.0211" stroke="#214759" stroke-miterlimit="10" stroke-linecap="round" stroke-linejoin="round"/>
<path d="M19.6482 10.5V5.95542C19.6482 5.80521 19.7169 5.66825 19.8271 5.58946C20.202 5.32439 20.4522 4.84725 20.4522 4.30163C20.4522 3.43793 19.8264 2.75315 19.0893 2.79365C18.976 2.79954 18.8646 2.74652 18.792 2.64491C18.5042 2.2414 18.0695 1.98369 17.5812 1.98369C17.3877 1.98369 17.2024 2.02566 17.0312 2.10003C16.8727 2.16924 16.6963 2.10592 16.597 1.94687C16.2724 1.42629 15.7427 1.08685 15.145 1.08685C14.8369 1.08685 14.5466 1.17742 14.2932 1.33646C14.1417 1.43145 13.9539 1.39537 13.8432 1.24221C13.5153 0.788639 13.0226 0.5 12.4713 0.5C11.9201 0.5 11.4273 0.788639 11.0995 1.24221C10.9887 1.39537 10.8003 1.43145 10.6488 1.33646C10.3954 1.17742 10.1058 1.08685 9.79705 1.08685C9.19929 1.08685 8.67029 1.42629 8.34563 1.94687C8.24633 2.10592 8.06999 2.16924 7.91148 2.10003C7.74024 2.02492 7.555 1.98369 7.36084 1.98369C6.87321 1.98369 6.43843 2.2414 6.15005 2.64491C6.07748 2.74652 5.96672 2.79954 5.85341 2.79365C5.11688 2.75388 4.49048 3.43646 4.49048 4.30163C4.49048 4.84725 4.74066 5.32439 5.11497 5.58946C5.22573 5.66825 5.29448 5.80521 5.29448 5.95542V10.5" stroke="#214759" stroke-miterlimit="10" stroke-linecap="round" stroke-linejoin="round"/>
<path d="M6.01921 14.4123H4.37246C3.43949 14.4123 2.68396 13.6549 2.68396 12.7197C2.68396 11.7853 3.43949 11.028 4.37246 11.028H6.01921" stroke="#214759" stroke-miterlimit="10" stroke-linecap="round" stroke-linejoin="round"/>
<path d="M18.644 11.028H20.2908C21.223 11.028 21.9793 11.7853 21.9793 12.7197C21.9793 13.6549 21.223 14.4123 20.2908 14.4123H18.644" stroke="#214759" stroke-miterlimit="10" stroke-linecap="round" stroke-linejoin="round"/>
<path d="M16.7123 6.32251C17.7793 6.32251 18.6443 7.18955 18.6443 8.25909V14.6728C18.6443 17.618 14.4315 20.374 12.3314 20.374C10.2312 20.374 6.01929 17.618 6.01929 14.6728V8.25909C6.01929 7.18955 6.88425 6.32251 7.95123 6.32251H16.7123Z" stroke="#214759" stroke-miterlimit="10" stroke-linecap="round" stroke-linejoin="round"/>
<path d="M10.6117 15.0877C11.5146 16.0554 13.1485 16.0554 14.0513 15.0877" stroke="#214759" stroke-miterlimit="10" stroke-linecap="round" stroke-linejoin="round"/>
<path d="M6.01883 31.6172H0.500488" stroke="#214759" stroke-miterlimit="10" stroke-linecap="round" stroke-linejoin="round"/>
<path d="M18.644 31.6171H21.3089" stroke="#214759" stroke-miterlimit="10" stroke-linecap="round" stroke-linejoin="round"/>
<path d="M21.6127 40.1104C21.4047 37.9159 21.2947 35.6349 21.2947 33.2934C21.2947 19.4613 23.8817 14.4508 27.7504 9.8586C28.3508 9.14593 29.444 9.14593 30.0444 9.8586C30.7919 10.7458 31.4915 11.6487 32.1339 12.6279C32.5513 13.3476 33.4144 14.8467 33.5274 15.0857C35.3862 18.9396 36.4999 24.2175 36.4999 33.2935C36.4999 35.6349 36.39 37.9159 36.1819 40.1104" stroke="#214759" stroke-miterlimit="10" stroke-linecap="round" stroke-linejoin="round"/>
<path d="M28.8971 40.5V9.32416" stroke="#214759" stroke-miterlimit="10" stroke-linecap="round" stroke-linejoin="round"/>
</svg>
