<svg width="40" height="40" viewBox="0 0 40 40" fill="none" xmlns="http://www.w3.org/2000/svg">
<path d="M30.8382 17.5394C29.4527 19.0091 27.2064 19.0091 25.8209 17.5394C24.4355 16.0698 24.4355 13.6871 25.8209 12.2174C27.2064 10.7479 29.4527 10.7479 30.8382 12.2174C32.2236 13.6871 32.2236 16.0698 30.8382 17.5394Z" stroke="#214759" stroke-miterlimit="10" stroke-linecap="round" stroke-linejoin="round"/>
<path d="M29.5005 23.9511L18.0721 11.8286L23.8365 8.16021C24.9569 7.44645 25.3203 5.90547 24.6482 4.71789C23.9827 3.53207 22.5234 3.14488 21.403 3.85687L14.3377 8.35422C13.3946 8.95449 12.7781 9.96361 12.6441 11.1209C12.5094 12.279 12.8793 13.4163 13.6567 14.2409L16.7663 17.5395L10.6105 24.0692" stroke="#214759" stroke-miterlimit="10" stroke-linecap="round" stroke-linejoin="round"/>
<path d="M1 29.0115C3.61246 31.7826 7.92696 31.7826 10.5394 29.0115C13.1519 31.7826 17.3875 31.7826 20 29.0115C22.6125 31.7826 26.8481 31.7826 29.4606 29.0115C32.073 31.7826 36.3875 31.7826 39 29.0115" stroke="#214759" stroke-miterlimit="10" stroke-linecap="round" stroke-linejoin="round"/>
<path d="M1 34.4217C3.61246 37.1928 7.92696 37.1928 10.5394 34.4217C13.1519 37.1928 17.3875 37.1928 20 34.4217C22.6125 37.1928 26.8481 37.1928 29.4606 34.4217C32.073 37.1928 36.3875 37.1928 39 34.4217" stroke="#214759" stroke-miterlimit="10" stroke-linecap="round" stroke-linejoin="round"/>
<path d="M1 23.9939C3.61246 26.765 7.92696 26.765 10.5394 23.9939C13.1519 26.765 17.3875 26.765 20 23.9939C22.6125 26.765 26.8481 26.765 29.4606 23.9939C32.073 26.765 36.3875 26.765 39 23.9939" stroke="#214759" stroke-miterlimit="10" stroke-linecap="round" stroke-linejoin="round"/>
</svg>
