<svg width="37" height="41" viewBox="0 0 37 41" fill="none" xmlns="http://www.w3.org/2000/svg">
<path d="M0.5 17.3334C0.5 10.9381 0.5 7.74056 1.25504 6.66482C2.01006 5.58908 5.01664 4.55992 11.0298 2.50158L12.1754 2.10944C15.31 1.03648 16.8772 0.5 18.5 0.5C20.1228 0.5 21.69 1.03648 24.8246 2.10944L25.9702 2.50158C31.9834 4.55992 34.99 5.58908 35.745 6.66482C36.5 7.74056 36.5 10.9381 36.5 17.3334V20.4828C36.5 31.7588 28.022 37.231 22.7028 39.5546C21.26 40.1848 20.5386 40.5 18.5 40.5C16.4614 40.5 15.74 40.1848 14.2971 39.5546C8.97792 37.231 0.5 31.7588 0.5 20.4828V17.3334Z" stroke="#214759" stroke-linecap="round"/>
<path d="M9.07143 11.5H27.9286L30.5 14.5H6.5L9.07143 11.5Z" stroke="#214759" stroke-linecap="round" stroke-linejoin="round"/>
<path d="M9.5 14.5L7.5 26.5" stroke="#214759" stroke-linecap="round"/>
<path d="M27.5 14.5L29.5 26.5" stroke="#214759" stroke-linecap="round"/>
<path d="M9.5 19.5H27.5" stroke="#214759" stroke-linecap="round"/>
</svg>
