<svg width="41" height="41" viewBox="0 0 41 41" fill="none" xmlns="http://www.w3.org/2000/svg">
<path d="M40.4988 30.4477V36.4693C40.501 37.0283 40.3863 37.5816 40.1619 38.0938C39.9375 38.606 39.6084 39.0658 39.1957 39.4437C38.7829 39.8216 38.2957 40.1093 37.7651 40.2884C37.2344 40.4675 36.6722 40.534 36.1144 40.4837C29.9256 39.8126 23.9809 37.702 18.7578 34.3216C13.8984 31.2399 9.77853 27.1281 6.69067 22.2784C3.29172 17.042 1.17648 11.0802 0.516324 4.8759C0.466066 4.32084 0.532162 3.76142 0.710405 3.23325C0.888647 2.70509 1.17513 2.21974 1.55162 1.80813C1.9281 1.39652 2.38634 1.06765 2.89715 0.842467C3.40797 0.617284 3.96016 0.500719 4.51859 0.500195H10.5522C11.5282 0.490607 12.4744 0.835555 13.2145 1.47074C13.9545 2.10593 14.4379 2.98802 14.5745 3.95259C14.8292 5.87964 15.3015 7.77175 15.9824 9.59283C16.253 10.3113 16.3115 11.092 16.1511 11.8427C15.9907 12.5933 15.6181 13.2823 15.0773 13.828L12.5231 16.3772C15.3862 21.4023 19.5552 25.563 24.5903 28.4204L27.1445 25.8713C27.6913 25.3316 28.3817 24.9597 29.1338 24.7996C29.8859 24.6395 30.6682 24.698 31.3881 24.968C33.2128 25.6476 35.1086 26.1189 37.0395 26.3731C38.0165 26.5106 38.9087 27.0017 39.5465 27.753C40.1843 28.5043 40.5232 29.4633 40.4988 30.4477Z" stroke="#214759" stroke-linecap="round" stroke-linejoin="round"/>
</svg>
