<svg width="41" height="41" viewBox="0 0 41 41" fill="none" xmlns="http://www.w3.org/2000/svg">
<path d="M34.6413 28.784C37.877 28.784 40.5 31.407 40.5 34.6427C40.5 37.8783 37.877 40.5014 34.6413 40.5014C31.4057 40.5014 28.7825 37.8783 28.7825 34.6427C28.7825 31.407 31.4057 28.784 34.6413 28.784Z" stroke="#214759" stroke-miterlimit="10" stroke-linecap="round" stroke-linejoin="round"/>
<path d="M33.2031 21.218C27.806 26.6151 19.8252 27.3848 15.3775 22.9371C10.9298 18.4895 11.6995 10.5087 17.0966 5.11154C22.4937 -0.285557 30.4746 -1.05527 34.9223 3.39245C39.3699 7.84008 38.6002 15.8208 33.2031 21.218Z" stroke="#214759" stroke-miterlimit="10" stroke-linecap="round" stroke-linejoin="round"/>
<path d="M8.92307 25.9517L0.5 34.3748L4.02091 37.8957L12.444 29.4726L8.92307 25.9517Z" stroke="#214759" stroke-miterlimit="10" stroke-linecap="round" stroke-linejoin="round"/>
<path d="M12.6955 17.802C12.0242 23.0505 8.92358 25.9517 8.92358 25.9517" stroke="#214759" stroke-miterlimit="10" stroke-linecap="round" stroke-linejoin="round"/>
<path d="M12.4449 29.4731C12.4449 29.4731 15.3298 26.3219 20.56 25.6289" stroke="#214759" stroke-miterlimit="10" stroke-linecap="round" stroke-linejoin="round"/>
<path d="M13.6448 20.5623L18.1193 16.0879L18.9884 15.2188L23.096 11.1111L27.2038 7.00348L28.0722 6.13494L32.5472 1.66" stroke="#214759" stroke-miterlimit="10" stroke-linecap="round" stroke-linejoin="round"/>
<path d="M17.7526 24.67L22.227 20.1955L23.096 19.3265L27.2038 15.2189L31.3114 11.1112L32.1799 10.2427L36.6548 5.76767" stroke="#214759" stroke-miterlimit="10" stroke-linecap="round" stroke-linejoin="round"/>
<path d="M21.9483 1.74815L25.15 4.94981L29.2576 9.05744L33.3652 13.1652L36.5663 16.3661" stroke="#214759" stroke-miterlimit="10" stroke-linecap="round" stroke-linejoin="round"/>
<path d="M17.0966 5.1118L21.0423 9.05744L25.15 13.1652L29.2576 17.2729L33.2028 21.218" stroke="#214759" stroke-miterlimit="10" stroke-linecap="round" stroke-linejoin="round"/>
<path d="M13.733 9.96354L16.9346 13.1652L21.0423 17.2728L25.15 21.3805L28.351 24.5815" stroke="#214759" stroke-miterlimit="10" stroke-linecap="round" stroke-linejoin="round"/>
<path d="M29.2361 36.9051C30.3997 35.1591 32.3864 34.0097 34.6411 34.0097C36.8967 34.0097 38.8834 35.1599 40.0461 36.9059" stroke="#214759" stroke-miterlimit="10" stroke-linecap="round" stroke-linejoin="round"/>
</svg>
