<svg width="41" height="41" viewBox="0 0 41 41" fill="none" xmlns="http://www.w3.org/2000/svg">
<path d="M30.6069 6.74218C30.5244 5.67426 30.4313 4.75171 30.3467 4.01341C30.2017 2.74776 29.4436 1.70291 28.2152 1.42777C26.2992 0.998615 22.5853 0.5 15.6714 0.5C8.7574 0.5 5.04352 0.998615 3.12748 1.42777C1.89911 1.70291 1.14096 2.74776 0.996018 4.01341C0.776821 5.92734 0.5 9.07944 0.5 12.7923C0.5 16.8906 1.76189 20.8333 4.05059 24.0282" stroke="#214759" stroke-linecap="round" stroke-linejoin="round"/>
<path d="M12.1105 10.1739C12.5739 8.98945 13.5732 8.17893 14.8301 8.23511C16.7905 8.32288 20.5052 8.81477 27.1837 10.6271C33.862 12.4395 37.3219 13.8946 39.063 14.8114C40.1793 15.3991 40.6446 16.6071 40.4611 17.8676C40.1837 19.7738 39.6456 22.8911 38.6967 26.4773C36.9243 33.1772 31.7742 38.499 25.0811 39.9687C22.8452 40.4596 20.7289 40.6902 19.3304 40.3107C17.9318 39.9311 16.2129 38.6598 14.519 37.1024C9.44815 32.4402 7.61536 25.2235 9.38794 18.5237C10.3367 14.9374 11.4097 11.9652 12.1105 10.1739Z" stroke="#214759" stroke-linecap="round" stroke-linejoin="round"/>
<path d="M27.4563 20.2876C27.4563 20.2876 29.3221 18.8439 31.6683 20.2159C34.0145 21.5877 33.7129 23.946 33.7129 23.946" stroke="#214759" stroke-linecap="round" stroke-linejoin="round"/>
<path d="M22.1781 18.8548C22.1781 18.8548 21.2751 16.6596 18.5659 16.6596C15.8567 16.6596 14.9537 18.8548 14.9537 18.8548" stroke="#214759" stroke-linecap="round" stroke-linejoin="round"/>
<path d="M28.932 29.9913C27.0087 32.4519 23.338 34.4385 21.0482 33.8171C18.7585 33.1957 16.5601 29.6165 16.1094 26.5115" stroke="#214759" stroke-linecap="round" stroke-linejoin="round"/>
</svg>
