<svg width="41" height="41" viewBox="0 0 41 41" fill="none" xmlns="http://www.w3.org/2000/svg">
<path d="M20.5009 0.500002V2.45782" stroke="#214759" stroke-miterlimit="10" stroke-linecap="round" stroke-linejoin="round"/>
<path d="M18.3922 2.45782H22.6097" stroke="#214759" stroke-miterlimit="10" stroke-linecap="round" stroke-linejoin="round"/>
<path d="M23.0883 17.912V38.382H17.9137V17.912" stroke="#214759" stroke-miterlimit="10" stroke-linecap="round" stroke-linejoin="round"/>
<path d="M12.3009 9.44011C9.94634 10.7979 7.29218 12.0317 4.45178 13.1409H36.55C29.4305 10.3608 23.4749 6.7998 20.5008 2.45783C19.0705 4.54612 16.9491 6.45316 14.3416 8.18015" stroke="#214759" stroke-miterlimit="10" stroke-linecap="round" stroke-linejoin="round"/>
<path d="M20.501 2.45783C19.6822 6.7998 18.0426 10.3608 16.0824 13.1409H24.9196C22.9595 10.3608 21.3198 6.7998 20.501 2.45783Z" stroke="#214759" stroke-miterlimit="10" stroke-linecap="round" stroke-linejoin="round"/>
<path d="M13.1996 23.5541L14.087 23.2791C14.2802 23.2193 14.4476 23.4256 14.3491 23.6023L13.7854 24.6137C13.67 24.8207 13.6413 25.0651 13.7057 25.2932L14.4897 28.0738C14.6288 28.5674 14.3176 29.0748 13.8146 29.1744C13.62 29.2129 13.418 29.1844 13.2416 29.0936L11.6 28.2484C11.3003 28.094 10.9368 28.274 10.8775 28.6059L10.5443 30.4744C10.5394 30.5014 10.5338 30.528 10.5273 30.5543C10.348 31.2779 9.5095 31.6318 8.85227 31.28C7.35546 30.4788 5.33381 30.1958 3.67892 30.5267C3.18009 30.6264 2.58355 30.3505 2.38331 29.8829C2.34235 29.7869 2.31321 29.6847 2.29792 29.5778L2.20971 28.9638C1.99619 27.477 3.27329 26.2033 4.75949 26.4207L8.15795 26.918C9.00366 25.2692 9.893 23.7642 11.6412 23.7711C12.169 23.7732 12.6952 23.7103 13.1996 23.5541Z" stroke="#214759" stroke-miterlimit="10" stroke-linecap="round" stroke-linejoin="round"/>
<path d="M10.5787 30.2817L12.7126 32.1887L11.3963 33.6359" stroke="#214759" stroke-miterlimit="10" stroke-linecap="round" stroke-linejoin="round"/>
<path d="M9.61669 31.5312L10.0556 32.9587L9.5647 34.5023" stroke="#214759" stroke-miterlimit="10" stroke-linecap="round" stroke-linejoin="round"/>
<path d="M3.78002 30.6333L2.79016 32.2017L3.30911 33.8517" stroke="#214759" stroke-miterlimit="10" stroke-linecap="round" stroke-linejoin="round"/>
<path d="M4.8252 30.497L5.27163 32.4952" stroke="#214759" stroke-miterlimit="10" stroke-linecap="round" stroke-linejoin="round"/>
<path d="M1.81133 25.6649C1.81133 25.6649 1.5224 27.1484 2.51749 27.4699" stroke="#214759" stroke-miterlimit="10" stroke-linecap="round" stroke-linejoin="round"/>
<path d="M6.2915 26.645V16.766" stroke="#214759" stroke-miterlimit="10" stroke-linecap="round" stroke-linejoin="round"/>
<path d="M35.7234 22.2619L36.4837 21.728C36.6492 21.6118 36.8718 21.757 36.8322 21.9553L36.6059 23.0909C36.5596 23.3233 36.6071 23.5647 36.7383 23.7621L38.3372 26.1683C38.621 26.5955 38.4803 27.1738 38.032 27.4228C37.8586 27.5192 37.6576 27.554 37.4619 27.5218L35.6403 27.2205C35.3077 27.1655 35.0167 27.4482 35.0621 27.7823L35.3179 29.6631C35.3216 29.6902 35.3243 29.7173 35.3262 29.7443C35.3774 30.488 34.6879 31.082 33.9544 30.9487C32.284 30.645 30.2729 30.9956 28.7993 31.8178C28.3549 32.0657 27.7026 31.9861 27.3687 31.6023C27.3003 31.5236 27.2411 31.4352 27.1938 31.3381L26.9216 30.7807C26.2625 29.4311 27.0875 27.827 28.5688 27.5784L31.956 27.0096C32.2554 25.1809 32.6405 23.4758 34.3065 22.9462C34.8096 22.7863 35.2913 22.5653 35.7234 22.2619Z" stroke="#214759" stroke-miterlimit="10" stroke-linecap="round" stroke-linejoin="round"/>
<path d="M35.2915 29.469L37.9073 30.6299L37.0982 32.4109" stroke="#214759" stroke-miterlimit="10" stroke-linecap="round" stroke-linejoin="round"/>
<path d="M34.7589 30.9534L35.6144 32.1775L35.6204 33.7973" stroke="#214759" stroke-miterlimit="10" stroke-linecap="round" stroke-linejoin="round"/>
<path d="M28.9282 31.8883L28.4669 33.6847L29.4668 35.0961" stroke="#214759" stroke-miterlimit="10" stroke-linecap="round" stroke-linejoin="round"/>
<path d="M29.8812 31.4381L30.9188 33.2032" stroke="#214759" stroke-miterlimit="10" stroke-linecap="round" stroke-linejoin="round"/>
<path d="M25.531 27.7629C25.531 27.7629 25.7108 29.2635 26.7566 29.2643" stroke="#214759" stroke-miterlimit="10" stroke-linecap="round" stroke-linejoin="round"/>
<path d="M30.6932 26.8232V16.766" stroke="#214759" stroke-miterlimit="10" stroke-linecap="round" stroke-linejoin="round"/>
<path d="M18.501 21.3915H22.501" stroke="#214759" stroke-miterlimit="10" stroke-linecap="round" stroke-linejoin="round"/>
<path d="M18.501 35.3915H22.501" stroke="#214759" stroke-miterlimit="10" stroke-linecap="round" stroke-linejoin="round"/>
<path d="M8.64316 38.3819H3.86425C3.4187 38.3819 3.0575 38.7432 3.0575 39.1888V40.5H37.9444V39.1888C37.9444 38.7432 37.5832 38.3819 37.1377 38.3819H10.9772" stroke="#214759" stroke-miterlimit="10" stroke-linecap="round" stroke-linejoin="round"/>
<path d="M28.4776 16.675C31.2818 16.4085 34.2919 16.5687 37.5064 17.1522C37.6122 17.1714 37.7202 17.1305 37.7858 17.0454L40.4404 13.6047C40.5864 13.4154 40.4515 13.1409 40.2125 13.1409H0.789412C0.550378 13.1409 0.415409 13.4154 0.561485 13.6047L3.21605 17.0454C3.28164 17.1305 3.38957 17.1714 3.4954 17.1522C9.95213 15.9801 15.5848 16.5149 20.3783 18.7877C20.456 18.8246 20.5458 18.8246 20.6236 18.7877C22.3543 17.9671 24.1949 17.3743 26.1436 17.0054" stroke="#214759" stroke-miterlimit="10" stroke-linecap="round" stroke-linejoin="round"/>
<path d="M0.500977 40.5H40.5009" stroke="#214759" stroke-miterlimit="10" stroke-linecap="round" stroke-linejoin="round"/>
</svg>
