<svg width="41" height="41" viewBox="0 0 41 41" fill="none" xmlns="http://www.w3.org/2000/svg">
<path d="M9.74384 15.6638C9.6917 14.8333 9.659 13.9933 9.659 13.1452C9.659 12.0125 9.71734 10.8941 9.80242 9.79339C7.88041 9.37423 6.10864 8.03658 6.10864 6.13114C6.10864 3.72995 8.3477 1.96791 10.706 1.4091C15.8215 0.196968 20.666 0.196968 25.7815 1.4091C28.1398 1.96791 30.3787 3.72995 30.3787 6.13114C30.3787 8.03677 28.6067 9.37448 26.6845 9.79351C26.7696 10.8942 26.8279 12.0125 26.8279 13.1452C26.8279 13.9933 26.7952 14.8333 26.7431 15.6638" stroke="#214759" stroke-linecap="round" stroke-linejoin="round"/>
<path d="M1.05718 34.2275C1.51129 37.2913 4.10562 39.6599 7.22229 39.9161C10.7878 40.2092 14.4729 40.5 18.2438 40.5C22.0147 40.5 25.6998 40.2092 29.2653 39.9161C32.382 39.6599 34.9763 37.2913 35.4306 34.2275C35.7363 32.164 35.9876 30.0482 35.9876 27.8929C35.9876 25.7377 35.7363 23.6221 35.4306 21.5586C34.9763 18.4946 32.382 16.1261 29.2653 15.8699C25.6998 15.5767 22.0147 15.286 18.2438 15.286C14.4729 15.286 10.7878 15.5767 7.22229 15.8699C4.10562 16.1261 1.51129 18.4946 1.05718 21.5586C0.75132 23.6221 0.5 25.7377 0.5 27.8929C0.5 30.0482 0.75132 32.164 1.05718 34.2275Z" stroke="#214759" stroke-linecap="round" stroke-linejoin="round"/>
<path d="M0.614712 30.5461C0.994975 30.6382 1.38646 30.6986 1.78575 30.7241C2.1264 30.7458 2.46799 30.7677 2.81044 30.7897C7.56313 31.0954 12.4847 31.4117 17.526 31.4117C22.5673 31.4117 27.4889 31.0954 32.2417 30.7897C32.584 30.7677 32.9257 30.7458 33.2664 30.7241C34.2065 30.664 35.1039 30.411 35.9128 30.0034C35.8162 31.4324 35.6355 32.8412 35.4299 34.2271C34.976 37.291 32.3817 39.6595 29.2649 39.9158C25.6994 40.2088 22.0143 40.4997 18.2434 40.4997C14.4725 40.4997 10.7874 40.2088 7.22192 39.9158C4.10525 39.6595 1.51092 37.291 1.05678 34.2271C0.877463 33.017 0.71688 31.7895 0.614712 30.5461Z" stroke="#214759" stroke-linecap="round" stroke-linejoin="round"/>
<path d="M35.4012 21.362H40.5" stroke="#214759" stroke-linecap="round" stroke-linejoin="round"/>
</svg>
