<svg width="41" height="41" viewBox="0 0 41 41" fill="none" xmlns="http://www.w3.org/2000/svg">
<path d="M9.5 18.5H31.5V20.4549C31.5 23.3842 30.3573 26.1936 28.3232 28.265C26.2891 30.3363 23.5302 31.5 20.6536 31.5H20.3464C17.4698 31.5 14.7109 30.3363 12.6768 28.265C10.6427 26.1936 9.5 23.3842 9.5 20.4549V18.5Z" stroke="#214759" stroke-miterlimit="10" stroke-linecap="round"/>
<path d="M32.5 18.5L8.5 18.5" stroke="#214759" stroke-miterlimit="10" stroke-linecap="round"/>
<path d="M26.5 30.5L28.5 40.5H13.5L15.5 30.5" stroke="#214759" stroke-miterlimit="10" stroke-linecap="round"/>
<path d="M13.9 0.5H27.1C27.1 0.5 31.5 0.5 31.5 3.5V12.5C31.5 12.5 31.5 15.5 27.1 15.5H13.9C13.9 15.5 9.5 15.5 9.5 12.5V3.5C9.5 3.5 9.5 0.5 13.9 0.5Z" stroke="#214759" stroke-miterlimit="10" stroke-linecap="round"/>
<path d="M6.5 5.5L9.5 5.5" stroke="#214759" stroke-miterlimit="10" stroke-linecap="round"/>
<path d="M22.5 5.5H26.1381" stroke="#214759" stroke-miterlimit="10" stroke-linecap="round"/>
<path d="M18.5 16.5L18.5 18.5" stroke="#214759" stroke-miterlimit="10" stroke-linecap="round"/>
<path d="M23.5 16.5L23.5 18.5" stroke="#214759" stroke-miterlimit="10" stroke-linecap="round"/>
<path d="M0.5 40.5H40.5" stroke="#214759" stroke-miterlimit="10" stroke-linecap="round"/>
</svg>
