<svg width="41" height="42" viewBox="0 0 41 42" fill="none" xmlns="http://www.w3.org/2000/svg">
<path d="M5.30688 8.74188V30.8818" stroke="#214759" stroke-miterlimit="10" stroke-linecap="round"/>
<path d="M36.5 29.1667V40.6667H20.5V29.6667" stroke="#214759" stroke-miterlimit="10" stroke-linecap="round"/>
<path d="M39.7968 31.3656L28.8006 21.6667L17.8043 31.3656" stroke="#214759" stroke-miterlimit="10" stroke-linecap="round"/>
<path d="M26.9664 11.6856L14.4736 0.666687L1.98071 11.6856" stroke="#214759" stroke-miterlimit="10" stroke-linecap="round"/>
<path d="M31.2566 32.2318H26.3445V40.6667H31.2566V32.2318Z" stroke="#214759" stroke-miterlimit="10" stroke-linecap="round"/>
<path d="M24.5 24.6667L24.5 9.66669" stroke="#214759" stroke-miterlimit="10" stroke-linecap="round"/>
<path d="M9.5 16.6667H11.8437" stroke="#214759" stroke-miterlimit="10" stroke-linecap="round"/>
<path d="M9.5 21.6667H11.8437" stroke="#214759" stroke-miterlimit="10" stroke-linecap="round"/>
<path d="M18.5 16.6667H20.8437" stroke="#214759" stroke-miterlimit="10" stroke-linecap="round"/>
<path d="M18.5 21.6667H20.8437" stroke="#214759" stroke-miterlimit="10" stroke-linecap="round"/>
<path d="M9.5 11.6667H11.8437" stroke="#214759" stroke-miterlimit="10" stroke-linecap="round"/>
<path d="M18.5 11.6667H20.8437" stroke="#214759" stroke-miterlimit="10" stroke-linecap="round"/>
<path d="M0.5 40.6666H20.8594" stroke="#214759" stroke-miterlimit="10" stroke-linecap="round"/>
<path d="M12.6971 34.9462C12.6676 33.4014 11.5986 32.1596 10.2833 32.1596C10.119 32.1596 9.95862 32.1792 9.80346 32.2161C9.18057 31.2387 8.19003 30.6065 7.07432 30.6065C5.18909 30.6065 3.66073 32.4111 3.66073 34.6373C3.66073 35.0019 3.70245 35.355 3.77933 35.6909C3.32214 36.2176 3.03784 36.9527 3.03784 37.7665C3.03784 39.3682 4.13745 40.6666 5.49393 40.6666H12.1253C13.4817 40.6666 14.5814 39.3682 14.5814 37.7665C14.5814 36.3974 13.7776 35.2505 12.6971 34.9462Z" stroke="#214759" stroke-miterlimit="10" stroke-linecap="round"/>
<path d="M40.5 40.6666H20.8594" stroke="#214759" stroke-miterlimit="10" stroke-linecap="round"/>
</svg>
