<svg width="47" height="41" viewBox="0 0 47 41" fill="none" xmlns="http://www.w3.org/2000/svg">
<path d="M30.7145 11.7823C30.7145 13.8508 30.4742 17.9458 29.931 22.417C29.6071 25.1122 29.1684 27.9537 28.6147 30.5549C28.0715 33.0829 27.4133 35.3812 26.6298 37.1362C25.7001 39.2046 24.6032 40.5 23.2974 40.5C22.0333 40.4478 20.9573 39.1628 20.0589 37.1362C19.265 35.3812 18.5964 33.0725 18.0427 30.5549C17.4682 27.9537 17.0294 25.1226 16.6951 22.417C16.1415 17.9563 15.8907 13.8612 15.8907 11.7823C15.8907 11.6465 15.8907 11.5212 15.9116 11.3958C16.1206 7.72906 19.3486 4.83536 23.2974 4.83536C27.2462 4.83536 30.4951 7.73951 30.6936 11.4063C30.7145 11.5316 30.7145 11.657 30.7145 11.7823Z" stroke="#214759" stroke-miterlimit="10" stroke-linecap="round"/>
<path d="M23.2973 23.4616C25.6628 23.4616 27.5804 21.095 27.5804 18.1756C27.5804 15.2563 25.6628 12.8896 23.2973 12.8896C20.9318 12.8896 19.0142 15.2563 19.0142 18.1756C19.0142 21.095 20.9318 23.4616 23.2973 23.4616Z" stroke="#214759" stroke-miterlimit="10" stroke-linecap="round"/>
<path d="M23.2973 23.4616C25.3166 23.4616 26.9536 21.8246 26.9536 19.8053C26.9536 17.7859 25.3166 16.149 23.2973 16.149C21.278 16.149 19.641 17.7859 19.641 19.8053C19.641 21.8246 21.278 23.4616 23.2973 23.4616Z" stroke="#214759" stroke-miterlimit="10" stroke-linecap="round"/>
<path d="M24.8747 2.11922C24.8747 1.22495 24.1521 0.5 23.2607 0.5C22.3693 0.5 21.6467 1.22495 21.6467 2.11922V3.20567C21.6467 4.09994 22.3693 4.82489 23.2607 4.82489C24.1521 4.82489 24.8747 4.09994 24.8747 3.20567V2.11922Z" stroke="#214759" stroke-miterlimit="10" stroke-linecap="round"/>
<path d="M21.6467 1.27302V4.50101H15.8802C14.9923 4.50101 14.261 3.7802 14.261 2.88179C14.261 1.99383 14.9818 1.26257 15.8802 1.26257L21.6467 1.26257V1.27302Z" stroke="#214759" stroke-miterlimit="10" stroke-linecap="round"/>
<path d="M32.2605 2.88181C32.2605 3.76977 31.5397 4.50103 30.6413 4.50103H24.8748V1.27304L30.6517 1.27304C31.5397 1.27304 32.2605 1.98341 32.2605 2.88181Z" stroke="#214759" stroke-miterlimit="10" stroke-linecap="round"/>
<path d="M16.5 22.5C7.25577 21.8118 0.5 19.6014 0.5 16.9739C0.5 14.3464 6.90583 12.2507 15.771 11.5" stroke="#214759" stroke-miterlimit="10" stroke-linecap="round"/>
<path d="M30.9004 11.5C39.7763 12.2514 46.1899 14.4222 46.1899 16.9687C46.1899 19.5152 39.4357 21.8112 30.1899 22.5" stroke="#214759" stroke-miterlimit="10" stroke-linecap="round"/>
<path d="M18.0427 30.5548C18.5964 33.0725 19.2649 35.3812 20.0589 37.1362H16.4444C14.6267 37.1362 13.1537 35.6632 13.1537 33.8455C13.1537 32.9367 13.5193 32.1114 14.1148 31.5159C14.7102 30.9205 15.5355 30.5548 16.4444 30.5548H18.0427Z" stroke="#214759" stroke-miterlimit="10" stroke-linecap="round"/>
<path d="M33.1484 33.8455C33.1484 34.7544 32.7828 35.5796 32.1873 36.1751C31.5919 36.7706 30.7666 37.1362 29.8578 37.1362H26.6298C27.4133 35.3812 28.0714 33.0829 28.6146 30.5548H29.8578C31.6755 30.5548 33.1484 32.0278 33.1484 33.8455Z" stroke="#214759" stroke-miterlimit="10" stroke-linecap="round"/>
</svg>
