<svg width="33" height="41" viewBox="0 0 33 41" fill="none" xmlns="http://www.w3.org/2000/svg">
<path d="M0.5 36.5C0.5 37.0251 0.603466 37.5453 0.804479 38.0307C1.00549 38.516 1.30014 38.9569 1.67157 39.3284C2.043 39.6998 2.48396 39.9944 2.96926 40.1955C3.45456 40.3965 3.97471 40.5 4.49999 40.5C5.02527 40.5 5.54543 40.3965 6.03073 40.1955C6.51603 39.9944 6.95698 39.6998 7.32842 39.3284C7.69985 38.9569 7.99449 38.516 8.19551 38.0307C8.39652 37.5453 8.49999 37.0251 8.49999 36.5C8.49999 35.9747 8.39652 35.4545 8.19551 34.9692C7.99449 34.4838 7.69985 34.0429 7.32842 33.6716C6.95698 33.3 6.51603 33.0054 6.03073 32.8044C5.54543 32.6035 5.02527 32.5 4.49999 32.5C3.97471 32.5 3.45456 32.6035 2.96926 32.8044C2.48396 33.0054 2.043 33.3 1.67157 33.6716C1.30014 34.0429 1.00549 34.4838 0.804479 34.9692C0.603466 35.4545 0.5 35.9747 0.5 36.5Z" stroke="#214759" stroke-linecap="round" stroke-linejoin="round"/>
<path d="M8.26706 37.8333L21.8333 40.5L29.8332 8.5H3.16663V32.7276" stroke="#214759" stroke-linecap="round" stroke-linejoin="round"/>
<path d="M24.4999 0.5H5.83329C5.12605 0.5 4.44776 0.780952 3.94767 1.28105C3.44759 1.78114 3.16663 2.45943 3.16663 3.16666V8.49999H32.4999C32.4999 6.37827 31.6571 4.34342 30.1568 2.84314C28.6565 1.34286 26.6217 0.5 24.4999 0.5Z" stroke="#214759" stroke-linecap="round" stroke-linejoin="round"/>
</svg>
