<svg width="41" height="41" viewBox="0 0 41 41" fill="none" xmlns="http://www.w3.org/2000/svg">
<path d="M35.6239 10.5001C36.0811 7.89052 34.0731 5.50006 31.4239 5.50006H9.57624C6.92694 5.50006 4.91892 7.89052 5.37618 10.5001" stroke="#214759" stroke-linecap="round"/>
<path d="M31.5001 5.5C31.5569 4.98184 31.5853 4.7227 31.5857 4.5087C31.5901 2.46144 30.0481 0.74128 28.0125 0.52284C27.7997 0.5 27.5391 0.5 27.0177 0.5H13.9822C13.4609 0.5 13.2003 0.5 12.9875 0.52284C10.9519 0.74128 9.40986 2.46144 9.41432 4.50868C9.41478 4.7227 9.44316 4.9818 9.4999 5.5" stroke="#214759" stroke-linecap="round"/>
<path d="M25.6625 23.7319C26.7793 24.4243 26.7793 26.2165 25.6625 26.9089L18.9193 31.0891C17.8339 31.7619 16.5001 30.8863 16.5001 29.5007V21.1401C16.5001 19.7547 17.8339 18.8789 18.9193 19.5517L25.6625 23.7319Z" stroke="#214759" stroke-linecap="round"/>
<path d="M1.26702 24.0861C0.37496 17.7589 -0.0710594 14.5954 1.82464 12.5478C3.72034 10.5001 7.09517 10.5001 13.8448 10.5001H27.1552C33.9048 10.5001 37.2796 10.5001 39.1754 12.5478C41.071 14.5954 40.625 17.7589 39.733 24.0861L38.887 30.0861C38.1874 35.0479 37.8378 37.5287 36.0434 39.0145C34.249 40.5001 31.6024 40.5001 26.3092 40.5001H14.6907C9.39763 40.5001 6.75107 40.5001 4.95668 39.0145C3.1623 37.5287 2.81252 35.0479 2.11296 30.0861L1.26702 24.0861Z" stroke="#214759" stroke-linecap="round"/>
</svg>
