<svg width="41" height="41" viewBox="0 0 41 41" fill="none" xmlns="http://www.w3.org/2000/svg">
<path d="M19.9736 10.3922L16.7753 12.9139C15.9236 13.5539 14.838 13.7973 13.7945 13.582L10.9807 12.9631" stroke="#214759" stroke-miterlimit="10" stroke-linecap="round" stroke-linejoin="round"/>
<path d="M21.94 8.11305L21.9399 8.11323C20.2213 9.40461 17.7812 9.05859 16.4895 7.3402L16.0326 6.73243C14.7405 5.01367 15.0867 2.57288 16.8058 1.28113L16.806 1.28095C18.5245 -0.0104374 20.9646 0.335588 22.2563 2.05398L22.7133 2.66175C24.0052 4.38059 23.659 6.82139 21.94 8.11305Z" stroke="#214759" stroke-miterlimit="10" stroke-linecap="round" stroke-linejoin="round"/>
<path d="M26.701 27.0052C26.6799 26.8851 26.6478 26.765 26.604 26.6465L25.2444 22.9633L31.2051 17.7428C32.0541 16.9992 32.1863 15.7268 31.5081 14.8247L26.068 7.58771C25.3845 6.67839 24.0931 6.49524 23.1836 7.17867L20.9781 8.83598C19.8672 9.67074 19.6435 11.2478 20.4784 12.3584L24.4013 17.5771L21.3223 19.8908C20.5338 20.4834 20.2342 21.527 20.5884 22.4475L22.3406 27" stroke="#214759" stroke-miterlimit="10" stroke-linecap="round" stroke-linejoin="round"/>
<path d="M24.4014 17.5769L29.587 13.1958" stroke="#214759" stroke-miterlimit="10" stroke-linecap="round" stroke-linejoin="round"/>
<path d="M40.5 36.4495C39.6682 36.5644 38.8119 36.4832 38.0147 36.2059L36.8306 35.7941C35.7032 35.402 34.4575 35.402 33.3301 35.7942L32.1468 36.2058C31.0193 36.598 29.7735 36.598 28.6461 36.2058L27.4627 35.7942C26.3353 35.402 25.0894 35.402 23.962 35.7942L22.7788 36.2057C21.6514 36.5979 20.4055 36.5979 19.278 36.2057L18.095 35.7942C16.9676 35.402 15.7216 35.402 14.5942 35.7942L13.4109 36.2058C12.2835 36.598 11.0376 36.598 9.91017 36.2058L8.72705 35.7942C7.59964 35.402 6.3537 35.402 5.2263 35.7942L4.04301 36.2059C3.22747 36.4896 2.34992 36.568 1.5 36.4412" stroke="#214759" stroke-miterlimit="10" stroke-linecap="round" stroke-linejoin="round"/>
<path d="M6.5 30.5C5.12094 29.5357 4.54162 28.8274 4.48614 27.034C4.44239 25.6214 5.53018 24.3985 6.94372 24.3942C7.71923 24.3919 8.41174 24.7472 8.8657 25.3045C9.83491 26.4941 11.9325 27.4268 13.4671 27.4268H33.7595C35.1455 27.4268 36.2646 28.5691 36.2263 29.9635C36.2191 30.2263 36.1698 30.4782 36.0851 30.7131" stroke="#214759" stroke-miterlimit="10" stroke-linecap="round" stroke-linejoin="round"/>
<path d="M40.5 31.5811C39.5553 31.8126 38.564 31.7376 37.6497 31.3558L36.4541 30.8565C35.3158 30.3812 34.058 30.3812 32.9197 30.8566L31.7249 31.3556C30.5866 31.831 29.3287 31.831 28.1904 31.3556L26.9956 30.8566C25.8573 30.3812 24.5994 30.3812 23.4611 30.8566L22.2665 31.3555C21.1282 31.8309 19.8703 31.8309 18.7319 31.3555L17.5375 30.8566C16.3991 30.3811 15.1412 30.3811 14.0029 30.8566L12.8082 31.3556C11.6699 31.831 10.4119 31.831 9.27368 31.3556L8.07914 30.8567C6.9408 30.3812 5.68286 30.3812 4.5446 30.8567L3.3499 31.3557C2.43579 31.7375 1.44449 31.8126 0.5 31.5812V40.5H40.5V31.5811Z" stroke="#214759" stroke-miterlimit="10" stroke-linecap="round" stroke-linejoin="round"/>
<path d="M10.4937 16.8605L4.3562 12.64L10.4937 8.41943V16.8605Z" stroke="#214759" stroke-miterlimit="10" stroke-linecap="round" stroke-linejoin="round"/>
<path d="M4.35622 12.64H1" stroke="#214759" stroke-miterlimit="10" stroke-linecap="round" stroke-linejoin="round"/>
</svg>
