<svg width="41" height="41" viewBox="0 0 41 41" fill="none" xmlns="http://www.w3.org/2000/svg">
<path d="M29.2805 32.4692V25.8658H32.5325V30.9065" stroke="#214759" stroke-miterlimit="10" stroke-linecap="round" stroke-linejoin="round"/>
<path d="M20.7709 32.4692V25.8658H24.0229V31.2004" stroke="#214759" stroke-miterlimit="10" stroke-linecap="round" stroke-linejoin="round"/>
<path d="M12.2616 32.4692V25.8658H15.5136V31.5383" stroke="#214759" stroke-miterlimit="10" stroke-linecap="round" stroke-linejoin="round"/>
<path d="M3.75208 32.4692V25.8658H7.00411V31.8283" stroke="#214759" stroke-miterlimit="10" stroke-linecap="round" stroke-linejoin="round"/>
<path d="M32.939 40.5H40.5V30.9065C38.2909 33.1156 34.7091 33.1156 32.5 30.9065C30.2909 33.1156 26.7091 33.1156 24.5 30.9065C22.2909 33.1156 18.7091 33.1156 16.5 30.9065C14.2909 33.1156 10.7091 33.1156 8.5 30.9065C6.29089 33.1156 2.70911 33.1156 0.5 30.9065V40.5H25.622" stroke="#214759" stroke-miterlimit="10" stroke-linecap="round" stroke-linejoin="round"/>
<path d="M36.2724 22.2886H0.5V25.8659H36.2724V22.2886Z" stroke="#214759" stroke-miterlimit="10" stroke-linecap="round" stroke-linejoin="round"/>
<path d="M2.12561 18.6278V22.205" stroke="#214759" stroke-miterlimit="10" stroke-linecap="round" stroke-linejoin="round"/>
<path d="M8.62976 18.6278V22.205" stroke="#214759" stroke-miterlimit="10" stroke-linecap="round" stroke-linejoin="round"/>
<path d="M15.1338 18.6278V22.205" stroke="#214759" stroke-miterlimit="10" stroke-linecap="round" stroke-linejoin="round"/>
<path d="M21.6378 18.6278V22.205" stroke="#214759" stroke-miterlimit="10" stroke-linecap="round" stroke-linejoin="round"/>
<path d="M28.142 18.6278V22.205" stroke="#214759" stroke-miterlimit="10" stroke-linecap="round" stroke-linejoin="round"/>
<path d="M34.646 18.6278V22.205" stroke="#214759" stroke-miterlimit="10" stroke-linecap="round" stroke-linejoin="round"/>
<path d="M0.5 18.5465H36.2724" stroke="#214759" stroke-miterlimit="10" stroke-linecap="round" stroke-linejoin="round"/>
<path d="M33.9612 10.0935C35.1735 10.0935 36.1563 11.0763 36.1563 12.2886C36.1563 11.0763 37.1391 10.0935 38.3514 10.0935" stroke="#214759" stroke-miterlimit="10" stroke-linecap="round" stroke-linejoin="round"/>
<path d="M36.1097 0.5C37.3221 0.5 38.3049 1.48276 38.3049 2.69512C38.3049 1.48276 39.2876 0.5 40.5 0.5" stroke="#214759" stroke-miterlimit="10" stroke-linecap="round" stroke-linejoin="round"/>
<path d="M28.7114 3.79266C29.9238 3.79266 30.9065 4.77543 30.9065 5.98779C30.9065 4.77543 31.8893 3.79266 33.1017 3.79266" stroke="#214759" stroke-miterlimit="10" stroke-linecap="round" stroke-linejoin="round"/>
<path d="M15.1339 10.0935C16.7503 10.0935 18.0607 8.78308 18.0607 7.16664C18.0607 5.55019 16.7503 4.23981 15.1339 4.23981C13.5174 4.23981 12.207 5.55019 12.207 7.16664C12.207 8.78308 13.5174 10.0935 15.1339 10.0935Z" stroke="#214759" stroke-miterlimit="10" stroke-linecap="round" stroke-linejoin="round"/>
<path d="M15.1339 10.0935C16.7503 10.0935 18.0607 8.78308 18.0607 7.16664C18.0607 5.55019 16.7503 4.23981 15.1339 4.23981C13.5174 4.23981 12.207 5.55019 12.207 7.16664C12.207 8.78308 13.5174 10.0935 15.1339 10.0935Z" stroke="#214759" stroke-miterlimit="10" stroke-linecap="round" stroke-linejoin="round"/>
</svg>
