<svg width="44" height="41" viewBox="0 0 44 41" fill="none" xmlns="http://www.w3.org/2000/svg">
<path d="M24.6666 29.6585C25.1717 29.6585 25.6828 29.6492 26.1813 29.6194C28.192 29.4992 29.9977 29.0454 30.3698 27.5201C30.4556 27.1681 30.4652 26.7591 30.3832 26.2839C30.3056 25.8334 30.1602 25.3877 29.9597 24.9588C29.2564 23.4542 27.8741 22.1551 26.3494 21.5715C25.7986 21.3607 25.2293 21.2432 24.6666 21.2432C24.1039 21.2432 23.5346 21.3606 22.9838 21.5715C21.4591 22.1551 20.0768 23.4542 19.3735 24.9588C19.1729 25.3877 19.0277 25.8334 18.9499 26.2839C18.868 26.7591 18.8775 27.1681 18.9634 27.5201C19.3355 29.0454 21.1412 29.4992 23.1518 29.6194C23.6504 29.6492 24.1615 29.6585 24.6666 29.6585Z" stroke="#214759" stroke-miterlimit="10" stroke-linecap="round" stroke-linejoin="round"/>
<path d="M20.0122 28.8782C18.8465 29.2066 17.2388 29.4772 15.5243 29.4773C14.6048 29.4774 13.655 29.3996 12.7265 29.2114C11.6816 28.9996 10.6636 28.6478 9.74623 28.1094C8.80651 27.5577 8.035 26.7346 7.47225 25.7193C6.82219 24.5467 6.4506 23.118 6.41953 21.5556C6.38284 19.7046 6.8052 17.9575 7.59062 16.5191C8.20467 15.3945 9.04078 14.4586 10.0529 13.8092C11.8114 12.6809 15.1908 12.0688 20.8065 11.8898C21.9917 11.852 23.2763 11.8334 24.6665 11.8334C26.0567 11.8334 27.3413 11.852 28.5265 11.8898C29.9631 11.9356 31.2533 12.0098 32.4075 12.1136L35.5 12.5" stroke="#214759" stroke-miterlimit="10" stroke-linecap="round" stroke-linejoin="round"/>
<path d="M29.321 28.8783C30.4866 29.2067 32.0944 29.4773 33.8088 29.4774C34.7282 29.4775 35.678 29.3997 36.6066 29.2115C37.6515 28.9997 38.6695 28.6479 39.5868 28.1095C40.5266 27.5578 41.2981 26.7346 41.8608 25.7194C42.5109 24.5468 42.8826 23.118 42.9135 21.5557C42.9502 19.7047 42.5279 17.9576 41.7425 16.5192C41.1284 15.3946 40.2923 14.4586 39.2802 13.8093C38.4093 13.2505 37.1406 12.8183 35.3996 12.5026" stroke="#214759" stroke-miterlimit="10" stroke-linecap="round" stroke-linejoin="round"/>
<path d="M19.3114 25.097C18.4739 25.3861 16.5299 25.7679 14.6126 25.6203C13.5674 25.5398 12.5304 25.302 11.6853 24.806C10.8303 24.3041 10.2801 23.0296 10.2493 21.4797C10.2114 19.5629 10.9637 17.7759 12.1213 17.0331C12.7915 16.6032 14.7992 15.9284 20.8048 15.7244C21.9425 15.6857 23.2238 15.6639 24.6665 15.6639C26.1092 15.6639 27.3906 15.6857 28.5283 15.7244C34.5339 15.9284 36.5416 16.6032 37.2117 17.0331C38.3693 17.7759 39.1216 19.5629 39.0838 21.4797C39.0529 23.0296 38.5027 24.3041 37.6478 24.806C36.8027 25.302 35.7657 25.5398 34.7205 25.6203C32.8032 25.7678 30.8592 25.386 30.0216 25.097" stroke="#214759" stroke-miterlimit="10" stroke-linecap="round" stroke-linejoin="round"/>
<path d="M26.3588 40.5H22.9743C21.7761 40.5 20.8048 39.5287 20.8048 38.3305V34.9697C20.8048 33.7715 21.7761 32.8002 22.9743 32.8002H26.3588C27.557 32.8002 28.5283 33.7715 28.5283 34.9697V38.3305C28.5284 39.5287 27.557 40.5 26.3588 40.5Z" stroke="#214759" stroke-miterlimit="10" stroke-linecap="round" stroke-linejoin="round"/>
<path d="M6.8668 18.252H2.69871C1.48435 18.252 0.5 19.2364 0.5 20.4507V22.6605C0.5 23.8749 1.48435 24.8593 2.69871 24.8593H7.0648" stroke="#214759" stroke-miterlimit="10" stroke-linecap="round" stroke-linejoin="round"/>
<path d="M2.88605 8.03717V18.2519" stroke="#214759" stroke-miterlimit="10" stroke-linecap="round" stroke-linejoin="round"/>
<path d="M8.28967 15.446V8.03717" stroke="#214759" stroke-miterlimit="10" stroke-linecap="round" stroke-linejoin="round"/>
<path d="M15.2877 39.3519H21.0601" stroke="#214759" stroke-miterlimit="10" stroke-linecap="round" stroke-linejoin="round"/>
<path d="M2.88605 24.8593V31.8112C2.88605 35.9758 6.26215 39.3519 10.4267 39.3519L15 39.3519" stroke="#214759" stroke-miterlimit="10" stroke-linecap="round" stroke-linejoin="round"/>
<path d="M21.0601 33.9483H11.6089C9.77576 33.9483 8.28967 32.4622 8.28967 30.6291V26.8909" stroke="#214759" stroke-miterlimit="10" stroke-linecap="round" stroke-linejoin="round"/>
<path d="M2.78135 8.0372H8.39448C9.12835 8.0372 9.72328 7.44227 9.72328 6.7084V3.3876C9.72328 1.79278 8.43041 0.5 6.83568 0.5H4.34024C2.74542 0.5 1.45264 1.79287 1.45264 3.3876V6.7084C1.45247 7.44227 2.04748 8.0372 2.78135 8.0372Z" stroke="#214759" stroke-miterlimit="10" stroke-linecap="round" stroke-linejoin="round"/>
</svg>
