<svg width="41" height="41" viewBox="0 0 41 41" fill="none" xmlns="http://www.w3.org/2000/svg">
<path d="M39.2878 24.1367V36.0922" stroke="#214759" stroke-miterlimit="10" stroke-linecap="round" stroke-linejoin="round"/>
<path d="M35.6519 36.117V24.2728" stroke="#214759" stroke-miterlimit="10" stroke-linecap="round" stroke-linejoin="round"/>
<path d="M27.1664 36.1414V29.7806" stroke="#214759" stroke-miterlimit="10" stroke-linecap="round" stroke-linejoin="round"/>
<path d="M23.5306 36.1415V30.2907" stroke="#214759" stroke-miterlimit="10" stroke-linecap="round" stroke-linejoin="round"/>
<path d="M32.165 24.1366H39.2878V4.19379" stroke="#214759" stroke-miterlimit="10" stroke-linecap="round" stroke-linejoin="round"/>
<path d="M23.5306 9.30618V4.31757" stroke="#214759" stroke-miterlimit="10" stroke-linecap="round" stroke-linejoin="round"/>
<path d="M35.6519 14.1982V10.8031C35.6519 8.45993 33.7523 6.5603 31.4092 6.5603C29.5692 6.5603 27.994 7.73364 27.4088 9.38753" stroke="#214759" stroke-miterlimit="10" stroke-linecap="round" stroke-linejoin="round"/>
<path d="M36.5478 4.13666H38.6817C39.6858 4.13666 40.5 3.32288 40.5 2.31833C40.5 1.31378 39.6862 0.5 38.6817 0.5H24.1367C23.1312 0.5 22.3183 1.31378 22.3183 2.31833C22.3183 3.32207 23.1321 4.13666 24.1367 4.13666H33.7306" stroke="#214759" stroke-miterlimit="10" stroke-linecap="round" stroke-linejoin="round"/>
<path d="M39.1589 14.4398H32.0839" stroke="#214759" stroke-miterlimit="10" stroke-linecap="round" stroke-linejoin="round"/>
<path d="M30.3045 19.4912C31.5764 18.1906 32.2249 16.3516 31.9549 14.4397C31.5262 11.4252 28.8058 8.87942 25.0056 9.38451L11.7118 11.2796C8.75613 11.7013 6.56029 14.2328 6.56029 17.2183C6.56029 18.3822 6.88951 19.46 7.45456 20.372" stroke="#214759" stroke-miterlimit="10" stroke-linecap="round" stroke-linejoin="round"/>
<path d="M6.65608 20.4863L14.4872 19.3674L17.4095 18.9547" stroke="#214759" stroke-miterlimit="10" stroke-linecap="round" stroke-linejoin="round"/>
<path d="M17.2835 18.9682C24.6253 17.9191 24.1057 17.9925 25.167 17.8421C29.0265 17.2953 32.2543 20.4815 32.004 24.1366C31.8376 26.9855 29.6772 29.3217 26.8638 29.7204L9.30831 32.2286" stroke="#214759" stroke-miterlimit="10" stroke-linecap="round" stroke-linejoin="round"/>
<path d="M12.6214 26.5611C12.6214 23.1919 9.88665 20.5 6.56029 20.5C3.21341 20.5 0.5 23.2134 0.5 26.5611C0.5 28.002 1.00316 29.3243 1.84238 30.3649" stroke="#214759" stroke-miterlimit="10" stroke-linecap="round" stroke-linejoin="round"/>
<path d="M34.348 40.5H39.2926C39.9591 40.5 40.5 39.9591 40.5 39.2926V36.4045C40.5 35.9308 39.9265 35.6934 39.5912 36.0286C39.09 36.5299 38.2762 36.5319 37.7729 36.0286C37.2697 35.5254 36.4559 35.5273 35.9546 36.0286C35.4534 36.5299 34.6395 36.5319 34.1363 36.0286C33.633 35.5254 32.8192 35.5273 32.3179 36.0286C31.8156 36.531 31.0027 36.5309 30.5004 36.0286C29.9989 35.5271 29.1835 35.5256 28.6821 36.0286C28.1788 36.5319 27.3651 36.5299 26.8638 36.0286C26.3625 35.5274 25.5487 35.5254 25.0454 36.0286C24.5422 36.5319 23.7284 36.5299 23.2271 36.0286C22.7259 35.5274 21.912 35.5254 21.4088 36.0286C20.9081 36.5309 20.0919 36.5309 19.5912 36.0286C19.088 35.5254 18.2742 35.5273 17.7729 36.0286C17.2717 36.5299 16.4578 36.5319 15.9546 36.0286C15.4513 35.5254 14.6376 35.5273 14.1363 36.0286C13.635 36.5299 12.8212 36.5319 12.3179 36.0286C11.8173 35.5264 11.002 35.5263 10.4996 36.0286C9.99725 36.531 9.18435 36.5309 8.68208 36.0286C8.18085 35.5274 7.36699 35.5254 6.86375 36.0286C6.36051 36.5319 5.54673 36.5299 5.04542 36.0286C4.5392 35.5224 3.72301 35.5295 3.22468 36.031C2.71717 36.5402 1.88753 36.5065 1.38542 36.0045C1.05862 35.6777 0.5 35.9095 0.5 36.3715V39.2926C0.5 39.9591 1.04091 40.5 1.70739 40.5H31.5307" stroke="#214759" stroke-miterlimit="10" stroke-linecap="round" stroke-linejoin="round"/>
<path d="M1.26098 35.8793C1.47959 35.205 1.42486 34.471 1.10611 33.8336C0.193321 32.008 1.57232 30.0127 3.4895 29.4146L12.6214 26.5603C12.6214 28.437 11.7626 30.1743 10.3169 31.3174L8.94126 32.4379C8.20556 33.052 8.01479 34.1564 8.61607 34.9573C8.66759 35.0499 9.12237 35.4837 9.12237 36.2573" stroke="#214759" stroke-miterlimit="10" stroke-linecap="round" stroke-linejoin="round"/>
</svg>
