<svg width="41" height="41" viewBox="0 0 41 41" fill="none" xmlns="http://www.w3.org/2000/svg">
<path d="M18.2777 30.0093C18.8222 29.8415 19.4335 29.6952 20.4993 29.6952C22.9992 29.6952 22.9992 30.5 25.4992 30.5C27.9992 30.5 27.9993 29.6952 30.4993 29.6952C31.5659 29.6952 32.1774 29.8417 32.7222 30.0096" stroke="#214759" stroke-miterlimit="10" stroke-linecap="round" stroke-linejoin="round"/>
<path d="M23.0235 30.1055L21.5 26.5001L20.5 24.0001" stroke="#214759" stroke-miterlimit="10" stroke-linecap="round" stroke-linejoin="round"/>
<path d="M22 5.50006L19.3598 7.68128C17.6245 9.10978 16.8541 11.3218 17.2086 13.4337C17.2322 13.5742 17.1922 13.7222 17.0867 13.818C16.9322 13.9582 16.7062 13.9577 16.5531 13.8306C14.9005 12.4591 12.593 12.0159 10.4827 12.8064L5.66801 14.6102C5.16708 14.7979 4.60378 14.5959 4.33634 14.1326C3.87646 13.3359 2.85786 13.063 2.06124 13.5229L1.65504 13.7574C1.61311 13.7817 1.59879 13.8353 1.62293 13.8772L3.20209 16.6124C4.60523 19.0427 7.19356 20.5447 9.99968 20.5574L16.2837 20.5855C18.0515 20.5934 19.6382 21.6716 20.2968 23.3121L20.5 24.0001" stroke="#214759" stroke-miterlimit="10" stroke-linecap="round" stroke-linejoin="round"/>
<path d="M30.0435 29.7049L23.5507 21.4333C22.4592 20.0427 22.3189 18.1295 23.196 16.5946L26.3136 11.1384C27.7058 8.70195 27.6991 5.70927 26.296 3.27909L24.7168 0.543875C24.6926 0.501943 24.639 0.487617 24.5971 0.511843L24.2117 0.734298C23.4155 1.19402 23.1077 2.22017 23.5755 3.01164C23.8502 3.47643 23.745 4.0712 23.3291 4.41358L22.1041 5.42203" stroke="#214759" stroke-miterlimit="10" stroke-linecap="round" stroke-linejoin="round"/>
<path d="M30.84 16.7696C30.7317 16.7661 30.6184 16.7643 30.4993 16.7643C27.9992 16.7643 27.9992 17.5691 25.4992 17.5691C24.2037 17.5691 23.5795 17.3529 22.9309 17.1447" stroke="#214759" stroke-miterlimit="10" stroke-linecap="round" stroke-linejoin="round"/>
<path d="M3.70258 17.3742C2.7602 17.1402 2.21839 16.7773 0.588692 16.7646C0.540081 16.7642 0.5 16.8038 0.5 16.8524V40.4124C0.5 40.4608 0.539276 40.5001 0.587646 40.5001H40.4124C40.4608 40.5001 40.5 40.4608 40.5 40.4124V16.8524C40.5 16.8038 40.46 16.7642 40.4114 16.7646C37.9995 16.7833 37.97 17.5691 35.4997 17.5691C34.6244 17.5691 34.0555 17.4704 33.5784 17.3422" stroke="#214759" stroke-miterlimit="10" stroke-linecap="round" stroke-linejoin="round"/>
</svg>
