<svg width="41" height="36" viewBox="0 0 41 36" fill="none" xmlns="http://www.w3.org/2000/svg">
<path fill-rule="evenodd" clip-rule="evenodd" d="M25.8751 0.141641C26.0733 -0.0505268 26.3899 -0.0457516 26.5822 0.152383C26.7742 0.350658 26.7696 0.667247 26.5714 0.859415L23.6407 3.70023C23.457 3.87872 23.3536 4.12371 23.3536 4.37992V6.5977C23.5047 6.68036 23.6539 6.77037 23.8009 6.86625C24.0927 7.05659 24.4148 7.33966 24.7218 7.66801L27.6036 5.52641V5.52738C28.2819 5.0221 29.2432 5.5075 29.2433 6.35063V8.65727C29.2432 10.1702 28.0168 11.3965 26.504 11.3965H26.1017V16.6309C26.1016 17.6973 25.7574 18.6826 25.1769 19.4854C25.1753 19.4876 25.1746 19.491 25.173 19.4932C25.1722 19.4943 25.1709 19.495 25.17 19.4961C24.7759 20.0382 24.2733 20.4956 23.6935 20.837V24.712C23.6935 24.9881 23.4696 25.212 23.1935 25.212C22.9176 25.2117 22.6935 24.9879 22.6935 24.712V21.2832C22.2296 21.4297 21.736 21.5098 21.2238 21.5098H19.5216C19.0091 21.5098 18.515 21.4298 18.0509 21.2832V24.3663C18.0508 24.6423 17.8269 24.8662 17.5509 24.8663C17.2748 24.8663 17.051 24.6423 17.0509 24.3663V20.836C16.3498 20.4231 15.7606 19.8412 15.3409 19.1446C15.3399 19.1428 15.3381 19.1415 15.337 19.1397C15.3329 19.1328 15.3293 19.1251 15.3253 19.1182C14.8927 18.3898 14.6437 17.5396 14.6437 16.6309V11.3965H14.2404C12.7279 11.3965 11.5002 10.1705 11.5001 8.65727V6.35063C11.5002 5.50696 12.4621 5.02322 13.1398 5.52738L13.1407 5.52641L16.0216 7.66801C16.3289 7.33919 16.6524 7.05666 16.9445 6.86625C17.0915 6.77042 17.2407 6.68131 17.3917 6.59867V4.37992C17.3917 4.124 17.288 3.87951 17.1036 3.70121L14.174 0.859415C13.9758 0.667265 13.9703 0.350625 14.1622 0.152383C14.3544 -0.045783 14.671 -0.05046 14.8693 0.141641L16.6603 1.87797L17.4415 0.280313C17.5628 0.0323647 17.8624 -0.0702455 18.1105 0.0508208C18.3585 0.172036 18.4611 0.471686 18.34 0.719766L17.4152 2.61039L17.799 2.98246L17.798 2.98344C18.1771 3.35021 18.3917 3.85314 18.3917 4.37992V6.15531C19.6851 5.711 21.0604 5.7109 22.3536 6.15531V4.37992C22.3536 3.85308 22.5668 3.34911 22.9445 2.98246L23.3273 2.61039L22.4044 0.719766C22.2833 0.471769 22.386 0.172109 22.6339 0.0508208C22.8819 -0.0702245 23.1816 0.0323958 23.3029 0.280313L24.0831 1.87797L25.8751 0.141641ZM20.0031 16.9903C18.7988 16.9903 17.6642 17.1651 16.6603 17.4727C16.1666 17.6239 15.9473 18.1844 16.1837 18.6055C16.8592 19.7452 18.1011 20.5098 19.5216 20.5098H21.2238C22.5154 20.5097 23.6587 19.8769 24.3634 18.9053C24.6652 18.4889 24.4896 17.889 23.9982 17.6983C22.8465 17.2519 21.4773 16.9903 20.0031 16.9903ZM23.254 7.70414C21.452 6.52912 19.2929 6.5292 17.4904 7.70414C17.1406 7.93218 16.6637 8.39627 16.2736 8.92973C15.8699 9.48168 15.6437 9.99434 15.6437 10.3194V16.6309C15.6437 16.7315 15.6479 16.8311 15.6554 16.9297C15.8512 16.7447 16.092 16.601 16.3673 16.5166C17.4701 16.1788 18.7036 15.9903 20.0031 15.9903C21.5926 15.9903 23.0851 16.2717 24.3595 16.7657C24.6363 16.873 24.869 17.0403 25.0519 17.2452C25.0837 17.045 25.1017 16.84 25.1017 16.6309V10.9053C25.1016 10.9024 25.1007 10.8995 25.1007 10.8965C25.1007 10.8933 25.1016 10.8899 25.1017 10.8868V10.3194C25.1016 9.99406 24.8752 9.48147 24.4718 8.92973C24.0817 8.39635 23.604 7.93241 23.254 7.70414ZM12.5157 6.32621C12.5088 6.32975 12.5046 6.33456 12.5031 6.33695C12.5024 6.33785 12.5014 6.33877 12.5011 6.33988C12.5007 6.34121 12.5001 6.34481 12.5001 6.35063V8.65727C12.5002 9.61754 13.2795 10.3965 14.2404 10.3965H14.6437V10.3194C14.6437 9.69612 14.9952 9.00886 15.3917 8.44438L12.545 6.32914H12.5441C12.5391 6.32541 12.5354 6.3237 12.5343 6.32328C12.5333 6.32292 12.5324 6.32239 12.5314 6.32231C12.5286 6.32215 12.5226 6.32286 12.5157 6.32621ZM28.2101 6.32328C28.2086 6.3239 28.2048 6.32577 28.2003 6.32914H28.1993L25.3517 8.44438C25.7483 9.00899 26.1016 9.69576 26.1017 10.3194V10.3965H26.504C27.4646 10.3965 28.2432 9.61789 28.2433 8.65727V6.35063C28.2433 6.34469 28.2427 6.34125 28.2423 6.33988C28.242 6.3387 28.2409 6.33786 28.2404 6.33695C28.2388 6.33456 28.2345 6.32963 28.2277 6.32621C28.2211 6.32307 28.2155 6.32214 28.213 6.32231L28.2101 6.32328Z" fill="#214759"/>
<path d="M0.500122 34.9999C0.998724 31.8553 3.85791 29.4452 7.31128 29.4452C7.87244 29.4452 8.41642 29.5108 8.93895 29.6307C9.69703 26.8015 12.3978 24.7093 15.6147 24.7093C17.8487 24.7093 19.8328 25.7188 21.0921 27.2822C22.2809 25.3213 24.5096 24 27.0642 24C30.1068 24 32.6854 25.8714 33.5988 28.466C34.1502 28.4767 35.0169 28.5535 35.5291 28.6801C37.6282 29.1987 40.5001 31.6294 40.5001 35" stroke="#214759" stroke-miterlimit="10" stroke-linecap="round" stroke-linejoin="round"/>
<path d="M0.500122 35H40.5001" stroke="#214759" stroke-miterlimit="10" stroke-linecap="round" stroke-linejoin="round"/>
</svg>
