<svg width="32" height="41" viewBox="0 0 32 41" fill="none" xmlns="http://www.w3.org/2000/svg">
<path d="M17.002 21.6422V37.285" stroke="#214759" stroke-miterlimit="10" stroke-linecap="round" stroke-linejoin="round"/>
<path d="M17.002 0.500019V19.3744" stroke="#214759" stroke-miterlimit="10" stroke-linecap="round" stroke-linejoin="round"/>
<path d="M1.98546 23.3612C3.85196 17.6435 7.97215 10.11 17.0019 3.01452C17.0019 3.01452 7.6992 19.0793 17.0019 32.8171C17.0019 32.8171 10.6597 34.4717 2.43146 33.1734C1.27181 32.9904 0.436226 31.9918 0.503826 30.8533C0.573582 29.6791 0.762364 28.0283 1.23233 26.0384" stroke="#214759" stroke-miterlimit="10" stroke-linecap="round" stroke-linejoin="round"/>
<path d="M25.6374 37.4166H29.8724C30.7496 37.4166 31.4607 38.1068 31.4607 38.9583C31.4607 39.8098 30.7496 40.5001 29.8724 40.5001H5.41252C4.5353 40.5001 3.82422 39.8098 3.82422 38.9583C3.82422 38.1068 4.5353 37.4166 5.41252 37.4166H22.5713" stroke="#214759" stroke-miterlimit="10" stroke-linecap="round" stroke-linejoin="round"/>
<path d="M23.0247 33.1357L22.5679 32.4912C22.356 32.1923 22.3487 31.7995 22.5493 31.4934L25.309 27.2796C25.5354 26.9338 25.695 26.551 25.7799 26.1497L26.8235 21.2185C27.025 20.2663 26.2756 19.3744 25.2742 19.3744H16.9888C16.3599 19.3744 15.8187 19.8436 15.7891 20.4535C15.7575 21.1046 16.292 21.6422 16.9559 21.6422H22.4847C22.7644 21.6422 22.9738 21.8913 22.9175 22.1573L21.9725 26.6227C21.9537 26.7116 21.9213 26.7971 21.8763 26.8765L19.3936 31.2592C19.1356 31.7146 19.1556 32.2704 19.4455 32.7072L22.9983 38.0597C23.3241 38.5324 23.9077 38.7947 24.4826 38.6853C24.7605 38.6324 25.0256 38.5012 25.2403 38.2917C25.6658 37.8768 25.7272 37.3237 25.5375 36.7911C25.4652 36.5881 25.3521 36.4009 25.2179 36.23L23.0247 33.1357Z" stroke="#214759" stroke-miterlimit="10" stroke-linecap="round" stroke-linejoin="round"/>
<path d="M27.9333 14.7641C27.9333 16.1205 26.8005 17.2201 25.4031 17.2201C24.0057 17.2201 22.8729 16.1205 22.8729 14.7641C22.8729 13.4077 24.0057 12.3081 25.4031 12.3081C26.8005 12.3081 27.9333 13.4077 27.9333 14.7641Z" stroke="#214759" stroke-miterlimit="10" stroke-linecap="round" stroke-linejoin="round"/>
</svg>
