<svg width="41" height="41" viewBox="0 0 41 41" fill="none" xmlns="http://www.w3.org/2000/svg">
<path d="M29.8333 34.7267C27.995 34.7267 26.5 33.2333 26.5 31.3933C26.5 29.5534 27.995 28.06 29.8333 28.06C31.6733 28.06 33.1667 29.5534 33.1667 31.3933C33.1667 33.2333 31.6733 34.7267 29.8333 34.7267Z" stroke="#214759" stroke-miterlimit="10" stroke-linecap="round" stroke-linejoin="round"/>
<path d="M33.1667 40.5C31.3283 40.5 29.8333 39.0066 29.8333 37.1666C29.8333 35.3266 31.3283 33.8334 33.1667 33.8334C35.0066 33.8334 36.5 35.3266 36.5 37.1666C36.5 39.0066 35.0066 40.5 33.1667 40.5Z" stroke="#214759" stroke-miterlimit="10" stroke-linecap="round" stroke-linejoin="round"/>
<path d="M26.5 40.5C24.6617 40.5 23.1667 39.0066 23.1667 37.1666C23.1667 35.3266 24.6617 33.8334 26.5 33.8334C28.34 33.8334 29.8333 35.3266 29.8333 37.1666C29.8333 39.0066 28.34 40.5 26.5 40.5Z" stroke="#214759" stroke-miterlimit="10" stroke-linecap="round" stroke-linejoin="round"/>
<path d="M32.19 29.0367C32.19 29.0367 33.6334 27.595 35.315 25.9117C36.185 25.0433 37.49 24.7834 38.625 25.2534C39.76 25.7233 40.5 26.83 40.5 28.06" stroke="#214759" stroke-miterlimit="10" stroke-linecap="round" stroke-linejoin="round"/>
<path d="M23.1667 34.7267C21.3284 34.7267 19.8333 33.2333 19.8333 31.3933C19.8333 29.5534 21.3284 28.06 23.1667 28.06C25.0066 28.06 26.5 29.5534 26.5 31.3933C26.5 33.2333 25.0066 34.7267 23.1667 34.7267Z" stroke="#214759" stroke-miterlimit="10" stroke-linecap="round" stroke-linejoin="round"/>
<path d="M19.8333 40.5C17.995 40.5 16.5 39.0066 16.5 37.1666C16.5 35.3266 17.995 33.8334 19.8333 33.8334C21.6733 33.8334 23.1667 35.3266 23.1667 37.1666C23.1667 39.0066 21.6733 40.5 19.8333 40.5Z" stroke="#214759" stroke-miterlimit="10" stroke-linecap="round" stroke-linejoin="round"/>
<path d="M26.5 28.9534C24.6617 28.9534 23.1667 27.46 23.1667 25.62C23.1667 23.78 24.6617 22.2867 26.5 22.2867C28.34 22.2867 29.8333 23.78 29.8333 25.62C29.8333 27.46 28.34 28.9534 26.5 28.9534Z" stroke="#214759" stroke-miterlimit="10" stroke-linecap="round" stroke-linejoin="round"/>
<path d="M19.8333 40.5H2.49997" stroke="#214759" stroke-miterlimit="10" stroke-linecap="round" stroke-linejoin="round"/>
<path d="M11.1667 40.5V24.5" stroke="#214759" stroke-miterlimit="10" stroke-linecap="round" stroke-linejoin="round"/>
<path d="M21.8333 12.5H0.500031V13.8333C0.500031 19.725 5.27663 24.5 11.1667 24.5C17.0584 24.5 21.8333 19.725 21.8333 13.8333V12.5Z" stroke="#214759" stroke-miterlimit="10" stroke-linecap="round" stroke-linejoin="round"/>
<path d="M0.5 12.5H21.8333V0.500001H0.5V12.5Z" stroke="#214759" stroke-miterlimit="10" stroke-linecap="round" stroke-linejoin="round"/>
</svg>
