<svg width="41" height="41" viewBox="0 0 41 41" fill="none" xmlns="http://www.w3.org/2000/svg">
<path d="M9.70976 27.4106C10.4534 27.6433 10.9095 27.7688 10.9095 27.7688C10.9095 27.7688 11.3655 27.8943 12.1229 28.0747C17.2127 29.2872 22.0505 26.0078 23.3192 20.8023C24.3826 16.4391 25.1462 11.9958 25.8625 7.51007C26.1184 5.90738 25.1493 4.36855 23.6218 3.9482L11.4866 0.608759C9.95921 0.188442 8.36991 1.0231 7.81172 2.54253C6.24932 6.79548 4.75109 11.0368 3.55064 15.3623C2.11846 20.5228 4.71153 25.8471 9.70976 27.4106Z" stroke="#214759" stroke-linecap="round"/>
<path d="M15.7699 40.5003L0.500122 36.2984" stroke="#214759" stroke-linecap="round"/>
<path d="M8.13379 38.3993L10.9074 27.7685" stroke="#214759" stroke-linecap="round"/>
<path d="M3.94617 17.0909H23.5587" stroke="#214759" stroke-linecap="round"/>
<path d="M29.5138 0.608698C31.0411 0.18838 32.6305 1.02304 33.1885 2.54248C34.7511 6.79542 36.2494 11.0367 37.4498 15.3623C38.882 20.5228 36.2888 25.847 31.2908 27.4106C30.5469 27.6432 30.091 27.7687 30.091 27.7687C30.091 27.7687 29.6349 27.8942 28.8775 28.0747C27.8749 28.3135 26.882 28.3781 25.9242 28.2879" stroke="#214759" stroke-linecap="round"/>
<path d="M25.2303 40.5003L40.5002 36.2984" stroke="#214759" stroke-linecap="round"/>
<path d="M32.8648 38.3993L30.0913 27.7685" stroke="#214759" stroke-linecap="round"/>
<path d="M37.0539 15.0239L31.3702 15.024" stroke="#214759" stroke-linecap="round"/>
</svg>
