<svg width="41" height="40" viewBox="0 0 41 40" fill="none" xmlns="http://www.w3.org/2000/svg">
<path d="M8.53534 10.9743H13.2487L8.38214 18.3589H13.3647" stroke="#214759" stroke-miterlimit="10" stroke-linecap="round" stroke-linejoin="round"/>
<path d="M23.5705 14.6666C23.5705 16.7059 21.8986 18.3589 19.8361 18.3589C17.7736 18.3589 16.1017 16.7059 16.1017 14.6666C16.1017 12.6274 17.7736 10.9743 19.8361 10.9743C21.8986 10.9743 23.5705 12.6274 23.5705 14.6666Z" stroke="#214759" stroke-miterlimit="10" stroke-linecap="round" stroke-linejoin="round"/>
<path d="M34.5249 14.6666C34.5249 16.7059 32.8529 18.3589 30.7904 18.3589C28.728 18.3589 27.056 16.7059 27.056 14.6666C27.056 12.6274 28.728 10.9743 30.7904 10.9743C32.8529 10.9743 34.5249 12.6274 34.5249 14.6666Z" stroke="#214759" stroke-miterlimit="10" stroke-linecap="round" stroke-linejoin="round"/>
<path d="M8.05188 23.2821H32.9481" stroke="#214759" stroke-miterlimit="10" stroke-linecap="round" stroke-linejoin="round"/>
<path d="M8.05188 28.2051H32.9481" stroke="#214759" stroke-miterlimit="10" stroke-linecap="round" stroke-linejoin="round"/>
<path d="M0.5 4V7.69231C1.87494 7.69231 2.98963 8.79442 2.98963 10.1538C2.98963 11.5133 1.87494 12.6154 0.5 12.6154V17.5385C1.87494 17.5385 2.98963 18.6406 2.98963 20C2.98963 21.3594 1.87494 22.4615 0.5 22.4615V27.3846C1.87494 27.3846 2.98963 28.4867 2.98963 29.8462C2.98963 31.2056 1.87494 32.3077 0.5 32.3077V36H40.5V4H0.5Z" stroke="#214759" stroke-miterlimit="10" stroke-linecap="round" stroke-linejoin="round"/>
</svg>
